<svg width="62" height="36" viewBox="0 0 62 36" fill="none" xmlns="http://www.w3.org/2000/svg">
<path d="M8.4386 12.7047L10.7146 17.8118ZM1 14.7032L3.27599 19.8103ZM1 14.7032C1.9437 14.5921 2.88741 14.4811 3.83111 14.3701C4.62679 14.148 5.42245 13.926 6.21812 13.7039C6.95829 13.3709 7.69844 13.0378 8.4386 12.7047M3.27599 19.8103C4.21969 19.6992 5.16339 19.5882 6.10709 19.4772C6.90278 19.2551 7.69844 19.0331 8.49411 18.8111C9.23428 18.478 9.97442 18.1449 10.7146 17.8118" stroke="black" stroke-width="1.34239" stroke-linecap="round" stroke-linejoin="round"/>
<path d="M2.3429 17.2373C1.76025 15.9293 1.28869 14.8539 1.29498 14.8476C1.30128 14.8413 1.885 14.7684 2.59214 14.6855L3.87785 14.5348L5.11298 14.19L6.34812 13.8452L7.36122 13.3872C7.91842 13.1353 8.38175 12.9379 8.39085 12.9485C8.41168 12.9729 10.4909 17.6457 10.5028 17.6948C10.5085 17.7183 10.1574 17.8911 9.49843 18.189L8.48533 18.6469L7.29255 18.9813L6.09977 19.3157L4.83615 19.4652C4.14116 19.5475 3.53422 19.6149 3.4874 19.6151L3.40226 19.6155L2.3429 17.2373Z" fill="black" stroke="black" stroke-width="0.327647" stroke-linecap="round" stroke-linejoin="round"/>
<path d="M10.7508 17.8404L13.6929 24.0022M3.20117 19.9498L6.03228 25.9452M6.06004 25.9174C6.84646 25.8434 7.63288 25.7694 8.41929 25.6953C9.14097 25.5288 9.86261 25.3623 10.5843 25.1957C11.1486 25.0014 11.713 24.8072 12.2774 24.6129C12.7122 24.4278 13.1471 24.2428 13.5819 24.0577M3.25668 19.8943C3.98759 19.8481 4.7185 19.8018 5.44941 19.7555C6.11556 19.5798 6.78169 19.404 7.44784 19.2282C7.9382 19.0709 8.42855 18.9136 8.9189 18.7563C9.51104 18.4418 10.1032 18.1272 10.6953 17.8126" stroke="white" stroke-width="1.34239" stroke-linecap="round" stroke-linejoin="round"/>
<path d="M4.83504 22.9324C4.10298 21.3823 3.5005 20.0984 3.4962 20.0794C3.49026 20.053 3.73337 20.0294 4.50904 19.981L5.52969 19.9173L6.61243 19.6288C7.20794 19.4701 7.99764 19.2417 8.36732 19.1212C9.02682 18.9063 9.05495 18.894 9.86288 18.4656C10.4969 18.1295 10.6917 18.0376 10.7097 18.0663C10.7503 18.1312 13.4787 23.8517 13.4876 23.8908C13.5013 23.9506 12.3473 24.4287 11.4195 24.7476C10.6907 24.9981 10.4634 25.0619 9.51817 25.281L8.44458 25.5298L7.43149 25.6252C6.87429 25.6777 6.36162 25.7274 6.29223 25.7357L6.16607 25.7509L4.83504 22.9324Z" fill="white" stroke="white" stroke-width="0.327647" stroke-linecap="round" stroke-linejoin="round"/>
<path d="M13.7136 23.934L16.7112 29.3026M6.02148 25.7719L8.90602 30.9954M8.9343 30.9712C9.73556 30.9067 10.5368 30.8422 11.3381 30.7777C12.0734 30.6326 12.8086 30.4875 13.5439 30.3424C14.1189 30.1731 14.694 30.0039 15.269 29.8346C15.712 29.6734 16.1551 29.5121 16.5981 29.3509M6.07804 25.7235C6.82275 25.6832 7.56745 25.6429 8.31215 25.6026C8.99088 25.4494 9.66958 25.2963 10.3483 25.1431C10.8479 25.0061 11.3475 24.869 11.8471 24.732C12.4504 24.4579 13.0537 24.1839 13.657 23.9098" stroke="black" stroke-width="1.26477" stroke-linecap="round" stroke-linejoin="round"/>
<path d="M7.67939 28.3732C6.93311 27.0219 6.31893 25.9027 6.31456 25.8862C6.30852 25.8633 6.55632 25.8429 7.34409 25.8015L8.38158 25.747L9.40233 25.5162C9.96375 25.3893 10.773 25.1892 11.2008 25.0715L11.9785 24.8574L12.8082 24.479C13.2645 24.2708 13.6436 24.1055 13.6507 24.1115C13.6705 24.1284 16.4864 29.1743 16.4953 29.2089C16.5085 29.2598 15.3033 29.6836 14.354 29.9618C13.5769 30.1897 13.3569 30.2425 12.4168 30.4276L11.3563 30.6363L10.3241 30.7193C9.75639 30.7649 9.23438 30.8085 9.16408 30.8162L9.03627 30.8301L7.67939 28.3732Z" fill="black" stroke="black" stroke-width="0.308702" stroke-linecap="round" stroke-linejoin="round"/>
<path d="M13.9843 6.16431L16.4823 11.5212ZM11.0976 18.0162L8.59961 12.6592ZM11.0976 18.0162C11.5787 17.5628 12.0599 17.1095 12.541 16.6561C12.874 16.249 13.2071 15.8419 13.5402 15.4348C13.8085 14.9907 14.0768 14.5466 14.3451 14.1025C14.6319 13.714 14.9187 13.3254 15.2055 12.9368C15.6311 12.4649 16.0567 11.9931 16.4823 11.5212M8.59961 12.6592C9.08071 12.2059 9.56182 11.7525 10.0429 11.2992C10.376 10.8921 10.7091 10.485 11.0421 10.0779C11.3104 9.63381 11.5787 9.18972 11.8471 8.74562C12.1339 8.35703 12.4207 7.96845 12.7075 7.57987C13.1331 7.108 13.5587 6.63616 13.9843 6.16431" stroke="white" stroke-width="1.34239" stroke-linecap="round" stroke-linejoin="round"/>
<path d="M9.95679 15.2381C9.31563 13.8632 8.78753 12.7296 8.78325 12.7188C8.77895 12.7081 9.07873 12.4138 9.44939 12.0649C10.0309 11.5177 10.1943 11.3442 10.6403 10.8008C11.0985 10.2426 11.2019 10.0965 11.5509 9.51551C12.0747 8.6433 12.6717 7.83864 13.3644 7.07112C13.658 6.74589 13.9054 6.484 13.9144 6.48915C13.9437 6.50605 16.2482 11.4692 16.2388 11.4953C16.2338 11.5093 15.9523 11.8308 15.6133 12.2097C14.8489 13.064 14.3241 13.7691 13.7833 14.6681C13.439 15.2406 13.323 15.4052 12.9028 15.9182C12.4339 16.4905 12.3385 16.5887 11.2613 17.6066L11.1225 17.7377L9.95679 15.2381Z" fill="white" stroke="white" stroke-width="0.327646" stroke-linecap="round" stroke-linejoin="round"/>
<path d="M19.1487 16.6134L22.037 22.9177ZM13.6777 23.1698L16.5661 29.4741ZM13.6777 23.1698C14.1666 22.7122 14.6554 22.2545 15.1442 21.7969C15.4826 21.386 15.821 20.975 16.1594 20.5641C16.432 20.1158 16.7046 19.6675 16.9772 19.2192C17.2687 18.8269 17.5601 18.4346 17.8515 18.0424C18.2839 17.566 18.7163 17.0897 19.1487 16.6134M16.5661 29.4741C17.0549 29.0164 17.5437 28.5588 18.0325 28.1012C18.3709 27.6902 18.7093 27.2793 19.0477 26.8683C19.3204 26.42 19.593 25.9717 19.8656 25.5234C20.157 25.1312 20.4484 24.7389 20.7398 24.3466C21.1722 23.8703 21.6046 23.394 22.037 22.9177" stroke="white" stroke-width="1.3595" stroke-linecap="round" stroke-linejoin="round"/>
<path d="M15.2294 26.2307C14.4899 24.6164 13.8771 23.2758 13.8677 23.2516C13.8555 23.2199 14.045 23.0255 14.5365 22.5651C15.1239 22.015 15.2965 21.833 15.7388 21.2975C16.1922 20.7486 16.3058 20.5894 16.6681 19.9946C17.2179 19.0921 17.8048 18.3058 18.5061 17.5324C18.8086 17.1988 19.0638 16.9343 19.0732 16.9446C19.0826 16.955 19.621 18.1234 20.2695 19.5411C20.918 20.9589 21.5278 22.2913 21.6245 22.5019L21.8004 22.885L21.1951 23.5526C20.4318 24.3947 19.8277 25.1989 19.2731 26.1116C18.9301 26.6762 18.8025 26.8559 18.3779 27.3724C17.9624 27.878 17.7806 28.0706 17.2469 28.5702C16.8971 28.8977 16.6026 29.1656 16.5925 29.1656C16.5824 29.1656 15.969 27.8449 15.2294 26.2307Z" fill="white" stroke="white" stroke-width="0.331822" stroke-linecap="round" stroke-linejoin="round"/>
<path d="M16.4511 11.3193L19.2938 17.2314ZM11.0664 17.8143L13.9092 23.7263ZM11.0664 17.8143C11.5475 17.3609 12.0286 16.9076 12.5097 16.4542C12.8428 16.0471 13.1759 15.64 13.5089 15.2329C13.7772 14.7888 14.0455 14.3448 14.3139 13.9007C14.6007 13.5121 14.8875 13.1235 15.1743 12.7349C15.5999 12.263 16.0255 11.7912 16.4511 11.3193M13.9092 23.7263C14.3903 23.273 14.8714 22.8196 15.3525 22.3663C15.6856 21.9592 16.0186 21.5521 16.3517 21.145C16.62 20.7009 16.8883 20.2568 17.1566 19.8127C17.4434 19.4241 17.7302 19.0355 18.017 18.6469C18.4426 18.1751 18.8682 17.7032 19.2938 17.2314" stroke="black" stroke-width="1.34239" stroke-linecap="round" stroke-linejoin="round"/>
<path d="M12.591 20.6864C11.8617 19.1687 11.2584 17.9096 11.2503 17.8884C11.2409 17.8639 11.4842 17.6146 11.9181 17.2043C12.5055 16.6487 12.6712 16.4725 13.1062 15.9401C13.5467 15.4009 13.6616 15.2383 14.0002 14.6747C14.5212 13.8076 15.1132 13.0097 15.8119 12.2327C16.1121 11.899 16.3661 11.635 16.3764 11.6462C16.4284 11.7026 19.0408 17.1838 19.0293 17.2123C19.0219 17.2305 18.7515 17.539 18.4283 17.8978C17.6904 18.717 17.1287 19.4711 16.5779 20.382C16.2239 20.9674 16.114 21.1224 15.6706 21.6615C15.1854 22.2513 14.9941 22.4468 14.0002 23.3686L13.917 23.4458L12.591 20.6864Z" fill="black" stroke="black" stroke-width="0.327646" stroke-linecap="round" stroke-linejoin="round"/>
<path d="M16.4863 11.164L19.4144 17.1362ZM23.4286 8.27405L26.1716 14.348ZM19.4144 17.1362C19.9265 16.7698 20.4387 16.4034 20.9508 16.037C21.4681 15.7957 21.9854 15.5544 22.5026 15.3132C22.8362 15.1791 23.1698 15.0451 23.5035 14.911C23.9529 14.7948 24.4024 14.6787 24.8518 14.5625C25.2917 14.491 25.7317 14.4195 26.1716 14.348M16.4863 11.164C17.0125 10.7842 17.5387 10.4045 18.0649 10.0247C18.5963 9.77459 19.1277 9.5245 19.6592 9.27442C20.0019 9.13547 20.3447 8.99654 20.6874 8.8576C21.1492 8.73718 21.6109 8.61677 22.0727 8.49635C22.5247 8.42225 22.9767 8.34815 23.4286 8.27405" stroke="white" stroke-width="1.34239" stroke-linecap="round" stroke-linejoin="round"/>
<path d="M19.2567 16.4826C19.015 15.9828 16.9071 11.6862 16.7721 11.4185L16.6719 11.2195L17.4004 10.6947L18.1289 10.1698L18.9609 9.77829C20.1603 9.21385 20.6203 9.03833 21.4721 8.81998C22.1909 8.63572 23.2612 8.44108 23.3065 8.48638C23.3197 8.4995 23.91 9.79342 24.6184 11.3617C25.811 14.002 25.9021 14.2143 25.8473 14.2266C25.8147 14.234 25.5571 14.2782 25.2746 14.3249C24.9922 14.3715 24.4676 14.4853 24.1089 14.5776C23.3345 14.7769 22.7697 14.9937 21.606 15.5379C20.84 15.8962 20.8359 15.8986 20.1765 16.3684C19.8128 16.6276 19.5002 16.8485 19.4818 16.8593C19.459 16.8727 19.387 16.7522 19.2567 16.4826Z" fill="white" stroke="white" stroke-width="0.327647" stroke-linecap="round" stroke-linejoin="round"/>
<path d="M19.2637 17.2323L22.1917 23.2045ZM26.206 14.3424L28.9489 20.4164ZM22.1917 23.2045C22.7039 22.8381 23.216 22.4717 23.7282 22.1054C24.2454 21.8641 24.7627 21.6228 25.28 21.3815C25.6136 21.2475 25.9472 21.1134 26.2808 20.9794C26.7303 20.8632 27.1797 20.747 27.6292 20.6309C28.0691 20.5594 28.509 20.4879 28.9489 20.4164M19.2637 17.2323C19.7899 16.8526 20.316 16.4728 20.8422 16.093C21.3737 15.843 21.9051 15.5929 22.4365 15.3428C22.7793 15.2038 23.122 15.0649 23.4648 14.926C23.9265 14.8055 24.3883 14.6851 24.8501 14.5647C25.302 14.4906 25.754 14.4165 26.206 14.3424" stroke="black" stroke-width="1.34239" stroke-linecap="round" stroke-linejoin="round"/>
<path d="M20.8319 20.1289C20.0727 18.5795 19.4523 17.3023 19.4531 17.2908C19.454 17.2793 19.7756 17.0395 20.1678 16.7579L20.881 16.2458L21.6937 15.8623C22.8678 15.3082 23.3559 15.1196 24.1701 14.9057C24.7599 14.7508 26.0364 14.5051 26.0706 14.54C26.0882 14.5579 28.6353 20.2112 28.6441 20.2518C28.6508 20.2829 28.521 20.3138 28.0421 20.3952C27.7048 20.4525 27.1519 20.5726 26.8069 20.6634C26.0708 20.8572 25.5622 21.0543 24.3906 21.5993L23.5979 21.9681L22.9145 22.4571C22.5386 22.726 22.2268 22.946 22.2216 22.946C22.2164 22.946 21.5911 21.6783 20.8319 20.1289Z" fill="black" stroke="black" stroke-width="0.327647" stroke-linecap="round" stroke-linejoin="round"/>
<path d="M21.127 3.23553L23.4541 8.28715ZM14.0215 6.12217L16.3485 11.1738ZM16.3485 11.1738C16.8871 10.7945 17.4256 10.4151 17.9642 10.0358C18.5081 9.78598 19.052 9.53618 19.596 9.28637C19.9468 9.14759 20.2976 9.00881 20.6484 8.87003C21.121 8.74975 21.5936 8.62948 22.0663 8.5092C22.5289 8.43518 22.9914 8.36117 23.4541 8.28715M14.0215 6.12217C14.56 5.74284 15.0986 5.36351 15.6372 4.98417C16.1811 4.73436 16.725 4.48456 17.2689 4.23475C17.6197 4.09597 17.9705 3.95719 18.3214 3.81841C18.794 3.69813 19.2666 3.57786 19.7392 3.45758C20.2018 3.38357 20.6644 3.30955 21.127 3.23553" stroke="black" stroke-width="1.34239" stroke-linecap="round" stroke-linejoin="round"/>
<path d="M16.3449 10.7693C16.308 10.689 15.8191 9.6273 15.2584 8.41001C14.6977 7.19272 14.2457 6.18579 14.254 6.17238C14.2623 6.15897 14.5972 5.91698 14.9983 5.63463L15.7275 5.12126L16.5186 4.75946C17.8121 4.16786 18.2521 4.002 19.0812 3.79359C19.6884 3.64095 20.9992 3.39277 21.0277 3.42504C21.046 3.44564 23.2069 8.14914 23.2006 8.15456C23.1969 8.15777 22.9378 8.20048 22.6249 8.24949C22.2662 8.30565 21.7789 8.40929 21.3065 8.52989C20.4338 8.75266 19.9893 8.92038 18.6861 9.51851L17.8699 9.89315L17.1734 10.3843C16.7904 10.6544 16.4623 10.8844 16.4444 10.8953C16.4234 10.9083 16.3883 10.8638 16.3449 10.7693Z" fill="black" stroke="black" stroke-width="0.327647" stroke-linecap="round" stroke-linejoin="round"/>
<path d="M21.5621 1.21259L20.978 1.47914C20.7906 1.56465 20.708 1.78588 20.7935 1.97327L35.7418 34.7317C35.8273 34.9191 36.0486 35.0017 36.2359 34.9162L36.8201 34.6496C37.0075 34.5641 37.0901 34.3429 37.0045 34.1555L22.0562 1.39706C21.9707 1.20967 21.7495 1.12708 21.5621 1.21259Z" fill="black" stroke="black" stroke-width="1.34239" stroke-linecap="round" stroke-linejoin="round"/>
<path d="M53.5614 12.6494L51.2854 17.7565ZM61 14.6479L58.724 19.755ZM61 14.6479C60.0563 14.5368 59.1126 14.4258 58.1689 14.3148C57.3732 14.0927 56.5776 13.8707 55.7819 13.6486C55.0417 13.3156 54.3016 12.9825 53.5614 12.6494M58.724 19.755C57.7803 19.6439 56.8366 19.5329 55.8929 19.4219C55.0972 19.1999 54.3016 18.9778 53.5059 18.7558C52.7657 18.4227 52.0256 18.0896 51.2854 17.7565" stroke="black" stroke-width="1.34239" stroke-linecap="round" stroke-linejoin="round"/>
<path d="M59.6591 17.1842C60.2417 15.8762 60.7133 14.8008 60.707 14.7945C60.7007 14.7882 60.117 14.7153 59.4098 14.6324L58.1241 14.4817L56.889 14.1369L55.6538 13.7921L54.6407 13.3341C54.0835 13.0822 53.6202 12.8848 53.6111 12.8954C53.5903 12.9198 51.5111 17.5926 51.4992 17.6417C51.4935 17.6652 51.8446 17.838 52.5035 18.1358L53.5166 18.5938L54.7094 18.9282L55.9022 19.2626L57.1658 19.4121C57.8608 19.4944 58.4677 19.5618 58.5146 19.562L58.5997 19.5624L59.6591 17.1842Z" fill="black" stroke="black" stroke-width="0.327647" stroke-linecap="round" stroke-linejoin="round"/>
<path d="M51.2648 17.7834L48.3227 23.9452M58.8145 19.8928L55.9833 25.8882M55.9556 25.8604C55.1692 25.7864 54.3827 25.7124 53.5963 25.6383C52.8747 25.4718 52.153 25.3053 51.4314 25.1387C50.867 24.9444 50.3026 24.7501 49.7383 24.5559C49.3034 24.3708 48.8686 24.1858 48.4337 24.0007M58.7589 19.8373C58.028 19.7911 57.2971 19.7448 56.5662 19.6985C55.9001 19.5228 55.2339 19.347 54.5678 19.1712C54.0774 19.0139 53.5871 18.8566 53.0967 18.6993C52.5046 18.3847 51.9125 18.0702 51.3203 17.7556" stroke="white" stroke-width="1.34239" stroke-linecap="round" stroke-linejoin="round"/>
<path d="M57.1825 22.8762C57.9146 21.326 58.5171 20.0421 58.5214 20.0231C58.5273 19.9968 58.2842 19.9731 57.5085 19.9247L56.4879 19.861L55.4051 19.5725C54.8096 19.4139 54.0199 19.1855 53.6503 19.065C52.9908 18.85 52.9626 18.8377 52.1547 18.4093C51.5207 18.0732 51.3259 17.9813 51.3079 18.0101C51.2673 18.075 48.5389 23.7954 48.5299 23.8345C48.5163 23.8943 49.6702 24.3724 50.5981 24.6913C51.3268 24.9418 51.5542 25.0056 52.4994 25.2247L53.573 25.4735L54.5861 25.5689C55.1433 25.6214 55.656 25.6711 55.7253 25.6795L55.8515 25.6946L57.1825 22.8762Z" fill="white" stroke="white" stroke-width="0.327647" stroke-linecap="round" stroke-linejoin="round"/>
<path d="M48.3099 23.8781L45.3122 29.2467M56.002 25.716L53.1174 30.9395M53.0891 30.9153C52.2879 30.8508 51.4866 30.7863 50.6854 30.7218C49.9501 30.5767 49.2148 30.4316 48.4795 30.2865C47.9045 30.1172 47.3295 29.9479 46.7545 29.7787C46.3114 29.6174 45.8684 29.4562 45.4253 29.295M55.9454 25.6676C55.2007 25.6273 54.456 25.587 53.7113 25.5467C53.0326 25.3935 52.3539 25.2404 51.6751 25.0872C51.1755 24.9502 50.6759 24.8131 50.1763 24.6761C49.573 24.402 48.9697 24.128 48.3664 23.8539" stroke="black" stroke-width="1.26477" stroke-linecap="round" stroke-linejoin="round"/>
<path d="M54.3421 28.3173C55.0884 26.966 55.7025 25.8468 55.7069 25.8303C55.713 25.8074 55.4652 25.787 54.6774 25.7456L53.6399 25.6911L52.6192 25.4603C52.0577 25.3334 51.2484 25.1333 50.8207 25.0155L50.043 24.8015L49.2133 24.4231C48.757 24.2149 48.3779 24.0496 48.3708 24.0556C48.351 24.0725 45.5351 29.1184 45.5262 29.153C45.513 29.2039 46.7182 29.6277 47.6675 29.9059C48.4446 30.1337 48.6646 30.1866 49.6047 30.3717L50.6652 30.5804L51.6974 30.6634C52.2651 30.709 52.7871 30.7526 52.8574 30.7603L52.9852 30.7742L54.3421 28.3173Z" fill="black" stroke="black" stroke-width="0.308702" stroke-linecap="round" stroke-linejoin="round"/>
<path d="M48.0275 6.10681L45.5294 11.4637ZM50.9141 17.9587L53.4121 12.6017ZM50.9141 17.9587C50.433 17.5053 49.9519 17.052 49.4708 16.5986C49.1377 16.1915 48.8046 15.7844 48.4715 15.3773C48.2032 14.9332 47.9349 14.4892 47.6666 14.0451C47.3798 13.6565 47.093 13.2679 46.8062 12.8793C46.3806 12.4074 45.955 11.9356 45.5294 11.4637M53.4121 12.6017C52.931 12.1484 52.4499 11.695 51.9688 11.2417C51.6357 10.8346 51.3027 10.4275 50.9696 10.0204C50.7013 9.57631 50.433 9.13223 50.1647 8.68813C49.8778 8.29954 49.591 7.91096 49.3042 7.52237C48.8786 7.05051 48.453 6.57867 48.0275 6.10681" stroke="white" stroke-width="1.34239" stroke-linecap="round" stroke-linejoin="round"/>
<path d="M52.0608 15.1821C52.7019 13.8073 53.23 12.6737 53.2343 12.6629C53.2386 12.6521 52.9388 12.3579 52.5682 12.009C51.9867 11.4617 51.8233 11.2883 51.3773 10.7449C50.9191 10.1867 50.8156 10.0406 50.4667 9.4596C49.9428 8.58739 49.3458 7.78273 48.6531 7.01521C48.3596 6.68998 48.1121 6.42809 48.1032 6.43324C48.0738 6.45015 45.7694 11.4133 45.7788 11.4394C45.7838 11.4534 46.0653 11.7749 46.4043 12.1538C47.1686 13.0081 47.6935 13.7132 48.2343 14.6122C48.5786 15.1847 48.6945 15.3493 49.1148 15.8622C49.5836 16.4346 49.6791 16.5328 50.7563 17.5507L50.895 17.6818L52.0608 15.1821Z" fill="white" stroke="white" stroke-width="0.327646" stroke-linecap="round" stroke-linejoin="round"/>
<path d="M42.8493 16.5573L39.961 22.8615ZM48.3203 23.1137L45.432 29.4179ZM48.3203 23.1137C47.8315 22.656 47.3427 22.1984 46.8539 21.7408C46.5154 21.3298 46.177 20.9189 45.8386 20.5079C45.566 20.0596 45.2934 19.6113 45.0208 19.163C44.7294 18.7707 44.438 18.3785 44.1466 17.9862C43.7142 17.5099 43.2818 17.0336 42.8493 16.5573M45.432 29.4179C44.9432 28.9603 44.4544 28.5027 43.9655 28.045C43.6271 27.6341 43.2887 27.2231 42.9503 26.8122C42.6777 26.3639 42.4051 25.9156 42.1325 25.4673C41.8411 25.075 41.5497 24.6827 41.2583 24.2905C40.8258 23.8141 40.3934 23.3378 39.961 22.8615" stroke="white" stroke-width="1.3595" stroke-linecap="round" stroke-linejoin="round"/>
<path d="M46.7686 26.1749C47.5082 24.5606 48.1209 23.22 48.1303 23.1958C48.1425 23.1642 47.953 22.9697 47.4615 22.5093C46.8742 21.9592 46.7015 21.7772 46.2592 21.2417C45.8058 20.6928 45.6923 20.5336 45.3299 19.9388C44.7802 19.0363 44.1932 18.25 43.4919 17.4766C43.1895 17.143 42.9343 16.8785 42.9248 16.8888C42.9154 16.8992 42.3771 18.0676 41.7285 19.4854C41.08 20.9031 40.4703 22.2355 40.3735 22.4461L40.1976 22.8292L40.8029 23.4969C41.5662 24.3389 42.1703 25.1432 42.7249 26.0558C43.068 26.6204 43.1956 26.8001 43.6201 27.3167C44.0356 27.8222 44.2174 28.0148 44.7512 28.5145C45.1009 28.8419 45.3954 29.1099 45.4055 29.1099C45.4157 29.1099 46.029 27.7891 46.7686 26.1749Z" fill="white" stroke="white" stroke-width="0.331822" stroke-linecap="round" stroke-linejoin="round"/>
<path d="M45.5704 11.2631L42.7277 17.1751ZM50.9551 17.758L48.1123 23.67ZM50.9551 17.758C50.474 17.3046 49.9929 16.8513 49.5118 16.3979C49.1787 15.9908 48.8456 15.5838 48.5126 15.1767C48.2442 14.7326 47.9759 14.2885 47.7076 13.8444C47.4208 13.4558 47.134 13.0672 46.8472 12.6786C46.4216 12.2068 45.996 11.7349 45.5704 11.2631M48.1123 23.67C47.6312 23.2167 47.1501 22.7633 46.669 22.31C46.3359 21.9029 46.0029 21.4958 45.6698 21.0887C45.4015 20.6446 45.1332 20.2005 44.8649 19.7564C44.578 19.3678 44.2912 18.9793 44.0044 18.5907C43.5788 18.1188 43.1532 17.647 42.7277 17.1751" stroke="black" stroke-width="1.34239" stroke-linecap="round" stroke-linejoin="round"/>
<path d="M49.4285 20.6301C50.1578 19.1124 50.7611 17.8533 50.7693 17.8321C50.7787 17.8076 50.5353 17.5583 50.1014 17.148C49.514 16.5925 49.3484 16.4162 48.9134 15.8838C48.4728 15.3447 48.358 15.1821 48.0193 14.6184C47.4984 13.7513 46.9064 12.9534 46.2076 12.1765C45.9074 11.8427 45.6534 11.5788 45.6431 11.5899C45.5911 11.6463 42.9787 17.1275 42.9902 17.156C42.9976 17.1743 43.2681 17.4828 43.5912 17.8415C44.3291 18.6607 44.8908 19.4148 45.4416 20.3257C45.7956 20.9111 45.9055 21.0661 46.349 21.6052C46.8341 22.195 47.0254 22.3905 48.0193 23.3123L48.1026 23.3896L49.4285 20.6301Z" fill="black" stroke="black" stroke-width="0.327646" stroke-linecap="round" stroke-linejoin="round"/>
<path d="M45.5195 11.1092L42.5915 17.0813ZM38.5772 8.21924L35.8343 14.2932ZM42.5915 17.0813C42.0793 16.715 41.5672 16.3486 41.055 15.9822C40.5378 15.7409 40.0205 15.4996 39.5032 15.2583C39.1696 15.1243 38.836 14.9903 38.5024 14.8562C38.0529 14.74 37.6035 14.6239 37.154 14.5077C36.7141 14.4362 36.2742 14.3647 35.8343 14.2932M45.5195 11.1092C44.9933 10.7294 44.4672 10.3496 43.941 9.96988C43.4095 9.71978 42.8781 9.46969 42.3467 9.21961C42.0039 9.08066 41.6612 8.94173 41.3184 8.80279C40.8567 8.68237 40.3949 8.56196 39.9332 8.44154C39.4812 8.36744 39.0292 8.29334 38.5772 8.21924" stroke="white" stroke-width="1.34239" stroke-linecap="round" stroke-linejoin="round"/>
<path d="M42.7472 16.4279C42.9889 15.9281 45.0968 11.6315 45.2318 11.3638L45.332 11.1649L44.6035 10.64L43.875 10.1151L43.043 9.7236C41.8436 9.15916 41.3837 8.98364 40.5318 8.7653C39.813 8.58104 38.7427 8.38639 38.6974 8.43169C38.6842 8.44481 38.0939 9.73873 37.3855 11.3071C36.1929 13.9474 36.1018 14.1596 36.1566 14.172C36.1892 14.1793 36.4469 14.2235 36.7293 14.2702C37.0117 14.3168 37.5363 14.4306 37.895 14.5229C38.6694 14.7223 39.2342 14.939 40.3979 15.4833C41.1639 15.8415 41.168 15.8439 41.8274 16.3137C42.1911 16.5729 42.5037 16.7938 42.5221 16.8046C42.5449 16.818 42.6169 16.6975 42.7472 16.4279Z" fill="white" stroke="white" stroke-width="0.327647" stroke-linecap="round" stroke-linejoin="round"/>
<path d="M42.7441 17.1755L39.8161 23.1476ZM35.8018 14.2855L33.0589 20.3595ZM39.8161 23.1476C39.3039 22.7812 38.7918 22.4149 38.2796 22.0485C37.7624 21.8072 37.2451 21.5659 36.7278 21.3246C36.3942 21.1906 36.0606 21.0565 35.727 20.9225C35.2775 20.8063 34.8281 20.6901 34.3787 20.574C33.9387 20.5025 33.4988 20.431 33.0589 20.3595M42.7441 17.1755C42.218 16.7957 41.6918 16.4159 41.1656 16.0362C40.6341 15.7861 40.1027 15.536 39.5713 15.2859C39.2285 15.1469 38.8858 15.008 38.543 14.8691C38.0813 14.7487 37.6195 14.6282 37.1578 14.5078C36.7058 14.4337 36.2538 14.3596 35.8018 14.2855" stroke="black" stroke-width="1.34239" stroke-linecap="round" stroke-linejoin="round"/>
<path d="M41.1759 20.072C41.9351 18.5226 42.5555 17.2455 42.5547 17.2339C42.5538 17.2224 42.2322 16.9826 41.84 16.701L41.1268 16.1889L40.3141 15.8054C39.14 15.2513 38.6519 15.0627 37.8377 14.8488C37.2479 14.6939 35.9714 14.4482 35.9372 14.4831C35.9197 14.501 33.3725 20.1543 33.3637 20.1949C33.357 20.226 33.4868 20.2569 33.9658 20.3383C34.3031 20.3956 34.8559 20.5157 35.2009 20.6065C35.937 20.8004 36.4456 20.9974 37.6173 21.5424L38.4099 21.9112L39.0933 22.4002C39.4692 22.6691 39.781 22.8891 39.7862 22.8891C39.7914 22.8891 40.4167 21.6214 41.1759 20.072Z" fill="black" stroke="black" stroke-width="0.327647" stroke-linecap="round" stroke-linejoin="round"/>
<path d="M40.8652 3.17932L38.5381 8.23094ZM47.9707 6.06596L45.6437 11.1176ZM45.6437 11.1176C45.1051 10.7382 44.5665 10.3589 44.028 9.97957C43.4841 9.72976 42.9401 9.47996 42.3962 9.23016C42.0454 9.09138 41.6946 8.9526 41.3438 8.81381C40.8712 8.69354 40.3986 8.57326 39.9259 8.45299C39.4633 8.37897 39.0007 8.30495 38.5381 8.23094M47.9707 6.06596C47.4321 5.68663 46.8936 5.30729 46.355 4.92796C45.8111 4.67815 45.2672 4.42835 44.7233 4.17854C44.3724 4.03976 44.0216 3.90098 43.6708 3.7622C43.1982 3.64192 42.7256 3.52165 42.253 3.40137C41.7904 3.32735 41.3278 3.25334 40.8652 3.17932" stroke="black" stroke-width="1.34239" stroke-linecap="round" stroke-linejoin="round"/>
<path d="M45.6473 10.7148C45.6842 10.6345 46.1731 9.57279 46.7338 8.35551C47.2945 7.13822 47.7465 6.13128 47.7382 6.11788C47.7299 6.10447 47.3949 5.86248 46.9939 5.58012L46.2646 5.06675L45.4736 4.70495C44.1801 4.11335 43.7401 3.94749 42.911 3.73908C42.3038 3.58645 40.993 3.33827 40.9645 3.37054C40.9462 3.39114 38.7853 8.09463 38.7916 8.10006C38.7953 8.10327 39.0543 8.14598 39.3673 8.19498C39.726 8.25115 40.2133 8.35479 40.6857 8.47538C41.5584 8.69815 42.0029 8.86587 43.3061 9.46401L44.1223 9.83864L44.8188 10.3298C45.2018 10.5999 45.5299 10.8299 45.5478 10.8408C45.5688 10.8538 45.6039 10.8093 45.6473 10.7148Z" fill="black" stroke="black" stroke-width="0.327647" stroke-linecap="round" stroke-linejoin="round"/>
<path d="M40.4711 1.15503L41.0552 1.42159C41.2426 1.5071 41.3252 1.72832 41.2397 1.91571L26.2914 34.6742C26.2059 34.8616 25.9846 34.9442 25.7973 34.8586L25.2131 34.5921C25.0257 34.5066 24.9431 34.2853 25.0287 34.098L39.977 1.3395C40.0625 1.15211 40.2837 1.06952 40.4711 1.15503Z" fill="black" stroke="black" stroke-width="1.34239" stroke-linecap="round" stroke-linejoin="round"/>
</svg>
