<svg width="27" height="27" viewBox="0 0 27 27" fill="none" xmlns="http://www.w3.org/2000/svg">
<path d="M2.57397 21.3776L1.91211 22.8222V22.8793H10.7706L10.8999 21.3776H2.57397Z" fill="#BD8100"/>
<path d="M0.687961 25.4991L0 27.0008H10.4176L10.5469 25.4991H0.687961Z" fill="#BD8100"/>
<path d="M1.62554 23.4382L0.9375 24.9399H10.5887L10.7181 23.4382H1.62554Z" fill="#BD8100"/>
<path d="M11.7401 21.3777L11.2559 27.0007H16.1623L15.678 21.3777H11.7401Z" fill="#BD8100"/>
<path d="M21.0918 5.03564H23.6191V20.4912H21.0918V5.03564Z" fill="#BD8100"/>
<path d="M16.5156 21.3776L16.6449 22.8793H25.0839V22.8222L24.4222 21.3776H16.5156Z" fill="#BD8100"/>
<path d="M16.8711 25.4993L17.0005 27.001H26.9986L26.3107 25.4993H16.8711Z" fill="#BD8100"/>
<path d="M16.6875 23.4385L16.8168 24.9402H26.0485L25.3605 23.4385H16.6875Z" fill="#BD8100"/>
<path d="M13.7717 0L3.94336 0.839876V4.47684H10.4979V3.09076H17.0607V4.47684H23.6153V0.841174L13.7717 0Z" fill="#BD8100"/>
<path d="M6.4707 5.0354H3.94336V20.491H6.4707V5.0354Z" fill="#BD8100"/>
<path d="M7.23649 18.9629H3.16992V20.4911H7.23649V18.9629Z" fill="#BD8100"/>
<path d="M24.3888 18.9631H20.3223V20.4913H24.3888V18.9631Z" fill="#BD8100"/>
</svg>
