<?xml version="1.0" encoding="UTF-8" standalone="no"?>
<!-- Created with Inkscape (http://www.inkscape.org/) -->

<svg
   width="100mm"
   height="100mm"
   viewBox="0 0 100 100"
   version="1.1"
   id="svg1"
   sodipodi:docname="occasions-icon.svg"
   inkscape:version="1.3.2 (091e20e, 2023-11-25, custom)"
   xmlns:inkscape="http://www.inkscape.org/namespaces/inkscape"
   xmlns:sodipodi="http://sodipodi.sourceforge.net/DTD/sodipodi-0.dtd"
   xmlns="http://www.w3.org/2000/svg"
   xmlns:svg="http://www.w3.org/2000/svg">
  <sodipodi:namedview
     id="namedview1"
     pagecolor="#ffffff"
     bordercolor="#111111"
     borderopacity="1"
     inkscape:showpageshadow="0"
     inkscape:pageopacity="0"
     inkscape:pagecheckerboard="1"
     inkscape:deskcolor="#d1d1d1"
     inkscape:document-units="mm"
     inkscape:zoom="0.72426347"
     inkscape:cx="396.26464"
     inkscape:cy="561.25984"
     inkscape:window-width="1920"
     inkscape:window-height="1009"
     inkscape:window-x="-8"
     inkscape:window-y="-8"
     inkscape:window-maximized="1"
     inkscape:current-layer="layer1" />
  <defs
     id="defs1" />
  <g
     inkscape:label="Laag 1"
     inkscape:groupmode="layer"
     id="layer1">
    <path
       sodipodi:type="star"
       style="fill:#000000;stroke:#2c5aa0;stroke-width:6e-08;stroke-linecap:round;stroke-linejoin:round;stroke-dasharray:none;stroke-dashoffset:26.4567;paint-order:stroke fill markers"
       id="path1"
       inkscape:flatsided="false"
       sodipodi:sides="5"
       sodipodi:cx="68.678963"
       sodipodi:cy="60.642067"
       sodipodi:r1="45.494385"
       sodipodi:r2="18.464815"
       sodipodi:arg1="0.97388527"
       sodipodi:arg2="1.6410182"
       inkscape:rounded="0.12"
       inkscape:randomized="0.043"
       d="M 92.951652,96.721748 C 89.554687,98.688656 69.721026,80.477265 65.787741,80.560219 61.995151,80.640206 44.827705,100.4228 41.882729,97.871269 38.828502,95.22508 50.368977,68.823006 49.128538,65.070673 47.932469,61.452563 24.018001,50.51445 25.589929,47.112213 c 1.630242,-3.528451 31.783758,-0.943516 35.22946,-3.063652 3.322448,-2.044297 5.474916,-28.044175 9.36956,-27.947476 4.039126,0.100287 8.369542,26.288294 11.58891,28.6529 3.104211,2.280023 28.549141,-1.880619 29.499351,1.861893 0.98546,3.88135 -24.113472,15.571158 -25.543814,19.186721 -1.379177,3.486234 10.49371,29.022598 7.218256,30.919149 z"
       inkscape:transform-center-x="0.044610029"
       inkscape:transform-center-y="-4.7008415"
       transform="matrix(1.0679171,-0.03753427,0.0367265,1.091405,-25.390066,-11.879438)" />
    <path
       sodipodi:type="star"
       style="fill:#000000;stroke:#2c5aa0;stroke-width:5.55625e-08;stroke-linecap:round;stroke-linejoin:round;stroke-dasharray:none;stroke-dashoffset:26.4567;paint-order:stroke fill markers"
       id="path2"
       inkscape:flatsided="false"
       sodipodi:sides="5"
       sodipodi:cx="184.11807"
       sodipodi:cy="31.782288"
       sodipodi:r1="1.8627414"
       sodipodi:r2="0.75603127"
       sodipodi:arg1="2.9441971"
       sodipodi:arg2="3.5725156"
       inkscape:rounded="0.12"
       inkscape:randomized="0.043"
       d="m 182.36139,32.143954 c -0.023,-0.156308 1.02601,-0.572 1.10118,-0.7144 0.0752,-0.142401 -0.33322,-1.198117 -0.19364,-1.268198 0.13958,-0.07008 0.7535,0.791621 0.91201,0.81411 0.15851,0.02249 1.11389,-0.737127 1.22969,-0.624219 0.1158,0.112908 -0.63828,1.142066 -0.604,1.296014 0.0343,0.153947 0.99616,0.712829 0.9384,0.862653 -0.0578,0.149823 -1.19601,-0.117719 -1.33333,-0.03447 -0.13731,0.08325 -0.33,1.15723 -0.49019,1.137751 -0.16019,-0.01948 -0.19429,-1.189938 -0.31304,-1.295875 -0.11875,-0.105936 -1.22412,-0.01706 -1.24708,-0.17337 z"
       inkscape:transform-center-x="0.062525383"
       inkscape:transform-center-y="0.1814885"
       transform="matrix(1.0685484,0,0,1.0920502,-126.65041,-6.1186216)" />
    <rect
       style="fill:#000000;stroke:#2c5aa0;stroke-width:6.00205e-08;stroke-linecap:round;stroke-linejoin:round;stroke-dasharray:none;stroke-dashoffset:26.4567;paint-order:stroke fill markers"
       id="rect2"
       width="7.0263958"
       height="7.1809354"
       x="80.237892"
       y="16.621002"
       rx="1.5482831"
       ry="2.223139" />
    <rect
       style="fill:#000000;stroke:#2c5aa0;stroke-width:6.00205e-08;stroke-linecap:round;stroke-linejoin:round;stroke-dasharray:none;stroke-dashoffset:26.4567;paint-order:stroke fill markers"
       id="rect4"
       width="7.0263958"
       height="7.1809354"
       x="2.5571892"
       y="47.738392"
       rx="1.5482831"
       ry="2.223139" />
    <rect
       style="fill:#000000;stroke:#2c5aa0;stroke-width:6.00205e-08;stroke-linecap:round;stroke-linejoin:round;stroke-dasharray:none;stroke-dashoffset:26.4567;paint-order:stroke fill markers"
       id="rect5"
       width="7.0263958"
       height="7.1809354"
       x="41.202366"
       y="88.829308"
       rx="1.5482831"
       ry="2.223139" />
    <rect
       style="fill:#000000;stroke:#2c5aa0;stroke-width:6.00205e-08;stroke-linecap:round;stroke-linejoin:round;stroke-dasharray:none;stroke-dashoffset:26.4567;paint-order:stroke fill markers"
       id="rect6"
       width="7.0263958"
       height="7.1809354"
       x="13.096782"
       y="77.260017"
       rx="1.5482831"
       ry="2.223139" />
    <rect
       style="fill:#000000;stroke:#2c5aa0;stroke-width:6.00205e-08;stroke-linecap:round;stroke-linejoin:round;stroke-dasharray:none;stroke-dashoffset:26.4567;paint-order:stroke fill markers"
       id="rect7"
       width="7.0263958"
       height="7.1809354"
       x="86.873932"
       y="72.472725"
       rx="1.5482831"
       ry="2.223139" />
    <rect
       style="fill:#000000;stroke:#2c5aa0;stroke-width:6.00205e-08;stroke-linecap:round;stroke-linejoin:round;stroke-dasharray:none;stroke-dashoffset:26.4567;paint-order:stroke fill markers"
       id="rect8"
       width="7.0263958"
       height="7.1809354"
       x="60.720135"
       y="1.4612545"
       rx="1.5482831"
       ry="2.223139" />
    <rect
       style="fill:#000000;stroke:#2c5aa0;stroke-width:6.00205e-08;stroke-linecap:round;stroke-linejoin:round;stroke-dasharray:none;stroke-dashoffset:26.4567;paint-order:stroke fill markers"
       id="rect9"
       width="7.0263958"
       height="7.1809354"
       x="25.197798"
       y="21.009356"
       rx="1.5482831"
       ry="2.223139" />
    <path
       style="fill:#000000;stroke:#2c5aa0;stroke-width:3.8195e-08;stroke-linecap:round;stroke-linejoin:round;stroke-dasharray:none;stroke-dashoffset:26.4567;paint-order:stroke fill markers"
       id="path9"
       sodipodi:type="arc"
       sodipodi:cx="14.267842"
       sodipodi:cy="24.20088"
       sodipodi:rx="2.7324872"
       sodipodi:ry="2.7925861"
       sodipodi:start="3.3104315"
       sodipodi:end="3.1431705"
       sodipodi:open="true"
       sodipodi:arc-type="arc"
       d="m 11.57421,23.73162 a 2.7324872,2.7925861 0 0 1 3.03979,-2.300827 2.7324872,2.7925861 0 0 1 2.376416,3.007751 2.7324872,2.7925861 0 0 1 -2.841108,2.552293 2.7324872,2.7925861 0 0 1 -2.61395,-2.794363" />
    <path
       style="fill:#000000;stroke:#2c5aa0;stroke-width:3.8195e-08;stroke-linecap:round;stroke-linejoin:round;stroke-dasharray:none;stroke-dashoffset:26.4567;paint-order:stroke fill markers"
       id="path10"
       sodipodi:type="arc"
       sodipodi:cx="79.847542"
       sodipodi:cy="70.876968"
       sodipodi:rx="2.7324872"
       sodipodi:ry="2.7925861"
       sodipodi:start="3.3104315"
       sodipodi:end="3.1431705"
       sodipodi:open="true"
       sodipodi:arc-type="arc"
       d="m 77.153909,70.407708 a 2.7324872,2.7925861 0 0 1 3.039791,-2.300827 2.7324872,2.7925861 0 0 1 2.376415,3.007751 2.7324872,2.7925861 0 0 1 -2.841107,2.552294 2.7324872,2.7925861 0 0 1 -2.61395,-2.794364" />
    <path
       style="fill:#000000;stroke:#2c5aa0;stroke-width:3.8195e-08;stroke-linecap:round;stroke-linejoin:round;stroke-dasharray:none;stroke-dashoffset:26.4567;paint-order:stroke fill markers"
       id="path11"
       sodipodi:type="arc"
       sodipodi:cx="6.0703874"
       sodipodi:cy="63.297081"
       sodipodi:rx="2.7324872"
       sodipodi:ry="2.7925861"
       sodipodi:start="3.3104315"
       sodipodi:end="3.1431705"
       sodipodi:open="true"
       sodipodi:arc-type="arc"
       d="M 3.3767546,62.827821 A 2.7324872,2.7925861 0 0 1 6.4165451,60.526994 2.7324872,2.7925861 0 0 1 8.792961,63.534745 2.7324872,2.7925861 0 0 1 5.9518535,66.087038 2.7324872,2.7925861 0 0 1 3.3379036,63.292675" />
    <path
       style="fill:#000000;stroke:#2c5aa0;stroke-width:3.8195e-08;stroke-linecap:round;stroke-linejoin:round;stroke-dasharray:none;stroke-dashoffset:26.4567;paint-order:stroke fill markers"
       id="path12"
       sodipodi:type="arc"
       sodipodi:cx="67.356171"
       sodipodi:cy="94.015533"
       sodipodi:rx="2.7324872"
       sodipodi:ry="2.7925861"
       sodipodi:start="3.3104315"
       sodipodi:end="3.1431705"
       sodipodi:open="true"
       sodipodi:arc-type="arc"
       d="m 64.662538,93.546273 a 2.7324872,2.7925861 0 0 1 3.03979,-2.300827 2.7324872,2.7925861 0 0 1 2.376416,3.007751 2.7324872,2.7925861 0 0 1 -2.841107,2.552294 2.7324872,2.7925861 0 0 1 -2.61395,-2.794364" />
    <path
       style="fill:#000000;stroke:#2c5aa0;stroke-width:3.8195e-08;stroke-linecap:round;stroke-linejoin:round;stroke-dasharray:none;stroke-dashoffset:26.4567;paint-order:stroke fill markers"
       id="path13"
       sodipodi:type="arc"
       sodipodi:cx="52.132313"
       sodipodi:cy="83.244125"
       sodipodi:rx="2.7324872"
       sodipodi:ry="2.7925861"
       sodipodi:start="3.3104315"
       sodipodi:end="3.1431705"
       sodipodi:open="true"
       sodipodi:arc-type="arc"
       d="m 49.43868,82.774865 a 2.7324872,2.7925861 0 0 1 3.03979,-2.300827 2.7324872,2.7925861 0 0 1 2.376416,3.007751 2.7324872,2.7925861 0 0 1 -2.841107,2.552294 2.7324872,2.7925861 0 0 1 -2.61395,-2.794364" />
    <path
       style="fill:#000000;stroke:#2c5aa0;stroke-width:3.8195e-08;stroke-linecap:round;stroke-linejoin:round;stroke-dasharray:none;stroke-dashoffset:26.4567;paint-order:stroke fill markers"
       id="path14"
       sodipodi:type="arc"
       sodipodi:cx="19.732822"
       sodipodi:cy="63.696018"
       sodipodi:rx="2.7324872"
       sodipodi:ry="2.7925861"
       sodipodi:start="3.3104315"
       sodipodi:end="3.1431705"
       sodipodi:open="true"
       sodipodi:arc-type="arc"
       d="m 17.03919,63.226758 a 2.7324872,2.7925861 0 0 1 3.03979,-2.300827 2.7324872,2.7925861 0 0 1 2.376416,3.007751 2.7324872,2.7925861 0 0 1 -2.841107,2.552294 2.7324872,2.7925861 0 0 1 -2.61395,-2.794364" />
    <path
       style="fill:#000000;stroke:#2c5aa0;stroke-width:3.8195e-08;stroke-linecap:round;stroke-linejoin:round;stroke-dasharray:none;stroke-dashoffset:26.4567;paint-order:stroke fill markers"
       id="path15"
       sodipodi:type="arc"
       sodipodi:cx="38.860226"
       sodipodi:cy="16.621008"
       sodipodi:rx="2.7324872"
       sodipodi:ry="2.7925861"
       sodipodi:start="3.3104315"
       sodipodi:end="3.1431705"
       sodipodi:open="true"
       sodipodi:arc-type="arc"
       d="m 36.166593,16.151748 a 2.7324872,2.7925861 0 0 1 3.03979,-2.300827 2.7324872,2.7925861 0 0 1 2.376416,3.007751 2.7324872,2.7925861 0 0 1 -2.841107,2.552293 2.7324872,2.7925861 0 0 1 -2.61395,-2.794363" />
    <path
       style="fill:#000000;stroke:#2c5aa0;stroke-width:3.8195e-08;stroke-linecap:round;stroke-linejoin:round;stroke-dasharray:none;stroke-dashoffset:26.4567;paint-order:stroke fill markers"
       id="path16"
       sodipodi:type="arc"
       sodipodi:cx="69.307945"
       sodipodi:cy="19.014648"
       sodipodi:rx="2.7324872"
       sodipodi:ry="2.7925861"
       sodipodi:start="3.3104315"
       sodipodi:end="3.1431705"
       sodipodi:open="true"
       sodipodi:arc-type="arc"
       d="m 66.614313,18.545388 a 2.7324872,2.7925861 0 0 1 3.03979,-2.300827 2.7324872,2.7925861 0 0 1 2.376416,3.007751 2.7324872,2.7925861 0 0 1 -2.841108,2.552294 2.7324872,2.7925861 0 0 1 -2.61395,-2.794364" />
    <path
       style="fill:#000000;stroke:#2c5aa0;stroke-width:3.8195e-08;stroke-linecap:round;stroke-linejoin:round;stroke-dasharray:none;stroke-dashoffset:26.4567;paint-order:stroke fill markers"
       id="path17"
       sodipodi:type="arc"
       sodipodi:cx="96.632812"
       sodipodi:cy="48.935211"
       sodipodi:rx="2.7324872"
       sodipodi:ry="2.7925861"
       sodipodi:start="3.3104315"
       sodipodi:end="3.1431705"
       sodipodi:open="true"
       sodipodi:arc-type="arc"
       d="m 93.93918,48.465951 a 2.7324872,2.7925861 0 0 1 3.03979,-2.300827 2.7324872,2.7925861 0 0 1 2.376416,3.007751 2.7324872,2.7925861 0 0 1 -2.841107,2.552294 2.7324872,2.7925861 0 0 1 -2.61395,-2.794364" />
    <path
       style="fill:#000000;stroke:#2c5aa0;stroke-width:3.8195e-08;stroke-linecap:round;stroke-linejoin:round;stroke-dasharray:none;stroke-dashoffset:26.4567;paint-order:stroke fill markers"
       id="path18"
       sodipodi:type="arc"
       sodipodi:cx="84.531799"
       sodipodi:cy="28.589228"
       sodipodi:rx="2.7324872"
       sodipodi:ry="2.7925861"
       sodipodi:start="3.3104315"
       sodipodi:end="3.1431705"
       sodipodi:open="true"
       sodipodi:arc-type="arc"
       d="m 81.838167,28.119968 a 2.7324872,2.7925861 0 0 1 3.03979,-2.300828 2.7324872,2.7925861 0 0 1 2.376416,3.007751 2.7324872,2.7925861 0 0 1 -2.841108,2.552294 2.7324872,2.7925861 0 0 1 -2.613949,-2.794364" />
    <path
       sodipodi:type="star"
       style="fill:#000000;stroke:#2c5aa0;stroke-width:5.55625e-08;stroke-linecap:round;stroke-linejoin:round;stroke-dasharray:none;stroke-dashoffset:26.4567;paint-order:stroke fill markers"
       id="path19"
       inkscape:flatsided="false"
       sodipodi:sides="5"
       sodipodi:cx="184.11807"
       sodipodi:cy="31.782288"
       sodipodi:r1="1.8627414"
       sodipodi:r2="0.75603127"
       sodipodi:arg1="2.9441971"
       sodipodi:arg2="3.5725156"
       inkscape:rounded="0.12"
       inkscape:randomized="0.043"
       d="m 182.36139,32.143954 c -0.023,-0.156308 1.02601,-0.572 1.10118,-0.7144 0.0752,-0.142401 -0.33322,-1.198117 -0.19364,-1.268198 0.13958,-0.07008 0.7535,0.791621 0.91201,0.81411 0.15851,0.02249 1.11389,-0.737127 1.22969,-0.624219 0.1158,0.112908 -0.63828,1.142066 -0.604,1.296014 0.0343,0.153947 0.99616,0.712829 0.9384,0.862653 -0.0578,0.149823 -1.19601,-0.117719 -1.33333,-0.03447 -0.13731,0.08325 -0.33,1.15723 -0.49019,1.137751 -0.16019,-0.01948 -0.19429,-1.189938 -0.31304,-1.295875 -0.11875,-0.105936 -1.22412,-0.01706 -1.24708,-0.17337 z"
       inkscape:transform-center-x="0.06252938"
       inkscape:transform-center-y="0.18148852"
       transform="matrix(1.0685484,0,0,1.0920502,-177.3966,-2.9270948)" />
    <path
       sodipodi:type="star"
       style="fill:#000000;stroke:#2c5aa0;stroke-width:5.55625e-08;stroke-linecap:round;stroke-linejoin:round;stroke-dasharray:none;stroke-dashoffset:26.4567;paint-order:stroke fill markers"
       id="path20"
       inkscape:flatsided="false"
       sodipodi:sides="5"
       sodipodi:cx="184.11807"
       sodipodi:cy="31.782288"
       sodipodi:r1="1.8627414"
       sodipodi:r2="0.75603127"
       sodipodi:arg1="2.9441971"
       sodipodi:arg2="3.5725156"
       inkscape:rounded="0.12"
       inkscape:randomized="0.043"
       d="m 182.36139,32.143954 c -0.023,-0.156308 1.02601,-0.572 1.10118,-0.7144 0.0752,-0.142401 -0.33322,-1.198117 -0.19364,-1.268198 0.13958,-0.07008 0.7535,0.791621 0.91201,0.81411 0.15851,0.02249 1.11389,-0.737127 1.22969,-0.624219 0.1158,0.112908 -0.63828,1.142066 -0.604,1.296014 0.0343,0.153947 0.99616,0.712829 0.9384,0.862653 -0.0578,0.149823 -1.19601,-0.117719 -1.33333,-0.03447 -0.13731,0.08325 -0.33,1.15723 -0.49019,1.137751 -0.16019,-0.01948 -0.19429,-1.189938 -0.31304,-1.295875 -0.11875,-0.105936 -1.22412,-0.01706 -1.24708,-0.17337 z"
       inkscape:transform-center-x="0.062529039"
       inkscape:transform-center-y="0.18148851"
       transform="matrix(1.0685484,0,0,1.0920502,-161.00168,59.706619)" />
    <path
       sodipodi:type="star"
       style="fill:#000000;stroke:#2c5aa0;stroke-width:5.55625e-08;stroke-linecap:round;stroke-linejoin:round;stroke-dasharray:none;stroke-dashoffset:26.4567;paint-order:stroke fill markers"
       id="path21"
       inkscape:flatsided="false"
       sodipodi:sides="5"
       sodipodi:cx="184.11807"
       sodipodi:cy="31.782288"
       sodipodi:r1="1.8627414"
       sodipodi:r2="0.75603127"
       sodipodi:arg1="2.9441971"
       sodipodi:arg2="3.5725156"
       inkscape:rounded="0.12"
       inkscape:randomized="0.043"
       d="m 182.36139,32.143954 c -0.023,-0.156308 1.02601,-0.572 1.10118,-0.7144 0.0752,-0.142401 -0.33322,-1.198117 -0.19364,-1.268198 0.13958,-0.07008 0.7535,0.791621 0.91201,0.81411 0.15851,0.02249 1.11389,-0.737127 1.22969,-0.624219 0.1158,0.112908 -0.63828,1.142066 -0.604,1.296014 0.0343,0.153947 0.99616,0.712829 0.9384,0.862653 -0.0578,0.149823 -1.19601,-0.117719 -1.33333,-0.03447 -0.13731,0.08325 -0.33,1.15723 -0.49019,1.137751 -0.16019,-0.01948 -0.19429,-1.189938 -0.31304,-1.295875 -0.11875,-0.105936 -1.22412,-0.01706 -1.24708,-0.17337 z"
       inkscape:transform-center-x="0.062530501"
       inkscape:transform-center-y="0.18148865"
       transform="matrix(1.0685484,0,0,1.0920502,-172.32199,-20.879433)" />
    <path
       sodipodi:type="star"
       style="fill:#000000;stroke:#2c5aa0;stroke-width:5.55625e-08;stroke-linecap:round;stroke-linejoin:round;stroke-dasharray:none;stroke-dashoffset:26.4567;paint-order:stroke fill markers"
       id="path22"
       inkscape:flatsided="false"
       sodipodi:sides="5"
       sodipodi:cx="184.11807"
       sodipodi:cy="31.782288"
       sodipodi:r1="1.8627414"
       sodipodi:r2="0.75603127"
       sodipodi:arg1="2.9441971"
       sodipodi:arg2="3.5725156"
       inkscape:rounded="0.12"
       inkscape:randomized="0.043"
       d="m 182.36139,32.143954 c -0.023,-0.156308 1.02601,-0.572 1.10118,-0.7144 0.0752,-0.142401 -0.33322,-1.198117 -0.19364,-1.268198 0.13958,-0.07008 0.7535,0.791621 0.91201,0.81411 0.15851,0.02249 1.11389,-0.737127 1.22969,-0.624219 0.1158,0.112908 -0.63828,1.142066 -0.604,1.296014 0.0343,0.153947 0.99616,0.712829 0.9384,0.862653 -0.0578,0.149823 -1.19601,-0.117719 -1.33333,-0.03447 -0.13731,0.08325 -0.33,1.15723 -0.49019,1.137751 -0.16019,-0.01948 -0.19429,-1.189938 -0.31304,-1.295875 -0.11875,-0.105936 -1.22412,-0.01706 -1.24708,-0.17337 z"
       inkscape:transform-center-x="0.062525596"
       inkscape:transform-center-y="0.18148805"
       transform="matrix(1.0685484,0,0,1.0920502,-102.44838,30.583936)" />
    <path
       sodipodi:type="star"
       style="fill:#000000;stroke:#2c5aa0;stroke-width:5.55625e-08;stroke-linecap:round;stroke-linejoin:round;stroke-dasharray:none;stroke-dashoffset:26.4567;paint-order:stroke fill markers"
       id="path23"
       inkscape:flatsided="false"
       sodipodi:sides="5"
       sodipodi:cx="184.11807"
       sodipodi:cy="31.782288"
       sodipodi:r1="1.8627414"
       sodipodi:r2="0.75603127"
       sodipodi:arg1="2.9441971"
       sodipodi:arg2="3.5725156"
       inkscape:rounded="0.12"
       inkscape:randomized="0.043"
       d="m 182.36139,32.143954 c -0.023,-0.156308 1.02601,-0.572 1.10118,-0.7144 0.0752,-0.142401 -0.33322,-1.198117 -0.19364,-1.268198 0.13958,-0.07008 0.7535,0.791621 0.91201,0.81411 0.15851,0.02249 1.11389,-0.737127 1.22969,-0.624219 0.1158,0.112908 -0.63828,1.142066 -0.604,1.296014 0.0343,0.153947 0.99616,0.712829 0.9384,0.862653 -0.0578,0.149823 -1.19601,-0.117719 -1.33333,-0.03447 -0.13731,0.08325 -0.33,1.15723 -0.49019,1.137751 -0.16019,-0.01948 -0.19429,-1.189938 -0.31304,-1.295875 -0.11875,-0.105936 -1.22412,-0.01706 -1.24708,-0.17337 z"
       inkscape:transform-center-x="0.062521087"
       inkscape:transform-center-y="0.18148915"
       transform="matrix(1.0685484,0,0,1.0920502,-181.6905,22.20618)" />
    <path
       sodipodi:type="star"
       style="fill:#000000;stroke:#2c5aa0;stroke-width:5.55625e-08;stroke-linecap:round;stroke-linejoin:round;stroke-dasharray:none;stroke-dashoffset:26.4567;paint-order:stroke fill markers"
       id="path24"
       inkscape:flatsided="false"
       sodipodi:sides="5"
       sodipodi:cx="184.11807"
       sodipodi:cy="31.782288"
       sodipodi:r1="1.8627414"
       sodipodi:r2="0.75603127"
       sodipodi:arg1="2.9441971"
       sodipodi:arg2="3.5725156"
       inkscape:rounded="0.12"
       inkscape:randomized="0.043"
       d="m 182.36139,32.143954 c -0.023,-0.156308 1.02601,-0.572 1.10118,-0.7144 0.0752,-0.142401 -0.33322,-1.198117 -0.19364,-1.268198 0.13958,-0.07008 0.7535,0.791621 0.91201,0.81411 0.15851,0.02249 1.11389,-0.737127 1.22969,-0.624219 0.1158,0.112908 -0.63828,1.142066 -0.604,1.296014 0.0343,0.153947 0.99616,0.712829 0.9384,0.862653 -0.0578,0.149823 -1.19601,-0.117719 -1.33333,-0.03447 -0.13731,0.08325 -0.33,1.15723 -0.49019,1.137751 -0.16019,-0.01948 -0.19429,-1.189938 -0.31304,-1.295875 -0.11875,-0.105936 -1.22412,-0.01706 -1.24708,-0.17337 z"
       inkscape:transform-center-x="0.062529134"
       inkscape:transform-center-y="0.18148828"
       transform="matrix(1.0685484,0,0,1.0920502,-184.423,36.169108)" />
    <path
       sodipodi:type="star"
       style="fill:#000000;stroke:#2c5aa0;stroke-width:5.55625e-08;stroke-linecap:round;stroke-linejoin:round;stroke-dasharray:none;stroke-dashoffset:26.4567;paint-order:stroke fill markers"
       id="path25"
       inkscape:flatsided="false"
       sodipodi:sides="5"
       sodipodi:cx="184.11807"
       sodipodi:cy="31.782288"
       sodipodi:r1="1.8627414"
       sodipodi:r2="0.75603127"
       sodipodi:arg1="2.9441971"
       sodipodi:arg2="3.5725156"
       inkscape:rounded="0.12"
       inkscape:randomized="0.043"
       d="m 182.36139,32.143954 c -0.023,-0.156308 1.02601,-0.572 1.10118,-0.7144 0.0752,-0.142401 -0.33322,-1.198117 -0.19364,-1.268198 0.13958,-0.07008 0.7535,0.791621 0.91201,0.81411 0.15851,0.02249 1.11389,-0.737127 1.22969,-0.624219 0.1158,0.112908 -0.63828,1.142066 -0.604,1.296014 0.0343,0.153947 0.99616,0.712829 0.9384,0.862653 -0.0578,0.149823 -1.19601,-0.117719 -1.33333,-0.03447 -0.13731,0.08325 -0.33,1.15723 -0.49019,1.137751 -0.16019,-0.01948 -0.19429,-1.189938 -0.31304,-1.295875 -0.11875,-0.105936 -1.22412,-0.01706 -1.24708,-0.17337 z"
       inkscape:transform-center-x="0.062523482"
       inkscape:transform-center-y="0.18148818"
       transform="matrix(1.0685484,0,0,1.0920502,-108.30371,18.21677)" />
    <rect
       style="fill:#000000;stroke:#2c5aa0;stroke-width:6.00205e-08;stroke-linecap:round;stroke-linejoin:round;stroke-dasharray:none;stroke-dashoffset:26.4567;paint-order:stroke fill markers"
       id="rect25"
       width="7.0263958"
       height="7.1809354"
       x="79.847542"
       y="58.509796"
       rx="1.5482831"
       ry="2.223139" />
  </g>
</svg>
