<svg width="26" height="21" viewBox="0 0 26 21" fill="none" xmlns="http://www.w3.org/2000/svg">
<path d="M14.6541 5.89343C14.4464 6.51451 14.1484 7.03004 13.7899 7.38843C13.4314 7.74683 13.0249 7.93553 12.6112 7.93567C12.1975 7.93555 11.791 7.74686 11.4325 7.38849C11.074 7.03012 10.7759 6.51462 10.5682 5.89357C9.96794 6.38661 9.43378 7.09126 8.99994 7.96237C8.5661 8.83347 8.24214 9.85184 8.04883 10.9522H17.1735C16.9802 9.85181 16.6563 8.83342 16.2224 7.96229C15.7886 7.09116 15.2544 6.38649 14.6541 5.89343Z" fill="#374151"/>
<path d="M12.6073 7.0589C13.9211 7.0589 14.9861 5.74363 14.9861 4.12116C14.9861 2.49868 13.9211 1.18341 12.6073 1.18341C11.2935 1.18341 10.2285 2.49868 10.2285 4.12116C10.2285 5.74363 11.2935 7.0589 12.6073 7.0589Z" fill="#374151"/>
<path d="M14.8361 10.6669H10.3786C10.2957 10.6669 10.2285 10.734 10.2285 10.8169V19.9299C10.2285 20.0128 10.2957 20.0799 10.3786 20.0799H14.8361C14.9189 20.0799 14.9861 20.0128 14.9861 19.9299V10.8169C14.9861 10.734 14.9189 10.6669 14.8361 10.6669Z" fill="#374151"/>
<path d="M13.5446 16.7377L11.7556 13.8281L10.0312 10.8762L13.3341 10.7099L16.6397 10.6236L15.1259 13.6993L13.5446 16.7377Z" fill="#374151"/>
<path d="M11.4711 16.821L13.2601 13.9115L14.9844 10.9595L11.6815 10.7933L8.37592 10.7069L9.88975 13.7826L11.4711 16.821Z" fill="#374151"/>
<path d="M12.707 8.64466C13.0834 8.64466 13.3886 8.3022 13.3886 7.87976C13.3886 7.45732 13.0834 7.11487 12.707 7.11487C12.3305 7.11487 12.0254 7.45732 12.0254 7.87976C12.0254 8.3022 12.3305 8.64466 12.707 8.64466Z" fill="#374151"/>
<path d="M22.735 3.04474C22.5424 3.63836 22.2661 4.1311 21.9337 4.47365C21.6014 4.8162 21.2245 4.99656 20.841 4.9967C20.4574 4.99658 20.0806 4.81623 19.7482 4.4737C19.4159 4.13117 19.1396 3.63847 18.947 3.04487C18.3905 3.51612 17.8953 4.18961 17.4931 5.02221C17.0909 5.85481 16.7905 6.82815 16.6113 7.8799H25.0706C24.8914 6.82813 24.5911 5.85476 24.1889 5.02214C23.7867 4.18952 23.2915 3.516 22.735 3.04474Z" fill="#374151"/>
<path d="M22.2998 7.849H19.3836C19.3044 7.849 19.2402 7.9132 19.2402 7.99241V16.7025C19.2402 16.7817 19.3044 16.8459 19.3836 16.8459H22.2998C22.379 16.8459 22.4432 16.7817 22.4432 16.7025V7.99241C22.4432 7.9132 22.379 7.849 22.2998 7.849Z" fill="#374151"/>
<path d="M21.7809 6.5828L19.9919 9.3637L18.2676 12.1852L21.5704 12.344L24.876 12.4266L23.3622 9.48683L21.7809 6.5828Z" fill="#374151"/>
<path d="M19.7074 6.50369L21.4964 9.2846L23.2207 12.1061L19.9179 12.2649L16.6122 12.3475L18.1261 9.40773L19.7074 6.50369Z" fill="#374151"/>
<path d="M20.8412 4.0379C21.9563 4.0379 22.8602 3.13399 22.8602 2.01895C22.8602 0.903916 21.9563 0 20.8412 0C19.7262 0 18.8223 0.903916 18.8223 2.01895C18.8223 3.13399 19.7262 4.0379 20.8412 4.0379Z" fill="#374151"/>
<path d="M21.2395 4.38483H20.4443C20.3251 4.38483 20.2285 4.48146 20.2285 4.60066V5.9411C20.2285 6.06031 20.3251 6.15694 20.4443 6.15694H21.2395C21.3587 6.15694 21.4554 6.06031 21.4554 5.9411V4.60066C21.4554 4.48146 21.3587 4.38483 21.2395 4.38483Z" fill="#374151"/>
<path d="M6.46348 3.04474C6.27091 3.63836 5.99462 4.1311 5.66224 4.47365C5.32986 4.8162 4.95305 4.99656 4.5695 4.9967C4.18595 4.99658 3.80914 4.81623 3.47676 4.4737C3.14438 4.13117 2.86809 3.63847 2.67551 3.04487C2.11901 3.51612 1.6238 4.18961 1.2216 5.02221C0.819391 5.85481 0.519062 6.82815 0.339844 7.8799H8.79915C8.61994 6.82813 8.31961 5.85476 7.91741 5.02214C7.5152 4.18952 7.01999 3.516 6.46348 3.04474Z" fill="#374151"/>
<path d="M6.03025 7.849H3.11411C3.03491 7.849 2.9707 7.9132 2.9707 7.99241V16.7025C2.9707 16.7817 3.03491 16.8459 3.11411 16.8459H6.03025C6.10945 16.8459 6.17366 16.7817 6.17366 16.7025V7.99241C6.17366 7.9132 6.10945 7.849 6.03025 7.849Z" fill="#374151"/>
<path d="M5.50354 6.58286L3.71454 9.36376L1.99023 12.1852L5.29307 12.3441L8.59869 12.4267L7.08486 9.48689L5.50354 6.58286Z" fill="#374151"/>
<path d="M3.43591 6.50369L5.22491 9.2846L6.94922 12.1061L3.64639 12.2649L0.340766 12.3475L1.8546 9.40773L3.43591 6.50369Z" fill="#374151"/>
<path d="M4.56586 4.0379C5.68091 4.0379 6.58484 3.13399 6.58484 2.01895C6.58484 0.903916 5.68091 0 4.56586 0C3.4508 0 2.54688 0.903916 2.54688 2.01895C2.54688 3.13399 3.4508 4.0379 4.56586 4.0379Z" fill="#374151"/>
<path d="M4.96218 4.38483H4.16701C4.0478 4.38483 3.95117 4.48146 3.95117 4.60066V5.9411C3.95117 6.06031 4.0478 6.15694 4.16701 6.15694H4.96218C5.08139 6.15694 5.17802 6.06031 5.17802 5.9411V4.60066C5.17802 4.48146 5.08139 4.38483 4.96218 4.38483Z" fill="#374151"/>
</svg>
