<svg width="33" height="33" viewBox="0 0 33 33" fill="none" xmlns="http://www.w3.org/2000/svg">
<path d="M25.7886 5.83622C26.033 5.63227 25.3308 4.24312 24.2202 2.73347C23.1095 1.22382 22.0111 0.165346 21.7667 0.369299C21.5223 0.573251 22.2246 1.9624 23.3352 3.47205C24.4458 4.9817 25.5443 6.04017 25.7886 5.83622Z" fill="#2F9BFF"/>
<path d="M28.7169 12.2512C29.1378 12.2024 29.9168 10.8111 30.4568 9.14362C30.9968 7.47617 31.0933 6.164 30.6723 6.21279C30.2514 6.26159 29.4724 7.65288 28.9324 9.32033C28.3924 10.9878 28.2959 12.3 28.7169 12.2512Z" fill="#2F9BFF"/>
<path d="M28.3987 13.6694C28.6307 13.5361 28.2294 12.2687 27.5024 10.8385C26.7753 9.4083 25.9978 8.35695 25.7658 8.49023C25.5338 8.62352 25.9351 9.89097 26.6621 11.3212C27.3892 12.7514 28.1667 13.8027 28.3987 13.6694Z" fill="#2F9BFF"/>
<path d="M28.4519 9.55156C28.7592 9.50743 28.804 8.14792 28.5518 6.515C28.2997 4.88208 27.8461 3.59411 27.5388 3.63824C27.2315 3.68237 27.1868 5.04188 27.439 6.6748C27.6911 8.30772 28.1446 9.59569 28.4519 9.55156Z" fill="#2F9BFF"/>
<path d="M27.0058 8.4514C27.2145 8.20662 26.3032 6.96287 24.9702 5.6734C23.6373 4.38393 22.3875 3.53704 22.1787 3.78182C21.97 4.0266 22.8814 5.27036 24.2143 6.55983C25.5473 7.8493 26.7971 8.69618 27.0058 8.4514Z" fill="#2F9BFF"/>
<path d="M26.7869 6.5516C27.0906 6.49022 27.0362 5.1895 26.6655 3.64636C26.2948 2.10322 25.7481 0.90201 25.4444 0.963389C25.1407 1.02477 25.1951 2.32549 25.5658 3.86863C25.9365 5.41177 26.4832 6.61298 26.7869 6.5516Z" fill="#2F9BFF"/>
<path d="M18.2824 26.4332C18.3989 26.8667 19.8184 27.4485 21.4528 27.7326C23.0872 28.0167 24.3177 27.8956 24.2012 27.462C24.0847 27.0284 22.6653 26.4466 21.0308 26.1625C19.3964 25.8784 18.1659 25.9996 18.2824 26.4332Z" fill="#2F9BFF"/>
<path d="M20.9807 25.1632C21.1443 25.5792 22.6182 25.979 24.2726 26.0562C25.9271 26.1335 27.1357 25.8589 26.972 25.4429C26.8084 25.027 25.3346 24.6271 23.6801 24.5499C22.0256 24.4727 20.8171 24.7473 20.9807 25.1632Z" fill="#2F9BFF"/>
<path d="M17.8464 26.1436C18.2403 26.3089 19.5373 25.4628 20.7432 24.2539C21.9492 23.045 22.6074 21.931 22.2134 21.7658C21.8194 21.6006 20.5224 22.4466 19.3165 23.6555C18.1106 24.8644 17.4524 25.9784 17.8464 26.1436Z" fill="#2F9BFF"/>
<path d="M24.0045 23.5974C24.2803 23.9397 25.7982 23.8375 27.3948 23.3692C28.9914 22.901 30.0622 22.2439 29.7864 21.9017C29.5107 21.5595 27.9928 21.6616 26.3962 22.1299C24.7995 22.5982 23.7288 23.2552 24.0045 23.5974Z" fill="#2F9BFF"/>
<path d="M22.8902 23.7176C23.3135 23.7258 24.2512 22.4504 24.9846 20.8689C25.7179 19.2874 25.9692 17.9987 25.5458 17.9905C25.1225 17.9823 24.1848 19.2577 23.4515 20.8392C22.7181 22.4207 22.4668 23.7094 22.8902 23.7176Z" fill="#2F9BFF"/>
<path d="M25.1655 22.2692C25.551 22.4557 26.8869 21.6814 28.1494 20.5398C29.4118 19.3982 30.1226 18.3216 29.7371 18.1351C29.3516 17.9486 28.0157 18.7229 26.7532 19.8645C25.4908 21.0061 24.78 22.0827 25.1655 22.2692Z" fill="#2F9BFF"/>
<path d="M27.8621 18.3189C28.2537 18.4905 29.5626 17.6656 30.7856 16.4763C32.0086 15.2871 32.6826 14.1839 32.291 14.0123C31.8995 13.8407 30.5906 14.6657 29.3676 15.8549C28.1445 17.0442 27.4705 18.1474 27.8621 18.3189Z" fill="#2F9BFF"/>
<path d="M26.4954 19.5144C26.8961 19.3747 27.3708 17.9202 27.5557 16.2657C27.7407 14.6111 27.5657 13.3831 27.165 13.5227C26.7643 13.6624 26.2896 15.1169 26.1047 16.7715C25.9197 18.426 26.0947 19.6541 26.4954 19.5144Z" fill="#2F9BFF"/>
<path d="M28.5104 16.1135C28.9337 16.1008 29.815 14.7807 30.479 13.1648C31.143 11.5489 31.3381 10.2492 30.9148 10.2618C30.4916 10.2745 29.6102 11.5947 28.9462 13.2105C28.2823 14.8264 28.0871 16.1261 28.5104 16.1135Z" fill="#2F9BFF"/>
<path d="M6.37925 6.32626C6.11699 6.1493 6.68555 4.69245 7.64919 3.07228C8.61282 1.45212 9.60661 0.282171 9.86887 0.459129C10.1311 0.636088 9.56257 2.09294 8.59894 3.71311C7.63531 5.33327 6.64152 6.50322 6.37925 6.32626Z" fill="#2F9BFF"/>
<path d="M4.06711 13.0204C3.6437 13.0166 2.73824 11.715 2.04471 10.1133C1.35118 8.51159 1.1322 7.21622 1.55561 7.22003C1.97902 7.22384 2.88448 8.52539 3.57801 10.1271C4.27154 11.7288 4.49052 13.0242 4.06711 13.0204Z" fill="#2F9BFF"/>
<path d="M4.5206 14.3975C4.27725 14.2895 4.55778 12.9858 5.1472 11.4854C5.73662 9.9851 6.41171 8.85636 6.65507 8.96431C6.89842 9.07227 6.61789 10.376 6.02847 11.8764C5.43906 13.3767 4.76396 14.5055 4.5206 14.3975Z" fill="#2F9BFF"/>
<path d="M4.07853 10.3061C3.76862 10.2948 3.59675 8.94686 3.69464 7.29529C3.79252 5.64372 4.1231 4.31398 4.43301 4.32522C4.74291 4.33647 4.91479 5.68444 4.8169 7.33601C4.71901 8.98758 4.38843 10.3173 4.07853 10.3061Z" fill="#2F9BFF"/>
<path d="M5.41229 9.05802C5.18166 8.83665 5.97194 7.50223 7.17742 6.07752C8.3829 4.6528 9.54709 3.6773 9.77772 3.89867C10.0084 4.12004 9.21808 5.45446 8.0126 6.87917C6.80711 8.30389 5.64292 9.27939 5.41229 9.05802Z" fill="#2F9BFF"/>
<path d="M5.45057 7.14423C5.14265 7.11544 5.07485 5.81543 5.29913 4.24059C5.52341 2.66574 5.95485 1.41242 6.26277 1.44121C6.57069 1.47001 6.6385 2.77001 6.41421 4.34485C6.18993 5.9197 5.75849 7.17302 5.45057 7.14423Z" fill="#2F9BFF"/>
<path d="M15.7834 26.0223C15.7081 26.4661 14.3503 27.1959 12.7506 27.6523C11.151 28.1087 9.91527 28.1189 9.99059 27.6751C10.0659 27.2313 11.4237 26.5016 13.0234 26.0452C14.623 25.5888 15.8587 25.5785 15.7834 26.0223Z" fill="#2F9BFF"/>
<path d="M12.9766 25.0457C12.8528 25.477 11.4238 26.0315 9.7848 26.2842C8.14583 26.5369 6.91757 26.3921 7.04141 25.9609C7.16524 25.5296 8.59427 24.9751 10.2332 24.7224C11.8722 24.4697 13.1005 24.6145 12.9766 25.0457Z" fill="#2F9BFF"/>
<path d="M16.1849 25.6881C15.8084 25.8943 14.4386 25.1904 13.1255 24.1157C11.8123 23.041 11.053 22.0025 11.4296 21.7962C11.8061 21.59 13.1759 22.2939 14.489 23.3686C15.8022 24.4433 16.5615 25.4818 16.1849 25.6881Z" fill="#2F9BFF"/>
<path d="M9.81887 23.8092C9.57655 24.1791 8.05668 24.2387 6.42415 23.9425C4.79161 23.6463 3.66462 23.1064 3.90694 22.7365C4.14926 22.3667 5.66913 22.307 7.30167 22.6032C8.9342 22.8994 10.0612 23.4394 9.81887 23.8092Z" fill="#2F9BFF"/>
<path d="M10.9411 23.8102C10.5206 23.8633 9.46814 22.694 8.59028 21.1983C7.71241 19.7027 7.34163 18.4472 7.7621 18.394C8.18258 18.3408 9.23508 19.5102 10.1129 21.0058C10.9908 22.5015 11.3616 23.757 10.9411 23.8102Z" fill="#2F9BFF"/>
<path d="M8.5408 22.611C8.17467 22.8375 6.77287 22.2091 5.40978 21.2074C4.0467 20.2057 3.23851 19.21 3.60464 18.9835C3.97077 18.7569 5.37257 19.3853 6.73566 20.3871C8.09874 21.3888 8.90693 22.3845 8.5408 22.611Z" fill="#2F9BFF"/>
<path d="M5.48752 18.9671C5.11397 19.1794 3.73431 18.4977 2.40596 17.4444C1.07762 16.3911 0.3036 15.365 0.677147 15.1527C1.0507 14.9403 2.43035 15.6221 3.7587 16.6754C5.08705 17.7287 5.86107 18.7547 5.48752 18.9671Z" fill="#2F9BFF"/>
<path d="M6.96056 20.011C6.54876 19.9147 5.94012 18.5179 5.60111 16.8913C5.2621 15.2646 5.3211 14.0241 5.7329 14.1205C6.14469 14.2169 6.75334 15.6136 7.09235 17.2403C7.43135 18.8669 7.37235 20.1074 6.96056 20.011Z" fill="#2F9BFF"/>
<path d="M4.63693 16.8414C4.2146 16.8738 3.21393 15.6539 2.40189 14.1167C1.58984 12.5794 1.27391 11.307 1.69624 11.2746C2.11857 11.2422 3.11923 12.4621 3.93128 13.9993C4.74333 15.5365 5.05926 16.809 4.63693 16.8414Z" fill="#2F9BFF"/>
<path d="M16.2524 26.4992C16.5179 26.8504 16.1464 28.4213 15.4226 30.0077C14.6988 31.5942 13.8968 32.5955 13.6312 32.2442C13.3657 31.893 13.7372 30.3221 14.461 28.7357C15.1848 27.1492 15.9868 26.1479 16.2524 26.4992Z" fill="#2F9BFF"/>
<path d="M17.4527 26.6189C17.1871 26.9702 17.5586 28.541 18.2824 30.1275C19.0063 31.714 19.8083 32.7153 20.0739 32.364C20.3394 32.0127 19.9679 30.4419 19.2441 28.8554C18.5203 27.269 17.7183 26.2677 17.4527 26.6189Z" fill="#2F9BFF"/>
<path d="M16.9348 26.6276C17.2763 26.6276 17.5531 26.3328 17.5531 25.969C17.5531 25.6053 17.2763 25.3104 16.9348 25.3104C16.5933 25.3104 16.3164 25.6053 16.3164 25.969C16.3164 26.3328 16.5933 26.6276 16.9348 26.6276Z" fill="#2F9BFF"/>
<path d="M5.15275 10.4019C5.47874 10.4019 5.743 10.1204 5.743 9.7732C5.743 9.426 5.47874 9.14453 5.15275 9.14453C4.82676 9.14453 4.5625 9.426 4.5625 9.7732C4.5625 10.1204 4.82676 10.4019 5.15275 10.4019Z" fill="#2F9BFF"/>
<path d="M27.9789 10.821C28.3049 10.821 28.5692 10.5395 28.5692 10.1923C28.5692 9.84513 28.3049 9.56366 27.9789 9.56366C27.6529 9.56366 27.3887 9.84513 27.3887 10.1923C27.3887 10.5395 27.6529 10.821 27.9789 10.821Z" fill="#2F9BFF"/>
<path d="M11.7309 24.4721C12.0569 24.4721 12.3211 24.1907 12.3211 23.8435C12.3211 23.4962 12.0569 23.2148 11.7309 23.2148C11.4049 23.2148 11.1406 23.4962 11.1406 23.8435C11.1406 24.1907 11.4049 24.4721 11.7309 24.4721Z" fill="#2F9BFF"/>
<path d="M22.0199 24.4721C22.3459 24.4721 22.6102 24.1907 22.6102 23.8435C22.6102 23.4962 22.3459 23.2148 22.0199 23.2148C21.694 23.2148 21.4297 23.4962 21.4297 23.8435C21.4297 24.1907 21.694 24.4721 22.0199 24.4721Z" fill="#2F9BFF"/>
<path d="M10.8418 16.8791L10.4922 17.6693V17.7005H15.1717L15.24 16.8791H10.8418Z" fill="#2F9BFF"/>
<path d="M9.84583 19.1334L9.48242 19.9548H14.9855L15.0538 19.1334H9.84583Z" fill="#2F9BFF"/>
<path d="M10.3439 18.0062L9.98047 18.8277H15.0787L15.147 18.0062H10.3439Z" fill="#2F9BFF"/>
<path d="M15.6855 16.8791L15.4297 19.9548H18.0215L17.7656 16.8791H15.6855Z" fill="#2F9BFF"/>
<path d="M20.6259 7.94012H21.9609V16.3943H20.6259V7.94012Z" fill="#2F9BFF"/>
<path d="M18.209 16.8791L18.2773 17.7005H22.7352V17.6693L22.3856 16.8791H18.209Z" fill="#2F9BFF"/>
<path d="M18.3945 19.1334L18.4629 19.9548H23.7443L23.381 19.1334H18.3945Z" fill="#2F9BFF"/>
<path d="M18.3027 18.0062L18.371 18.8277H23.2476L22.8842 18.0062H18.3027Z" fill="#2F9BFF"/>
<path d="M16.7601 5.18561L11.5684 5.64502V7.63443H15.0308V6.87624H18.4975V7.63443H21.9599V5.64573L16.7601 5.18561Z" fill="#2F9BFF"/>
<path d="M12.8976 7.94012H11.5625V16.3943H12.8976V7.94012Z" fill="#2F9BFF"/>
<path d="M13.3063 15.5584H11.1582V16.3943H13.3063V15.5584Z" fill="#2F9BFF"/>
<path d="M22.3669 15.5584H20.2188V16.3943H22.3669V15.5584Z" fill="#2F9BFF"/>
</svg>
