<?xml version="1.0" encoding="UTF-8" standalone="no"?>
<svg
   width="84.955917"
   height="38.452728"
   viewBox="0 0 84.955917 38.452728"
   fill="none"
   version="1.1"
   id="svg25"
   sodipodi:docname="logo.svg"
   inkscape:version="1.3.2 (091e20e, 2023-11-25, custom)"
   xmlns:inkscape="http://www.inkscape.org/namespaces/inkscape"
   xmlns:sodipodi="http://sodipodi.sourceforge.net/DTD/sodipodi-0.dtd"
   xmlns="http://www.w3.org/2000/svg"
   xmlns:svg="http://www.w3.org/2000/svg">
  <sodipodi:namedview
     id="namedview25"
     pagecolor="#ffffff"
     bordercolor="#111111"
     borderopacity="1"
     inkscape:showpageshadow="0"
     inkscape:pageopacity="0"
     inkscape:pagecheckerboard="1"
     inkscape:deskcolor="#d1d1d1"
     inkscape:zoom="10.585586"
     inkscape:cx="61.734894"
     inkscape:cy="23.002979"
     inkscape:window-width="1920"
     inkscape:window-height="1009"
     inkscape:window-x="-8"
     inkscape:window-y="-8"
     inkscape:window-maximized="1"
     inkscape:current-layer="svg25" />
  <g
     id="g25"
     transform="scale(0.76905455)">
    <g
       filter="url(#filter0_i_1206_271)"
       id="g1">
      <path
         fill-rule="evenodd"
         clip-rule="evenodd"
         d="M 41.8465,36.1871 C 44.4639,32.4533 46,27.906 46,23 46,10.2975 35.7025,0 23,0 10.2975,0 0,10.2975 0,23 0,35.7025 10.2975,46 23,46 28.6725,46 33.8654,43.9465 37.8758,40.5423 H 23.7424 c -1.4866,0 -2.6917,-1.2051 -2.6917,-2.6917 0,-0.6072 0.2053,-1.1965 0.5825,-1.6723 L 35.5298,18.6518 H 9.62318 c 0,-2.4053 1.94992,-4.3552 4.35522,-4.3552 h 25.3528 c 1.4874,0 2.6931,1.2057 2.6931,2.6931 0,0.6063 -0.2046,1.1949 -0.5807,1.6705 L 27.5835,36.1871 Z"
         fill="url(#paint0_linear_1206_271)"
         id="path1"
         style="fill:url(#paint0_linear_1206_271)" />
    </g>
    <path
       d="m 49.1003,28.0435 c 0.3045,-1.4213 0.9644,-2.6395 1.9796,-3.6547 1.1167,-1.1167 2.741,-1.675 4.8728,-1.675 2.538,0 4.3653,0.5583 5.482,1.675 1.0152,1.0152 1.5228,2.1827 1.5228,3.5024 v 9.5935 c 0,1.1167 0.4061,1.9796 1.2182,2.5887 h -1.5304 c -1.3601,0 -2.7333,-0.6195 -2.7333,-1.9796 -1.5228,1.5228 -3.4517,2.2842 -5.7866,2.2842 -1.9288,0 -3.4009,-0.5076 -4.416,-1.5228 -0.9137,-0.9137 -1.3705,-1.9796 -1.3705,-3.1979 0,-1.4212 0.4568,-2.5887 1.3705,-3.5023 1.0151,-1.0152 2.4364,-1.6751 4.2637,-1.9796 1.2183,-0.2031 2.2842,-0.4569 3.1979,-0.7614 1.3197,-0.3046 2.2334,-0.6091 2.741,-0.9137 0,-0.8121 -0.3046,-1.5228 -0.9137,-2.1319 -0.6091,-0.6091 -1.472,-0.9136 -2.5887,-0.9136 -1.4213,0 -2.4365,0.3045 -3.0456,0.9136 -0.8072,0.8073 -1.7007,1.6751 -2.8423,1.6751 z m 10.8117,3.3501 c -0.6092,0.203 -1.1675,0.3553 -1.6751,0.4568 -1.7258,0.4061 -3.0455,0.7106 -3.9592,0.9137 -0.8122,0.203 -1.4213,0.5076 -1.8273,0.9136 -0.5076,0.5076 -0.7614,1.066 -0.7614,1.6751 0,0.7106 0.2538,1.3197 0.7614,1.8273 0.3045,0.3046 0.9644,0.4569 1.9796,0.4569 1.7258,0 3.147,-0.5584 4.2637,-1.6751 0.7107,-0.7106 1.1167,-1.2182 1.2183,-1.5228 z"
       fill="url(#paint1_linear_1206_271)"
       id="path2"
       style="fill:url(#paint1_linear_1206_271)" />
    <path
       d="m 68.1349,14.0339 c 1.6821,0 3.0456,1.3636 3.0456,3.0456 v 22.9939 c -1.682,0 -3.0456,-1.3635 -3.0456,-3.0456 z"
       fill="url(#paint2_linear_1206_271)"
       id="path3"
       style="fill:url(#paint2_linear_1206_271)" />
    <path
       d="m 75.5965,31.5459 c 0,-2.741 0.863,-4.9744 2.5888,-6.7003 1.4212,-1.4212 3.2486,-2.1318 5.482,-2.1318 2.1318,0 3.9592,0.7613 5.4819,2.2841 0.8906,0.8906 1.5022,2.0801 1.8347,3.5686 0.3612,1.617 -1.0459,2.9794 -2.7028,2.9794 h -9.3344 c 0,2.1318 0.5075,3.7054 1.5227,4.7206 0.9137,0.9136 2.0812,1.3705 3.5024,1.3705 1.4213,0 2.4365,-0.3046 3.0456,-0.9137 0.1801,-0.1802 0.3374,-0.3668 0.4719,-0.56 0.631,-0.9066 1.4894,-1.8765 2.594,-1.8765 h 1.3501 c -0.4061,1.8274 -1.0659,3.1979 -1.9796,4.1115 -1.3197,1.3198 -3.1471,1.9797 -5.482,1.9797 -2.4364,0 -4.416,-0.7614 -5.9388,-2.2842 -1.6243,-1.6243 -2.4365,-3.807 -2.4365,-6.5479 z m 7.9185,-6.2434 c -1.2182,0 -2.2334,0.406 -3.0456,1.2182 -0.7106,0.7106 -1.1674,1.5735 -1.3705,2.5887 h 8.6799 c 0,-1.0152 -0.4061,-1.9288 -1.2183,-2.741 -0.7106,-0.7106 -1.7258,-1.0659 -3.0455,-1.0659 z"
       fill="url(#paint3_linear_1206_271)"
       id="path4"
       style="fill:url(#paint3_linear_1206_271)" />
    <path
       d="m 98.5905,37.0734 c 0,1.6568 -1.3432,3 -3,3 H 95.5449 V 23.0183 h 0.0456 c 1.6568,0 3,1.3432 3,3 v 0.0456 c 1.8275,-2.2334 3.7565,-3.3501 5.7865,-3.3501 2.03,0 3.655,0.6091 4.873,1.8273 0.812,0.8121 1.218,1.7766 1.218,2.8933 v 9.639 c 0,1.6568 -1.343,3 -3,3 h -0.045 V 28.348 c 0,-0.9136 -0.305,-1.675 -0.914,-2.2841 -0.609,-0.6091 -1.472,-0.9137 -2.589,-0.9137 -1.015,0 -2.03,0.5076 -3.045,1.5228 -1.5232,1.5227 -2.2845,3.147 -2.2845,4.8729 z"
       fill="url(#paint4_linear_1206_271)"
       id="path5"
       style="fill:url(#paint4_linear_1206_271)" />
  </g>
  <defs
     id="defs25">
    <filter
       id="filter0_i_1206_271"
       x="0"
       y="0"
       width="46"
       height="50"
       filterUnits="userSpaceOnUse"
       color-interpolation-filters="sRGB">
      <feFlood
         flood-opacity="0"
         result="BackgroundImageFix"
         id="feFlood5" />
      <feBlend
         mode="normal"
         in="SourceGraphic"
         in2="BackgroundImageFix"
         result="shape"
         id="feBlend5" />
      <feColorMatrix
         in="SourceAlpha"
         type="matrix"
         values="0 0 0 0 0 0 0 0 0 0 0 0 0 0 0 0 0 0 127 0"
         result="hardAlpha"
         id="feColorMatrix5" />
      <feOffset
         dy="4"
         id="feOffset5" />
      <feGaussianBlur
         stdDeviation="2"
         id="feGaussianBlur5" />
      <feComposite
         in2="hardAlpha"
         operator="arithmetic"
         k2="-1"
         k3="1"
         id="feComposite5"
         k1="0"
         k4="0" />
      <feColorMatrix
         type="matrix"
         values="0 0 0 0 0 0 0 0 0 0 0 0 0 0 0 0 0 0 0.15 0"
         id="feColorMatrix6" />
      <feBlend
         mode="normal"
         in2="shape"
         result="effect1_innerShadow_1206_271"
         id="feBlend6" />
    </filter>
    <linearGradient
       id="paint0_linear_1206_271"
       x1="43.244099"
       y1="3.6716399"
       x2="0.98754102"
       y2="44.016701"
       gradientUnits="userSpaceOnUse"
       gradientTransform="scale(1.3002979)">
      <stop
         stop-color="#FFF5A8"
         id="stop6" />
      <stop
         offset="0.31233"
         stop-color="#BD8100"
         id="stop7" />
      <stop
         offset="0.7592"
         stop-color="#E0BE58"
         id="stop8" />
      <stop
         offset="1"
         stop-color="#F1DC83"
         id="stop9" />
    </linearGradient>
    <linearGradient
       id="paint1_linear_1206_271"
       x1="106.746"
       y1="16.1367"
       x2="88.772697"
       y2="56.6068"
       gradientUnits="userSpaceOnUse"
       gradientTransform="scale(1.3002979)">
      <stop
         stop-color="#FFF5A8"
         id="stop10" />
      <stop
         offset="0.31233"
         stop-color="#BD8100"
         id="stop11" />
      <stop
         offset="0.7592"
         stop-color="#E0BE58"
         id="stop12" />
      <stop
         offset="1"
         stop-color="#F1DC83"
         id="stop13" />
    </linearGradient>
    <linearGradient
       id="paint2_linear_1206_271"
       x1="106.746"
       y1="16.1367"
       x2="88.772697"
       y2="56.6068"
       gradientUnits="userSpaceOnUse"
       gradientTransform="scale(1.3002979)">
      <stop
         stop-color="#FFF5A8"
         id="stop14" />
      <stop
         offset="0.31233"
         stop-color="#BD8100"
         id="stop15" />
      <stop
         offset="0.7592"
         stop-color="#E0BE58"
         id="stop16" />
      <stop
         offset="1"
         stop-color="#F1DC83"
         id="stop17" />
    </linearGradient>
    <linearGradient
       id="paint3_linear_1206_271"
       x1="106.746"
       y1="16.1367"
       x2="88.772697"
       y2="56.6068"
       gradientUnits="userSpaceOnUse"
       gradientTransform="scale(1.3002979)">
      <stop
         stop-color="#FFF5A8"
         id="stop18" />
      <stop
         offset="0.31233"
         stop-color="#BD8100"
         id="stop19" />
      <stop
         offset="0.7592"
         stop-color="#E0BE58"
         id="stop20" />
      <stop
         offset="1"
         stop-color="#F1DC83"
         id="stop21" />
    </linearGradient>
    <linearGradient
       id="paint4_linear_1206_271"
       x1="106.746"
       y1="16.1367"
       x2="88.772697"
       y2="56.6068"
       gradientUnits="userSpaceOnUse"
       gradientTransform="scale(1.3002979)">
      <stop
         stop-color="#FFF5A8"
         id="stop22" />
      <stop
         offset="0.31233"
         stop-color="#BD8100"
         id="stop23" />
      <stop
         offset="0.7592"
         stop-color="#E0BE58"
         id="stop24" />
      <stop
         offset="1"
         stop-color="#F1DC83"
         id="stop25" />
    </linearGradient>
  </defs>
</svg>
