<svg id="Capa_1" enable-background="new 0 0 512 512" height="512" viewBox="0 0 512 512" width="512" xmlns="http://www.w3.org/2000/svg"><g><g><g><path d="m205.113 168.449h-110.912v-123.665c0-16.569 13.431-30 30-30h50.912c16.569 0 30 13.431 30 30z" fill="#d3e1f4"/><path d="m205.117 44.783v123.67h-35.39v-123.67c0-16.57-13.44-30-30-30h35.39c16.56 0 30 13.43 30 30z" fill="#b3cbea"/><path d="m81.45 133.509v34.939h136.413v-34.939c0-5.523-4.477-10-10-10h-116.413c-5.522 0-10 4.477-10 10z" fill="#7da2b0"/><path d="m217.867 133.513v34.93h-35.39v-34.93c0-5.53-4.48-10-10-10h35.39c5.52 0 10 4.471 10 10z" fill="#688d97"/></g><g><path d="m417.795 168.449h-110.912v-123.665c0-16.569 13.431-30 30-30h50.912c16.569 0 30 13.431 30 30z" fill="#d3e1f4"/><path d="m417.8 44.783v123.67h-35.39v-123.67c0-16.57-13.44-30-30-30h35.39c16.559 0 30 13.43 30 30z" fill="#b3cbea"/><path d="m294.133 133.509v34.939h136.413v-34.939c0-5.523-4.477-10-10-10h-116.413c-5.523 0-10 4.477-10 10z" fill="#7da2b0"/><path d="m430.55 133.513v34.93h-35.39v-34.93c0-5.53-4.48-10-10-10h35.39c5.52 0 10 4.471 10 10z" fill="#688d97"/></g></g><g><g><path d="m494.5 497.216h-477c-5.523 0-10-4.477-10-10v-316.646c0-5.523 4.477-10 10-10h477c5.523 0 10 4.477 10 10v316.645c0 5.523-4.477 10.001-10 10.001z" fill="#eff5f6"/><path d="m504.5 170.573v316.64c0 5.52-4.48 10-10 10h-33.31c5.52 0 10-4.48 10-10v-316.64c0-5.53-4.48-10-10-10h33.31c5.52 0 10 4.47 10 10z" fill="#cbe5e7"/><g><path d="m7.5 394.596h220.468v-234.026h-210.468c-5.523 0-10 4.477-10 10z" fill="#cbe5e7"/><path d="m197.655 160.57h30.312v234.025h-30.312z" fill="#a9d3d8"/><g><path d="m162.096 349.539h-88.724c-5.523 0-10-4.477-10-10v-124.809c0-5.523 4.477-10 10-10h88.725c5.523 0 10 4.477 10 10v124.808c-.001 5.524-4.478 10.001-10.001 10.001z" fill="#eff5f6"/><path d="m172.094 214.726v124.816c0 5.52-4.48 10-10 10h-38.064c5.52 0 10-4.48 10-10v-124.816c0-5.52-4.48-10-10-10h38.065c5.519 0 9.999 4.48 9.999 10z" fill="#cbe5e7"/><path d="m63.374 234.036h108.72v86.196h-108.72z" fill="#68dbf9"/><path d="m134.03 234.036h38.065v86.196h-38.065z" fill="#21c1f8"/></g></g></g><g><path d="m227.968 204.726h226.147v144.816h-226.147z" fill="#fb4a59"/><path d="m423.774 204.726h30.341v144.816h-30.341z" fill="#f82f40"/></g><g><path d="m456.778 462.828h-401.556c-5.523 0-10-4.477-10-10v-14.448c0-5.523 4.477-10 10-10h401.556c5.523 0 10 4.477 10 10v14.448c0 5.523-4.477 10-10 10z" fill="#7da2b0"/><path d="m466.78 438.384v14.44c0 5.53-4.48 10-10 10h-33.28c5.52 0 10-4.47 10-10v-14.44c0-5.53-4.48-10-10-10h33.28c5.52 0 10 4.47 10 10z" fill="#688d97"/><path d="m140.124 428.38h-84.902c-5.523 0-10 4.477-10 10v14.448c0 5.523 4.477 10 10 10h84.901v-34.448z" fill="#3f5959"/></g><g><path d="m494.5 153.07h-56.454v-19.561c0-8.002-5.405-14.751-12.751-16.828v-71.896c0-20.678-16.822-37.5-37.5-37.5h-50.912c-20.678 0-37.5 16.822-37.5 37.5v71.897c-7.346 2.077-12.75 8.826-12.75 16.827v19.561l-61.27.001v-19.562c0-8.001-5.404-14.75-12.75-16.827v-71.897c0-20.678-16.822-37.5-37.5-37.5h-50.912c-20.678 0-37.5 16.822-37.5 37.5v71.897c-7.346 2.077-12.751 8.826-12.751 16.828v19.562h-56.45c-9.649 0-17.5 7.851-17.5 17.5v316.645c0 9.649 7.851 17.5 17.5 17.5h477c9.649 0 17.5-7.851 17.5-17.5v-316.647c0-9.65-7.851-17.5-17.5-17.5zm-157.617-130.785h50.912c12.406 0 22.5 10.094 22.5 22.5v71.225h-95.912v-71.225c0-12.407 10.094-22.5 22.5-22.5zm-35.25 111.224c0-1.379 1.121-2.5 2.5-2.5h116.413c1.379 0 2.5 1.121 2.5 2.5v19.561h-29.474c-4.143 0-7.5 3.357-7.5 7.5s3.357 7.5 7.5 7.5h100.928c1.379 0 2.5 1.121 2.5 2.5v216.526h-261.532v-30.054h218.647c4.143 0 7.5-3.357 7.5-7.5v-144.816c0-4.143-3.357-7.5-7.5-7.5h-218.647v-29.156h124.28c4.143 0 7.5-3.357 7.5-7.5s-3.357-7.5-7.5-7.5h-58.115zm-66.165 78.717h211.147v129.816h-211.147zm-111.267-189.941h50.912c12.406 0 22.5 10.094 22.5 22.5v71.225h-95.912v-71.225c0-12.407 10.094-22.5 22.5-22.5zm-35.251 111.224c0-1.379 1.121-2.5 2.5-2.5h116.413c1.379 0 2.5 1.121 2.5 2.5v19.562h-121.413zm-73.95 37.062c0-1.379 1.121-2.5 2.5-2.5h202.968v34.655c0 .34.031.672.074 1-.044.328-.074.66-.074 1v144.816c0 .34.031.672.074 1-.044.328-.074.66-.074 1v35.554h-205.468zm479.5 319.144h-477c-1.379 0-2.5-1.121-2.5-2.5v-85.119h482v85.119c0 1.379-1.121 2.5-2.5 2.5z"/><path d="m162.096 197.23h-88.725c-9.649 0-17.5 7.851-17.5 17.5v40.681c0 4.143 3.357 7.5 7.5 7.5s7.5-3.357 7.5-7.5v-13.876h93.725v71.199h-93.725v-23.499c0-4.143-3.357-7.5-7.5-7.5s-7.5 3.357-7.5 7.5v50.304c0 9.649 7.851 17.5 17.5 17.5h88.725c9.649 0 17.5-7.851 17.5-17.5v-124.809c0-9.649-7.851-17.5-17.5-17.5zm-91.225 29.305v-11.805c0-1.379 1.121-2.5 2.5-2.5h88.725c1.379 0 2.5 1.121 2.5 2.5v11.805zm91.225 115.504h-88.725c-1.379 0-2.5-1.121-2.5-2.5v-11.805h93.725v11.805c0 1.378-1.121 2.5-2.5 2.5z"/><path d="m456.777 420.88h-151.231c-4.143 0-7.5 3.357-7.5 7.5s3.357 7.5 7.5 7.5h39.76v19.447h-197.683v-19.447h124.098c4.143 0 7.5-3.357 7.5-7.5s-3.357-7.5-7.5-7.5h-216.498c-9.649 0-17.5 7.851-17.5 17.5v14.447c0 9.649 7.851 17.5 17.5 17.5h401.555c9.649 0 17.5-7.851 17.5-17.5v-14.447c-.001-9.649-7.851-17.5-17.501-17.5zm-50.651 15v19.447h-15.41v-19.447zm-45.82 0h15.41v19.447h-15.41zm-307.583 16.948v-14.448c0-1.379 1.121-2.5 2.5-2.5h77.4v19.447h-77.4c-1.379.001-2.5-1.12-2.5-2.499zm406.554 0c0 1.379-1.121 2.5-2.5 2.5h-35.651v-19.448h35.651c1.379 0 2.5 1.121 2.5 2.5z"/><path d="m418.388 245.877-30.068 19.568-9.984-12.78c-2.544-3.259-7.244-3.841-10.509-1.308l-68.377 53.071-14.673-13.434c-2.46-2.25-6.108-2.608-8.957-.878l-15.926 9.671c-3.541 2.149-4.668 6.763-2.518 10.303 2.149 3.54 6.764 4.668 10.303 2.518l11.118-6.751 15.189 13.907c1.428 1.307 3.244 1.968 5.065 1.968 1.618 0 3.24-.521 4.598-1.575l67.468-52.366 9.617 12.31c2.397 3.068 6.74 3.791 10.001 1.669l35.834-23.32c3.472-2.26 4.455-6.905 2.195-10.377-2.259-3.474-6.907-4.456-10.376-2.196z"/><path d="m263.786 271.303h7.395c4.143 0 7.5-3.357 7.5-7.5s-3.357-7.5-7.5-7.5h-7.395c-4.143 0-7.5 3.357-7.5 7.5s3.358 7.5 7.5 7.5z"/><path d="m263.786 247.075h7.395c4.143 0 7.5-3.357 7.5-7.5s-3.357-7.5-7.5-7.5h-7.395c-4.143 0-7.5 3.357-7.5 7.5s3.358 7.5 7.5 7.5z"/><path d="m297.991 271.303h7.394c4.143 0 7.5-3.357 7.5-7.5s-3.357-7.5-7.5-7.5h-7.394c-4.143 0-7.5 3.357-7.5 7.5s3.358 7.5 7.5 7.5z"/><path d="m297.991 247.075h7.394c4.143 0 7.5-3.357 7.5-7.5s-3.357-7.5-7.5-7.5h-7.394c-4.143 0-7.5 3.357-7.5 7.5s3.358 7.5 7.5 7.5z"/></g></g></g></svg>