<svg id="Capa_1" enable-background="new 0 0 512 512" height="512" viewBox="0 0 512 512" width="512" xmlns="http://www.w3.org/2000/svg"><g><path d="m250.423 156.385c1.705 1.17 3.683 1.756 5.66 1.756 1.978 0 3.955-.585 5.66-1.756 6.696-4.598 65.789-45.485 78.679-65.092 5.296-8.06 12.227-20.842 11.27-38.712-.749-13.994-6.671-27.133-16.675-36.998-10.191-10.049-23.513-15.583-37.513-15.583-17.822 0-32.658 11.628-41.356 20.459-8.518-8.877-23.172-20.459-41.652-20.459-13.999 0-27.32 5.534-37.51 15.582-10.004 9.865-15.926 23.004-16.675 37-.955 17.908 5.979 30.675 11.279 38.721 12.809 19.443 72.113 60.468 78.833 65.082zm-70.14-102.737c.993-18.553 16.34-33.648 34.213-33.648 18.532 0 33.048 21.277 33.176 21.468 1.821 2.745 4.885 4.407 8.179 4.459 3.267.066 6.41-1.53 8.319-4.215 4.294-6.039 18.65-21.712 33.334-21.712 17.874 0 33.224 15.095 34.217 33.648.501 9.376-1.896 17.35-8.013 26.66-7.479 11.378-43.271 38.577-67.626 55.659-24.443-17.134-60.357-44.384-67.79-55.667-6.115-9.283-8.51-17.255-8.009-26.652z"/><path d="m115.002 314.294c0-5.523-4.477-10-10-10s-10 4.477-10 10v12.823c0 5.523 4.477 10 10 10s10-4.477 10-10z"/><path d="m172.967 337.118c5.523 0 10-4.477 10-10v-12.823c0-5.523-4.477-10-10-10s-10 4.477-10 10v12.823c0 5.523 4.477 10 10 10z"/><path d="m160.288 366.757c3.904-3.906 3.902-10.238-.004-14.142s-10.238-3.902-14.142.004c-1.912 1.913-4.454 2.967-7.157 2.967-2.704 0-5.245-1.054-7.157-2.967-3.904-3.906-10.235-3.907-14.143-.004-3.906 3.904-3.908 10.236-.004 14.143 5.69 5.693 13.256 8.829 21.304 8.829s15.613-3.137 21.303-8.83z"/><path d="m502.874 302.404c-4.719-5.283-11.129-8.686-18.06-9.682 6.278-10.984 10.486-24.106 12.097-38.03 2.406-20.798-1.185-41.628-10.387-60.239-9.914-20.054-33.653-22.357-54.598-24.39-16.985-1.648-33.028-3.205-37.801-12.841-4.621-9.33-10.716-14.915-18.116-16.6-12.043-2.741-22.611 5.516-31.936 12.801-4.695 3.669-10.539 8.235-13.719 8.691-30.163 4.331-50.954 17.063-61.796 37.843-1.552 2.975-2.85 6.033-3.923 9.151-18.145-39.827-58.322-67.58-104.859-67.58h-41.586c-30.816 0-59.977 11.957-82.111 33.669-22.278 21.854-34.547 50.803-34.547 81.516v199.447c-.062 8.464 3.188 16.434 9.152 22.441 4.383 4.415 9.836 7.372 15.779 8.628v14.771c0 5.523 4.477 10 10 10h203.383c5.523 0 10-4.477 10-10v-15.05c7.171-1.77 13.502-5.861 18.011-11.35v26.4c0 5.523 4.478 10 10 10h206.748c5.522 0 10-4.477 10-10v-37.11c0-21.542-17.526-39.068-39.068-39.068h-41.691v-11.012c33.67-3.27 60.757-29.38 65.548-62.605 1.537.059 3.093-.002 4.654-.18 13.648-1.559 24.678-12.6 26.226-26.254.964-8.505-1.733-17.022-7.4-23.367zm-216.583-93.194c7.695-14.75 23.478-23.934 46.906-27.298 8.454-1.214 15.946-7.067 23.191-12.729 4.335-3.388 12.403-9.695 15.183-9.06.652.148 2.46 1.588 4.633 5.975 9.703 19.594 33.126 21.866 53.791 23.872 17.287 1.677 33.615 3.261 38.602 13.347 8.322 16.833 10.385 34.674 8.298 50.563-1.779-1.626-4.146-2.619-6.746-2.619h-30.152l-18.664-32.694c-1.372-2.404-3.68-4.132-6.373-4.771-2.688-.638-5.53-.135-7.838 1.395l-16.472 10.922c-24.812 16.453-53.662 25.149-83.431 25.149h-14.9c-4.647 0-8.553 3.17-9.675 7.465-3.307-16.113-4.098-34.672 3.647-49.517zm-56.443 282.79h-183.383v-26.41c0-10.253 8.342-18.595 18.595-18.595h146.193c10.253 0 18.595 8.342 18.595 18.596zm-113.937-95.171h-2.801c-28.905 0-52.421-23.533-52.421-52.458v-69.094h56.277c3.59 0 6.905-1.924 8.685-5.042l12.506-21.909 12.507 21.909c1.78 3.118 5.094 5.042 8.685 5.042h56.277v69.094c0 28.926-23.516 52.458-52.421 52.458h-2.801c-5.523 0-10 4.477-10 10v20.167h-24.492v-20.167c-.001-5.523-4.478-10-10.001-10zm133.936 68.487c-.148-21.156-17.404-38.321-38.593-38.321h-40.851v-10.521c36.565-3.628 65.222-34.581 65.222-72.104v-79.094c0-5.523-4.477-10-10-10h-60.471l-18.313-32.08c-1.78-3.118-5.094-5.042-8.685-5.042s-6.905 1.925-8.685 5.042l-18.313 32.08h-60.469c-5.523 0-10 4.477-10 10v79.094c0 37.522 28.657 68.475 65.222 72.104v10.521h-40.851c-21.281 0-38.595 17.314-38.595 38.595v.259c-.562-.393-1.092-.839-1.586-1.336-2.18-2.196-3.369-5.11-3.346-8.278v-199.52c0-52.485 43.36-95.185 96.658-95.185h41.586c52.471 0 95.16 42.7 95.16 95.185v199.76c-.024 3.431-2.072 6.686-5.09 8.841zm25.09-22.829v-91.954c2.603.914 5.337 1.472 8.129 1.638 4.777 33.242 31.872 59.368 65.554 62.639v11.011h-41.692c-13.214 0-24.917 6.595-31.991 16.666zm199.67 22.403v27.11h-186.748v-27.11c0-10.514 8.554-19.068 19.068-19.068h148.611c10.516-.001 19.069 8.553 19.069 19.068zm15.795-141.37c-.509 4.49-4.135 8.122-8.622 8.634-2.884.331-5.062-.574-6.385-1.391-3.086-1.901-6.959-1.984-10.122-.218-3.164 1.767-5.125 5.107-5.125 8.731v2.388c0 29.496-23.979 53.492-53.454 53.492h-2.847c-5.522 0-10 4.477-10 10v20.666h-25.227v-20.666c0-5.523-4.478-10-10-10h-2.848c-29.475 0-53.454-23.996-53.454-53.492v-.896c0-3.328-1.655-6.438-4.416-8.296-2.762-1.858-6.266-2.222-9.349-.968-1.177.478-2.428.72-3.719.72-2.853 0-5.473-1.173-7.379-3.302-1.903-2.127-2.774-4.889-2.453-7.778.503-4.518 4.301-8.248 8.835-8.677 1.65-.157 3.233.07 4.716.672 3.084 1.254 6.588.89 9.349-.968s4.416-4.968 4.416-8.296v-32.612h4.9c33.712 0 66.384-9.849 94.483-28.48l7.561-5.014 16.242 28.452c1.78 3.118 5.095 5.042 8.685 5.042h25.959v34.103c0 3.624 1.961 6.965 5.125 8.731 3.165 1.767 7.037 1.683 10.123-.219 1.549-.955 3.339-1.46 5.177-1.46 2.855 0 5.479 1.175 7.385 3.309 1.903 2.132 2.772 4.9 2.444 7.793z"/><path d="m347.531 301.091c-5.522 0-10 4.477-10 10v13.035c0 5.523 4.478 10 10 10s10-4.477 10-10v-13.035c0-5.523-4.477-10-10-10z"/><path d="m416.619 301.091c-5.522 0-10 4.477-10 10v13.035c0 5.523 4.478 10 10 10s10-4.477 10-10v-13.035c0-5.523-4.478-10-10-10z"/><path d="m389.468 350.166c-1.975 1.976-4.601 3.064-7.393 3.064s-5.418-1.088-7.393-3.064c-3.905-3.906-10.235-3.908-14.143-.004-3.906 3.904-3.908 10.236-.004 14.143 5.753 5.756 13.402 8.926 21.539 8.926s15.786-3.17 21.539-8.926c3.904-3.907 3.902-10.238-.004-14.143-3.906-3.903-10.236-3.902-14.141.004z"/></g></svg>