<svg width="15" height="21" viewBox="0 0 15 21" fill="none" xmlns="http://www.w3.org/2000/svg">
<g clip-path="url(#clip0_1_678)">
<path d="M2.01085 11.5429L1.29196 15.6138C1.28009 15.6697 1.25805 15.7206 1.22414 15.7596C0.968125 16.0902 0.807053 16.3733 0.75958 16.6022C0.72567 16.7718 0.75958 16.9074 0.873177 17.0142L3.68091 19.822C3.85894 19.9932 4.06748 20.1017 4.31502 20.1458C4.5863 20.1967 4.90166 20.1679 5.2645 20.0695C5.26958 20.0695 5.27806 20.0661 5.28484 20.0661C5.42218 20.0288 5.60359 19.9847 5.77484 19.9424C6.52764 19.7592 7.18379 19.5982 7.79417 19.0454L8.57748 18.2282C8.58596 18.2146 8.59783 18.2028 8.608 18.1909C8.61987 18.179 8.69617 18.1027 8.79959 18.0044C9.33537 17.4805 9.9983 16.8345 9.59478 16.2682L9.28111 15.9546C9.12852 16.1004 8.96745 16.2445 8.81316 16.3835C8.67243 16.5073 8.54018 16.6226 8.41811 16.7447C8.28925 16.8735 8.07901 16.8735 7.95015 16.7447C7.8213 16.6141 7.8213 16.4056 7.95015 16.2767C8.07053 16.1546 8.22143 16.0224 8.37572 15.885C8.90641 15.4171 9.51509 14.8813 9.18786 14.4134L8.87759 14.1031C8.86063 14.0861 8.84707 14.0658 8.83181 14.0471C8.65378 14.2302 8.4571 14.4049 8.26551 14.5744C8.12479 14.6982 7.99254 14.8135 7.87046 14.9356C7.73991 15.0661 7.53137 15.0661 7.40251 14.9356C7.27196 14.8067 7.27196 14.5965 7.40251 14.4676C7.52289 14.3472 7.67379 14.2133 7.82808 14.076C8.35877 13.608 8.96745 13.0722 8.64022 12.6043L8.32994 12.294C8.3079 12.272 8.29095 12.2482 8.27569 12.2228L7.36521 13.1333C7.23466 13.2621 7.02611 13.2621 6.89725 13.1333C6.7684 13.0027 6.7684 12.7942 6.89725 12.6653L8.60461 10.958C9.01322 10.5493 9.10648 10.1238 8.99966 9.80163C8.96066 9.68294 8.89454 9.57952 8.81316 9.49644C8.77077 9.45405 8.7233 9.41675 8.67074 9.38454H8.66904C8.64361 9.3964 8.62496 9.37097 8.60122 9.34724C8.5724 9.33367 8.54018 9.32011 8.50966 9.30993C8.22652 9.21668 7.8586 9.28281 7.48559 9.59647C7.4805 9.60156 7.47542 9.60665 7.47033 9.61004C7.42964 9.64395 7.38895 9.68125 7.34825 9.72194L3.80468 13.2706C3.67582 13.3995 3.46558 13.3995 3.33672 13.2706C3.21804 13.1519 3.20787 12.9688 3.30621 12.8382L2.01085 11.5429ZM4.25229 11.8871L4.36589 11.7735L6.70397 9.4354C6.46151 9.3235 6.23601 9.16582 6.03594 8.96575C5.14581 8.07562 5.14581 6.63784 6.03594 5.74771C6.92608 4.85758 8.36385 4.85758 9.25398 5.74771C10.1441 6.63784 10.1441 8.07562 9.25398 8.96575C9.2472 8.97253 9.23873 8.98101 9.23194 8.98779C9.2489 9.00305 9.26755 9.02001 9.2845 9.03696C9.35741 9.10987 9.42014 9.18956 9.47609 9.27433L12.3754 6.37504C11.9312 5.93082 11.9312 5.20515 12.3754 4.75924L10.2153 2.59919C9.77111 3.0434 9.04544 3.0434 8.59953 2.59919L2.59071 8.608C3.03493 9.05222 3.03493 9.77789 2.59071 10.2238L4.25229 11.8871ZM9.34893 11.1173C9.27094 11.2258 9.18108 11.3343 9.07426 11.4395L8.73516 11.7786L8.73177 11.7701C8.75721 11.7837 8.77925 11.8006 8.80298 11.8243L9.12682 12.1482C9.14378 12.1651 9.16073 12.1872 9.1743 12.2075C9.53883 12.706 9.48118 13.1519 9.23364 13.5588C9.27942 13.5758 9.3218 13.6012 9.35402 13.6351L9.67786 13.959C9.69481 13.9759 9.71177 13.998 9.72533 14.0183C10.117 14.5575 10.0187 15.0271 9.72533 15.4561C9.73889 15.4646 9.75076 15.4764 9.76433 15.49L10.0882 15.8138C10.1051 15.8308 10.1221 15.8528 10.1356 15.8732C10.8884 16.9023 9.99152 17.7755 9.27094 18.4808L9.08444 18.6673L8.28077 19.51L8.25534 19.5354C7.5195 20.2035 6.78874 20.3815 5.94608 20.5866C5.80536 20.6205 5.66124 20.6578 5.46456 20.707C5.45948 20.707 5.45609 20.7104 5.451 20.7104C4.99491 20.8342 4.57952 20.8647 4.20821 20.7986C3.83011 20.7308 3.50288 20.5612 3.22991 20.2933L0.427263 17.489C0.142421 17.216 0.0474737 16.8769 0.125466 16.4768C0.188199 16.1546 0.373008 15.8003 0.666328 15.4171L1.41573 11.1716V11.1546C1.42252 11.1021 1.43269 11.0427 1.44456 10.9783L0 9.53374L9.53374 0L15 5.46626L9.34893 11.1173Z" fill="#2F9BFF"/>
</g>
<defs>
<clipPath id="clip0_1_678">
<rect width="15" height="20.8342" fill="white"/>
</clipPath>
</defs>
</svg>
