<svg enable-background="new 0 0 140 140" height="512" viewBox="0 0 140 140" width="512" xmlns="http://www.w3.org/2000/svg"><circle cx="70" cy="70" fill="#509fd7" r="64"/><path d="m131.9899902 54.0200195c1.3100586 5.1098633 2.0100098 10.459961 2.0100098 15.9799805 0 35.3500977-28.6500244 64-64 64-5.6599121 0-11.1500244-.7399902-16.3699951-2.1201172l-23.3800049-23.3798828.0700684-.0700684c-6.710083-7.4199219-6.5100098-18.9099121.6398926-26.0598145l10.630127-10.630127c1.5198975-1.5200195 3.2399902-2.7199707 5.0698242-3.6101074l-8.5-8.5097656h.0200195c-.2299805-.2802734-.3498535-.6401367-.289917-1.0102539.1099853-.6999511.7698974-1.1699218 1.4599609-1.0598144l9.0999756 1.4599609c.2700195.0400391.4899902.1899414.6700439.369873h.0100098c.0499268.0500488.1099854.1000977.1600342.1601562l6.7099609 6.7099611c2.9799805.1699219 5.9299316 1.0200195 8.5800781 2.5800781l1.1699219-1.170166-21.1500244-21.1499023c-.4899902-.5-.4899902-1.3000488 0-1.8000488.5-.5 1.3099365-.5 1.8099365 0l21.1401367 21.1401367 1.1799316-1.1801758c-1.5500488-2.6298828-2.3999023-5.5600586-2.5700684-8.5200195l-6.9199219-6.9199219v-.0300293c-.1599121-.1799316-.3000488-.3898926-.3399658-.6499023l-1.460083-9.0900879c-.1098632-.6999512.3701173-1.3500977 1.0600587-1.459961.4199219-.0700684.8000488.0898438 1.0800781.3598633v-.0297852l8.4399414 8.4399414c.8898926-1.8400879 2.0999756-3.5600586 3.6199951-5.0800781l10.6199951-10.6298828c7.3800049-7.380127 19.3900146-7.380127 26.7700195 0z" opacity=".1"/><path d="m68.3633499 71.7407761c-7.3800011-7.3798828-19.3898888-7.3798828-26.7700157 0l-10.6298847 10.6298828c-7.380127 7.380127-7.380127 19.3901367 0 26.7700195 7.3798847 7.380127 19.3898945 7.380127 26.7698994 0l10.6300011-10.6298828c7.3800048-7.380127 7.3800048-19.3901367-.0000001-26.7700195zm-31.8100548 31.8100586c-4.289917-4.3000488-4.289917-11.2900391 0-15.5900879l10.630127-10.630127c4.2999268-4.2897949 11.2900391-4.2897949 15.5799561 0 4.2999229 4.3000488 4.2999229 11.2900391 0 15.5900879l-10.6199951 10.630127c-4.3000489 4.290039-11.2900391 4.290039-15.590088 0z" fill="#3a545f"/><path d="m109.0333939 31.0608463c-7.3800049-7.380127-19.3900146-7.380127-26.7700195 0l-10.6199952 10.6298847c-7.3900146 7.380127-7.3900146 19.3898926 0 26.7700157 7.3800049 7.380127 19.3900146 7.380127 26.7700195 0l10.6199951-10.6198692c7.3900147-7.3801269 7.3900147-19.3901367.0000001-26.7800312zm-31.8000489 31.8098164c-4.2999268-4.2998047-4.2999268-11.2900391 0-15.5898438l10.6300049-10.6201172c4.2900391-4.2998047 11.2800293-4.2998047 15.5800781 0 4.2999268 4.2900391 4.2999268 11.2900391 0 15.5800781l-10.630127 10.6298828c-4.2899169 4.3000451-11.2799071 4.3000451-15.579956.0000001z" fill="#3a545f"/><path d="m81.9933548 64.8108444-17.289917 17.2800293c-1.8500938 1.8498535-4.8400841 1.8498535-6.6900597 0-1.8499756-1.8500977-1.8499756-4.8400879 0-6.6901855l17.2799034-17.2897911c1.8500977-1.8400879 4.8500977-1.8400879 6.7000732 0 1.8399659 1.8498535 1.8399659 4.8498535.0000001 6.6999473z" fill="#ffd25a"/><g fill="#e6e7e8"><path d="m52.919384 53.0243225c-.4984818.4984779-1.3056488.4980392-1.8036919 0l-6.5115242-6.5115242c-.4980392-.4980431-.4984818-1.3052139 0-1.8036957.4984818-.4984779 1.3056526-.4980392 1.8036957 0l6.5115204 6.5115242c.4980431.4980431.4984818 1.305214 0 1.8036957z"/><path d="m60.3634148 49.6085815c-.6960678.1116257-1.3497391-.3619118-1.4612617-1.0573616l-1.4581108-9.092514c-.1115265-.6954498.3612976-1.3496399 1.0573616-1.4612617.6960678-.1116257 1.3497391.3619118 1.4612617 1.0573654l1.4581146 9.0925102c.1115227.6954536-.3613014 1.3496399-1.0573654 1.4612617z"/><path d="m49.5036469 60.4683495c.1116257-.6960678-.3619118-1.3497391-1.0573654-1.4612617l-9.0925102-1.4581108c-.6954536-.1115265-1.3496399.3612976-1.4612617 1.0573654-.1116257.696064.3619118 1.3497353 1.0573654 1.4612617l9.0925102 1.4581108c.6954535.1115226 1.3496398-.3613014 1.4612617-1.0573654z"/><path d="m87.0798416 87.1847763c.4984818-.4984818 1.3056488-.4980392 1.803688 0l6.511528 6.5115204c.4980392.4980469.4984818 1.3052139 0 1.8036957s-1.3056488.4980392-1.8036957 0l-6.5115204-6.5115204c-.4980391-.4980469-.4984816-1.3052139.0000001-1.8036957z"/><path d="m79.6358109 90.6005096c.6960678-.111618 1.3497391.3619156 1.4612656 1.0573654l1.458107 9.092514c.1115265.6954498-.3612976 1.3496399-1.0573654 1.4612656-.6960602.1116257-1.3497314-.3619156-1.4612579-1.0573654l-1.4581146-9.092514c-.1115267-.6954498.3612974-1.3496399 1.0573653-1.4612656z"/><path d="m90.495575 79.7407455c-.111618.6960678.3619156 1.3497391 1.0573654 1.4612656l9.092514 1.458107c.6954498.1115265 1.3496399-.3612976 1.4612656-1.0573654.111618-.6960602-.3619156-1.3497314-1.0573654-1.4612579l-9.092514-1.4581146c-.6954499-.1115189-1.34964.3613052-1.4612656 1.0573653z"/></g></svg>