<svg width="23" height="23" viewBox="0 0 23 23" fill="none" xmlns="http://www.w3.org/2000/svg">
<g clip-path="url(#clip0_1_637)">
<path d="M7.66668 10.3117H7.11085C6.35233 10.2843 5.59627 10.4131 4.88959 10.69C4.18291 10.967 3.54069 11.3862 3.00279 11.9217L2.84946 12.1006V17.3906H5.45612V14.3878L5.80751 13.9917L5.96723 13.8064C6.79902 12.9519 7.83457 12.3231 8.9764 11.9792C8.40492 11.544 7.95409 10.97 7.66668 10.3117Z" fill="#2F9BFF"/>
<path d="M20.0234 11.9024C19.4855 11.3669 18.8433 10.9477 18.1366 10.6707C17.4299 10.3938 16.6739 10.265 15.9154 10.2924C15.6827 10.2937 15.4503 10.3065 15.219 10.3308C14.9262 10.9484 14.4877 11.4856 13.9412 11.896C15.1603 12.233 16.2646 12.8956 17.1356 13.8127L17.2954 13.9916L17.6404 14.3877V17.3969H20.1576V12.0813L20.0234 11.9024Z" fill="#2F9BFF"/>
<path d="M7.09115 9.06579H7.2892C7.19718 8.27564 7.33582 7.47574 7.6884 6.76265C8.04098 6.04956 8.59241 5.45377 9.27615 5.04718C9.0283 4.66854 8.68637 4.36076 8.28383 4.15398C7.88129 3.94719 7.43195 3.8485 6.97981 3.86755C6.52767 3.88661 6.08823 4.02276 5.70452 4.26267C5.3208 4.50259 5.00598 4.83805 4.79086 5.23619C4.57575 5.63434 4.46773 6.08153 4.47737 6.53397C4.48701 6.98641 4.61399 7.42859 4.84587 7.81721C5.07775 8.20583 5.40659 8.52757 5.80017 8.75092C6.19376 8.97427 6.63861 9.09157 7.09115 9.09135V9.06579Z" fill="#2F9BFF"/>
<path d="M15.6077 8.58666C15.6149 8.73352 15.6149 8.88064 15.6077 9.0275C15.7303 9.04713 15.8541 9.05781 15.9783 9.05944H16.0996C16.5502 9.03542 16.9868 8.89514 17.3671 8.65226C17.7473 8.40939 18.0582 8.0722 18.2695 7.67351C18.4807 7.27482 18.5851 6.82823 18.5725 6.37721C18.56 5.9262 18.4308 5.48612 18.1977 5.09983C17.9645 4.71355 17.6353 4.39421 17.2421 4.17292C16.8489 3.95162 16.4051 3.83591 15.9539 3.83704C15.5027 3.83818 15.0595 3.95612 14.6675 4.17939C14.2754 4.40266 13.9478 4.72365 13.7166 5.11111C14.2948 5.48865 14.7703 6.00383 15.1004 6.61043C15.4304 7.21703 15.6048 7.89608 15.6077 8.58666Z" fill="#2F9BFF"/>
<path d="M11.4164 11.449C12.9936 11.449 14.2722 10.1704 14.2722 8.59314C14.2722 7.0159 12.9936 5.7373 11.4164 5.7373C9.83915 5.7373 8.56055 7.0159 8.56055 8.59314C8.56055 10.1704 9.83915 11.449 11.4164 11.449Z" fill="#2F9BFF"/>
<path d="M11.5703 12.9695C10.7359 12.9362 9.9035 13.0718 9.1229 13.3682C8.34231 13.6646 7.62966 14.1158 7.02776 14.6945L6.86804 14.8734V18.9175C6.87054 19.0493 6.89896 19.1792 6.95168 19.3C7.00441 19.4207 7.0804 19.5299 7.17533 19.6212C7.27026 19.7126 7.38225 19.7844 7.50493 19.8324C7.6276 19.8805 7.75853 19.904 7.89026 19.9014H15.2311C15.3628 19.904 15.4938 19.8805 15.6164 19.8324C15.7391 19.7844 15.8511 19.7126 15.946 19.6212C16.041 19.5299 16.117 19.4207 16.1697 19.3C16.2224 19.1792 16.2508 19.0493 16.2533 18.9175V14.8861L16.1 14.6945C15.5022 14.1137 14.7921 13.6611 14.0132 13.3645C13.2342 13.0678 12.403 12.9334 11.5703 12.9695Z" fill="#2F9BFF"/>
</g>
<defs>
<clipPath id="clip0_1_637">
<rect width="23" height="23" fill="white"/>
</clipPath>
</defs>
</svg>
