<svg id="Capa_1" enable-background="new 0 0 512 512" height="512" viewBox="0 0 512 512" width="512" xmlns="http://www.w3.org/2000/svg"><g><g><path d="m7.5 98.665c0-18.04 14.694-32.665 32.82-32.665h431.36c18.126 0 32.82 14.625 32.82 32.665v314.67c0 18.04-14.694 32.665-32.82 32.665h-431.36c-18.126 0-32.82-14.625-32.82-32.665z" fill="#f9f8f8"/><path d="m60.32 446h-20c-18.13 0-32.82-14.62-32.82-32.66v-314.68c0-18.04 14.69-32.66 32.82-32.66h20c-18.13 0-32.82 14.62-32.82 32.66v314.68c0 18.04 14.69 32.66 32.82 32.66z" fill="#ede8e5"/><path d="m155.198 212.735v163.828c0 7.322-7.839 13.258-17.509 13.258s-17.509-5.936-17.509-13.258v-164.225z" fill="#e1dfe3"/><path d="m120.18 161.185v-28.125c0-7.274 7.839-13.171 17.509-13.171s17.509 5.897 17.509 13.171v28.125" fill="#e1dfe3"/><path d="m145.19 388.54c-2.27.82-4.82 1.28-7.5 1.28-9.67 0-17.51-5.94-17.51-13.26v-164.22l15 .17v164.05c0 5.29 4.09 9.86 10.01 11.98z" fill="#d1ced4"/><path d="m145.027 121.069c-5.924 2.111-10.017 6.654-10.017 11.908v28.149h-15.01v-28.149c0-7.275 7.845-13.179 17.522-13.179 2.682 0 5.234.45 7.505 1.271z" fill="#d1ced4"/><path d="m275.155 347.157c.038 6.587.077 23.175.115 29.762 0 7.265-7.839 13.155-17.509 13.155s-17.509-5.89-17.509-13.155c.032-6.587.064-23.175.096-29.762z" fill="#e1dfe3"/><path d="m240.348 296.462c-.032-51.064-.064-112.128-.096-163.193 0-7.324 7.839-13.261 17.509-13.261s17.509 5.937 17.509 13.261c-.038 51.064-.077 112.128-.115 163.193z" fill="#e1dfe3"/><path d="m265.179 388.891c-2.272.821-4.813 1.271-7.505 1.271-9.677 0-17.522-5.894-17.522-13.159.03-6.594.07-23.196.1-29.78h15.01c-.03 6.585-.07 23.186-.1 29.78 0 5.244 4.093 9.777 10.017 11.888z" fill="#d1ced4"/><path d="m255.162 133.187c.03 51.095.07 112.207.1 163.302h-15.01c-.03-51.095-.07-112.207-.1-163.302 0-7.325 7.845-13.269 17.522-13.269 2.692 0 5.234.46 7.505 1.281-5.924 2.121-10.017 6.694-10.017 11.988z" fill="#d1ced4"/><path d="m393.324 265.916v111.308c0 7.277-7.839 13.177-17.509 13.177s-17.509-5.9-17.509-13.177c.07-34.103.141-77.206.211-111.308z" fill="#e1dfe3"/><path d="m358.517 213.91c-.07-23.493-.141-56.987-.211-80.48 0-7.358 7.839-13.324 17.509-13.324s17.509 5.965 17.509 13.324v80.48z" fill="#e1dfe3"/><path d="m383.31 389.222c-2.272.811-4.823 1.271-7.505 1.271-9.677 0-17.512-5.904-17.512-13.189.07-34.123.14-77.253.21-111.376h15.01c-.07 34.123-.14 77.253-.21 111.376 0 5.263 4.093 9.806 10.007 11.918z" fill="#d1ced4"/><path d="m373.303 133.347c.07 23.506.14 57.029.21 80.535h-15.01c-.07-23.506-.14-57.029-.21-80.535 0-7.365 7.835-13.329 17.512-13.329 2.682 0 5.234.46 7.505 1.281-5.914 2.141-10.007 6.724-10.007 12.048z" fill="#d1ced4"/><path d="m160.201 222.151h-45.024c-19.34 0-35.018-15.6-35.018-34.845s15.678-34.845 35.018-34.845h45.024c19.34 0 35.018 15.6 35.018 34.845s-15.678 34.845-35.018 34.845z" fill="#96d094"/><path d="m192.9 199.78c-5.03 13.08-17.78 22.37-32.7 22.37h-45.02c-19.34 0-35.02-15.6-35.02-34.84 0-14.79 9.26-27.43 22.32-32.48-1.5 3.87-2.32 8.08-2.32 12.48 0 19.24 15.68 34.84 35.02 34.84h45.02c4.48 0 8.76-.84 12.7-2.37z" fill="#8bc089"/><path d="m280.264 356.552h-45.024c-19.34 0-35.018-15.6-35.018-34.845s15.678-34.845 35.018-34.845h45.024c19.34 0 35.018 15.6 35.018 34.845s-15.678 34.845-35.018 34.845z" fill="#ed5"/><path d="m312.96 334.18c-5.03 13.08-17.78 22.37-32.7 22.37h-45.02c-19.34 0-35.02-15.6-35.02-34.84 0-14.79 9.26-27.43 22.32-32.48-1.5 3.87-2.32 8.08-2.32 12.48 0 19.24 15.68 34.84 35.02 34.84h45.02c4.48 0 8.76-.84 12.7-2.37z" fill="#ead246"/><path d="m398.326 273.92h-45.024c-19.34 0-35.018-15.6-35.018-34.845s15.678-34.845 35.018-34.845h45.024c19.34 0 35.018 15.6 35.018 34.845s-15.677 34.845-35.018 34.845z" fill="#ba333e"/><path d="m431.03 251.56c-5.05 13.08-17.78 22.36-32.7 22.36h-45.03c-19.34 0-35.02-15.6-35.02-34.84 0-14.79 9.26-27.43 22.32-32.48-1.5 3.87-2.32 8.08-2.32 12.48 0 19.24 15.68 34.84 35.02 34.84h45.03c4.48 0 8.76-.84 12.7-2.36z" fill="#a82933"/></g><g><path d="m7.5 152.5c4.142 0 7.5-3.357 7.5-7.5v-46.335c0-13.876 11.358-25.165 25.32-25.165h249.873c4.142 0 7.5-3.357 7.5-7.5s-3.358-7.5-7.5-7.5h-249.873c-22.233 0-40.32 18.018-40.32 40.165v46.335c0 4.143 3.358 7.5 7.5 7.5z"/><path d="m411.954 438.5h-371.634c-13.962 0-25.32-11.289-25.32-25.165v-233.335c0-4.143-3.358-7.5-7.5-7.5s-7.5 3.357-7.5 7.5v233.335c0 22.147 18.087 40.165 40.32 40.165h371.634c4.142 0 7.5-3.357 7.5-7.5s-3.358-7.5-7.5-7.5z"/><path d="m471.68 58.5h-146.51c-4.142 0-7.5 3.357-7.5 7.5s3.358 7.5 7.5 7.5h146.51c13.961 0 25.32 11.289 25.32 25.165v314.67c0 13.876-11.358 25.165-25.32 25.165h-24.734c-4.142 0-7.5 3.357-7.5 7.5s3.358 7.5 7.5 7.5h24.734c22.232 0 40.32-18.018 40.32-40.165v-314.67c0-22.147-18.087-40.165-40.32-40.165z"/><path d="m120.18 297.557c-4.142 0-7.5 3.357-7.5 7.5v71.506c0 11.641 10.985 20.759 25.009 20.759s25.009-9.118 25.009-20.759v-146.99c22.286-1.292 40.021-19.752 40.021-42.266s-17.735-40.973-40.021-42.266v-11.98c0-11.592-10.985-20.672-25.009-20.672s-25.009 9.08-25.009 20.672v11.98c-22.286 1.292-40.021 19.752-40.021 42.266s17.735 40.973 40.021 42.266v39.717c0 4.143 3.358 7.5 7.5 7.5s7.5-3.357 7.5-7.5v-39.638h20.019v146.911c0 2.719-4.281 5.759-10.009 5.759s-10.009-3.04-10.009-5.759v-71.506c-.001-4.143-3.359-7.5-7.501-7.5zm17.509-170.168c5.637 0 10.009 3.049 10.009 5.672v11.901h-20.018v-11.901c0-2.623 4.372-5.672 10.009-5.672zm-50.03 59.918c0-15.078 12.345-27.345 27.519-27.345h45.023c15.174 0 27.519 12.267 27.519 27.345s-12.345 27.345-27.519 27.345c-4.396-.282-39.66.156-45.023 0-15.175-.001-27.519-12.267-27.519-27.345z"/><path d="m322.783 321.707c0-22.547-17.789-41.031-40.123-42.273l.109-146.164c0-11.642-10.985-20.761-25.009-20.761-14.023 0-25.009 9.119-25.009 20.766l.092 146.159c-22.333 1.243-40.121 19.727-40.121 42.273 0 22.537 17.773 41.014 40.092 42.271l-.063 12.94c0 11.582 10.985 20.654 25.009 20.654s25.009-9.072 25.009-20.697l-.075-12.898c22.318-1.259 40.089-19.734 40.089-42.27zm-65.023-194.198c5.729 0 10.009 3.041 10.009 5.755l-.109 146.099h-19.817l-.092-146.093c0-2.72 4.281-5.761 10.009-5.761zm0 255.064c-5.637 0-10.009-3.039-10.009-5.618l.063-12.903h19.88l.075 12.867c.001 2.615-4.372 5.654-10.009 5.654zm22.504-33.521h-45.024c-15.173 0-27.518-12.267-27.518-27.345s12.345-27.345 27.518-27.345h45.024c15.174 0 27.519 12.267 27.519 27.345s-12.345 27.345-27.519 27.345z"/><path d="m400.824 196.81v-63.38c0-11.677-10.985-20.824-25.009-20.824s-25.009 9.147-25.009 20.847l.19 63.343c-22.376 1.198-40.211 19.703-40.211 42.28 0 22.58 17.84 41.087 40.219 42.281l-.198 95.868c0 11.595 10.985 20.677 25.009 20.677s25.009-9.082 25.009-20.677v-95.883c22.286-1.292 40.021-19.752 40.021-42.266s-17.735-40.974-40.021-42.266zm-25.01-69.205c5.729 0 10.009 3.075 10.009 5.824v63.301h-19.829l-.19-63.301c.001-2.748 4.282-5.824 10.01-5.824zm0 255.295c-5.637 0-10.009-3.052-10.009-5.661l.198-95.819h19.821v95.804c0 2.625-4.372 5.676-10.01 5.676zm22.513-116.48h-45.024c-15.174 0-27.519-12.267-27.519-27.345s12.345-27.345 27.519-27.345h45.024c15.173 0 27.518 12.267 27.518 27.345s-12.345 27.345-27.518 27.345z"/></g></g></svg>