<svg id="_x31__x2C_5" enable-background="new 0 0 24 24" height="512" viewBox="0 0 24 24" width="512" xmlns="http://www.w3.org/2000/svg"><path d="m23.25 8c-.414 0-.75-.336-.75-.75v-4.5c0-.689-.561-1.25-1.25-1.25h-4.5c-.414 0-.75-.336-.75-.75s.336-.75.75-.75h4.5c1.517 0 2.75 1.233 2.75 2.75v4.5c0 .414-.336.75-.75.75z"/><path d="m7.25 24h-4.5c-1.517 0-2.75-1.233-2.75-2.75v-4.5c0-.414.336-.75.75-.75s.75.336.75.75v4.5c0 .689.561 1.25 1.25 1.25h4.5c.414 0 .75.336.75.75s-.336.75-.75.75z"/><path d="m21.25 24h-4.5c-.414 0-.75-.336-.75-.75s.336-.75.75-.75h4.5c.689 0 1.25-.561 1.25-1.25v-4.5c0-.414.336-.75.75-.75s.75.336.75.75v4.5c0 1.517-1.233 2.75-2.75 2.75z"/><path d="m.75 8c-.414 0-.75-.336-.75-.75v-4.5c0-1.517 1.233-2.75 2.75-2.75h4.5c.414 0 .75.336.75.75s-.336.75-.75.75h-4.5c-.689 0-1.25.561-1.25 1.25v4.5c0 .414-.336.75-.75.75z"/><path d="m13.25 19.5h-1.75c-.002 0-.004 0-.006 0-2.205-.018-3.47-1.056-4.368-3.583-.486-1.37-.92-1.683-1.207-1.89-.25-.181-.669-.482-.669-1.165 0-.628.517-1.361 1.973-1.361.503 0 .926.126 1.277.316v-4.067c0-.965.785-1.75 1.75-1.75.137 0 .271.016.398.046.272-.615.887-1.046 1.602-1.046s1.33.431 1.602 1.046c.127-.03.261-.046.398-.046.965 0 1.75.785 1.75 1.75v.268c1.013-.148 2 .682 2 1.732v5c0 2.619-2.131 4.75-4.75 4.75zm-1.746-1.5h1.746c1.792 0 3.25-1.458 3.25-3.25v-5c0-.275-.5-.275-.5 0v2.5c0 .414-.336.75-.75.75s-.75-.336-.75-.75v-4.5c0-.275-.5-.275-.5 0v4c0 .414-.336.75-.75.75s-.75-.336-.75-.75v-5c0-.275-.5-.275-.5 0v4.5c0 .414-.336.75-.75.75s-.75-.336-.75-.75v-3.5c0-.275-.5-.275-.5 0v6c0 .362-.259.672-.614.738-.363.063-.708-.133-.837-.471-.015-.037-.416-1.017-1.326-1.017-.063 0-.12.002-.171.005.469.387.987.999 1.488 2.409.845 2.379 1.801 2.577 2.964 2.586z"/></svg>