<svg width="60" height="70" viewBox="0 0 60 70" fill="none" xmlns="http://www.w3.org/2000/svg">
<g clip-path="url(#clip0_1_1045)">
<path fill-rule="evenodd" clip-rule="evenodd" d="M44.2 38.0639C48.5551 38.0639 52.5007 39.834 55.3605 42.6925C58.2299 45.5497 60 49.502 60 53.8626C60 58.2245 58.2299 62.1769 55.3714 65.034L55.1918 65.2C52.3456 67.9605 48.4694 69.6626 44.2 69.6626C39.8381 69.6626 35.8871 67.8925 33.0299 65.034C30.1714 62.1769 28.4014 58.2245 28.4014 53.8626C28.4014 49.5007 30.1714 45.5497 33.0299 42.6925C35.8871 39.834 39.8381 38.0639 44.2 38.0639ZM33.0762 5.18095V12.5524C33.2109 14.3116 33.8245 15.6939 34.902 16.6136C36.0177 17.5673 37.6857 18.102 39.8939 18.1415L45.0531 18.1361L33.0762 5.18095ZM45.4857 21.5741L39.8667 21.5687C36.8068 21.5211 34.3959 20.698 32.6694 19.2231C30.8694 17.6844 29.8558 15.502 29.6503 12.7973L29.6354 12.5605V3.44082H8.55374C7.14694 3.44082 5.86667 4.01633 4.9415 4.9415C4.01633 5.86667 3.44082 7.14694 3.44082 8.55374V54.3347C3.44082 55.736 4.01905 57.0163 4.94558 57.9429C5.87075 58.868 7.15238 59.4463 8.55374 59.4463H24.8C25.1456 60.6422 25.5986 61.7932 26.1497 62.8871H8.55374C6.20272 62.8871 4.06122 61.9238 2.51156 60.3755C0.963265 58.8258 0 56.6857 0 54.3347V8.55374C0 6.20544 0.963265 4.06667 2.5102 2.51837C4.06667 0.963265 6.20544 0 8.55374 0H32.2109C32.7701 0 33.2667 0.266667 33.581 0.680272L48.4639 16.781C48.7687 17.1116 48.9184 17.5279 48.9184 17.9442L48.9224 34.2327C47.8095 33.9646 46.6612 33.7905 45.4857 33.717V21.5741ZM14.2259 28.9878C13.2762 28.9878 12.5061 28.2177 12.5061 27.268C12.5061 26.317 13.2762 25.5469 14.2259 25.5469H34.7007C35.6503 25.5469 36.4218 26.317 36.4218 27.268C36.4218 28.2177 35.6503 28.9878 34.7007 28.9878H14.2259ZM14.2259 38.8245C13.2762 38.8245 12.5061 38.0544 12.5061 37.1034C12.5061 36.1537 13.2762 35.3837 14.2259 35.3837H33.6163C34.1211 35.3837 34.5755 35.6014 34.8912 35.9483C33.3916 36.73 31.9957 37.6962 30.7361 38.8245H14.2259ZM14.2259 48.6612C13.2762 48.6612 12.5061 47.8912 12.5061 46.9401C12.5061 45.9905 13.2762 45.2204 14.2259 45.2204H25.9537C25.434 46.3156 25.0082 47.4667 24.6898 48.6612H14.2259ZM51.9497 52.1279V55.1456C51.9497 55.7333 51.4517 56.2299 50.8639 56.2299H46.7959V60.2993C46.7959 60.8884 46.2993 61.3837 45.7102 61.3837H42.6925C42.1034 61.3837 41.6068 60.8952 41.6068 60.2993V56.2299H37.5374C36.9497 56.2299 36.4531 55.7415 36.4531 55.1456V52.1279C36.4531 51.532 36.9415 51.0435 37.5374 51.0435H41.6068V46.9741C41.6068 46.3769 42.0952 45.8898 42.6925 45.8898H45.7102C46.3075 45.8898 46.7959 46.385 46.7959 46.9741V51.0435H50.8639C51.4612 51.0435 51.9497 51.5469 51.9497 52.1279Z" fill="black"/>
</g>
<defs>
<clipPath id="clip0_1_1045">
<rect width="60" height="69.6626" fill="white"/>
</clipPath>
</defs>
</svg>
