<svg width="28" height="17" viewBox="0 0 28 17" fill="none" xmlns="http://www.w3.org/2000/svg">
<g clip-path="url(#clip0_1_615)">
<path d="M1.73301 8.4388L12.2204 14.7065L12.1723 14.1427C12.1504 13.8731 12.3511 13.6358 12.6202 13.6139C12.8898 13.592 13.1271 13.7927 13.149 14.0618L13.2967 15.8008C13.3186 16.0704 13.1179 16.3072 12.8488 16.3297L11.142 16.474C10.8729 16.4959 10.6356 16.2958 10.6137 16.0261C10.5918 15.7565 10.792 15.5192 11.0616 15.4973L11.5658 15.4547L1.27527 9.30396L1.40597 9.79286C1.47597 10.0543 1.32066 10.3228 1.05926 10.3928C0.798397 10.4622 0.529881 10.3069 0.459881 10.0461L0.016912 8.39177C-0.053088 8.13091 0.102225 7.86185 0.363084 7.79239L2.04855 7.34068C2.30941 7.27122 2.57847 7.42654 2.64793 7.6874C2.71793 7.94825 2.56262 8.21732 2.30121 8.28677L1.73301 8.4388ZM16.5916 10.5421L15.9386 9.88911C15.7472 9.69825 15.7472 9.38763 15.9386 9.19622C16.13 9.00482 16.4407 9.00482 16.6321 9.19622L17.4535 10.0176L23.4407 6.37325L19.898 4.35364L15.1905 7.75466L15.5186 8.08279C15.7095 8.27364 15.7095 8.58427 15.5186 8.77568C15.3272 8.96708 15.0166 8.96708 14.8252 8.77568L14.3855 8.33599L13.6997 8.83146C13.481 8.98896 13.1758 8.93919 13.0183 8.72044C12.8608 8.50169 12.91 8.19599 13.1293 8.03849L18.9656 3.82208L14.1039 1.05052L11.5505 2.49208L13.5504 4.26286C13.5914 4.29403 13.6286 4.33177 13.6593 4.37607C13.8135 4.5981 13.7588 4.9038 13.5368 5.05802L8.48637 8.57005L10.6739 9.87708L12.0154 8.78005C12.2243 8.60888 12.5332 8.64005 12.7044 8.84896C12.8761 9.05841 12.845 9.36739 12.6361 9.53857L11.5686 10.4114L14.2121 11.9908L16.5916 10.5421ZM24.658 6.77685L14.4692 12.979C14.3932 13.0256 14.3059 13.0504 14.2168 13.0508C14.1277 13.0512 14.0402 13.0271 13.9639 12.9811L3.52129 6.74239C3.44887 6.6983 3.38899 6.63634 3.34738 6.56247C3.21558 6.32786 3.29871 6.02982 3.53332 5.89802L13.8386 0.0798162C13.9868 -0.0169807 14.1826 -0.0295588 14.3472 0.0639568L24.6378 5.93028C24.7111 5.97021 24.7745 6.02872 24.8204 6.10474C24.961 6.33497 24.8882 6.6363 24.658 6.77685ZM10.6509 2.99958L4.74465 6.33443L7.56324 8.01825L12.4671 4.60794L10.6509 2.99958ZM17.4371 15.5285C17.6979 15.5974 17.8543 15.8654 17.7854 16.1262C17.7171 16.3871 17.4491 16.5435 17.1877 16.4746L15.5323 16.0371C15.2709 15.9682 15.115 15.7002 15.1834 15.4393L15.6296 13.7522C15.6986 13.4914 15.9665 13.3355 16.2274 13.4039C16.4882 13.4728 16.6441 13.7408 16.5757 14.0016L16.421 14.5879L26.2434 8.92169L25.6987 8.77568C25.4373 8.70568 25.282 8.43716 25.352 8.1763C25.4214 7.91489 25.6905 7.75958 25.9514 7.82958L27.6368 8.2813C27.8977 8.35075 28.053 8.61982 27.983 8.88068L27.54 10.535C27.47 10.7958 27.2015 10.9511 26.9407 10.8817C26.6793 10.8117 26.5239 10.5432 26.5939 10.2818L26.7318 9.76661L16.9613 15.4027L17.4371 15.5285Z" fill="#2F9BFF"/>
</g>
<defs>
<clipPath id="clip0_1_615">
<rect width="28" height="16.491" fill="white"/>
</clipPath>
</defs>
</svg>
