<svg width="14" height="16" viewBox="0 0 14 16" fill="none" xmlns="http://www.w3.org/2000/svg">
<path d="M6.99969 9.12757C5.75719 9.12757 4.74219 8.11841 4.74219 6.87007C4.74219 5.62174 5.75719 4.61841 6.99969 4.61841C8.24219 4.61841 9.25719 5.62758 9.25719 6.87591C9.25719 8.12424 8.24219 9.12757 6.99969 9.12757ZM6.99969 5.49341C6.24135 5.49341 5.61719 6.11174 5.61719 6.87591C5.61719 7.64007 6.23552 8.25841 6.99969 8.25841C7.76385 8.25841 8.38219 7.64007 8.38219 6.87591C8.38219 6.11174 7.75802 5.49341 6.99969 5.49341Z" fill="#FF5F5F"/>
<path d="M7.00028 15.1383C6.13694 15.1383 6.26778 14.8117 5.59111 14.1642C3.87028 12.5075 0.96861 8.86499 1.68611 5.72082C2.33361 2.86832 4.82444 1.59082 7.00028 1.59082C7.00028 1.59082 7.00028 1.59082 7.00611 1.59082C9.18194 1.59082 11.6728 2.86832 12.3203 5.72665C13.0319 8.87082 10.1303 12.5075 8.40944 14.1642C7.73278 14.8117 7.86361 15.1383 7.00028 15.1383ZM7.00028 2.46582C5.30278 2.46582 3.12111 3.36999 2.54361 5.91332C1.91361 8.66082 4.64028 12.0292 6.20361 13.5283C7.21278 14.5025 6.79361 14.5025 7.80278 13.5283C9.36028 12.0292 12.0869 8.66082 11.4686 5.91332C10.8853 3.36999 8.69778 2.46582 7.00028 2.46582Z" fill="#FF5F5F"/>
</svg>
