<?xml version="1.0" encoding="iso-8859-1"?>
<!-- Generator: Adobe Illustrator 19.0.0, SVG Export Plug-In . SVG Version: 6.00 Build 0)  -->
<svg version="1.1" id="Layer_1" xmlns="http://www.w3.org/2000/svg" xmlns:xlink="http://www.w3.org/1999/xlink" x="0px" y="0px"
	 viewBox="0 0 512.16 512.16" style="enable-background:new 0 0 512.16 512.16;" xml:space="preserve">
<path style="fill:#FFFFFF;" d="M372.9,508.16H94.372c-15.688,0-28.52-12.832-28.52-28.52V32.632c0-15.688,12.832-28.52,28.52-28.52
	h323.4c15.688,0,28.52,12.832,28.52,28.52v402.344"/>
<path style="fill:#AAC1CE;" d="M372.9,512.16H94.38c-17.928,0-32.52-14.592-32.52-32.52V32.632c0-17.928,14.592-32.52,32.52-32.52
	h323.4c17.928,0,32.52,14.592,32.52,32.52v402.336h-8V32.632c0-13.52-11-24.52-24.52-24.52H94.38c-13.52,0-24.52,11-24.52,24.52v447
	c0,13.52,11,24.52,24.52,24.52H372.9V512.16z"/>
<path d="M372.9,450.4v61.712l77.136-77.136h-61.712C379.844,434.968,372.9,441.912,372.9,450.4z"/>
<g style="opacity:0.5;">
	<rect x="86.756" y="46.776" style="fill:#AAC1CE;" width="4" height="418.64"/>
</g>
<g style="opacity:0.5;">
	<polygon style="fill:#AAC1CE;" points="425.412,264.072 421.412,264.072 421.412,36.68 403.292,36.68 403.292,0 407.292,0 
		407.292,32.68 425.412,32.68 	"/>
</g>
<g>
	<rect x="143.66" y="333.712" style="fill:#AAC1CE;" width="228.576" height="8"/>
	<rect x="143.66" y="374.32" style="fill:#AAC1CE;" width="228.576" height="8"/>
	<rect x="143.66" y="414.928" style="fill:#AAC1CE;" width="92.6" height="8"/>
</g>
<circle style="fill:#E04F5F;" cx="257.948" cy="173.232" r="114.296"/>
<g>
	<path style="fill:#FFFFFF;" d="M257.948,80.544c51.104,0,92.68,41.576,92.68,92.68s-41.576,92.688-92.68,92.688
		s-92.68-41.576-92.68-92.68S206.844,80.544,257.948,80.544 M257.948,74.544c-54.504,0-98.68,44.184-98.68,98.68
		s44.176,98.688,98.68,98.688s98.68-44.184,98.68-98.68S312.452,74.544,257.948,74.544L257.948,74.544z"/>
	<path style="fill:#FFFFFF;" d="M251.988,223.984V211.4c-8.168-0.256-16.344-2.592-21.016-5.712l3.504-12.192
		c5.064,2.984,12.328,5.712,20.24,5.712c8.168,0,13.76-4.024,13.76-10.248c0-5.84-4.544-9.6-14.152-13.112
		c-13.624-4.928-22.448-11.16-22.448-23.224c0-11.16,7.784-19.72,20.888-22.056v-12.72h10.64v12.072
		c8.168,0.256,13.752,2.2,17.904,4.28l-3.504,11.936c-3.12-1.432-8.832-4.416-17.648-4.416c-9.088,0-12.328,4.672-12.328,9.088
		c0,5.32,4.672,8.304,15.704,12.712c14.528,5.456,21.016,12.464,21.016,24.008c0,11.032-7.656,20.768-21.928,23.104v13.36h-10.632
		V223.984z"/>
</g>
</svg>
