<svg id="Capa_1" enable-background="new 0 0 510 510" height="512" viewBox="0 0 510 510" width="512" xmlns="http://www.w3.org/2000/svg"><g style="fill:#777777;"><path d="m495 390v-15c0-119.52-86.322-215.292-195-235.797v-49.203h30v-30c-17.546 0-134.067 0-150 0v30h30v49.203c-108.693 20.507-195 116.29-195 235.797v15h45v31.282c-25.686 5.527-45 28.405-45 55.718v33h480v-33c0-27.313-19.315-50.191-45-55.718v-31.282zm-255-300h30v45.477c-10.359-.635-19.637-.635-30 0zm-194.47 270c7.721-108.816 98.722-195 209.47-195s201.749 86.184 209.47 195c-51.579 0-367.325 0-418.94 0zm419.47 117v3h-420v-3c0-14.888 12.112-27 27-27h366c14.888 0 27 12.112 27 27zm-45-57h-330v-30h330z"/><path d="m120 105c0-8.271 6.729-15 15-15v-30c-24.813 0-45 20.187-45 45z"/><path d="m135 30v-30c-57.897 0-105 47.103-105 105h30c0-41.355 33.645-75 75-75z"/><path d="m390 105h30c0-24.813-20.187-45-45-45v30c8.271 0 15 6.729 15 15z"/><path d="m450 105h30c0-57.897-47.103-105-105-105v30c41.355 0 75 33.645 75 75z"/></g></svg>