<?xml version="1.0" encoding="UTF-8" standalone="no" ?>
<!DOCTYPE svg PUBLIC "-//W3C//DTD SVG 1.1//EN" "http://www.w3.org/Graphics/SVG/1.1/DTD/svg11.dtd">
<svg xmlns="http://www.w3.org/2000/svg" xmlns:xlink="http://www.w3.org/1999/xlink" version="1.1" width="100" height="100" viewBox="0 0 100 100" xml:space="preserve">
<desc>Created with Fabric.js 5.3.0</desc>
<defs>
</defs>
<g transform="matrix(1.1174579271 0 0 1.1174579271 64.8892522859 39.8892522859)" id="u0aNSI-cz-m4Uhh-4wZAZ"  >
<path style="stroke: rgb(0,224,52); stroke-width: 0; stroke-dasharray: none; stroke-linecap: butt; stroke-dashoffset: 0; stroke-linejoin: miter; stroke-miterlimit: 4; fill: rgb(250,237,173); fill-rule: nonzero; opacity: 1;" vector-effect="non-scaling-stroke"  transform=" translate(0, 0)" d="M 0 -20.13499 C 11.11451 -20.13499 20.13499 -11.114519999999999 20.13499 0 C 20.13499 11.11451 11.114519999999999 20.13499 0 20.13499 C -11.11451 20.13499 -20.13499 11.114519999999999 -20.13499 0 C -20.13499 -11.11451 -11.114519999999999 -20.13499 0 -20.13499 z" stroke-linecap="round" />
</g>
<g transform="matrix(1 0 0 1 50 50)" id="vqwf8fBq9abOcA9nvON5v"  >
<g style="" vector-effect="non-scaling-stroke"   >
		<g transform="matrix(1 0 0 1 0.00088 0.1858377332)" id="TMck-ez1u_rwVjfA14F73"  >
<path style="stroke: none; stroke-width: 1; stroke-dasharray: none; stroke-linecap: butt; stroke-dashoffset: 0; stroke-linejoin: miter; stroke-miterlimit: 4; fill: rgb(84,84,84); fill-rule: nonzero; opacity: 1;" vector-effect="non-scaling-stroke"  transform=" translate(-43.50088, -39.6858377332)" d="M 69.1498 39.6234 C 67.069 39.6234 65.1162 40.1223 63.4188 40.9877 L 61.6338 38.7956 C 63.8384 37.6024 66.4026 36.9037 69.1496 36.9037 C 69.8323 36.9037 70.5431 36.9584 71.3858 37.0759 C 71.8943 37.1476 72.4169 36.9723 72.753 36.6115 L 78.1718 30.8082 C 78.4021 30.5622 78.5277 30.2504 78.5277 29.9284 L 78.5277 26.6435 C 78.5277 25.8922 77.8579 25.2834 77.0314 25.2834 L 62.5514 25.2834 C 61.9967 25.2834 61.4882 25.5618 61.2287 26.0075 L 59.1164 29.6357 C 55.1669 30.0793 51.4344 29.4763 50.242 29.2516 L 48.5774 27.7193 C 44.6362 24.0927 38.969 22.7273 33.7899 24.1543 C 32.0048 24.6463 30.3203 25.2998 28.8743 25.948 L 30.4114 23.3628 C 30.5756 23.086 30.63 22.7656 30.5639 22.4569 L 29.9263 19.4727 C 29.7918 18.8415 29.1892 18.3825 28.482 18.3719 C 28.0384 18.3671 16.8705 18.3379 10.3125 30.2781 C 9.97646 30.8896 10.1921 31.6323 10.8152 32.0144 L 18.5422 36.7429 C 18.7497 36.8699 18.9893 36.9475 19.2383 36.9687 C 22.2753 37.2275 25.0359 38.3544 27.2569 40.0465 L 25.1324 41.9358 C 23.1276 40.4929 20.6008 39.6242 17.8514 39.6242 C 11.3683 39.6237 6.09326 44.4185 6.09326 50.3116 C 6.09326 56.2047 11.3683 60.9996 17.8514 60.9996 C 24.3345 60.9996 29.6096 56.2047 29.6096 50.3116 C 29.6096 47.8969 28.7135 45.6739 27.2219 43.8824 L 29.3501 41.99 C 31.3789 44.2974 32.6021 47.1998 32.6021 50.3126 C 32.6021 51.3533 32.4508 52.435 32.1533 53.5274 C 32.0428 53.9333 32.1439 54.3626 32.4274 54.692 C 32.7108 55.0214 33.1457 55.2143 33.6057 55.2143 L 53.3941 55.2143 C 53.8547 55.2143 54.289 55.0214 54.5725 54.692 C 54.8559 54.3626 54.9565 53.9328 54.8466 53.5274 C 54.5491 52.4351 54.3977 51.3534 54.3977 50.3126 C 54.3977 46.3922 56.2699 42.8708 59.2303 40.4167 L 61.0165 42.6104 C 58.7868 44.5566 57.3904 47.2869 57.3904 50.312 C 57.3904 56.2051 62.6655 61 69.1486 61 C 75.6335 61 80.9085 56.2051 80.9085 50.3115 C 80.9085 44.4184 75.6335 39.6235 69.1504 39.6235 L 69.1498 39.6234 Z M 34.6588 26.7582 C 38.7754 25.626 43.2922 26.7258 46.4491 29.6314 L 47.0786 30.211 L 39.575 34.261 L 28.157 29.3827 C 29.7866 28.5337 32.1326 27.4541 34.6588 26.7581 L 34.6588 26.7582 Z M 26.618 50.3111 C 26.618 54.7049 22.6856 58.2788 17.8525 58.2788 C 13.0187 58.2794 9.08629 54.7049 9.08629 50.3111 C 9.08629 45.9173 13.0187 42.3433 17.8519 42.3433 C 19.7637 42.3433 21.5294 42.9091 22.9714 43.857 L 16.8057 49.3394 C 16.2147 49.8649 16.2042 50.7255 16.7823 51.2627 C 17.0751 51.5348 17.4632 51.6718 17.8519 51.6718 C 18.2295 51.6718 18.607 51.5427 18.8981 51.284 L 25.0679 45.7984 C 26.0434 47.082 26.6179 48.636 26.6179 50.3112 L 26.618 50.3111 Z M 51.4056 50.3116 C 51.4056 51.0283 51.464 51.7573 51.5792 52.4931 L 35.4207 52.4936 C 35.5359 51.7578 35.5943 51.0288 35.5943 50.3121 C 35.5943 42.059 28.8773 35.2354 19.9042 34.2969 L 13.6017 30.4403 C 18.1473 23.0501 24.596 21.4998 27.2419 21.1768 L 27.5242 22.4987 L 23.7163 28.9039 C 23.7087 28.9172 23.7081 28.9321 23.7011 28.9454 C 23.6952 28.9555 23.6847 28.9619 23.6795 28.972 C 23.6596 29.0102 23.6631 29.0506 23.6479 29.0894 C 23.6029 29.2015 23.5672 29.313 23.5561 29.4294 C 23.5497 29.4931 23.5544 29.5527 23.5585 29.6159 C 23.5643 29.7174 23.5789 29.8146 23.6087 29.9123 C 23.628 29.9756 23.6502 30.0345 23.6795 30.0946 C 23.7233 30.1849 23.78 30.2662 23.8455 30.3469 C 23.8893 30.4017 23.9296 30.4543 23.9828 30.5026 C 24.005 30.5228 24.0173 30.5494 24.0413 30.569 C 24.1149 30.628 24.202 30.662 24.2838 30.7061 C 24.3253 30.7284 24.3528 30.7635 24.3966 30.7826 L 39.0199 37.0306 C 39.2215 37.1172 39.439 37.1603 39.6564 37.1603 C 39.9217 37.1603 40.1854 37.0965 40.4209 36.9695 L 49.7417 31.9393 C 51.3257 32.2358 55.7112 32.902 60.3169 32.2305 C 60.7816 32.1635 61.1843 31.9016 61.4041 31.5239 L 63.4522 28.0062 L 75.5347 28.0062 L 75.5347 29.4316 L 71.0008 34.2876 C 70.3456 34.2191 69.7336 34.1861 69.1492 34.1861 C 65.2184 34.1861 61.5941 35.3682 58.65 37.3425 C 58.6354 37.3515 58.6179 37.3526 58.6038 37.3622 C 58.5886 37.3723 58.5822 37.3877 58.5676 37.3983 C 54.2313 40.3401 51.4059 45.026 51.4059 50.3123 L 51.4056 50.3116 Z M 69.1501 58.2794 C 64.3163 58.2794 60.3845 54.7049 60.3845 50.3116 C 60.3845 48.1817 61.3138 46.2494 62.8166 44.8186 L 67.9478 51.1207 C 68.2418 51.4815 68.693 51.6717 69.1519 51.6717 C 69.4611 51.6717 69.7732 51.5845 70.0403 51.4044 C 70.7048 50.9576 70.8445 50.106 70.353 49.5025 L 65.2206 43.1987 C 66.4041 42.6557 67.7367 42.3433 69.1507 42.3433 C 73.9833 42.3433 77.9157 45.9172 77.9157 50.311 C 77.9157 54.7049 73.9833 58.2794 69.1501 58.2794 L 69.1501 58.2794 Z" stroke-linecap="round" />
</g>
		<g transform="matrix(1 0 0 1 -0.4705 2.1268)" id="IAJtg4D8-lQIBKvg7cCkD"  >
<path style="stroke: none; stroke-width: 1; stroke-dasharray: none; stroke-linecap: butt; stroke-dashoffset: 0; stroke-linejoin: miter; stroke-miterlimit: 4; fill: rgb(84,84,84); fill-rule: nonzero; opacity: 1;" vector-effect="non-scaling-stroke"  transform=" translate(-43.0295, -41.6268)" d="M 46.2761 40.2667 L 39.7829 40.2667 C 38.9565 40.2667 38.2866 40.8756 38.2866 41.6268 C 38.2866 42.3781 38.9565 42.9869 39.7829 42.9869 L 46.2761 42.9869 C 47.1025 42.9869 47.7724 42.3781 47.7724 41.6268 C 47.7724 40.8756 47.1025 40.2667 46.2761 40.2667 Z" stroke-linecap="round" />
</g>
		<g transform="matrix(1 0 0 1 -0.4705 6.7906)" id="QJsEIwY0iB1tSDVrMW0Ws"  >
<path style="stroke: none; stroke-width: 1; stroke-dasharray: none; stroke-linecap: butt; stroke-dashoffset: 0; stroke-linejoin: miter; stroke-miterlimit: 4; fill: rgb(84,84,84); fill-rule: nonzero; opacity: 1;" vector-effect="non-scaling-stroke"  transform=" translate(-43.0295, -46.2906)" d="M 46.2761 44.9305 L 39.7829 44.9305 C 38.9565 44.9305 38.2866 45.5393 38.2866 46.2906 C 38.2866 47.0418 38.9565 47.6507 39.7829 47.6507 L 46.2761 47.6507 C 47.1025 47.6507 47.7724 47.0418 47.7724 46.2906 C 47.7724 45.5399 47.1025 44.9305 46.2761 44.9305 Z" stroke-linecap="round" />
</g>
</g>
</g>
</svg>