<svg width="87" height="79" viewBox="0 0 87 79" fill="none" xmlns="http://www.w3.org/2000/svg">
<path d="M69.1498 39.6234C67.069 39.6234 65.1162 40.1223 63.4188 40.9877L61.6338 38.7956C63.8384 37.6024 66.4026 36.9037 69.1496 36.9037C69.8323 36.9037 70.5431 36.9584 71.3858 37.0759C71.8943 37.1476 72.4169 36.9723 72.753 36.6115L78.1718 30.8082C78.4021 30.5622 78.5277 30.2504 78.5277 29.9284V26.6435C78.5277 25.8922 77.8579 25.2834 77.0314 25.2834H62.5514C61.9967 25.2834 61.4882 25.5618 61.2287 26.0075L59.1164 29.6357C55.1669 30.0793 51.4344 29.4763 50.242 29.2516L48.5774 27.7193C44.6362 24.0927 38.969 22.7273 33.7899 24.1543C32.0048 24.6463 30.3203 25.2998 28.8743 25.948L30.4114 23.3628C30.5756 23.086 30.63 22.7656 30.5639 22.4569L29.9263 19.4727C29.7918 18.8415 29.1892 18.3825 28.482 18.3719C28.0384 18.3671 16.8705 18.3379 10.3125 30.2781C9.97646 30.8896 10.1921 31.6323 10.8152 32.0144L18.5422 36.7429C18.7497 36.8699 18.9893 36.9475 19.2383 36.9687C22.2753 37.2275 25.0359 38.3544 27.2569 40.0465L25.1324 41.9358C23.1276 40.4929 20.6008 39.6242 17.8514 39.6242C11.3683 39.6237 6.09326 44.4185 6.09326 50.3116C6.09326 56.2047 11.3683 60.9996 17.8514 60.9996C24.3345 60.9996 29.6096 56.2047 29.6096 50.3116C29.6096 47.8969 28.7135 45.6739 27.2219 43.8824L29.3501 41.99C31.3789 44.2974 32.6021 47.1998 32.6021 50.3126C32.6021 51.3533 32.4508 52.435 32.1533 53.5274C32.0428 53.9333 32.1439 54.3626 32.4274 54.692C32.7108 55.0214 33.1457 55.2143 33.6057 55.2143H53.3941C53.8547 55.2143 54.289 55.0214 54.5725 54.692C54.8559 54.3626 54.9565 53.9328 54.8466 53.5274C54.5491 52.4351 54.3977 51.3534 54.3977 50.3126C54.3977 46.3922 56.2699 42.8708 59.2303 40.4167L61.0165 42.6104C58.7868 44.5566 57.3904 47.2869 57.3904 50.312C57.3904 56.2051 62.6655 61 69.1486 61C75.6335 61 80.9085 56.2051 80.9085 50.3115C80.9085 44.4184 75.6335 39.6235 69.1504 39.6235L69.1498 39.6234ZM34.6588 26.7582C38.7754 25.626 43.2922 26.7258 46.4491 29.6314L47.0786 30.211L39.575 34.261L28.157 29.3827C29.7866 28.5337 32.1326 27.4541 34.6588 26.7581V26.7582ZM26.618 50.3111C26.618 54.7049 22.6856 58.2788 17.8525 58.2788C13.0187 58.2794 9.08629 54.7049 9.08629 50.3111C9.08629 45.9173 13.0187 42.3433 17.8519 42.3433C19.7637 42.3433 21.5294 42.9091 22.9714 43.857L16.8057 49.3394C16.2147 49.8649 16.2042 50.7255 16.7823 51.2627C17.0751 51.5348 17.4632 51.6718 17.8519 51.6718C18.2295 51.6718 18.607 51.5427 18.8981 51.284L25.0679 45.7984C26.0434 47.082 26.6179 48.636 26.6179 50.3112L26.618 50.3111ZM51.4056 50.3116C51.4056 51.0283 51.464 51.7573 51.5792 52.4931L35.4207 52.4936C35.5359 51.7578 35.5943 51.0288 35.5943 50.3121C35.5943 42.059 28.8773 35.2354 19.9042 34.2969L13.6017 30.4403C18.1473 23.0501 24.596 21.4998 27.2419 21.1768L27.5242 22.4987L23.7163 28.9039C23.7087 28.9172 23.7081 28.9321 23.7011 28.9454C23.6952 28.9555 23.6847 28.9619 23.6795 28.972C23.6596 29.0102 23.6631 29.0506 23.6479 29.0894C23.6029 29.2015 23.5672 29.313 23.5561 29.4294C23.5497 29.4931 23.5544 29.5527 23.5585 29.6159C23.5643 29.7174 23.5789 29.8146 23.6087 29.9123C23.628 29.9756 23.6502 30.0345 23.6795 30.0946C23.7233 30.1849 23.78 30.2662 23.8455 30.3469C23.8893 30.4017 23.9296 30.4543 23.9828 30.5026C24.005 30.5228 24.0173 30.5494 24.0413 30.569C24.1149 30.628 24.202 30.662 24.2838 30.7061C24.3253 30.7284 24.3528 30.7635 24.3966 30.7826L39.0199 37.0306C39.2215 37.1172 39.439 37.1603 39.6564 37.1603C39.9217 37.1603 40.1854 37.0965 40.4209 36.9695L49.7417 31.9393C51.3257 32.2358 55.7112 32.902 60.3169 32.2305C60.7816 32.1635 61.1843 31.9016 61.4041 31.5239L63.4522 28.0062H75.5347V29.4316L71.0008 34.2876C70.3456 34.2191 69.7336 34.1861 69.1492 34.1861C65.2184 34.1861 61.5941 35.3682 58.65 37.3425C58.6354 37.3515 58.6179 37.3526 58.6038 37.3622C58.5886 37.3723 58.5822 37.3877 58.5676 37.3983C54.2313 40.3401 51.4059 45.026 51.4059 50.3123L51.4056 50.3116ZM69.1501 58.2794C64.3163 58.2794 60.3845 54.7049 60.3845 50.3116C60.3845 48.1817 61.3138 46.2494 62.8166 44.8186L67.9478 51.1207C68.2418 51.4815 68.693 51.6717 69.1519 51.6717C69.4611 51.6717 69.7732 51.5845 70.0403 51.4044C70.7048 50.9576 70.8445 50.106 70.353 49.5025L65.2206 43.1987C66.4041 42.6557 67.7367 42.3433 69.1507 42.3433C73.9833 42.3433 77.9157 45.9172 77.9157 50.311C77.9157 54.7049 73.9833 58.2794 69.1501 58.2794L69.1501 58.2794Z" fill="#545454"/>
<path d="M46.2761 40.2667H39.7829C38.9565 40.2667 38.2866 40.8756 38.2866 41.6268C38.2866 42.3781 38.9565 42.9869 39.7829 42.9869H46.2761C47.1025 42.9869 47.7724 42.3781 47.7724 41.6268C47.7724 40.8756 47.1025 40.2667 46.2761 40.2667Z" fill="#545454"/>
<path d="M46.2761 44.9305H39.7829C38.9565 44.9305 38.2866 45.5393 38.2866 46.2906C38.2866 47.0418 38.9565 47.6507 39.7829 47.6507H46.2761C47.1025 47.6507 47.7724 47.0418 47.7724 46.2906C47.7724 45.5399 47.1025 44.9305 46.2761 44.9305Z" fill="#545454"/>
</svg>
