<svg width="84" height="43" viewBox="0 0 84 43" fill="none" xmlns="http://www.w3.org/2000/svg">
<path d="M45.9088 6.14674C41.614 6.18985 37.7345 6.62466 35.5818 6.94055C33.2509 7.44252 31.0961 8.59265 29.5393 9.7908C27.8961 11.0684 26.2971 12.5349 24.2001 13.985C21.1643 14.3536 18.2571 15.3557 15.9385 16.4691C13.4816 17.6482 11.7618 18.7893 10.9069 19.584C9.34662 21.0345 8.37987 23.4192 8.38037 26.2214C8.38037 28.9945 10.7829 30.9447 13.302 30.9447H18.0482C19.1454 33.1664 21.6038 34.7721 24.5518 34.7721C27.5001 34.7721 29.9582 33.1664 31.0554 30.9447H54.6096C55.7069 33.1664 58.1652 34.7721 61.1132 34.7721C64.0616 34.7721 66.5196 33.1664 67.6168 30.9447H72.3629C72.8235 30.9384 73.2753 30.7119 73.5274 30.3542C74.9341 28.3931 75.7449 25.6921 75.8563 23.5135C75.9613 21.4657 75.8343 19.2454 74.5157 16.795C74.0645 15.9562 73.2572 15.4938 72.4724 15.166C71.6876 14.8383 70.8366 14.62 69.9458 14.3921C68.1642 13.9369 66.2238 13.4336 64.6282 12.4578C64.0415 12.0993 63.4328 11.3472 62.5848 10.4014C61.2776 9.17323 60.1107 8.18736 58.7398 7.63278C54.9055 6.44451 50.2026 6.10372 45.9079 6.14636L45.9088 6.14674ZM47.7324 8.81365C51.3127 8.87083 54.9733 9.2126 57.7957 10.0758C58.9523 10.5419 59.6949 11.2486 60.4321 12.071C61.1801 12.9052 61.8747 13.8929 63.0907 14.6363C62.8611 14.9989 61.678 15.2408 61.113 15.308H46.8973C47.5099 13.0868 47.7091 10.7475 47.7321 8.81355L47.7324 8.81365ZM44.92 8.83362C44.891 11.1406 44.7497 13.0855 43.9311 15.3081H28.0667C27.6674 15.3081 27.3216 15.2886 27.0121 15.2672C28.7485 13.9732 30.1195 12.7519 31.3628 11.7856C32.9011 10.5896 34.1994 9.80443 36.0212 9.50536C39.0614 9.22441 42.2026 8.9058 44.9199 8.83365L44.92 8.83362ZM65.7933 15.8986C67.0137 16.3406 68.1879 16.6379 69.1989 16.8961C70.0749 17.1199 70.84 17.3223 71.3301 17.5275C71.156 17.867 71.0064 18.5655 71.0226 18.973L71.7255 20.9273C71.9089 21.4379 72.4627 21.8142 73.044 21.8232C73.1529 24.0431 72.5289 26.4695 71.462 28.3385H68.232C68.232 24.8696 65.1262 21.9049 61.1129 21.9049C57.0996 21.9049 53.9938 24.8701 53.9938 28.3385H31.6701C31.6701 24.8696 28.5643 21.9049 24.551 21.9049C20.5377 21.9049 17.4318 24.8701 17.4318 28.3385H13.3009C12.2541 28.3385 11.1917 27.6745 11.1917 26.2212C11.1917 25.298 11.3501 24.4538 11.587 23.7167H11.6091C12.3007 23.4734 13.0315 23.2642 13.7404 23.045C14.2711 22.8956 14.6807 22.4309 14.7322 21.9189C14.7837 21.407 14.4737 20.88 13.9822 20.6427C14.7797 20.1117 15.903 19.4286 17.2342 18.79C18.9946 17.9449 21.115 17.1574 23.2546 16.7336C23.4434 16.9342 23.6754 17.1048 23.9359 17.2428C24.9767 17.7938 26.2152 17.9145 28.0669 17.9145H61.1141C62.0515 17.9145 63.1301 17.7162 64.1685 17.1815C64.8037 16.7926 65.3932 16.3573 65.7944 15.8985L65.7933 15.8986ZM39.1852 18.5659C38.449 18.5977 37.8109 19.2476 37.8451 19.9302C37.8795 20.6124 38.5809 21.2043 39.3172 21.1721H42.1297C42.8728 21.1821 43.556 20.5575 43.556 19.869C43.556 19.1805 42.8728 18.5564 42.1297 18.5659H39.1852ZM56.0604 18.5659C55.3242 18.5977 54.6856 19.2476 54.7199 19.9302C54.7542 20.6124 55.4556 21.2043 56.1924 21.1721H59.0049C59.748 21.1821 60.4312 20.5575 60.4312 19.869C60.4312 19.1805 59.748 18.5564 59.0049 18.5659H56.0604ZM24.5514 24.3482C25.5241 24.3482 26.4423 24.6732 27.1663 25.2442L24.8152 26.6085L22.9695 24.6337C23.5238 24.3986 24.0113 24.3727 24.5514 24.3487V24.3482ZM61.1133 24.3482C61.7078 24.3482 62.2827 24.4667 62.8051 24.6945L60.8058 26.8119L58.3449 25.3867C59.2734 24.6832 60.0955 24.4186 61.1133 24.3482ZM22.4858 24.8774L23.1009 27.5039L20.4423 28.6032C20.4369 28.5165 20.4203 28.4271 20.4203 28.3386C20.4203 26.8227 21.2737 25.5572 22.4857 24.8774L22.4858 24.8774ZM63.2003 24.8974C64.3981 25.5805 65.2437 26.8331 65.2437 28.3382C65.2437 28.4952 65.2393 28.6554 65.2216 28.8065L62.541 27.6869L63.2003 24.8974ZM27.6052 25.6508C28.2669 26.3502 28.6819 27.2802 28.6819 28.3382C28.6819 28.7984 28.6049 29.2382 28.4621 29.6413L26.1769 27.8294L27.6052 25.6508ZM57.949 25.7525L59.443 28.0327L57.2456 29.7634C57.0734 29.3263 56.9817 28.8461 56.9817 28.3382C56.9817 27.337 57.3486 26.4379 57.9484 25.7525H57.949ZM20.5081 29.112L23.3864 29.2545L23.6061 32.2069C22.0669 31.8588 20.8215 30.6888 20.5081 29.1124V29.112ZM65.1115 29.3158C64.7333 30.7896 63.529 31.8743 62.0571 32.207L62.2548 29.4584L65.1115 29.3158ZM25.2973 29.4787L28.2854 30.0488C27.61 31.419 26.1508 32.329 24.5503 32.329C24.3595 32.329 24.1647 32.3136 23.9788 32.2882L25.2973 29.4787ZM60.3436 29.6621L61.5743 32.309C61.4252 32.3245 61.2653 32.329 61.1127 32.329C59.5774 32.329 58.1736 31.488 57.4653 30.2117L60.3436 29.6621Z" fill="#545454"/>
</svg>
