<svg width="75" height="50" viewBox="0 0 75 50" fill="none" xmlns="http://www.w3.org/2000/svg">
<g clip-path="url(#clip0_199_3236)">
<path d="M14.9345 18.5521C16.1234 18.5555 17.3073 18.6883 18.4612 18.9479L22.6905 8.12323C22.1461 7.94678 21.5734 7.85533 20.9956 7.85266C19.8818 7.8538 18.8148 8.26134 18.0337 8.9835C17.7473 9.2442 17.3587 9.39067 16.9538 9.39067C16.5484 9.39067 16.1598 9.2442 15.8735 8.9835C15.5933 8.71939 15.4397 8.36536 15.446 7.99838C15.4518 7.62878 15.6196 7.27664 15.9119 7.01976C17.2598 5.78614 19.0904 5.08749 21.0032 5.0769C22.5729 5.08373 24.1083 5.49508 25.4309 6.2635C25.9994 6.61185 26.2428 7.26145 26.0262 7.85266L24.1789 12.5782L43.5298 12.5778L44.2399 10.7044H41.1862C40.343 10.7044 39.6596 10.0832 39.6596 9.31671C39.6596 8.55021 40.343 7.92903 41.1862 7.92903H49.6364C50.4797 7.92903 51.1631 8.55021 51.1631 9.31671C51.1631 10.0832 50.4797 10.7044 49.6364 10.7044H47.476L46.2775 13.8407L52.0259 20.6198C54.3854 19.2632 57.1193 18.5414 59.9113 18.5384C63.7779 18.5414 67.4924 19.9086 70.2718 22.352C73.0517 24.7954 74.6793 28.1241 74.8125 31.6367C74.9452 35.1494 73.5734 38.5723 70.9853 41.1833C68.397 43.7948 64.7947 45.3911 60.9374 45.6359C57.08 45.8807 53.2686 44.7552 50.3063 42.4962C47.344 40.2373 45.4617 37.0214 45.0563 33.5261H37.6744C37.5241 33.5238 37.3746 33.5003 37.2319 33.4566H37.1859C37.148 33.4566 37.125 33.4566 37.0945 33.4221L36.9647 33.3667V33.3663C36.9017 33.3382 36.8428 33.3033 36.789 33.2624L36.6975 33.2069C36.6107 33.1375 36.5318 33.0609 36.4608 32.9777L22.6212 16.5956L21.3388 19.8843C25.7763 21.8212 28.8731 25.6279 29.6099 30.0523C30.3463 34.4765 28.6277 38.9458 25.0191 41.9892C21.4106 45.0329 16.3794 46.2567 11.5803 45.2586C6.7816 44.2603 2.8366 41.1691 1.04354 37.0019C-0.74984 32.8347 -0.159164 28.1308 2.62115 24.4384C5.40148 20.7454 10.011 18.5419 14.9336 18.5521L14.9345 18.5521ZM14.9345 42.9C18.5151 42.8988 21.9036 41.4265 24.1529 38.8944C26.4026 36.3622 27.2729 33.0415 26.5202 29.8597C25.768 26.6775 23.4736 23.975 20.278 22.5069L16.3468 32.5747C16.1439 33.1307 15.5791 33.5113 14.9345 33.5253C14.7629 33.5268 14.5926 33.501 14.4306 33.449C14.0474 33.3265 13.7339 33.07 13.559 32.7368C13.3841 32.4032 13.3628 32.0204 13.4997 31.6728L17.4384 21.5699C16.6152 21.4109 15.776 21.3297 14.9344 21.3271C10.7665 21.4231 6.95969 23.4995 4.90576 26.7974C2.85183 30.0953 2.85183 34.1309 4.90576 37.4287C6.95969 40.7266 10.7665 42.8034 14.9344 42.8994L14.9345 42.9ZM59.9117 42.9H59.9121C64.0801 42.804 67.8869 40.7272 69.9408 37.4293C71.9947 34.1314 71.9947 30.0958 69.9408 26.798C67.8869 23.5001 64.0801 21.4236 59.9121 21.3276C57.7997 21.3261 55.7267 21.8441 53.9119 22.8262L61.0877 31.2567C61.4622 31.6711 61.5406 32.2445 61.2893 32.7294C61.038 33.2144 60.502 33.5244 59.9121 33.5259H48.1564C48.5338 36.118 49.9336 38.4973 52.096 40.2212C54.2579 41.9455 57.0358 42.8976 59.9121 42.9002L59.9117 42.9ZM25.4462 15.3804L37.1709 29.2232L42.4454 15.3804H25.4462ZM48.156 30.7493H56.797L51.4535 24.5463V24.5459C49.6346 26.2284 48.4758 28.4085 48.156 30.7493V30.7493ZM39.8357 30.7493H45.0568C45.4354 27.5421 47.0593 24.5629 49.6367 22.3465L45.0568 17.0245L39.8357 30.7493Z" fill="#545454"/>
</g>
<defs>
<clipPath id="clip0_199_3236">
<rect width="74.8088" height="50" fill="white" transform="matrix(-1 0 0 1 74.8213 0)"/>
</clipPath>
</defs>
</svg>
