<?xml version="1.0" encoding="UTF-8" standalone="no" ?>
<!DOCTYPE svg PUBLIC "-//W3C//DTD SVG 1.1//EN" "http://www.w3.org/Graphics/SVG/1.1/DTD/svg11.dtd">
<svg xmlns="http://www.w3.org/2000/svg" xmlns:xlink="http://www.w3.org/1999/xlink" version="1.1" width="100" height="100" viewBox="0 0 100 100" xml:space="preserve">
<desc>Created with Fabric.js 5.3.0</desc>
<defs>
</defs>
<g transform="matrix(1.0576203397 0 0 1.0576203397 64.5 39.5)" id="W6mSUdbb0sRuVfHfbLQrx"  >
<path style="stroke: rgb(192,98,206); stroke-width: 0; stroke-dasharray: none; stroke-linecap: butt; stroke-dashoffset: 0; stroke-linejoin: miter; stroke-miterlimit: 4; fill: rgb(189,235,255); fill-rule: nonzero; opacity: 1;" vector-effect="non-scaling-stroke"  transform=" translate(0, 0)" d="M 0 -21.27417 C 11.74334 -21.27417 21.27417 -11.743340000000002 21.27417 0 C 21.27417 11.74334 11.743340000000002 21.27417 0 21.27417 C -11.74334 21.27417 -21.27417 11.743340000000002 -21.27417 0 C -21.27417 -11.74334 -11.743340000000002 -21.27417 0 -21.27417 z" stroke-linecap="round" />
</g>
<g transform="matrix(1 0 0 1 50 50)" id="S3MG151U6zuIbQnykjoNN" clip-path="url(#CLIPPATH_94)"  >
<clipPath id="CLIPPATH_94" >
	<rect transform="matrix(-1 0 0 1 -0.0043325994 -0.3728851697)" id="clip0_199_3236" x="-37.4044" y="-25" rx="0" ry="0" width="74.8088" height="50" />
</clipPath>
<path style="stroke: none; stroke-width: 1; stroke-dasharray: none; stroke-linecap: butt; stroke-dashoffset: 0; stroke-linejoin: miter; stroke-miterlimit: 4; fill: rgb(84,84,84); fill-rule: nonzero; opacity: 1;" vector-effect="non-scaling-stroke"  transform=" translate(-37.4212325994, -25.3728851697)" d="M 14.9345 18.5521 C 16.1234 18.5555 17.3073 18.6883 18.4612 18.9479 L 22.6905 8.12323 C 22.1461 7.94678 21.5734 7.85533 20.9956 7.85266 C 19.8818 7.8538 18.8148 8.26134 18.0337 8.9835 C 17.7473 9.2442 17.3587 9.39067 16.9538 9.39067 C 16.5484 9.39067 16.1598 9.2442 15.8735 8.9835 C 15.5933 8.71939 15.4397 8.36536 15.446 7.99838 C 15.4518 7.62878 15.6196 7.27664 15.9119 7.01976 C 17.2598 5.78614 19.0904 5.08749 21.0032 5.0769 C 22.5729 5.08373 24.1083 5.49508 25.4309 6.2635 C 25.9994 6.61185 26.2428 7.26145 26.0262 7.85266 L 24.1789 12.5782 L 43.5298 12.5778 L 44.2399 10.7044 L 41.1862 10.7044 C 40.343 10.7044 39.6596 10.0832 39.6596 9.31671 C 39.6596 8.55021 40.343 7.92903 41.1862 7.92903 L 49.6364 7.92903 C 50.4797 7.92903 51.1631 8.55021 51.1631 9.31671 C 51.1631 10.0832 50.4797 10.7044 49.6364 10.7044 L 47.476 10.7044 L 46.2775 13.8407 L 52.0259 20.6198 C 54.3854 19.2632 57.1193 18.5414 59.9113 18.5384 C 63.7779 18.5414 67.4924 19.9086 70.2718 22.352 C 73.0517 24.7954 74.6793 28.1241 74.8125 31.6367 C 74.9452 35.1494 73.5734 38.5723 70.9853 41.1833 C 68.397 43.7948 64.7947 45.3911 60.9374 45.6359 C 57.08 45.8807 53.2686 44.7552 50.3063 42.4962 C 47.344 40.2373 45.4617 37.0214 45.0563 33.5261 L 37.6744 33.5261 C 37.5241 33.5238 37.3746 33.5003 37.2319 33.4566 L 37.1859 33.4566 C 37.148 33.4566 37.125 33.4566 37.0945 33.4221 L 36.9647 33.3667 L 36.9647 33.3663 C 36.9017 33.3382 36.8428 33.3033 36.789 33.2624 L 36.6975 33.2069 C 36.6107 33.1375 36.5318 33.0609 36.4608 32.9777 L 22.6212 16.5956 L 21.3388 19.8843 C 25.7763 21.8212 28.8731 25.6279 29.6099 30.0523 C 30.3463 34.4765 28.6277 38.9458 25.0191 41.9892 C 21.4106 45.0329 16.3794 46.2567 11.5803 45.2586 C 6.7816 44.2603 2.8366 41.1691 1.04354 37.0019 C -0.74984 32.8347 -0.159164 28.1308 2.62115 24.4384 C 5.40148 20.7454 10.011 18.5419 14.9336 18.5521 L 14.9345 18.5521 Z M 14.9345 42.9 C 18.5151 42.8988 21.9036 41.4265 24.1529 38.8944 C 26.4026 36.3622 27.2729 33.0415 26.5202 29.8597 C 25.768 26.6775 23.4736 23.975 20.278 22.5069 L 16.3468 32.5747 C 16.1439 33.1307 15.5791 33.5113 14.9345 33.5253 C 14.7629 33.5268 14.5926 33.501 14.4306 33.449 C 14.0474 33.3265 13.7339 33.07 13.559 32.7368 C 13.3841 32.4032 13.3628 32.0204 13.4997 31.6728 L 17.4384 21.5699 C 16.6152 21.4109 15.776 21.3297 14.9344 21.3271 C 10.7665 21.4231 6.95969 23.4995 4.90576 26.7974 C 2.85183 30.0953 2.85183 34.1309 4.90576 37.4287 C 6.95969 40.7266 10.7665 42.8034 14.9344 42.8994 L 14.9345 42.9 Z M 59.9117 42.9 L 59.9121 42.9 C 64.0801 42.804 67.8869 40.7272 69.9408 37.4293 C 71.9947 34.1314 71.9947 30.0958 69.9408 26.798 C 67.8869 23.5001 64.0801 21.4236 59.9121 21.3276 C 57.7997 21.3261 55.7267 21.8441 53.9119 22.8262 L 61.0877 31.2567 C 61.4622 31.6711 61.5406 32.2445 61.2893 32.7294 C 61.038 33.2144 60.502 33.5244 59.9121 33.5259 L 48.1564 33.5259 C 48.5338 36.118 49.9336 38.4973 52.096 40.2212 C 54.2579 41.9455 57.0358 42.8976 59.9121 42.9002 L 59.9117 42.9 Z M 25.4462 15.3804 L 37.1709 29.2232 L 42.4454 15.3804 L 25.4462 15.3804 Z M 48.156 30.7493 L 56.797 30.7493 L 51.4535 24.5463 L 51.4535 24.5459 C 49.6346 26.2284 48.4758 28.4085 48.156 30.7493 L 48.156 30.7493 Z M 39.8357 30.7493 L 45.0568 30.7493 C 45.4354 27.5421 47.0593 24.5629 49.6367 22.3465 L 45.0568 17.0245 L 39.8357 30.7493 Z" stroke-linecap="round" />
</g>
<g transform="matrix(1 0 0 1 277.21 186.57)" id="0kJZsEwIOTH7p4XnVKPdy"  >
<path style="stroke: rgb(15,233,197); stroke-width: 0; stroke-dasharray: none; stroke-linecap: butt; stroke-dashoffset: 0; stroke-linejoin: miter; stroke-miterlimit: 4; fill: rgb(204,0,102); fill-rule: nonzero; opacity: 1;" vector-effect="non-scaling-stroke"  transform=" translate(-38.22526, -38.22526)" d="M 0 0 L 76.45052 0 L 76.45052 76.45052 L 0 76.45052 z" stroke-linecap="round" />
</g>
<g transform="matrix(1 0 0 1 360.75 270.63)" id="aKUOXCj39iERwtK-BYnVg"  >
<path style="stroke: rgb(15,233,197); stroke-width: 0; stroke-dasharray: none; stroke-linecap: butt; stroke-dashoffset: 0; stroke-linejoin: miter; stroke-miterlimit: 4; fill: rgb(128,128,128); fill-rule: nonzero; opacity: 1;" vector-effect="non-scaling-stroke"  transform=" translate(-38.22526, -38.22526)" d="M 0 0 L 76.45052 0 L 76.45052 76.45052 L 0 76.45052 z" stroke-linecap="round" />
</g>
<g transform="matrix(1 0 0 1 360.75 186.57)" id="bwe6VsAn3U2GZmsJ4mALL"  >
<path style="stroke: rgb(15,233,197); stroke-width: 0; stroke-dasharray: none; stroke-linecap: butt; stroke-dashoffset: 0; stroke-linejoin: miter; stroke-miterlimit: 4; fill: rgb(10,78,143); fill-rule: nonzero; opacity: 1;" vector-effect="non-scaling-stroke"  transform=" translate(-38.22526, -38.22526)" d="M 0 0 L 76.45052 0 L 76.45052 76.45052 L 0 76.45052 z" stroke-linecap="round" />
</g>
<g transform="matrix(1 0 0 1 277.21 270.63)" id="6d8Y8z1-fWfq4dr5kKis-"  >
<path style="stroke: rgb(15,233,197); stroke-width: 0; stroke-dasharray: none; stroke-linecap: butt; stroke-dashoffset: 0; stroke-linejoin: miter; stroke-miterlimit: 4; fill: rgb(255,209,26); fill-rule: nonzero; opacity: 1;" vector-effect="non-scaling-stroke"  transform=" translate(-38.22526, -38.22526)" d="M 0 0 L 76.45052 0 L 76.45052 76.45052 L 0 76.45052 z" stroke-linecap="round" />
</g>
</svg>