<?xml version="1.0" encoding="UTF-8" standalone="no" ?>
<!DOCTYPE svg PUBLIC "-//W3C//DTD SVG 1.1//EN" "http://www.w3.org/Graphics/SVG/1.1/DTD/svg11.dtd">
<svg xmlns="http://www.w3.org/2000/svg" xmlns:xlink="http://www.w3.org/1999/xlink" version="1.1" viewBox="0 0 100 100" xml:space="preserve" width="100" height="100">
<desc>Created with Fabric.js 5.3.0</desc>
<defs>
</defs>
<g transform="matrix(1.298863615 0 0 1.298863615 64.5 39.5)" id="B_naso2QZRMNWbj-6g78h"  >
<path style="stroke: rgb(86,34,72); stroke-width: 0; stroke-dasharray: none; stroke-linecap: butt; stroke-dashoffset: 0; stroke-linejoin: miter; stroke-miterlimit: 4; fill: rgb(212,248,185); fill-rule: nonzero; opacity: 1;" vector-effect="non-scaling-stroke"  transform=" translate(0, 0)" d="M 0 -17.32283 C 9.5622 -17.32283 17.32283 -9.5622 17.32283 0 C 17.32283 9.5622 9.5622 17.32283 0 17.32283 C -9.5622 17.32283 -17.32283 9.5622 -17.32283 0 C -17.32283 -9.5622 -9.5622 -17.32283 0 -17.32283 z" stroke-linecap="round" />
</g>
<g transform="matrix(1 0 0 1 50 50)" id="eA9C8-E0YDQ0kVPyAr2Wy"  >
<path style="stroke: none; stroke-width: 1; stroke-dasharray: none; stroke-linecap: butt; stroke-dashoffset: 0; stroke-linejoin: miter; stroke-miterlimit: 4; fill: rgb(84,84,84); fill-rule: nonzero; opacity: 1;" vector-effect="non-scaling-stroke"  transform=" translate(-42.1326979173, -20.4574898044)" d="M 45.9088 6.14674 C 41.614 6.18985 37.7345 6.62466 35.5818 6.94055 C 33.2509 7.44252 31.0961 8.59265 29.5393 9.7908 C 27.8961 11.0684 26.2971 12.5349 24.2001 13.985 C 21.1643 14.3536 18.2571 15.3557 15.9385 16.4691 C 13.4816 17.6482 11.7618 18.7893 10.9069 19.584 C 9.34662 21.0345 8.37987 23.4192 8.38037 26.2214 C 8.38037 28.9945 10.7829 30.9447 13.302 30.9447 L 18.0482 30.9447 C 19.1454 33.1664 21.6038 34.7721 24.5518 34.7721 C 27.5001 34.7721 29.9582 33.1664 31.0554 30.9447 L 54.6096 30.9447 C 55.7069 33.1664 58.1652 34.7721 61.1132 34.7721 C 64.0616 34.7721 66.5196 33.1664 67.6168 30.9447 L 72.3629 30.9447 C 72.8235 30.9384 73.2753 30.7119 73.5274 30.3542 C 74.9341 28.3931 75.7449 25.6921 75.8563 23.5135 C 75.9613 21.4657 75.8343 19.2454 74.5157 16.795 C 74.0645 15.9562 73.2572 15.4938 72.4724 15.166 C 71.6876 14.8383 70.8366 14.62 69.9458 14.3921 C 68.1642 13.9369 66.2238 13.4336 64.6282 12.4578 C 64.0415 12.0993 63.4328 11.3472 62.5848 10.4014 C 61.2776 9.17323 60.1107 8.18736 58.7398 7.63278 C 54.9055 6.44451 50.2026 6.10372 45.9079 6.14636 L 45.9088 6.14674 Z M 47.7324 8.81365 C 51.3127 8.87083 54.9733 9.2126 57.7957 10.0758 C 58.9523 10.5419 59.6949 11.2486 60.4321 12.071 C 61.1801 12.9052 61.8747 13.8929 63.0907 14.6363 C 62.8611 14.9989 61.678 15.2408 61.113 15.308 L 46.8973 15.308 C 47.5099 13.0868 47.7091 10.7475 47.7321 8.81355 L 47.7324 8.81365 Z M 44.92 8.83362 C 44.891 11.1406 44.7497 13.0855 43.9311 15.3081 L 28.0667 15.3081 C 27.6674 15.3081 27.3216 15.2886 27.0121 15.2672 C 28.7485 13.9732 30.1195 12.7519 31.3628 11.7856 C 32.9011 10.5896 34.1994 9.80443 36.0212 9.50536 C 39.0614 9.22441 42.2026 8.9058 44.9199 8.83365 L 44.92 8.83362 Z M 65.7933 15.8986 C 67.0137 16.3406 68.1879 16.6379 69.1989 16.8961 C 70.0749 17.1199 70.84 17.3223 71.3301 17.5275 C 71.156 17.867 71.0064 18.5655 71.0226 18.973 L 71.7255 20.9273 C 71.9089 21.4379 72.4627 21.8142 73.044 21.8232 C 73.1529 24.0431 72.5289 26.4695 71.462 28.3385 L 68.232 28.3385 C 68.232 24.8696 65.1262 21.9049 61.1129 21.9049 C 57.0996 21.9049 53.9938 24.8701 53.9938 28.3385 L 31.6701 28.3385 C 31.6701 24.8696 28.5643 21.9049 24.551 21.9049 C 20.5377 21.9049 17.4318 24.8701 17.4318 28.3385 L 13.3009 28.3385 C 12.2541 28.3385 11.1917 27.6745 11.1917 26.2212 C 11.1917 25.298 11.3501 24.4538 11.587 23.7167 L 11.6091 23.7167 C 12.3007 23.4734 13.0315 23.2642 13.7404 23.045 C 14.2711 22.8956 14.6807 22.4309 14.7322 21.9189 C 14.7837 21.407 14.4737 20.88 13.9822 20.6427 C 14.7797 20.1117 15.903 19.4286 17.2342 18.79 C 18.9946 17.9449 21.115 17.1574 23.2546 16.7336 C 23.4434 16.9342 23.6754 17.1048 23.9359 17.2428 C 24.9767 17.7938 26.2152 17.9145 28.0669 17.9145 L 61.1141 17.9145 C 62.0515 17.9145 63.1301 17.7162 64.1685 17.1815 C 64.8037 16.7926 65.3932 16.3573 65.7944 15.8985 L 65.7933 15.8986 Z M 39.1852 18.5659 C 38.449 18.5977 37.8109 19.2476 37.8451 19.9302 C 37.8795 20.6124 38.5809 21.2043 39.3172 21.1721 L 42.1297 21.1721 C 42.8728 21.1821 43.556 20.5575 43.556 19.869 C 43.556 19.1805 42.8728 18.5564 42.1297 18.5659 L 39.1852 18.5659 Z M 56.0604 18.5659 C 55.3242 18.5977 54.6856 19.2476 54.7199 19.9302 C 54.7542 20.6124 55.4556 21.2043 56.1924 21.1721 L 59.0049 21.1721 C 59.748 21.1821 60.4312 20.5575 60.4312 19.869 C 60.4312 19.1805 59.748 18.5564 59.0049 18.5659 L 56.0604 18.5659 Z M 24.5514 24.3482 C 25.5241 24.3482 26.4423 24.6732 27.1663 25.2442 L 24.8152 26.6085 L 22.9695 24.6337 C 23.5238 24.3986 24.0113 24.3727 24.5514 24.3487 L 24.5514 24.3482 Z M 61.1133 24.3482 C 61.7078 24.3482 62.2827 24.4667 62.8051 24.6945 L 60.8058 26.8119 L 58.3449 25.3867 C 59.2734 24.6832 60.0955 24.4186 61.1133 24.3482 Z M 22.4858 24.8774 L 23.1009 27.5039 L 20.4423 28.6032 C 20.4369 28.5165 20.4203 28.4271 20.4203 28.3386 C 20.4203 26.8227 21.2737 25.5572 22.4857 24.8774 L 22.4858 24.8774 Z M 63.2003 24.8974 C 64.3981 25.5805 65.2437 26.8331 65.2437 28.3382 C 65.2437 28.4952 65.2393 28.6554 65.2216 28.8065 L 62.541 27.6869 L 63.2003 24.8974 Z M 27.6052 25.6508 C 28.2669 26.3502 28.6819 27.2802 28.6819 28.3382 C 28.6819 28.7984 28.6049 29.2382 28.4621 29.6413 L 26.1769 27.8294 L 27.6052 25.6508 Z M 57.949 25.7525 L 59.443 28.0327 L 57.2456 29.7634 C 57.0734 29.3263 56.9817 28.8461 56.9817 28.3382 C 56.9817 27.337 57.3486 26.4379 57.9484 25.7525 L 57.949 25.7525 Z M 20.5081 29.112 L 23.3864 29.2545 L 23.6061 32.2069 C 22.0669 31.8588 20.8215 30.6888 20.5081 29.1124 L 20.5081 29.112 Z M 65.1115 29.3158 C 64.7333 30.7896 63.529 31.8743 62.0571 32.207 L 62.2548 29.4584 L 65.1115 29.3158 Z M 25.2973 29.4787 L 28.2854 30.0488 C 27.61 31.419 26.1508 32.329 24.5503 32.329 C 24.3595 32.329 24.1647 32.3136 23.9788 32.2882 L 25.2973 29.4787 Z M 60.3436 29.6621 L 61.5743 32.309 C 61.4252 32.3245 61.2653 32.329 61.1127 32.329 C 59.5774 32.329 58.1736 31.488 57.4653 30.2117 L 60.3436 29.6621 Z" stroke-linecap="round" />
</g>
</svg>

