<?xml version="1.0" encoding="UTF-8" standalone="no"?>
<!-- Created with Inkscape (http://www.inkscape.org/) -->

<svg
   width="41.818069mm"
   height="40.566341mm"
   viewBox="0 0 41.818069 40.566341"
   version="1.1"
   id="svg1"
   xml:space="preserve"
   inkscape:version="1.3.2 (091e20e, 2023-11-25, custom)"
   sodipodi:docname="edit-icon-grey.svg"
   xmlns:inkscape="http://www.inkscape.org/namespaces/inkscape"
   xmlns:sodipodi="http://sodipodi.sourceforge.net/DTD/sodipodi-0.dtd"
   xmlns="http://www.w3.org/2000/svg"
   xmlns:svg="http://www.w3.org/2000/svg"><sodipodi:namedview
     id="namedview1"
     pagecolor="#ffffff"
     bordercolor="#111111"
     borderopacity="1"
     inkscape:showpageshadow="0"
     inkscape:pageopacity="0"
     inkscape:pagecheckerboard="1"
     inkscape:deskcolor="#d1d1d1"
     inkscape:document-units="mm"
     inkscape:zoom="0.76702441"
     inkscape:cx="12.385525"
     inkscape:cy="141.45573"
     inkscape:window-width="1920"
     inkscape:window-height="1057"
     inkscape:window-x="-8"
     inkscape:window-y="-8"
     inkscape:window-maximized="1"
     inkscape:current-layer="layer1" /><defs
     id="defs1"><clipPath
       id="clip0_73_522"><rect
         width="25"
         height="24.2493"
         fill="#ffffff"
         id="rect1"
         x="0"
         y="0" /></clipPath></defs><g
     inkscape:label="Laag 1"
     inkscape:groupmode="layer"
     id="layer1"
     transform="translate(-101.72933,-111.14192)"><g
       style="fill:#8a8a8a;fill-opacity:1"
       id="g1"
       transform="matrix(1.6727428,0,0,1.6727428,101.72933,111.14207)"><path
         fill-rule="evenodd"
         clip-rule="evenodd"
         d="m 21.3298,0.329601 3.3386,3.332519 c 0.2122,0.21281 0.3313,0.50107 0.3313,0.8016 0,0.30052 -0.1191,0.58878 -0.3313,0.80159 L 22.821,7.12078 17.8772,2.17693 19.7347,0.329601 C 19.948,0.118389 20.2361,-9.15527e-5 20.5363,-9.15527e-5 c 0.3002,0 0.5883,0.1184805527 0.8016,0.3296925527 z M 6.35986,0.697846 H 13.7451 L 10.4004,4.04257 H 6.35986 C 5.96461,4.04203 5.57314,4.11957 5.20794,4.27075 4.84273,4.42193 4.511,4.64376 4.23177,4.92351 3.95202,5.20274 3.73018,5.53448 3.57901,5.89968 3.42783,6.26488 3.35028,6.65635 3.35083,7.05161 V 20.9005 H 17.1916 c 0.3961,0.0021 0.7888,-0.0741 1.1554,-0.2243 0.3666,-0.1501 0.6999,-0.3712 0.9808,-0.6506 0.2797,-0.2796 0.5015,-0.6117 0.6527,-0.9773 0.1512,-0.3655 0.2287,-0.7572 0.2282,-1.1528 v -2.5777 l 3.3448,-3.3447 v 5.9163 c -0.0011,0.8344 -0.1667,1.6605 -0.4871,2.4309 -0.3205,0.7705 -0.7896,1.4702 -1.3806,2.0593 v 0.0101 c -1.187,1.1883 -2.7964,1.8577 -4.4759,1.8616 H 2.56144 C 1.88733,24.2504 1.24117,23.9818 0.764974,23.5047 0.524279,23.2691 0.332725,22.9881 0.201413,22.678 0.0701002,22.3679 0.00164022,22.0348 0,21.698 V 7.04957 C 0.00446277,5.36898 0.676274,3.75897 1.86768,2.57366 L 1.87785,2.56349 C 3.06408,1.37396 4.67384,0.703711 6.35376,0.699881 Z M 14.7156,15.2181 10.7015,16.4592 C 7.88371,17.0695 7.90812,17.7104 8.43099,15.0533 l 1.35091,-4.7689 7.1594,-7.16956 4.9439,4.94385 -7.1656,7.16551 z m -4.0914,-4.0893 3.2552,3.2552 -2.6449,0.8138 c -2.06498,0.6368 -2.05481,1.062 -1.49329,-0.9257 l 0.88299,-3.1332 z"
         fill="#8a8a8a"
         id="path1"
         clip-path="url(#clipPath2)"
         style="fill:#8a8a8a;fill-opacity:1" /></g></g></svg>
