<?xml version="1.0" encoding="UTF-8" standalone="no"?>
<!-- Created with Inkscape (http://www.inkscape.org/) -->

<svg
   width="31.330788mm"
   height="35.163647mm"
   viewBox="0 0 31.330788 35.163647"
   version="1.1"
   id="svg1"
   xml:space="preserve"
   inkscape:version="1.3.2 (091e20e, 2023-11-25, custom)"
   sodipodi:docname="recycle-bin-icon-grey.svg"
   xmlns:inkscape="http://www.inkscape.org/namespaces/inkscape"
   xmlns:sodipodi="http://sodipodi.sourceforge.net/DTD/sodipodi-0.dtd"
   xmlns="http://www.w3.org/2000/svg"
   xmlns:svg="http://www.w3.org/2000/svg"><sodipodi:namedview
     id="namedview1"
     pagecolor="#ffffff"
     bordercolor="#111111"
     borderopacity="1"
     inkscape:showpageshadow="0"
     inkscape:pageopacity="0"
     inkscape:pagecheckerboard="1"
     inkscape:deskcolor="#d1d1d1"
     inkscape:document-units="mm"
     inkscape:zoom="0.76702441"
     inkscape:cx="11.081786"
     inkscape:cy="120.5959"
     inkscape:window-width="1920"
     inkscape:window-height="1057"
     inkscape:window-x="-8"
     inkscape:window-y="-8"
     inkscape:window-maximized="1"
     inkscape:current-layer="layer1" /><defs
     id="defs1"><clipPath
       id="clip0_73_526"><rect
         width="22"
         height="24.691799"
         fill="#ffffff"
         id="rect1"
         x="0"
         y="0" /></clipPath></defs><g
     inkscape:label="Laag 1"
     inkscape:groupmode="layer"
     id="layer1"
     transform="translate(-102.12614,-116.60285)"><g
       style="fill:#8a8a8a;fill-opacity:1"
       id="g1"
       transform="matrix(1.4241138,0,0,1.4241138,102.12614,116.60285)"><path
         fill-rule="evenodd"
         clip-rule="evenodd"
         d="M 0.471612,1.93568 H 8.16711 V 0.755544 C 8.16711,0.339995 8.5065,0 8.92266,0 h 4.24874 c 0.4159,0 0.7555,0.339794 0.7555,0.755544 V 1.93588 h 7.6017 c 0.2598,0 0.4716,0.2124 0.4716,0.47202 V 4.72155 H 0 V 2.40769 C 0,2.14808 0.211994,1.93568 0.471612,1.93568 Z M 1.74619,5.94891 H 20.418 c 0.3892,0 0.7427,0.3213 0.7075,0.70812 L 19.5453,23.9841 c -0.035,0.387 -0.3195,0.7075 -0.7079,0.7075 H 3.3045 c -0.38862,0 -0.67356,-0.3199 -0.70812,-0.7075 L 1.03807,6.65703 C 1.00351,6.26881 1.35656,5.94891 1.74619,5.94891 Z M 13.8805,8.64013 H 15.863 V 21.7645 h -1.9825 z m -7.83775,0 h 1.9827 V 21.7645 h -1.9827 z m 3.91838,0 H 11.9442 V 21.7645 H 9.96113 Z"
         fill="#8a8a8a"
         id="path1"
         clip-path="url(#clipPath2)"
         style="fill:#8a8a8a;fill-opacity:1" /></g></g></svg>
