<?xml version="1.0" encoding="UTF-8" standalone="no"?>
<!-- Created with Inkscape (http://www.inkscape.org/) -->

<svg
   width="29.272594mm"
   height="28.68952mm"
   viewBox="0 0 29.272594 28.68952"
   version="1.1"
   id="svg1"
   xml:space="preserve"
   inkscape:version="1.3.2 (091e20e, 2023-11-25, custom)"
   sodipodi:docname="revision-icon.svg"
   xmlns:inkscape="http://www.inkscape.org/namespaces/inkscape"
   xmlns:sodipodi="http://sodipodi.sourceforge.net/DTD/sodipodi-0.dtd"
   xmlns="http://www.w3.org/2000/svg"
   xmlns:svg="http://www.w3.org/2000/svg"><sodipodi:namedview
     id="namedview1"
     pagecolor="#ffffff"
     bordercolor="#111111"
     borderopacity="1"
     inkscape:showpageshadow="0"
     inkscape:pageopacity="0"
     inkscape:pagecheckerboard="1"
     inkscape:deskcolor="#d1d1d1"
     inkscape:document-units="mm"
     inkscape:zoom="0.76702441"
     inkscape:cx="-38.460314"
     inkscape:cy="146.67069"
     inkscape:window-width="1920"
     inkscape:window-height="1057"
     inkscape:window-x="-8"
     inkscape:window-y="-8"
     inkscape:window-maximized="1"
     inkscape:current-layer="layer1" /><defs
     id="defs1" /><g
     inkscape:label="Laag 1"
     inkscape:groupmode="layer"
     id="layer1"
     transform="translate(-115.21335,-109.83642)"><g
       transform="matrix(0.01308858,0,0,-0.01308858,101.56806,145.94717)"
       fill="#000000"
       stroke="none"
       id="g4"
       style="fill:#8a8a8a;fill-opacity:1"><path
         d="m 3014,2741 c -46,-21 -124,-87 -124,-105 0,-6 60,-71 133,-144 l 133,-132 46,47 c 26,27 54,65 63,85 43,104 -17,228 -123,258 -53,14 -81,12 -128,-9 z"
         id="path1"
         style="fill:#8a8a8a;fill-opacity:1" /><path
         d="m 1860,2601 c -382,-81 -689,-377 -786,-759 -124,-483 129,-1007 574,-1193 149,-62 250,-82 417,-82 303,0 535,92 736,292 154,155 254,353 293,580 12,76 12,76 47,81 26,4 35,10 37,29 3,19 -17,44 -95,123 -54,55 -106,104 -116,109 -16,9 -36,-6 -128,-97 -60,-59 -109,-115 -109,-124 0,-23 20,-40 47,-40 27,0 28,-11 8,-98 -51,-215 -183,-386 -370,-478 -127,-62 -196,-78 -340,-78 -184,0 -326,48 -467,159 -109,85 -204,236 -244,385 -24,89 -25,272 -1,360 72,272 297,483 573,539 104,21 125,32 153,82 45,79 17,174 -62,209 -51,23 -59,23 -167,1 z"
         id="path2"
         style="fill:#8a8a8a;fill-opacity:1" /><path
         d="m 2402,2157 -412,-412 138,-138 137,-137 418,418 417,417 -133,133 c -73,72 -137,132 -142,132 -6,0 -196,-186 -423,-413 z"
         id="path3"
         style="fill:#8a8a8a;fill-opacity:1" /><path
         d="m 1927,1638 c -8,-18 -42,-97 -76,-174 -33,-78 -61,-151 -61,-163 0,-11 9,-25 19,-30 15,-8 55,5 192,65 96,41 178,80 184,85 6,6 -34,52 -110,129 -66,66 -123,120 -127,120 -4,0 -14,-15 -21,-32 z"
         id="path4"
         style="fill:#8a8a8a;fill-opacity:1" /></g></g></svg>
