<?xml version="1.0" encoding="UTF-8" standalone="no"?>
<!-- Created with Inkscape (http://www.inkscape.org/) -->

<svg
   width="42.222282mm"
   height="36.293446mm"
   viewBox="0 0 42.222282 36.293446"
   version="1.1"
   id="svg1"
   xml:space="preserve"
   inkscape:version="1.3.2 (091e20e, 2023-11-25, custom)"
   sodipodi:docname="translate-icon-gold.svg"
   xmlns:inkscape="http://www.inkscape.org/namespaces/inkscape"
   xmlns:sodipodi="http://sodipodi.sourceforge.net/DTD/sodipodi-0.dtd"
   xmlns="http://www.w3.org/2000/svg"
   xmlns:svg="http://www.w3.org/2000/svg"><sodipodi:namedview
     id="namedview1"
     pagecolor="#ffffff"
     bordercolor="#111111"
     borderopacity="1"
     inkscape:showpageshadow="0"
     inkscape:pageopacity="0"
     inkscape:pagecheckerboard="1"
     inkscape:deskcolor="#d1d1d1"
     inkscape:document-units="mm"
     inkscape:zoom="0.76702441"
     inkscape:cx="80.179978"
     inkscape:cy="68.446322"
     inkscape:window-width="1920"
     inkscape:window-height="1057"
     inkscape:window-x="-8"
     inkscape:window-y="-8"
     inkscape:window-maximized="1"
     inkscape:current-layer="layer1" /><defs
     id="defs1" /><g
     inkscape:label="Laag 1"
     inkscape:groupmode="layer"
     id="layer1"
     transform="translate(-83.925444,-130.35328)"><g
       transform="matrix(0.01651889,0,0,-0.01651889,71.33805,173.44693)"
       fill="#000000"
       stroke="none"
       id="g2"
       style="fill:#bd8100;fill-opacity:1"><path
         d="m 2771,2596 c -45,-25 -63,-84 -40,-129 6,-12 63,-75 127,-139 l 117,-118 h -492 c -321,0 -510,-4 -545,-11 -226,-47 -398,-259 -398,-489 0,-263 231,-500 486,-500 89,0 138,74 99,149 -16,32 -48,47 -118,55 -105,13 -189,71 -234,164 -23,47 -28,70 -28,132 0,125 62,222 174,274 45,20 62,21 551,24 l 505,3 -122,-123 c -71,-72 -124,-135 -128,-151 -19,-76 46,-141 123,-122 37,9 458,430 467,468 4,15 4,39 0,55 -7,30 -401,434 -447,458 -33,17 -66,17 -97,0 z"
         id="path1"
         style="fill:#bd8100;fill-opacity:1" /><path
         d="m 1991,1796 c -47,-26 -63,-84 -36,-135 16,-32 48,-47 118,-55 105,-13 189,-71 234,-164 23,-47 28,-70 28,-132 -1,-124 -56,-214 -163,-267 l -57,-28 -505,-3 -505,-3 122,123 c 71,72 124,135 128,151 19,76 -46,141 -122,122 -38,-9 -459,-430 -468,-467 -4,-16 -4,-40 0,-55 9,-38 430,-459 467,-468 77,-19 142,46 123,122 -4,16 -57,79 -128,150 l -121,123 h 492 c 320,0 509,4 544,11 226,47 398,259 398,489 0,230 -172,442 -398,489 -69,14 -121,13 -151,-3 z"
         id="path2"
         style="fill:#bd8100;fill-opacity:1" /></g></g></svg>
