<?xml version="1.0" encoding="UTF-8" standalone="no"?>
<!-- Created with Inkscape (http://www.inkscape.org/) -->

<svg
   width="38.591145mm"
   height="38.587921mm"
   viewBox="0 0 38.591145 38.587921"
   version="1.1"
   id="svg1"
   xml:space="preserve"
   inkscape:version="1.3.2 (091e20e, 2023-11-25, custom)"
   sodipodi:docname="view-content-icon-gold.svg"
   xmlns:inkscape="http://www.inkscape.org/namespaces/inkscape"
   xmlns:sodipodi="http://sodipodi.sourceforge.net/DTD/sodipodi-0.dtd"
   xmlns="http://www.w3.org/2000/svg"
   xmlns:svg="http://www.w3.org/2000/svg"><sodipodi:namedview
     id="namedview1"
     pagecolor="#ffffff"
     bordercolor="#111111"
     borderopacity="1"
     inkscape:showpageshadow="0"
     inkscape:pageopacity="0"
     inkscape:pagecheckerboard="1"
     inkscape:deskcolor="#d1d1d1"
     inkscape:document-units="mm"
     inkscape:zoom="2.1694726"
     inkscape:cx="68.910756"
     inkscape:cy="26.043195"
     inkscape:window-width="1920"
     inkscape:window-height="1057"
     inkscape:window-x="-8"
     inkscape:window-y="-8"
     inkscape:window-maximized="1"
     inkscape:current-layer="layer1" /><defs
     id="defs1"><clipPath
       id="clip0_73_517"><rect
         width="30"
         height="24.8804"
         fill="#ffffff"
         id="rect1"
         x="0"
         y="0" /></clipPath></defs><g
     inkscape:label="Laag 1"
     inkscape:groupmode="layer"
     id="layer1"
     transform="translate(-101.06825,-113.03671)"><g
       id="g1"
       transform="translate(46.831658,37.562892)"><path
         fill-rule="evenodd"
         clip-rule="evenodd"
         d="m 55.285532,75.473819 h 36.493291 c 0.577837,0 1.048908,0.568023 1.048908,1.264811 v 29.15117 c 0,0.69675 -0.471071,1.26477 -1.048908,1.26477 H 55.285532 c -0.577862,0 -1.048945,-0.56802 -1.048945,-1.26477 V 76.73863 c 0,-0.696788 0.471083,-1.264811 1.048945,-1.264811 z M 68.77426,108.90032 h 9.515801 c 0.02523,1.98431 0.703516,3.76419 2.540708,5.16142 H 66.233505 c 1.469846,-1.28369 2.547057,-2.84393 2.540755,-5.16142 z m 4.757894,-6.00599 c 0.744299,0 1.347349,0.72716 1.347349,1.62462 0,0.89747 -0.60305,1.62446 -1.347349,1.62446 -0.744286,0 -1.347346,-0.72699 -1.347346,-1.62446 0,-0.89746 0.60306,-1.62462 1.347346,-1.62462 z M 57.39284,77.855738 h 32.281732 c 0.511977,0 0.926444,0.503659 0.926444,1.117133 v 21.781889 c 0,0.61346 -0.417682,1.1171 -0.926444,1.1171 H 57.39284 c -0.50876,0 -0.926457,-0.50364 -0.926457,-1.1171 V 78.972871 c -0.0031,-0.613474 0.414546,-1.117133 0.926457,-1.117133 z"
         fill="#bd8100"
         id="path1-8"
         clip-path="url(#clipPath2)"
         style="fill:#bd8100;fill-opacity:1;stroke-width:143.625;stroke-dasharray:none" /><rect
         style="fill:none;stroke:#bd8100;stroke-width:2.38894;stroke-linecap:square;stroke-linejoin:round;stroke-dasharray:none;stroke-dashoffset:26.4567;stroke-opacity:1;paint-order:fill markers stroke"
         id="rect1-4"
         width="32.443535"
         height="21.759975"
         x="57.281933"
         y="78.98381"
         ry="0" /></g></g></svg>
