<?xml version="1.0" encoding="UTF-8" standalone="no" ?>
<!DOCTYPE svg PUBLIC "-//W3C//DTD SVG 1.1//EN" "http://www.w3.org/Graphics/SVG/1.1/DTD/svg11.dtd">
<svg xmlns="http://www.w3.org/2000/svg" xmlns:xlink="http://www.w3.org/1999/xlink" version="1.1" width="140" height="140" viewBox="0 0 140 140" xml:space="preserve">
<desc>Created with Fabric.js 5.3.0</desc>
<defs>
</defs>
<g transform="matrix(0.0750000019 0 0 0.0750000019 70 70)" id="lUIdAghKzK3tblK95DjKJ"  >
<g style="" vector-effect="non-scaling-stroke"   >
		<g transform="matrix(0.13333333 0 0 -0.13333333 299.9299925018 482.8826545946)" id="SSYN-OBhrh2g_L2CgV5Ix"  >
<path style="stroke: none; stroke-width: 1; stroke-dasharray: none; stroke-linecap: butt; stroke-dashoffset: 0; stroke-linejoin: miter; stroke-miterlimit: 4; fill: rgb(255,255,255); fill-rule: nonzero; opacity: 1;" vector-effect="non-scaling-stroke"  transform=" translate(-7249.475, -1378.38)" d="M 5000 1099.38 C 4993.75 1099.38 4987.41 1099.38 4981.17 1099.39 L 5000 1099.39 L 5000 1099.39 L 5000 1099.39 L 5018.83 1099.39 C 5012.59 1099.38 5006.24 1099.38 5000 1099.38 M 9517.77 1655.7600000000002 L 9517.77 1656.5700000000002 L 9517.77 1656.5700000000002 L 9517.77 1656.5700000000002 L 9517.77 1657.38 C 9517.78 1657.1200000000001 9517.78 1656.8400000000001 9517.78 1656.5700000000002 C 9517.78 1656.3100000000002 9517.78 1656.0300000000002 9517.77 1655.7600000000002" stroke-linecap="round" />
</g>
		<g transform="matrix(0.13333333 0 0 -0.13333333 -0.0004666667 472.4779881881)" id="u9hBE2IjcT0beiWVh-vP9" clip-path="url(#CLIPPATH_3)"  >
<clipPath id="CLIPPATH_3" >
	<path transform="matrix(1 0 0 1 0.0065 200.16) translate(-5000.003, -1656.575)" id="path18" d="M 482.223 1099.38 L 9517.783 1099.38 L 9517.783 2213.77 L 482.223 2213.77 Z" stroke-linecap="round" />
</clipPath>
<path style="stroke: none; stroke-width: 1; stroke-dasharray: none; stroke-linecap: butt; stroke-dashoffset: 0; stroke-linejoin: miter; stroke-miterlimit: 4; fill: rgb(255,255,255); fill-rule: nonzero; opacity: 1;" vector-effect="non-scaling-stroke"  transform=" translate(-4999.9965, -1456.415)" d="M 5018.83 1099.39 L 5000 1099.39 C 7495.1 1099.39 9517.77 1348.8500000000001 9517.77 1656.5700000000002 L 9517.77 1655.7600000000002 C 9514.33 1349.1700000000003 7503.18 1100.63 5018.830000000001 1099.3900000000003 M 5000.000000000001 1099.3900000000003 L 4981.170000000001 1099.3900000000003 C 2494.690000000001 1100.6300000000003 482.22300000000087 1349.6200000000003 482.22300000000087 1656.5700000000002 C 482.22300000000087 1348.8500000000001 2504.9000000000005 1099.3900000000003 5000.000000000001 1099.3900000000003 M 9517.77 1656.5700000000002 C 9517.77 1711.0400000000002 9454.41 1763.68 9336.26 1813.44 C 9453.84 1763.93 9517.16 1711.5700000000002 9517.77 1657.38 L 9517.77 1656.5700000000002" stroke-linecap="round" />
</g>
		<g transform="matrix(0.13333333 0 0 -0.13333333 -0.0004666667 445.7893221886)" id="xj2m8p_N1eMLzOu6Ih0m9" clip-path="url(#CLIPPATH_4)"  >
<radialGradient id="SVGID_0" gradientUnits="userSpaceOnUse" gradientTransform="matrix(4518.39 0 0 -557.117 5000 1656.57)"  cx="0" cy="0" r="1" fx="0" fy="0">
<stop offset="0%" style="stop-color:rgb(124,126,128);stop-opacity: 1"/>
<stop offset="64.08306400000001%" style="stop-color:rgb(255,255,255);stop-opacity: 1"/>
<stop offset="92.3469%" style="stop-color:rgb(255,255,255);stop-opacity: 1"/>
<stop offset="100%" style="stop-color:rgb(255,255,255);stop-opacity: 1"/>
</radialGradient>
<clipPath id="CLIPPATH_4" >
	<path transform="matrix(1 0 0 1 0 0) translate(-4999.9965, -1656.58)" id="path28" d="M 5000 1099.39 L 5000 1099.39 C 2504.9 1099.39 482.22299999999996 1348.8500000000001 482.22299999999996 1656.5700000000002 L 482.22299999999996 1656.5700000000002 C 482.22299999999996 1656.8700000000001 482.227 1657.17 482.22999999999996 1657.4700000000003 C 486.176 1964.7900000000002 2507.3399999999997 2213.7700000000004 5000 2213.7700000000004 L 5000 2213.7700000000004 C 7053.46 2213.7700000000004 8786.94 2044.8000000000004 9336.26 1813.4400000000005 C 9454.41 1763.6800000000005 9517.77 1711.0400000000004 9517.77 1656.5700000000006 L 9517.77 1656.5700000000006 L 9517.77 1656.5700000000006 C 9517.77 1348.8500000000006 7495.1 1099.3900000000008 5000 1099.3900000000008 L 5000 1099.3900000000008" stroke-linecap="round" />
</clipPath>
<path style="stroke: none; stroke-width: 1; stroke-dasharray: none; stroke-linecap: butt; stroke-dashoffset: 0; stroke-linejoin: miter; stroke-miterlimit: 4; fill: url(#SVGID_0); fill-rule: nonzero; opacity: 1;" vector-effect="non-scaling-stroke"  transform=" translate(-4999.9965, -1656.58)" d="M 5000 1099.39 L 5000 1099.39 C 2504.9 1099.39 482.22299999999996 1348.8500000000001 482.22299999999996 1656.5700000000002 L 482.22299999999996 1656.5700000000002 C 482.22299999999996 1656.8700000000001 482.227 1657.17 482.22999999999996 1657.4700000000003 C 486.176 1964.7900000000002 2507.3399999999997 2213.7700000000004 5000 2213.7700000000004 L 5000 2213.7700000000004 C 7053.46 2213.7700000000004 8786.94 2044.8000000000004 9336.26 1813.4400000000005 C 9454.41 1763.6800000000005 9517.77 1711.0400000000004 9517.77 1656.5700000000006 L 9517.77 1656.5700000000006 L 9517.77 1656.5700000000006 C 9517.77 1348.8500000000006 7495.1 1099.3900000000008 5000 1099.3900000000008 L 5000 1099.3900000000008" stroke-linecap="round" />
</g>
		<g transform="matrix(0.13333333 0 0 -0.13333333 -364.3426575581 -107.3373306499)" id="ry6whoMbSd0VOUaYyCHGG"  >
<path style="stroke: none; stroke-width: 1; stroke-dasharray: none; stroke-linecap: butt; stroke-dashoffset: 0; stroke-linejoin: miter; stroke-miterlimit: 4; fill: rgb(0,0,0); fill-rule: nonzero; opacity: 1;" vector-effect="non-scaling-stroke"  transform=" translate(-2267.43, -5805.03)" d="M 2216.87 6135.79 C 2194.6099999999997 6135.79 2176.56 6117.75 2176.56 6095.48 L 2176.56 5514.58 C 2176.56 5492.3099999999995 2194.61 5474.2699999999995 2216.87 5474.2699999999995 L 2317.99 5474.2699999999995 C 2340.25 5474.2699999999995 2358.2999999999997 5492.3099999999995 2358.2999999999997 5514.58 L 2358.2999999999997 6095.48 C 2358.2999999999997 6117.75 2340.2499999999995 6135.79 2317.99 6135.79 L 2216.87 6135.79" stroke-linecap="round" />
</g>
		<g transform="matrix(0.13333333 0 0 -0.13333333 0 92.4859976879)" id="88r6U8GhBTWGOGbMJsUhT"  >
<path style="stroke: none; stroke-width: 1; stroke-dasharray: none; stroke-linecap: butt; stroke-dashoffset: 0; stroke-linejoin: miter; stroke-miterlimit: 4; fill: rgb(0,0,0); fill-rule: nonzero; opacity: 1;" vector-effect="non-scaling-stroke"  transform=" translate(-5000, -4306.355)" d="M 2666.14 4446.11 L 2666.14 4443.74 L 2674.08 4225.4 C 3060.73 4208.679999999999 3957.77 4174.549999999999 5000 4166.599999999999 C 6042.23 4174.549999999999 6939.27 4208.679999999999 7325.92 4225.4 L 7333.86 4443.74 L 7333.86 4446.11 L 5000 4446.11 L 2666.14 4446.11" stroke-linecap="round" />
</g>
		<g transform="matrix(0.13333333 0 0 -0.13333333 0 -140.9631738141)" id="R-Dbzf9RvaMsaZSJYJzR8"  >
<path style="stroke: none; stroke-width: 1; stroke-dasharray: none; stroke-linecap: butt; stroke-dashoffset: 0; stroke-linejoin: miter; stroke-miterlimit: 4; fill: rgb(0,0,0); fill-rule: nonzero; opacity: 1;" vector-effect="non-scaling-stroke"  transform=" translate(-5000, -6057.2238300364)" d="M 2771.67 6934.21 L 2818.55 7288.72 C 2828.5600000000004 7364.400000000001 2888.76 7423.5 2964.63 7432.070000000001 C 3511.71 7493.840000000001 5000 7483.76 5000 7483.76 C 5000 7483.76 6488.3 7493.84 7035.37 7432.070000000001 C 7111.24 7423.500000000001 7171.44 7364.400000000001 7181.45 7288.72 L 7228.33 6934.21 C 7241.5 6834.65 7164.0199999999995 6746.26 7063.6 6746.26 L 5000 6746.26 L 2936.41 6746.26 C 2835.98 6746.26 2758.5 6834.650000000001 2771.67 6934.21 z M 2746.81 6291.09 C 2746.81 6407.81 2841.42 6502.42 2958.14 6502.42 L 5000 6502.42 L 7041.86 6502.42 C 7158.58 6502.42 7253.19 6407.81 7253.19 6291.09 L 7253.19 4521.11 L 7333.86 4521.11 L 7333.86 6659.17 C 7326.889999999999 6903.71 7289.24 7247.49 7242.46 7433.96 C 7230.78 7480.53 7193.02 7516.14 7145.86 7525.17 C 6731.5 7604.5 5000 7592.72 5000 7592.72 C 5000 7592.72 3268.5 7604.5 2854.14 7525.17 C 2806.97 7516.14 2769.23 7480.53 2757.54 7433.96 C 2710.7599999999998 7247.49 2673.11 6903.71 2666.14 6659.17 L 2666.14 4521.11 L 2746.81 4521.11 L 2746.81 6291.09" stroke-linecap="round" />
</g>
		<g transform="matrix(0.13333333 0 0 -0.13333333 0 241.9919939502)" id="HszKye94FoIiFvwZhLTti"  >
<path style="stroke: none; stroke-width: 1; stroke-dasharray: none; stroke-linecap: butt; stroke-dashoffset: 0; stroke-linejoin: miter; stroke-miterlimit: 4; fill: rgb(0,0,0); fill-rule: nonzero; opacity: 1;" vector-effect="non-scaling-stroke"  transform=" translate(-5000, -3185.06)" d="M 5558.53 3301.19 C 5570.719999999999 3301.19 5580.61 3291.31 5580.61 3279.11 L 5580.61 3091.01 C 5580.61 3078.8100000000004 5570.719999999999 3068.92 5558.53 3068.92 L 5034.83 3068.92 L 4441.47 3068.92 C 4429.280000000001 3068.92 4419.39 3078.81 4419.39 3091.01 L 4419.39 3279.11 C 4419.39 3291.31 4429.280000000001 3301.19 4441.47 3301.19 L 5034.83 3301.19 z M 7011.03 3377.83 C 7075.259999999999 3377.83 7127.23 3325.86 7127.23 3261.7599999999998 C 7127.23 3197.5299999999997 7075.259999999999 3145.56 7011.03 3145.56 C 6946.929999999999 3145.56 6894.96 3197.5299999999997 6894.96 3261.7599999999998 C 6894.96 3325.8599999999997 6946.93 3377.83 7011.03 3377.83 z M 2988.98 3145.56 C 2924.75 3145.56 2872.77 3197.5299999999997 2872.77 3261.7599999999998 C 2872.77 3325.8599999999997 2924.75 3377.83 2988.98 3377.83 C 3053.07 3377.83 3105.04 3325.86 3105.04 3261.7599999999998 C 3105.04 3197.5299999999997 3053.07 3145.56 2988.98 3145.56 z M 2701.39 3468.4 L 2719.0499999999997 2979.78 C 2720.6299999999997 2936.2200000000003 2756.39 2901.7200000000003 2799.9799999999996 2901.7200000000003 L 5000 2901.7200000000003 L 7200.02 2901.7200000000003 C 7243.610000000001 2901.7200000000003 7279.38 2936.2200000000003 7280.950000000001 2979.78 L 7298.610000000001 3468.4 L 5000 3468.4 L 2701.39 3468.4" stroke-linecap="round" />
</g>
		<g transform="matrix(0.13333333 0 0 -0.13333333 0 153.7586628227)" id="Csq3rbcgbvjrtGrj8ljJ5"  >
<path style="stroke: none; stroke-width: 1; stroke-dasharray: none; stroke-linecap: butt; stroke-dashoffset: 0; stroke-linejoin: miter; stroke-miterlimit: 4; fill: rgb(0,0,0); fill-rule: nonzero; opacity: 1;" vector-effect="non-scaling-stroke"  transform=" translate(-5000, -3846.81)" d="M 6526.98 3771.21 C 6527.669999999999 3773.7200000000003 6528.37 3776.09 6529.07 3778.59 C 6540.63 3814.96 6568.639999999999 3843.94 6603.61 3859.4100000000003 C 6757.849999999999 3927.13 6938.99 3992.0600000000004 7104.94 4026.61 C 7156.7699999999995 4037.48 7207.9 4005.29 7220.03 3953.7400000000002 C 7241.9 3860.8 7242.46 3799.36 7221.7 3721.4700000000003 C 7209.16 3674.51 7166.94 3641.63 7118.3099999999995 3641.63 L 6631.33 3641.63 C 6563.0599999999995 3641.63 6510.39 3705.1600000000003 6526.98 3771.21 z M 3368.67 3641.63 L 2881.69 3641.63 C 2833.06 3641.63 2790.84 3674.51 2778.3 3721.4700000000003 C 2757.54 3799.36 2758.1000000000004 3860.8 2779.9700000000003 3953.7400000000002 C 2792.1000000000004 4005.2900000000004 2843.2300000000005 4037.48 2895.0600000000004 4026.61 C 3061.01 3992.06 3242.1500000000005 3927.13 3396.3900000000003 3859.4100000000003 C 3431.36 3843.9400000000005 3459.3700000000003 3814.9600000000005 3470.9400000000005 3778.59 C 3471.6300000000006 3776.09 3472.3300000000004 3773.7200000000003 3473.0300000000007 3771.21 C 3489.6100000000006 3705.16 3436.9400000000005 3641.63 3368.6700000000005 3641.63 z M 5000 4091.6 L 4999.43 4091.6 C 3982.4000000000005 4099.36 3109.9700000000003 4131.54 2676.7900000000004 4150.22 L 2698.6800000000003 3543.4 L 7301.320000000001 3543.4 L 7323.210000000001 4150.22 C 6890.03 4131.54 6017.6 4099.36 5000.57 4091.6 L 5000 4091.6" stroke-linecap="round" />
</g>
		<g transform="matrix(0.13333333 0 0 -0.13333333 0 -282.0413262823)" id="mgOBfNqV-rR7s8Eh6nHFf"  >
<path style="stroke: none; stroke-width: 1; stroke-dasharray: none; stroke-linecap: butt; stroke-dashoffset: 0; stroke-linejoin: miter; stroke-miterlimit: 4; fill: rgb(0,0,0); fill-rule: nonzero; opacity: 1;" vector-effect="non-scaling-stroke"  transform=" translate(-5000, -7115.31)" d="M 3306.54 6864.24 L 6693.46 6864.24 C 6714.08 6864.24 6730.96 6881.11 6730.96 6901.74 L 6730.96 7328.88 C 6730.96 7349.51 6714.08 7366.38 6693.46 7366.38 L 3306.54 7366.38 C 3285.92 7366.38 3269.04 7349.51 3269.04 7328.88 L 3269.04 6901.74 C 3269.04 6881.11 3285.92 6864.24 3306.54 6864.24" stroke-linecap="round" />
</g>
		<g transform="matrix(0.13333333 0 0 -0.13333333 0 -63.2353317524)" id="LyZmYBooaY2bM4fKbd-Cm"  >
<path style="stroke: none; stroke-width: 1; stroke-dasharray: none; stroke-linecap: butt; stroke-dashoffset: 0; stroke-linejoin: miter; stroke-miterlimit: 4; fill: rgb(0,0,0); fill-rule: nonzero; opacity: 1;" vector-effect="non-scaling-stroke"  transform=" translate(-5000, -5474.265)" d="M 4905.95 4521.11 L 5094.05 4521.11 L 5094.05 6427.42 L 4905.95 6427.42 L 4905.95 4521.11" stroke-linecap="round" />
</g>
		<g transform="matrix(0.13333333 0 0 -0.13333333 -250.7173270654 317.7739920557)" id="uZ9Bqck0J0xX9jUfOyoA9"  >
<path style="stroke: none; stroke-width: 1; stroke-dasharray: none; stroke-linecap: butt; stroke-dashoffset: 0; stroke-linejoin: miter; stroke-miterlimit: 4; fill: rgb(0,0,0); fill-rule: nonzero; opacity: 1;" vector-effect="non-scaling-stroke"  transform=" translate(-3119.62, -2616.695)" d="M 2814.61 2498.54 C 2814.61 2447.8 2855.75 2406.67 2906.4900000000002 2406.67 L 3332.75 2406.67 C 3383.49 2406.67 3424.63 2447.8 3424.63 2498.54 L 3424.63 2826.72 L 2814.61 2826.72 L 2814.61 2498.54" stroke-linecap="round" />
</g>
		<g transform="matrix(0.13333333 0 0 -0.13333333 250.7173270654 317.7739920557)" id="GLy0DjAcdfA7Hi6gOfKfZ"  >
<path style="stroke: none; stroke-width: 1; stroke-dasharray: none; stroke-linecap: butt; stroke-dashoffset: 0; stroke-linejoin: miter; stroke-miterlimit: 4; fill: rgb(0,0,0); fill-rule: nonzero; opacity: 1;" vector-effect="non-scaling-stroke"  transform=" translate(-6880.38, -2616.695)" d="M 6575.37 2498.54 C 6575.37 2447.8 6616.51 2406.67 6667.25 2406.67 L 7093.51 2406.67 C 7144.25 2406.67 7185.39 2447.8 7185.39 2498.54 L 7185.39 2826.72 L 6575.370000000001 2826.72 L 6575.370000000001 2498.54" stroke-linecap="round" />
</g>
		<g transform="matrix(0.13333333 0 0 -0.13333333 -335.4563266928 -107.3373306499)" id="SAgvDhTXbNxCi7YP1JzdN"  >
<path style="stroke: none; stroke-width: 1; stroke-dasharray: none; stroke-linecap: butt; stroke-dashoffset: 0; stroke-linejoin: miter; stroke-miterlimit: 4; fill: rgb(0,0,0); fill-rule: nonzero; opacity: 1;" vector-effect="non-scaling-stroke"  transform=" translate(-2484.0774869062, -5805.03)" d="M 2533.79 5863.78 L 2433.3 5863.78 L 2433.3 5746.28 L 2534.79 5746.28 C 2535.0099999999998 5785.63 2534.67 5825.19 2533.79 5863.78" stroke-linecap="round" />
</g>
		<g transform="matrix(0.13333333 0 0 -0.13333333 -365.2952651187 -102.3706641074)" id="giQlY0yMEVfxMO84gTmds"  >
<path style="stroke: none; stroke-width: 1; stroke-dasharray: none; stroke-linecap: butt; stroke-dashoffset: 0; stroke-linejoin: miter; stroke-miterlimit: 4; fill: rgb(0,0,0); fill-rule: nonzero; opacity: 1;" vector-effect="non-scaling-stroke"  transform=" translate(-2260.2854431167, -5767.78)" d="M 2317.99 5399.27 L 2216.87 5399.27 C 2153.29 5399.27 2101.56 5450.990000000001 2101.56 5514.580000000001 L 2101.56 6095.4800000000005 C 2101.56 6159.070000000001 2153.29 6210.8 2216.87 6210.8 L 2317.99 6210.8 C 2359.62 6210.8 2396.0499999999997 6188.55 2416.33 6155.400000000001 L 2507.85 6155.400000000001 C 2495.25 6186.55 2467.21 6209.77 2433.0299999999997 6215.01 C 2387.81 6221.900000000001 2328.2299999999996 6225.67 2267.43 6226.24 C 2206.6299999999997 6225.67 2147.06 6221.9 2101.8399999999997 6215.01 C 2060.5699999999997 6208.68 2028.1999999999996 6176.2 2021.2099999999996 6135.13 C 1992.7899999999995 5968.400000000001 1992.9799999999996 5568.1 2021.4899999999996 5403.07 C 2028.4799999999996 5362.75 2059.6299999999997 5331.03 2099.9499999999994 5323.57 C 2146.5799999999995 5314.889999999999 2206.3499999999995 5310.07 2267.4299999999994 5309.32 C 2328.5199999999995 5310.07 2388.2799999999993 5314.889999999999 2434.919999999999 5323.57 C 2475.229999999999 5331.03 2506.389999999999 5362.75 2513.369999999999 5403.07 C 2516.019999999999 5418.36 2518.409999999999 5435.7 2520.569999999999 5454.67 L 2416.329999999999 5454.67 C 2396.049999999999 5421.51 2359.619999999999 5399.27 2317.989999999999 5399.27" stroke-linecap="round" />
</g>
		<g transform="matrix(0.13333333 0 0 -0.13333333 -331.7039917074 -134.611329968)" id="wVUqLldCyaCdJHNvcKGwN"  >
<path style="stroke: none; stroke-width: 1; stroke-dasharray: none; stroke-linecap: butt; stroke-dashoffset: 0; stroke-linejoin: miter; stroke-miterlimit: 4; fill: rgb(0,0,0); fill-rule: nonzero; opacity: 1;" vector-effect="non-scaling-stroke"  transform=" translate(-2512.22, -6009.585)" d="M 2433.3 5938.78 L 2591.1400000000003 5938.78 L 2591.1400000000003 6080.389999999999 L 2433.3 6080.389999999999 L 2433.3 5938.78" stroke-linecap="round" />
</g>
		<g transform="matrix(0.13333333 0 0 -0.13333333 -331.7039917074 -80.0633313318)" id="v6bT-4MphzleR5ceZ01JC"  >
<path style="stroke: none; stroke-width: 1; stroke-dasharray: none; stroke-linecap: butt; stroke-dashoffset: 0; stroke-linejoin: miter; stroke-miterlimit: 4; fill: rgb(0,0,0); fill-rule: nonzero; opacity: 1;" vector-effect="non-scaling-stroke"  transform=" translate(-2512.22, -5600.475)" d="M 2433.3 5529.67 L 2591.1400000000003 5529.67 L 2591.1400000000003 5671.28 L 2433.3 5671.28 L 2433.3 5529.67" stroke-linecap="round" />
</g>
		<g transform="matrix(0.13333333 0 0 -0.13333333 364.3426575581 -107.3373306499)" id="L0Y_01eRDwiS1VMIglczT"  >
<path style="stroke: none; stroke-width: 1; stroke-dasharray: none; stroke-linecap: butt; stroke-dashoffset: 0; stroke-linejoin: miter; stroke-miterlimit: 4; fill: rgb(0,0,0); fill-rule: nonzero; opacity: 1;" vector-effect="non-scaling-stroke"  transform=" translate(-7732.57, -5805.03)" d="M 7783.13 5474.27 C 7805.39 5474.27 7823.4400000000005 5492.31 7823.4400000000005 5514.580000000001 L 7823.4400000000005 6095.4800000000005 C 7823.4400000000005 6117.750000000001 7805.39 6135.790000000001 7783.13 6135.790000000001 L 7682.01 6135.790000000001 C 7659.75 6135.790000000001 7641.7 6117.750000000001 7641.7 6095.4800000000005 L 7641.7 5514.580000000001 C 7641.7 5492.31 7659.75 5474.27 7682.01 5474.27 L 7783.13 5474.27" stroke-linecap="round" />
</g>
		<g transform="matrix(0.13333333 0 0 -0.13333333 335.4563266928 -107.3373306499)" id="IlnwYJ4glMfCPXDUOgSmc"  >
<path style="stroke: none; stroke-width: 1; stroke-dasharray: none; stroke-linecap: butt; stroke-dashoffset: 0; stroke-linejoin: miter; stroke-miterlimit: 4; fill: rgb(0,0,0); fill-rule: nonzero; opacity: 1;" vector-effect="non-scaling-stroke"  transform=" translate(-7515.9225130938, -5805.03)" d="M 7566.7 5746.28 L 7566.7 5863.78 L 7466.21 5863.78 C 7465.33 5825.19 7464.99 5785.63 7465.21 5746.28 L 7566.7 5746.28" stroke-linecap="round" />
</g>
		<g transform="matrix(0.13333333 0 0 -0.13333333 365.2952651187 -102.3706641074)" id="famEZ4JzUPMQ3jjiVhsaq"  >
<path style="stroke: none; stroke-width: 1; stroke-dasharray: none; stroke-linecap: butt; stroke-dashoffset: 0; stroke-linejoin: miter; stroke-miterlimit: 4; fill: rgb(0,0,0); fill-rule: nonzero; opacity: 1;" vector-effect="non-scaling-stroke"  transform=" translate(-7739.7145568833, -5767.78)" d="M 7978.79 6135.13 C 7971.8 6176.2 7939.43 6208.68 7898.16 6215.01 C 7852.94 6221.900000000001 7793.37 6225.67 7732.57 6226.24 C 7671.7699999999995 6225.67 7612.19 6221.9 7566.969999999999 6215.01 C 7532.789999999999 6209.77 7504.749999999999 6186.55 7492.15 6155.400000000001 L 7583.67 6155.400000000001 C 7603.95 6188.55 7640.38 6210.8 7682.01 6210.8 L 7783.13 6210.8 C 7846.71 6210.8 7898.4400000000005 6159.070000000001 7898.4400000000005 6095.4800000000005 L 7898.4400000000005 5514.580000000001 C 7898.4400000000005 5450.990000000001 7846.710000000001 5399.27 7783.13 5399.27 L 7682.01 5399.27 C 7640.38 5399.27 7603.95 5421.51 7583.67 5454.67 L 7479.43 5454.67 C 7481.59 5435.7 7483.9800000000005 5418.36 7486.63 5403.07 C 7493.61 5362.75 7524.77 5331.03 7565.08 5323.57 C 7611.72 5314.889999999999 7671.48 5310.07 7732.57 5309.32 C 7793.65 5310.07 7853.42 5314.889999999999 7900.049999999999 5323.57 C 7940.369999999999 5331.03 7971.5199999999995 5362.75 7978.509999999999 5403.07 C 8007.0199999999995 5568.099999999999 8007.209999999999 5968.4 7978.789999999999 6135.129999999999" stroke-linecap="round" />
</g>
		<g transform="matrix(0.13333333 0 0 -0.13333333 331.7039917074 -134.6113299681)" id="BG1yfY8QO26OYZG4Bnc9m"  >
<path style="stroke: none; stroke-width: 1; stroke-dasharray: none; stroke-linecap: butt; stroke-dashoffset: 0; stroke-linejoin: miter; stroke-miterlimit: 4; fill: rgb(0,0,0); fill-rule: nonzero; opacity: 1;" vector-effect="non-scaling-stroke"  transform=" translate(-7487.78, -6009.585)" d="M 7566.7 6080.39 L 7408.86 6080.39 L 7408.86 5938.780000000001 L 7566.7 5938.780000000001 L 7566.7 6080.39" stroke-linecap="round" />
</g>
		<g transform="matrix(0.13333333 0 0 -0.13333333 331.7039917074 -80.0633313318)" id="t9JhkYWpCa1ra7gSNbE2o"  >
<path style="stroke: none; stroke-width: 1; stroke-dasharray: none; stroke-linecap: butt; stroke-dashoffset: 0; stroke-linejoin: miter; stroke-miterlimit: 4; fill: rgb(0,0,0); fill-rule: nonzero; opacity: 1;" vector-effect="non-scaling-stroke"  transform=" translate(-7487.78, -5600.475)" d="M 7566.7 5671.28 L 7408.86 5671.28 L 7408.86 5529.67 L 7566.7 5529.67 L 7566.7 5671.28" stroke-linecap="round" />
</g>
</g>
</g>
</svg>