<?xml version="1.0" encoding="UTF-8" standalone="no" ?>
<!DOCTYPE svg PUBLIC "-//W3C//DTD SVG 1.1//EN" "http://www.w3.org/Graphics/SVG/1.1/DTD/svg11.dtd">
<svg xmlns="http://www.w3.org/2000/svg" xmlns:xlink="http://www.w3.org/1999/xlink" version="1.1" width="140" height="140" viewBox="0 0 140 140" xml:space="preserve">
<desc>Created with Fabric.js 5.3.0</desc>
<defs>
</defs>
<g transform="matrix(0.1125000028 0 0 0.1125000028 70 70)" id="g30dDq-_gsVfyBOyPsZRJ"  >
<g style="" vector-effect="non-scaling-stroke"   >
		<g transform="matrix(0.13333333 0 0 -0.13333333 214.4353280773 -264.8699933783)" id="6oziTEu2SCHsPMEwnIIUw"  >
<path style="stroke: none; stroke-width: 1; stroke-dasharray: none; stroke-linecap: butt; stroke-dashoffset: 0; stroke-linejoin: miter; stroke-miterlimit: 4; fill: rgb(67,66,68); fill-rule: nonzero; opacity: 1;" vector-effect="non-scaling-stroke"  transform=" translate(-6608.2650007861, -6986.525)" d="M 6613.84 6513.1 C 6875.31 6516.17 7084.77 6730.63 7081.6900000000005 6992.1 C 7078.620000000001 7253.56 6864.160000000001 7463.030000000001 6602.6900000000005 7459.950000000001 C 6341.2300000000005 7456.870000000001 6131.76 7242.420000000001 6134.84 6980.950000000001 C 6137.91 6719.490000000001 6352.37 6510.02 6613.84 6513.1" stroke-linecap="round" />
</g>
		<g transform="matrix(0.13333333 0 0 -0.13333333 29.8832853109 -34.5765829255)" id="XdOQaS4dV4K40wrkZ4O-y"  >
<path style="stroke: none; stroke-width: 1; stroke-dasharray: none; stroke-linecap: butt; stroke-dashoffset: 0; stroke-linejoin: miter; stroke-miterlimit: 4; fill: rgb(67,66,68); fill-rule: nonzero; opacity: 1;" vector-effect="non-scaling-stroke"  transform=" translate(-5224.1246454349, -5259.3243784241)" d="M 6468.21 5166.45 C 6418.99 5288.88 6300.25 5367.63 6168.59 5366.4 L 5645.01 5360.25 L 6095.99 5912.12 C 6230.4 6076.61 6232.46 6305.95 6114.57 6471.37 C 6091.32 6528.09 6051.53 6578.75 5996.719999999999 6615.37 L 4753.079999999999 7446.18 C 4606.569999999999 7544.110000000001 4408.419999999999 7504.67 4310.549999999999 7358.13 C 4212.639999999999 7211.59 4252.089999999999 7013.47 4398.599999999999 6915.6 L 5256.129999999999 6342.72 L 4422.529999999999 5323.34 C 4403.459999999999 5299.96 4386.8499999999985 5275.35 4373.319999999999 5250.12 C 4347.479999999999 5251.97 4321.019999999999 5252.58 4294.559999999999 5252.58 C 3970.3299999999986 5252.58 3671.319999999999 5140 3436.3099999999986 4951.12 L 3611.0299999999984 4776.39 L 3787.5999999999985 4599.81 C 3930.9599999999987 4701.330000000001 4105.6799999999985 4760.39 4294.559999999999 4760.39 C 4333.939999999999 4760.39 4373.319999999999 4757.93 4411.459999999998 4752.39 C 4570.809999999999 4731.47 4716.619999999998 4668.110000000001 4837.199999999998 4573.360000000001 C 5045.159999999998 4411.55 5178.659999999998 4159.3 5178.659999999998 3876.2900000000004 C 5178.659999999998 3688.0300000000007 5119.599999999998 3512.6800000000003 5018.089999999998 3369.3300000000004 L 5194.659999999998 3193.3700000000003 L 5369.389999999998 3018.6500000000005 C 5558.269999999998 3253.6700000000005 5670.849999999998 3552.0600000000004 5670.849999999998 3876.2900000000004 C 5670.849999999998 4123.620000000001 5605.029999999998 4356.790000000001 5489.9699999999975 4557.360000000001 C 5457.369999999997 4613.960000000001 5421.679999999998 4668.110000000001 5381.079999999997 4719.170000000001 L 5958.169999999997 4725.940000000001 L 6222.729999999998 4068.8600000000015 L 6396.839999999997 3636.3500000000013 C 6446.669999999997 3512.070000000001 6566.639999999998 3436.3900000000012 6692.769999999998 3436.3900000000012 C 6732.7599999999975 3436.3900000000012 6772.749999999997 3443.780000000001 6812.129999999997 3459.7700000000013 C 6975.779999999997 3525.6100000000015 7054.529999999997 3711.410000000001 6988.699999999997 3875.0600000000013 L 6468.209999999997 5166.450000000002" stroke-linecap="round" />
</g>
		<g transform="matrix(0.13333333 0 0 -0.13333333 -128.6346634508 184.4453287222)" id="HU9zDSjzU8pwhl07hiZhV"  >
<path style="stroke: none; stroke-width: 1; stroke-dasharray: none; stroke-linecap: butt; stroke-dashoffset: 0; stroke-linejoin: miter; stroke-miterlimit: 4; fill: rgb(67,66,68); fill-rule: nonzero; opacity: 1;" vector-effect="non-scaling-stroke"  transform=" translate(-4035.24, -3616.66)" d="M 4800.91 3152.15 C 4657.5599999999995 3051.25 4482.83 2992.19 4294.5599999999995 2992.19 C 3806.6799999999994 2992.19 3410.4599999999996 3388.41 3410.4599999999996 3876.29 C 3410.4599999999996 4064.56 3469.5299999999997 4239.28 3570.4299999999994 4382.63 L 3393.8499999999995 4559.21 L 3219.7399999999993 4733.32 C 3030.859999999999 4497.679999999999 2918.2699999999995 4199.91 2918.2699999999995 3876.29 C 2918.2699999999995 3117.08 3535.3599999999997 2500 4294.5599999999995 2500 C 4618.799999999999 2500 4917.19 2612.59 5152.209999999999 2800.85 L 4977.48 2975.58 L 4800.91 3152.15" stroke-linecap="round" />
</g>
</g>
</g>
</svg>