<?xml version="1.0" encoding="UTF-8" standalone="no" ?>
<!DOCTYPE svg PUBLIC "-//W3C//DTD SVG 1.1//EN" "http://www.w3.org/Graphics/SVG/1.1/DTD/svg11.dtd">
<svg xmlns="http://www.w3.org/2000/svg" xmlns:xlink="http://www.w3.org/1999/xlink" version="1.1" width="140" height="140" viewBox="0 0 140 140" xml:space="preserve">
<desc>Created with Fabric.js 5.3.0</desc>
<defs>
</defs>
<g transform="matrix(0.0374999995 0 0 0.0374999995 70 70)" id="Oxp7oX5Ro91BevlhuVPzE"  >
<g style="" vector-effect="non-scaling-stroke"   >
		<g transform="matrix(0.13333333 0 0 -0.13333333 -0.00005 1069.000023275)" id="s34swtUJjKR_nssGkguuJ" clip-path="url(#CLIPPATH_18)"  >
<linearGradient id="SVGID_0" gradientUnits="userSpaceOnUse" gradientTransform="matrix(2e-7 5027.4 5027.4 -2e-7 10000 -885)"  x1="0" y1="0" x2="1" y2="0">
<stop offset="0%" style="stop-color:rgb(255,255,255);stop-opacity: 1"/>
<stop offset="43.128499999999995%" style="stop-color:rgb(255,255,255);stop-opacity: 1"/>
<stop offset="45.481518%" style="stop-color:rgb(255,255,255);stop-opacity: 1"/>
<stop offset="100%" style="stop-color:rgb(128,201,239);stop-opacity: 1"/>
</linearGradient>
<clipPath id="CLIPPATH_18" >
	<path transform="matrix(1 0 0 1 0.005 -182.149) translate(-10000.005, -1800.351)" id="path22" clip-path="url(#undefined)" d="M 13962.9 2623.1 C 14120.3 2623.1 14247.9 2495.4 14247.9 2338 L 14247.9 977.602 L 5752.11 977.602 L 5752.11 2338 C 5752.11 2495.4 5879.719999999999 2623.1 6037.139999999999 2623.1 L 6308.009999999999 2623.1 L 10000 2623.1 L 13692 2623.1 z" stroke-linecap="round" />
</clipPath>
<path style="stroke: none; stroke-width: 1; stroke-dasharray: none; stroke-linecap: butt; stroke-dashoffset: 0; stroke-linejoin: miter; stroke-miterlimit: 4; fill: url(#SVGID_0); fill-rule: nonzero; opacity: 1;" vector-effect="non-scaling-stroke"  transform=" translate(-10000, -1982.5)" d="M 5752 1341 L 5752 2359 L 5753 2359 L 5753 2370 L 5754 2370 L 5754 2377 L 5755 2377 L 5755 2383 L 5756 2383 L 5756 2390 L 5757 2390 L 5757 2396 L 5758 2396 L 5758 2400 L 5759 2400 L 5759 2404 L 5760 2404 L 5760 2408 L 5761 2408 L 5761 2412 L 5762 2412 L 5762 2416 L 5763 2416 L 5763 2420 L 5764 2420 L 5764 2423 L 5765 2423 L 5765 2426 L 5766 2426 L 5766 2429 L 5767 2429 L 5767 2432 L 5768 2432 L 5768 2434 L 5769 2434 L 5769 2437 L 5770 2437 L 5770 2440 L 5771 2440 L 5771 2443 L 5772 2443 L 5772 2445 L 5773 2445 L 5773 2448 L 5774 2448 L 5774 2450 L 5775 2450 L 5775 2453 L 5776 2453 L 5776 2455 L 5777 2455 L 5777 2457 L 5778 2457 L 5778 2459 L 5779 2459 L 5779 2461 L 5780 2461 L 5780 2463 L 5781 2463 L 5781 2465 L 5782 2465 L 5782 2467 L 5783 2467 L 5783 2469 L 5784 2469 L 5784 2471 L 5785 2471 L 5785 2473 L 5786 2473 L 5786 2475 L 5787 2475 L 5787 2477 L 5788 2477 L 5788 2478 L 5789 2478 L 5789 2480 L 5790 2480 L 5790 2482 L 5791 2482 L 5791 2483 L 5792 2483 L 5792 2485 L 5793 2485 L 5793 2487 L 5794 2487 L 5794 2488 L 5795 2488 L 5795 2490 L 5796 2490 L 5796 2492 L 5797 2492 L 5797 2493 L 5798 2493 L 5798 2495 L 5799 2495 L 5799 2497 L 5800 2497 L 5800 2498 L 5801 2498 L 5801 2499 L 5802 2499 L 5802 2501 L 5803 2501 L 5803 2502 L 5804 2502 L 5804 2504 L 5805 2504 L 5805 2505 L 5806 2505 L 5806 2506 L 5807 2506 L 5807 2508 L 5808 2508 L 5808 2509 L 5809 2509 L 5809 2510 L 5810 2510 L 5810 2512 L 5811 2512 L 5811 2513 L 5812 2513 L 5812 2514 L 5813 2514 L 5813 2516 L 5814 2516 L 5814 2517 L 5815 2517 L 5815 2518 L 5816 2518 L 5816 2520 L 5817 2520 L 5817 2521 L 5818 2521 L 5818 2522 L 5819 2522 L 5819 2523 L 5820 2523 L 5820 2524 L 5821 2524 L 5821 2525 L 5822 2525 L 5822 2526 L 5823 2526 L 5823 2527 L 5824 2527 L 5824 2528 L 5825 2528 L 5825 2530 L 5826 2530 L 5826 2531 L 5827 2531 L 5827 2532 L 5828 2532 L 5828 2533 L 5829 2533 L 5829 2534 L 5830 2534 L 5830 2535 L 5831 2535 L 5831 2536 L 5832 2536 L 5832 2537 L 5833 2537 L 5833 2538 L 5834 2538 L 5834 2539 L 5835 2539 L 5835 2540 L 5836 2540 L 5836 2541 L 5837 2541 L 5837 2542 L 5838 2542 L 5838 2543 L 5839 2543 L 5839 2544 L 5840 2544 L 5840 2545 L 5841 2545 L 5841 2546 L 5842 2546 L 5842 2547 L 5843 2547 L 5843 2548 L 5844 2548 L 5844 2549 L 5845 2549 L 5845 2550 L 5847 2550 L 5847 2551 L 5848 2551 L 5848 2552 L 5849 2552 L 5849 2553 L 5850 2553 L 5850 2554 L 5851 2554 L 5851 2555 L 5852 2555 L 5852 2556 L 5853 2556 L 5853 2557 L 5854 2557 L 5854 2558 L 5855 2558 L 5855 2559 L 5857 2559 L 5857 2560 L 5858 2560 L 5858 2561 L 5859 2561 L 5859 2562 L 5861 2562 L 5861 2563 L 5862 2563 L 5862 2564 L 5863 2564 L 5863 2565 L 5865 2565 L 5865 2566 L 5866 2566 L 5866 2567 L 5867 2567 L 5867 2568 L 5869 2568 L 5869 2569 L 5870 2569 L 5870 2570 L 5871 2570 L 5871 2571 L 5873 2571 L 5873 2572 L 5874 2572 L 5874 2573 L 5875 2573 L 5875 2574 L 5877 2574 L 5877 2575 L 5878 2575 L 5878 2576 L 5880 2576 L 5880 2577 L 5882 2577 L 5882 2578 L 5883 2578 L 5883 2579 L 5885 2579 L 5885 2580 L 5886 2580 L 5886 2581 L 5888 2581 L 5888 2582 L 5890 2582 L 5890 2583 L 5891 2583 L 5891 2584 L 5893 2584 L 5893 2585 L 5895 2585 L 5895 2586 L 5896 2586 L 5896 2587 L 5898 2587 L 5898 2588 L 5900 2588 L 5900 2589 L 5901 2589 L 5901 2590 L 5904 2590 L 5904 2591 L 5906 2591 L 5906 2592 L 5908 2592 L 5908 2593 L 5910 2593 L 5910 2594 L 5912 2594 L 5912 2595 L 5914 2595 L 5914 2596 L 5916 2596 L 5916 2597 L 5918 2597 L 5918 2598 L 5920 2598 L 5920 2599 L 5922 2599 L 5922 2600 L 5924 2600 L 5924 2601 L 5927 2601 L 5927 2602 L 5929 2602 L 5929 2603 L 5932 2603 L 5932 2604 L 5935 2604 L 5935 2605 L 5937 2605 L 5937 2606 L 5940 2606 L 5940 2607 L 5943 2607 L 5943 2608 L 5946 2608 L 5946 2609 L 5948 2609 L 5948 2610 L 5951 2610 L 5951 2611 L 5955 2611 L 5955 2612 L 5959 2612 L 5959 2613 L 5962 2613 L 5962 2614 L 5966 2614 L 5966 2615 L 5970 2615 L 5970 2616 L 5974 2616 L 5974 2617 L 5978 2617 L 5978 2618 L 5984 2618 L 5984 2619 L 5990 2619 L 5990 2620 L 5997 2620 L 5997 2621 L 6003 2621 L 6003 2622 L 6013 2622 L 6013 2623 L 6028 2623 L 6028 2624 L 13972 2624 L 13972 2623 L 13987 2623 L 13987 2622 L 13997 2622 L 13997 2621 L 14003 2621 L 14003 2620 L 14010 2620 L 14010 2619 L 14016 2619 L 14016 2618 L 14022 2618 L 14022 2617 L 14026 2617 L 14026 2616 L 14030 2616 L 14030 2615 L 14034 2615 L 14034 2614 L 14038 2614 L 14038 2613 L 14041 2613 L 14041 2612 L 14045 2612 L 14045 2611 L 14049 2611 L 14049 2610 L 14052 2610 L 14052 2609 L 14054 2609 L 14054 2608 L 14057 2608 L 14057 2607 L 14060 2607 L 14060 2606 L 14063 2606 L 14063 2605 L 14065 2605 L 14065 2604 L 14068 2604 L 14068 2603 L 14071 2603 L 14071 2602 L 14073 2602 L 14073 2601 L 14076 2601 L 14076 2600 L 14078 2600 L 14078 2599 L 14080 2599 L 14080 2598 L 14082 2598 L 14082 2597 L 14084 2597 L 14084 2596 L 14086 2596 L 14086 2595 L 14088 2595 L 14088 2594 L 14090 2594 L 14090 2593 L 14092 2593 L 14092 2592 L 14094 2592 L 14094 2591 L 14097 2591 L 14097 2590 L 14099 2590 L 14099 2589 L 14100 2589 L 14100 2588 L 14102 2588 L 14102 2587 L 14104 2587 L 14104 2586 L 14105 2586 L 14105 2585 L 14107 2585 L 14107 2584 L 14109 2584 L 14109 2583 L 14110 2583 L 14110 2582 L 14112 2582 L 14112 2581 L 14114 2581 L 14114 2580 L 14115 2580 L 14115 2579 L 14117 2579 L 14117 2578 L 14118 2578 L 14118 2577 L 14120 2577 L 14120 2576 L 14122 2576 L 14122 2575 L 14123 2575 L 14123 2574 L 14125 2574 L 14125 2573 L 14126 2573 L 14126 2572 L 14127 2572 L 14127 2571 L 14129 2571 L 14129 2570 L 14130 2570 L 14130 2569 L 14131 2569 L 14131 2568 L 14133 2568 L 14133 2567 L 14134 2567 L 14134 2566 L 14135 2566 L 14135 2565 L 14137 2565 L 14137 2564 L 14138 2564 L 14138 2563 L 14139 2563 L 14139 2562 L 14141 2562 L 14141 2561 L 14142 2561 L 14142 2560 L 14143 2560 L 14143 2559 L 14145 2559 L 14145 2558 L 14146 2558 L 14146 2557 L 14147 2557 L 14147 2556 L 14148 2556 L 14148 2555 L 14149 2555 L 14149 2554 L 14150 2554 L 14150 2553 L 14151 2553 L 14151 2552 L 14152 2552 L 14152 2551 L 14153 2551 L 14153 2550 L 14155 2550 L 14155 2549 L 14156 2549 L 14156 2548 L 14157 2548 L 14157 2547 L 14158 2547 L 14158 2546 L 14159 2546 L 14159 2545 L 14160 2545 L 14160 2544 L 14161 2544 L 14161 2543 L 14162 2543 L 14162 2542 L 14163 2542 L 14163 2541 L 14164 2541 L 14164 2540 L 14165 2540 L 14165 2539 L 14166 2539 L 14166 2538 L 14167 2538 L 14167 2537 L 14168 2537 L 14168 2536 L 14169 2536 L 14169 2535 L 14170 2535 L 14170 2534 L 14171 2534 L 14171 2533 L 14172 2533 L 14172 2532 L 14173 2532 L 14173 2531 L 14174 2531 L 14174 2530 L 14175 2530 L 14175 2528 L 14176 2528 L 14176 2527 L 14177 2527 L 14177 2526 L 14178 2526 L 14178 2525 L 14179 2525 L 14179 2524 L 14180 2524 L 14180 2523 L 14181 2523 L 14181 2522 L 14182 2522 L 14182 2521 L 14183 2521 L 14183 2520 L 14184 2520 L 14184 2518 L 14185 2518 L 14185 2517 L 14186 2517 L 14186 2516 L 14187 2516 L 14187 2514 L 14188 2514 L 14188 2513 L 14189 2513 L 14189 2512 L 14190 2512 L 14190 2510 L 14191 2510 L 14191 2509 L 14192 2509 L 14192 2508 L 14193 2508 L 14193 2506 L 14194 2506 L 14194 2505 L 14195 2505 L 14195 2504 L 14196 2504 L 14196 2502 L 14197 2502 L 14197 2501 L 14198 2501 L 14198 2500 L 14199 2500 L 14199 2498 L 14200 2498 L 14200 2497 L 14201 2497 L 14201 2495 L 14202 2495 L 14202 2493 L 14203 2493 L 14203 2492 L 14204 2492 L 14204 2490 L 14205 2490 L 14205 2488 L 14206 2488 L 14206 2487 L 14207 2487 L 14207 2485 L 14208 2485 L 14208 2483 L 14209 2483 L 14209 2482 L 14210 2482 L 14210 2480 L 14211 2480 L 14211 2478 L 14212 2478 L 14212 2477 L 14213 2477 L 14213 2475 L 14214 2475 L 14214 2473 L 14215 2473 L 14215 2471 L 14216 2471 L 14216 2469 L 14217 2469 L 14217 2467 L 14218 2467 L 14218 2465 L 14219 2465 L 14219 2463 L 14220 2463 L 14220 2461 L 14221 2461 L 14221 2459 L 14222 2459 L 14222 2457 L 14223 2457 L 14223 2455 L 14224 2455 L 14224 2453 L 14225 2453 L 14225 2450 L 14226 2450 L 14226 2448 L 14227 2448 L 14227 2445 L 14228 2445 L 14228 2443 L 14229 2443 L 14229 2440 L 14230 2440 L 14230 2437 L 14231 2437 L 14231 2434 L 14232 2434 L 14232 2432 L 14233 2432 L 14233 2429 L 14234 2429 L 14234 2426 L 14235 2426 L 14235 2423 L 14236 2423 L 14236 2420 L 14237 2420 L 14237 2416 L 14238 2416 L 14238 2412 L 14239 2412 L 14239 2408 L 14240 2408 L 14240 2404 L 14241 2404 L 14241 2400 L 14242 2400 L 14242 2396 L 14243 2396 L 14243 2390 L 14244 2390 L 14244 2384 L 14245 2384 L 14245 2377 L 14246 2377 L 14246 2370 L 14247 2370 L 14247 2359 L 14248 2359 L 14248 1341" stroke-linecap="round" />
</g>
		<g transform="matrix(0.13333333 0 0 -0.13333333 458.066605215 863.73336174)" id="VSofYKsvIVn5pZD3O-k8v" clip-path="url(#CLIPPATH_19)"  >
<linearGradient id="SVGID_1" gradientUnits="userSpaceOnUse" gradientTransform="matrix(2e-7 5027.39 5027.39 -2e-7 13435.5 -885)"  x1="0" y1="0" x2="1" y2="0">
<stop offset="0%" style="stop-color:rgb(255,255,255);stop-opacity: 1"/>
<stop offset="43.128499999999995%" style="stop-color:rgb(255,255,255);stop-opacity: 1"/>
<stop offset="45.481518%" style="stop-color:rgb(255,255,255);stop-opacity: 1"/>
<stop offset="100%" style="stop-color:rgb(128,201,239);stop-opacity: 1"/>
</linearGradient>
<clipPath id="CLIPPATH_19" >
	<path transform="matrix(1 0 0 1 0 0) translate(-13435.5, -3522)" id="path42" d="M 12964.9 2885.7 L 12325 2885.7 L 12590.1 3173.2 L 13498.4 4158.3 L 14546 4158.3 L 13123.7 3013.5 Z" stroke-linecap="round" />
</clipPath>
<path style="stroke: none; stroke-width: 1; stroke-dasharray: none; stroke-linecap: butt; stroke-dashoffset: 0; stroke-linejoin: miter; stroke-miterlimit: 4; fill: url(#SVGID_1); fill-rule: nonzero; opacity: 1;" vector-effect="non-scaling-stroke"  transform=" translate(-13435.5, -3522)" d="M 12964.9 2885.7 L 12325 2885.7 L 12590.1 3173.2 L 13498.4 4158.3 L 14546 4158.3 L 13123.7 3013.5 L 12964.900000000001 2885.7" stroke-linecap="round" />
</g>
		<g transform="matrix(0.13333333 0 0 -0.13333333 -458.0633718818 863.73336174)" id="nWAS7gMgMMdz-eBxpbED6" clip-path="url(#CLIPPATH_20)"  >
<linearGradient id="SVGID_2" gradientUnits="userSpaceOnUse" gradientTransform="matrix(2e-7 5027.39 5027.39 -2e-7 6564.52 -885)"  x1="0" y1="0" x2="1" y2="0">
<stop offset="0%" style="stop-color:rgb(255,255,255);stop-opacity: 1"/>
<stop offset="43.128499999999995%" style="stop-color:rgb(255,255,255);stop-opacity: 1"/>
<stop offset="45.481518%" style="stop-color:rgb(255,255,255);stop-opacity: 1"/>
<stop offset="100%" style="stop-color:rgb(128,201,239);stop-opacity: 1"/>
</linearGradient>
<clipPath id="CLIPPATH_20" >
	<path transform="matrix(1 0 0 1 0 0) translate(-6564.525, -3522)" id="path62" d="M 6876.34 3013.5 L 5454.05 4158.3 L 6501.62 4158.3 L 7409.87 3173.2 L 7675 2885.7 L 7035.13 2885.7 z" stroke-linecap="round" />
</clipPath>
<path style="stroke: none; stroke-width: 1; stroke-dasharray: none; stroke-linecap: butt; stroke-dashoffset: 0; stroke-linejoin: miter; stroke-miterlimit: 4; fill: url(#SVGID_2); fill-rule: nonzero; opacity: 1;" vector-effect="non-scaling-stroke"  transform=" translate(-6564.525, -3522)" d="M 6876.34 3013.5 L 5454.05 4158.3 L 6501.62 4158.3 L 7409.87 3173.2 L 7675 2885.7 L 7035.13 2885.7 L 6876.34 3013.5" stroke-linecap="round" />
</g>
		<g transform="matrix(0.13333333 0 0 -0.13333333 -391.575373544 42.333382275)" id="fk5qxh7xBdeW_c2imuapj" clip-path="url(#CLIPPATH_21)"  >
<clipPath id="CLIPPATH_21" >
	<path transform="matrix(1 0 0 1 2936.825 317.5) translate(-10000.01, -10000)" id="path82" d="M 18658.3 1341.7 L 1341.72 1341.7 L 1341.72 18658.3 L 18658.3 18658.3 Z" stroke-linecap="round" />
</clipPath>
<path style="stroke: none; stroke-width: 1; stroke-dasharray: none; stroke-linecap: butt; stroke-dashoffset: 0; stroke-linejoin: miter; stroke-miterlimit: 4; fill: rgb(15,61,76); fill-rule: nonzero; opacity: 1;" vector-effect="non-scaling-stroke"  transform=" translate(-7063.185, -9682.5)" d="M 7063.19 9978.3 C 6900.099999999999 9978.3 6767.41 9845.599999999999 6767.41 9682.5 C 6767.41 9519.4 6900.099999999999 9386.7 7063.19 9386.7 C 7226.2699999999995 9386.7 7358.959999999999 9519.400000000001 7358.959999999999 9682.5 C 7358.959999999999 9845.6 7226.2699999999995 9978.3 7063.189999999999 9978.3" stroke-linecap="round" />
</g>
		<g transform="matrix(0.13333333 0 0 -0.13333333 391.573273544 42.333382275)" id="yZX7R_GMvYoYgFdKpHIde" clip-path="url(#CLIPPATH_22)"  >
<clipPath id="CLIPPATH_22" >
	<path transform="matrix(1 0 0 1 -2936.79 317.5) translate(-10000.01, -10000)" id="path82" d="M 18658.3 1341.7 L 1341.72 1341.7 L 1341.72 18658.3 L 18658.3 18658.3 Z" stroke-linecap="round" />
</clipPath>
<path style="stroke: none; stroke-width: 1; stroke-dasharray: none; stroke-linecap: butt; stroke-dashoffset: 0; stroke-linejoin: miter; stroke-miterlimit: 4; fill: rgb(15,61,76); fill-rule: nonzero; opacity: 1;" vector-effect="non-scaling-stroke"  transform=" translate(-12936.8, -9682.5)" d="M 12936.8 9386.7 C 13099.9 9386.7 13232.599999999999 9519.400000000001 13232.599999999999 9682.5 C 13232.599999999999 9845.6 13099.899999999998 9978.3 12936.8 9978.3 C 12773.699999999999 9978.3 12641 9845.599999999999 12641 9682.5 C 12641 9519.4 12773.7 9386.7 12936.8 9386.7" stroke-linecap="round" />
</g>
		<g transform="matrix(0.13333333 0 0 -0.13333333 -0.0027166666 146.2333796775)" id="-zlaCfi3sF45tqoqj-BLC" clip-path="url(#CLIPPATH_23)"  >
<clipPath id="CLIPPATH_23" >
	<path transform="matrix(1 0 0 1 0.03 1096.75) translate(-10000.01, -10000)" id="path82" d="M 18658.3 1341.7 L 1341.72 1341.7 L 1341.72 18658.3 L 18658.3 18658.3 Z" stroke-linecap="round" />
</clipPath>
<path style="stroke: none; stroke-width: 1; stroke-dasharray: none; stroke-linecap: butt; stroke-dashoffset: 0; stroke-linejoin: miter; stroke-miterlimit: 4; fill: rgb(15,61,76); fill-rule: nonzero; opacity: 1;" vector-effect="non-scaling-stroke"  transform=" translate(-9999.98, -8903.25)" d="M 12936.8 10091.6 C 13162.8 10091.6 13345.9 9908.5 13345.9 9682.5 C 13345.9 9456.6 13162.8 9273.5 12936.8 9273.5 C 12710.9 9273.5 12527.8 9456.6 12527.8 9682.5 C 12527.8 9908.5 12710.9 10091.6 12936.8 10091.6 z M 7063.19 9273.5 C 6837.259999999999 9273.5 6654.129999999999 9456.6 6654.129999999999 9682.5 C 6654.129999999999 9908.5 6837.259999999999 10091.6 7063.19 10091.6 C 7289.11 10091.6 7472.24 9908.5 7472.24 9682.5 C 7472.24 9456.6 7289.11 9273.5 7063.19 9273.5 z M 12243.9 9251.9 C 12243.9 8978 12021.1 8755.199999999999 11747.199999999999 8755.199999999999 L 8252.78 8755.199999999999 C 7978.900000000001 8755.199999999999 7756.070000000001 8977.999999999998 7756.070000000001 9251.9 L 7756.070000000001 10204.9 L 4126.36 10204.9 L 4126.36 7758.9 C 4126.36 7672 4196.799999999999 7601.599999999999 4283.7 7601.599999999999 L 6308.01 7601.599999999999 L 10000 7601.599999999999 L 13692 7601.599999999999 L 15716.3 7601.599999999999 C 15803.199999999999 7601.599999999999 15873.599999999999 7671.999999999999 15873.599999999999 7758.9 L 15873.599999999999 10204.9 L 12243.899999999998 10204.9 L 12243.899999999998 9251.9" stroke-linecap="round" />
</g>
		<g transform="matrix(0.13333333 0 0 -0.13333333 -391.575373544 -94.7266142985)" id="YFLtP5lIW32KPmuN6EQFm" clip-path="url(#CLIPPATH_24)"  >
<clipPath id="CLIPPATH_24" >
	<path transform="matrix(1 0 0 1 2936.825 -710.45) translate(-10000.01, -10000)" id="path82" d="M 18658.3 1341.7 L 1341.72 1341.7 L 1341.72 18658.3 L 18658.3 18658.3 Z" stroke-linecap="round" />
</clipPath>
<path style="stroke: none; stroke-width: 1; stroke-dasharray: none; stroke-linecap: butt; stroke-dashoffset: 0; stroke-linejoin: miter; stroke-miterlimit: 4; fill: rgb(15,61,76); fill-rule: nonzero; opacity: 1;" vector-effect="non-scaling-stroke"  transform=" translate(-7063.185, -10710.45)" d="M 7358.96 10710.4 C 7358.96 10547.3 7226.27 10414.6 7063.1900000000005 10414.6 C 6900.1 10414.6 6767.410000000001 10547.300000000001 6767.410000000001 10710.4 C 6767.410000000001 10873.5 6900.1 11006.199999999999 7063.1900000000005 11006.199999999999 C 7226.27 11006.199999999999 7358.960000000001 10873.499999999998 7358.960000000001 10710.4 z M 6654.13 10710.4 C 6654.13 10484.5 6837.26 10301.4 7063.1900000000005 10301.4 C 7289.110000000001 10301.4 7472.240000000001 10484.5 7472.240000000001 10710.4 C 7472.240000000001 10936.3 7289.110000000001 11119.5 7063.1900000000005 11119.5 C 6837.26 11119.5 6654.13 10936.3 6654.13 10710.4" stroke-linecap="round" />
</g>
		<g transform="matrix(0.13333333 0 0 -0.13333333 -0.0027166666 -1016.9265912435)" id="FG0jCp-Uhgx7ltvE9GWoc" clip-path="url(#CLIPPATH_25)"  >
<clipPath id="CLIPPATH_25" >
	<path transform="matrix(1 0 0 1 0.03 -7626.95) translate(-10000.01, -10000)" id="path82" d="M 18658.3 1341.7 L 1341.72 1341.7 L 1341.72 18658.3 L 18658.3 18658.3 Z" stroke-linecap="round" />
</clipPath>
<path style="stroke: none; stroke-width: 1; stroke-dasharray: none; stroke-linecap: butt; stroke-dashoffset: 0; stroke-linejoin: miter; stroke-miterlimit: 4; fill: rgb(15,61,76); fill-rule: nonzero; opacity: 1;" vector-effect="non-scaling-stroke"  transform=" translate(-9999.98, -17626.95)" d="M 10860.1 18658.3 C 10548.6 18658.3 10262.6 18658.3 10000 18658.3 C 9737.37 18658.3 9451.45 18658.3 9139.93 18658.3 C 5196.210000000001 18658.3 4126.360000000001 16728.399999999998 4126.360000000001 16728.399999999998 L 4126.360000000001 16595.6 L 7958.290000000001 16595.6 L 10000 16595.6 L 12041.7 16595.6 L 15873.6 16595.6 L 15873.6 16728.399999999998 C 15873.6 16728.399999999998 14803.800000000001 18658.3 10860.1 18658.3" stroke-linecap="round" />
</g>
		<g transform="matrix(0.13333333 0 0 -0.13333333 -525.1653702042 -543.9999364)" id="g2ZRuqikjSzgufxgEmXHl" clip-path="url(#CLIPPATH_26)"  >
<clipPath id="CLIPPATH_26" >
	<path transform="matrix(1 0 0 1 3938.75 -4080) translate(-10000.01, -10000)" id="path82" d="M 18658.3 1341.7 L 1341.72 1341.7 L 1341.72 18658.3 L 18658.3 18658.3 Z" stroke-linecap="round" />
</clipPath>
<path style="stroke: none; stroke-width: 1; stroke-dasharray: none; stroke-linecap: butt; stroke-dashoffset: 0; stroke-linejoin: miter; stroke-miterlimit: 4; fill: rgb(15,61,76); fill-rule: nonzero; opacity: 1;" vector-effect="non-scaling-stroke"  transform=" translate(-6061.26, -14080)" d="M 7328.97 13450.4 C 7328.97 13274.699999999999 7186.54 13132.3 7010.85 13132.3 L 5213.73 13132.3 C 5038.03 13132.3 4895.599999999999 13274.699999999999 4895.599999999999 13450.4 L 4895.599999999999 15415.3 C 4895.599999999999 15591 5038.03 15733.4 5213.73 15733.4 L 7010.849999999999 15733.4 C 7186.539999999999 15733.4 7328.969999999999 15591 7328.969999999999 15415.3 z M 7756.070000000001 15908.4 C 7756.070000000001 16088.4 7852.55 16245.8 7996.160000000001 16332.9 L 4126.360000000001 16332.9 L 4126.360000000001 11827.099999999999 L 7756.070000000001 11827.099999999999 L 7756.070000000001 15908.399999999998" stroke-linecap="round" />
</g>
		<g transform="matrix(0.13333333 0 0 -0.13333333 0.0026166666 -344.0199413995)" id="RMK44uMbAJd53Nj0nZUrr" clip-path="url(#CLIPPATH_27)"  >
<clipPath id="CLIPPATH_27" >
	<path transform="matrix(1 0 0 1 -0.01 -2580.15) translate(-10000.01, -10000)" id="path82" d="M 18658.3 1341.7 L 1341.72 1341.7 L 1341.72 18658.3 L 18658.3 18658.3 Z" stroke-linecap="round" />
</clipPath>
<path style="stroke: none; stroke-width: 1; stroke-dasharray: none; stroke-linecap: butt; stroke-dashoffset: 0; stroke-linejoin: miter; stroke-miterlimit: 4; fill: rgb(15,61,76); fill-rule: nonzero; opacity: 1;" vector-effect="non-scaling-stroke"  transform=" translate(-10000.02, -12580.15)" d="M 8783.32 15415.3 C 8783.32 15591 8925.75 15733.4 9101.44 15733.4 L 10000 15733.4 L 10898.6 15733.4 C 11074.300000000001 15733.4 11216.7 15591 11216.7 15415.3 L 11216.7 13450.4 C 11216.7 13274.699999999999 11074.300000000001 13132.3 10898.6 13132.3 L 10000 13132.3 L 9101.44 13132.3 C 8925.75 13132.3 8783.32 13274.699999999999 8783.32 13450.4 z M 10000 9017.8 L 11747.2 9017.8 C 11876.5 9017.8 11981.300000000001 9122.599999999999 11981.300000000001 9251.9 L 11981.300000000001 15908.4 C 11981.300000000001 16037.699999999999 11876.500000000002 16142.5 11747.2 16142.5 L 10000 16142.5 L 8252.78 16142.5 C 8123.530000000001 16142.5 8018.740000000001 16037.7 8018.740000000001 15908.4 L 8018.740000000001 9251.9 C 8018.740000000001 9122.6 8123.530000000001 9017.8 8252.78 9017.8 L 10000 9017.8" stroke-linecap="round" />
</g>
		<g transform="matrix(0.13333333 0 0 -0.13333333 525.159936871 -543.9999364)" id="o27aVhgCSqwWJG3ayVNw0" clip-path="url(#CLIPPATH_28)"  >
<clipPath id="CLIPPATH_28" >
	<path transform="matrix(1 0 0 1 -3938.69 -4080) translate(-10000.01, -10000)" id="path82" d="M 18658.3 1341.7 L 1341.72 1341.7 L 1341.72 18658.3 L 18658.3 18658.3 Z" stroke-linecap="round" />
</clipPath>
<path style="stroke: none; stroke-width: 1; stroke-dasharray: none; stroke-linecap: butt; stroke-dashoffset: 0; stroke-linejoin: miter; stroke-miterlimit: 4; fill: rgb(15,61,76); fill-rule: nonzero; opacity: 1;" vector-effect="non-scaling-stroke"  transform=" translate(-13938.7, -14080)" d="M 12671 15415.3 C 12671 15591 12813.5 15733.4 12989.2 15733.4 L 14786.300000000001 15733.4 C 14962.000000000002 15733.4 15104.400000000001 15591 15104.400000000001 15415.3 L 15104.400000000001 13450.4 C 15104.400000000001 13274.699999999999 14962.000000000002 13132.3 14786.300000000001 13132.3 L 12989.2 13132.3 C 12813.5 13132.3 12671 13274.699999999999 12671 13450.4 z M 12243.9 15908.4 L 12243.9 11827.099999999999 L 15873.599999999999 11827.099999999999 L 15873.599999999999 16332.899999999998 L 12003.8 16332.899999999998 C 12147.5 16245.799999999997 12243.9 16088.399999999998 12243.9 15908.399999999998" stroke-linecap="round" />
</g>
		<g transform="matrix(0.13333333 0 0 -0.13333333 391.5799402105 -94.7266142985)" id="7AisL8KPNKI59DyjYSXZx" clip-path="url(#CLIPPATH_29)"  >
<clipPath id="CLIPPATH_29" >
	<path transform="matrix(1 0 0 1 -2936.84 -710.45) translate(-10000.01, -10000)" id="path82" d="M 18658.3 1341.7 L 1341.72 1341.7 L 1341.72 18658.3 L 18658.3 18658.3 Z" stroke-linecap="round" />
</clipPath>
<path style="stroke: none; stroke-width: 1; stroke-dasharray: none; stroke-linecap: butt; stroke-dashoffset: 0; stroke-linejoin: miter; stroke-miterlimit: 4; fill: rgb(15,61,76); fill-rule: nonzero; opacity: 1;" vector-effect="non-scaling-stroke"  transform=" translate(-12936.85, -10710.45)" d="M 12641 10710.4 C 12641 10873.5 12773.7 11006.199999999999 12936.8 11006.199999999999 C 13099.9 11006.199999999999 13232.599999999999 10873.499999999998 13232.599999999999 10710.4 C 13232.599999999999 10547.3 13099.899999999998 10414.6 12936.8 10414.6 C 12773.699999999999 10414.6 12641 10547.300000000001 12641 10710.4 z M 13345.9 10710.4 C 13345.9 10936.3 13162.8 11119.5 12936.8 11119.5 C 12710.9 11119.5 12527.8 10936.3 12527.8 10710.4 C 12527.8 10484.5 12710.9 10301.4 12936.8 10301.4 C 13162.8 10301.4 13345.9 10484.5 13345.9 10710.4" stroke-linecap="round" />
</g>
		<g transform="matrix(0.13333333 0 0 -0.13333333 0.0006166667 464.506705054)" id="Q4kZgXriM7cOKHVJHaUeS" clip-path="url(#CLIPPATH_30)"  >
<clipPath id="CLIPPATH_30" >
	<path transform="matrix(1 0 0 1 0.005 3483.8) translate(-10000.01, -10000)" id="path82" d="M 18658.3 1341.7 L 1341.72 1341.7 L 1341.72 18658.3 L 18658.3 18658.3 Z" stroke-linecap="round" />
</clipPath>
<path style="stroke: none; stroke-width: 1; stroke-dasharray: none; stroke-linecap: butt; stroke-dashoffset: 0; stroke-linejoin: miter; stroke-miterlimit: 4; fill: rgb(15,61,76); fill-rule: nonzero; opacity: 1;" vector-effect="non-scaling-stroke"  transform=" translate(-10000.005, -6516.2)" d="M 13962.9 5693.5 C 14120.3 5693.5 14247.9 5821.1 14247.9 5978.5 L 14247.9 7338.9 L 5752.11 7338.9 L 5752.11 5978.5 C 5752.11 5821.1 5879.719999999999 5693.5 6037.139999999999 5693.5 L 6308.009999999999 5693.5 L 10000 5693.5 L 13692 5693.5 L 13962.9 5693.5" stroke-linecap="round" />
</g>
		<g transform="matrix(0.13333333 0 0 -0.13333333 458.066605215 694.0600326485)" id="exxP0PAZPfesxRnIA-pma" clip-path="url(#CLIPPATH_31)"  >
<clipPath id="CLIPPATH_31" >
	<path transform="matrix(1 0 0 1 -3435.49 5205.45) translate(-10000.01, -10000)" id="path82" d="M 18658.3 1341.7 L 1341.72 1341.7 L 1341.72 18658.3 L 18658.3 18658.3 Z" stroke-linecap="round" />
</clipPath>
<path style="stroke: none; stroke-width: 1; stroke-dasharray: none; stroke-linecap: butt; stroke-dashoffset: 0; stroke-linejoin: miter; stroke-miterlimit: 4; fill: rgb(15,61,76); fill-rule: nonzero; opacity: 1;" vector-effect="non-scaling-stroke"  transform=" translate(-13435.5, -4794.55)" d="M 12964.9 5430.8 L 12325 5430.8 L 12590.1 5143.3 L 13498.4 4158.3 L 14546 4158.3 L 13123.7 5303.1 L 12964.900000000001 5430.8" stroke-linecap="round" />
</g>
		<g transform="matrix(0.13333333 0 0 -0.13333333 -458.0633718818 694.0600326485)" id="tm__TMGO8a6QLCR4McGiX" clip-path="url(#CLIPPATH_32)"  >
<clipPath id="CLIPPATH_32" >
	<path transform="matrix(1 0 0 1 3435.485 5205.45) translate(-10000.01, -10000)" id="path82" d="M 18658.3 1341.7 L 1341.72 1341.7 L 1341.72 18658.3 L 18658.3 18658.3 Z" stroke-linecap="round" />
</clipPath>
<path style="stroke: none; stroke-width: 1; stroke-dasharray: none; stroke-linecap: butt; stroke-dashoffset: 0; stroke-linejoin: miter; stroke-miterlimit: 4; fill: rgb(15,61,76); fill-rule: nonzero; opacity: 1;" vector-effect="non-scaling-stroke"  transform=" translate(-6564.525, -4794.55)" d="M 6876.34 5303.1 L 5454.05 4158.3 L 6501.62 4158.3 L 7409.87 5143.3 L 7675 5430.8 L 7035.13 5430.8 L 6876.34 5303.1" stroke-linecap="round" />
</g>
</g>
</g>
</svg>