<?xml version="1.0" encoding="UTF-8" standalone="no" ?>
<!DOCTYPE svg PUBLIC "-//W3C//DTD SVG 1.1//EN" "http://www.w3.org/Graphics/SVG/1.1/DTD/svg11.dtd">
<svg xmlns="http://www.w3.org/2000/svg" xmlns:xlink="http://www.w3.org/1999/xlink" version="1.1" width="140" height="140" viewBox="0 0 140 140" xml:space="preserve">
<desc>Created with Fabric.js 5.3.0</desc>
<defs>
</defs>
<g transform="matrix(0.0749999991 0 0 0.0749999991 70 66.6592437998)" id="W4xoMPAGC-1LlwAXsGBnG"  >
<g style="" vector-effect="non-scaling-stroke"   >
		<g transform="matrix(0.13333333 0 0 -0.13333333 -0.00005 150.8333795625)" id="t0vg5gbXB337631vlSbx4"  >
<path style="stroke: none; stroke-width: 1; stroke-dasharray: none; stroke-linecap: butt; stroke-dashoffset: 0; stroke-linejoin: miter; stroke-miterlimit: 4; fill: rgb(0,0,0); fill-rule: nonzero; opacity: 1;" vector-effect="non-scaling-stroke"  transform=" translate(-10000, -8868.75)" d="M 14741.1 10577.2 C 14580.9 10577.2 14451.1 10447.300000000001 14451.1 10287.2 L 14451.1 8212.1 L 5548.9 8212.1 L 5548.9 11118.900000000001 C 5548.9 11279.000000000002 5419.0599999999995 11408.900000000001 5258.9 11408.900000000001 C 5098.74 11408.900000000001 4968.9 11279.000000000002 4968.9 11118.900000000001 L 4968.9 6618.6 C 4968.9 6458.5 5098.74 6328.6 5258.9 6328.6 C 5419.0599999999995 6328.6 5548.9 6458.5 5548.9 6618.6 L 5548.9 7062.1 L 14451.1 7062.1 L 14451.1 6618.6 C 14451.1 6458.5 14580.9 6328.6 14741.1 6328.6 C 14901.300000000001 6328.6 15031.1 6458.5 15031.1 6618.6 L 15031.1 10287.2 C 15031.1 10447.300000000001 14901.300000000001 10577.2 14741.1 10577.2" stroke-linecap="round" />
</g>
		<g transform="matrix(0.13333333 0 0 -0.13333333 -444.5493722196 48.773382114)" id="2guorwuc_sh99SJOuIGu8"  >
<path style="stroke: none; stroke-width: 1; stroke-dasharray: none; stroke-linecap: butt; stroke-dashoffset: 0; stroke-linejoin: miter; stroke-miterlimit: 4; fill: rgb(0,0,0); fill-rule: nonzero; opacity: 1;" vector-effect="non-scaling-stroke"  transform=" translate(-6665.88, -9634.2)" d="M 6665.88 8907.7 C 7067.12 8907.7 7392.39 9232.900000000001 7392.39 9634.2 C 7392.39 10035.400000000001 7067.120000000001 10360.7 6665.88 10360.7 C 6264.64 10360.7 5939.37 10035.400000000001 5939.37 9634.2 C 5939.37 9232.900000000001 6264.639999999999 8907.7 6665.88 8907.7" stroke-linecap="round" />
</g>
		<g transform="matrix(0.13333333 0 0 -0.13333333 110.6095190296 132.2200466945)" id="rCVog1CaKXmaFAuZvABNX"  >
<path style="stroke: none; stroke-width: 1; stroke-dasharray: none; stroke-linecap: butt; stroke-dashoffset: 0; stroke-linejoin: miter; stroke-miterlimit: 4; fill: rgb(0,0,0); fill-rule: nonzero; opacity: 1;" vector-effect="non-scaling-stroke"  transform=" translate(-10829.5717884615, -9008.35)" d="M 14119.8 8418.1 C 13954.599999999999 8870.9 13713.9 9279.5 13320 9598.6 C 11093.7 9505.2 8148.66 9205.1 7614.51 9598.6 C 7462.530000000001 9205.1 7541.02 8811.6 7849.96 8418.1 L 14119.8 8418.1" stroke-linecap="round" />
</g>
		<g transform="matrix(0.13333333 0 0 -0.13333333 -444.5500388863 190.280045243)" id="UNWJ-tx4oN31bI4DyOZyT"  >
<path style="stroke: none; stroke-width: 1; stroke-dasharray: none; stroke-linecap: butt; stroke-dashoffset: 0; stroke-linejoin: miter; stroke-miterlimit: 4; fill: rgb(0,0,0); fill-rule: nonzero; opacity: 1;" vector-effect="non-scaling-stroke"  transform=" translate(-6665.875, -8572.9)" d="M 5939.37 8372.9 L 7392.38 8372.9 C 7502.84 8372.9 7592.38 8462.5 7592.38 8572.9 C 7592.38 8683.4 7502.84 8772.9 7392.38 8772.9 L 5939.37 8772.9 C 5828.91 8772.9 5739.37 8683.4 5739.37 8572.9 C 5739.37 8462.5 5828.91 8372.9 5939.37 8372.9" stroke-linecap="round" />
</g>
		<g transform="matrix(0.13333333 0 0 -0.13333333 -175.0935072907 -85.2066145365)" id="U6k78wVuvkPB3C1dDLFDw"  >
<path style="stroke: none; stroke-width: 1; stroke-dasharray: none; stroke-linecap: butt; stroke-dashoffset: 0; stroke-linejoin: miter; stroke-miterlimit: 4; fill: rgb(0,0,0); fill-rule: nonzero; opacity: 1;" vector-effect="non-scaling-stroke"  transform=" translate(-8686.7990374899, -10639.05)" d="M 8249.95 10378 C 8213.390000000001 10340.6 8202.810000000001 10284.9 8223.12 10236.7 C 8243.410000000002 10188.5 8290.62 10157.2 8342.93 10157.2 L 9160.67 10157.2 L 9160.67 10417.2 L 8651.74 10417.2 L 9123.64 10900 C 9160.21 10937.4 9170.779999999999 10993.1 9150.49 11041.3 C 9130.199999999999 11089.599999999999 9082.98 11120.9 9030.67 11120.9 L 8212.93 11120.9 L 8212.93 10860.9 L 8721.86 10860.9 L 8249.95 10378" stroke-linecap="round" />
</g>
		<g transform="matrix(0.13333333 0 0 -0.13333333 -1.807524567 -233.573277494)" id="bgwsrcVkLhjS0OOvVwr9n"  >
<path style="stroke: none; stroke-width: 1; stroke-dasharray: none; stroke-linecap: butt; stroke-dashoffset: 0; stroke-linejoin: miter; stroke-miterlimit: 4; fill: rgb(0,0,0); fill-rule: nonzero; opacity: 1;" vector-effect="non-scaling-stroke"  transform=" translate(-9986.4439404086, -11751.8)" d="M 9457.22 11396.2 C 9420.65 11358.800000000001 9410.08 11303.2 9430.38 11254.900000000001 C 9450.67 11206.7 9497.88 11175.400000000001 9550.199999999999 11175.400000000001 L 10552.699999999999 11175.400000000001 L 10552.699999999999 11435.400000000001 L 9859.009999999998 11435.400000000001 L 10515.699999999999 12107.300000000001 C 10552.199999999999 12144.7 10562.8 12200.400000000001 10542.499999999998 12248.6 C 10522.199999999999 12296.800000000001 10474.999999999998 12328.2 10422.699999999999 12328.2 L 9420.2 12328.2 L 9420.2 12068.2 L 10113.900000000001 12068.2 L 9457.220000000001 11396.2" stroke-linecap="round" />
</g>
		<g transform="matrix(0.13333333 0 0 -0.13333333 182.693278766 -405.0599398735)" id="FKNVOffsEiQrVwR8KKKvx"  >
<path style="stroke: none; stroke-width: 1; stroke-dasharray: none; stroke-linecap: butt; stroke-dashoffset: 0; stroke-linejoin: miter; stroke-miterlimit: 4; fill: rgb(0,0,0); fill-rule: nonzero; opacity: 1;" vector-effect="non-scaling-stroke"  transform=" translate(-11370.2, -13037.95)" d="M 10785.2 12625.4 C 10748.7 12588 10738.1 12532.3 10758.400000000001 12484.1 C 10778.7 12435.9 10825.900000000001 12404.5 10878.2 12404.5 L 11992.2 12404.5 L 11992.2 12664.5 L 11187 12664.5 L 11955.1 13450.5 C 11991.7 13487.9 12002.300000000001 13543.6 11982 13591.8 C 11961.7 13640 11914.5 13671.4 11862.2 13671.4 L 10748.2 13671.4 L 10748.2 13411.4 L 11553.300000000001 13411.4 L 10785.2 12625.4" stroke-linecap="round" />
</g>
</g>
</g>
</svg>