<?xml version="1.0" encoding="UTF-8" standalone="no" ?>
<!DOCTYPE svg PUBLIC "-//W3C//DTD SVG 1.1//EN" "http://www.w3.org/Graphics/SVG/1.1/DTD/svg11.dtd">
<svg xmlns="http://www.w3.org/2000/svg" xmlns:xlink="http://www.w3.org/1999/xlink" version="1.1" width="49" height="42" viewBox="0 0 49 42" xml:space="preserve">
<desc>Created with Fabric.js 5.3.0</desc>
<defs>
</defs>
<g transform="matrix(1 0 0 1 24.5 20.3640500569)" id="asQ6JIewMpyTOFD-8YP1i"  >
<g style="" vector-effect="non-scaling-stroke"   >
		<g transform="matrix(1 0 0 1 9.325925 -7.5)" id="4Fh8bGkQt6MRnFZ6jK5jT"  >
<path style="stroke: none; stroke-width: 1; stroke-dasharray: none; stroke-linecap: butt; stroke-dashoffset: 0; stroke-linejoin: miter; stroke-miterlimit: 4; fill: rgb(229,255,209); fill-rule: nonzero; opacity: 1;" vector-effect="non-scaling-stroke"  transform=" translate(-13.2016, -12)" d="M 0 12 C 0 5.37258 5.91056 0 13.2016 0 C 20.492639999999998 0 26.4032 5.37258 26.4032 12 C 26.4032 18.62742 20.492639999999998 24 13.2016 24 C 5.910559999999999 24 0 18.62742 0 12 z" stroke-linecap="round" />
</g>
		<g transform="matrix(1 0 0 1 -2.77525 1.5)" id="dXt-k6g1Ybr2rJjbIQtNm"  >
<path style="stroke: rgb(84,179,13); stroke-width: 2; stroke-dasharray: none; stroke-linecap: round; stroke-dashoffset: 0; stroke-linejoin: round; stroke-miterlimit: 4; fill: none; fill-rule: nonzero; opacity: 1;" vector-effect="non-scaling-stroke"  transform=" translate(-23.270825, -21)" d="M 42.5231 21 C 42.5231 30.66 33.8981 38.5 23.2708 38.5 C 12.6436 38.5 4.01855 30.66 4.01855 21 C 4.01855 11.34 12.6436 3.5 23.2708 3.5 C 33.8981 3.5 42.5231 11.34 42.5231 21 Z" stroke-linecap="round" />
</g>
		<g transform="matrix(1 0 0 1 0.439475 0.35375)" id="2Thw0nmmhgELC0s5MycQP"  >
<path style="stroke: rgb(84,179,13); stroke-width: 2; stroke-dasharray: none; stroke-linecap: round; stroke-dashoffset: 0; stroke-linejoin: round; stroke-miterlimit: 4; fill: none; fill-rule: nonzero; opacity: 1;" vector-effect="non-scaling-stroke"  transform=" translate(-26.48555, -19.85375)" d="M 30.413 26.565 L 24.4448 23.3275 C 23.4052 22.7675 22.5581 21.42 22.5581 20.3175 L 22.5581 13.1425" stroke-linecap="round" />
</g>
</g>
</g>
</svg>