<?xml version="1.0" encoding="UTF-8" standalone="no" ?>
<!DOCTYPE svg PUBLIC "-//W3C//DTD SVG 1.1//EN" "http://www.w3.org/Graphics/SVG/1.1/DTD/svg11.dtd">
<svg xmlns="http://www.w3.org/2000/svg" xmlns:xlink="http://www.w3.org/1999/xlink" version="1.1" width="49" height="41" viewBox="0 0 49 41" xml:space="preserve">
<desc>Created with Fabric.js 5.3.0</desc>
<defs>
</defs>
<g transform="matrix(1 0 0 1 22.0912261721 20.5258711721)" id="ENTVHlYjCsfjbCFeyBwXF"  >
<g style="" vector-effect="non-scaling-stroke"   >
		<g transform="matrix(1 0 0 1 8.363755 -8)" id="itz3ufksuyp9h3X3wxOWU"  >
<path style="stroke: none; stroke-width: 1; stroke-dasharray: none; stroke-linecap: butt; stroke-dashoffset: 0; stroke-linejoin: miter; stroke-miterlimit: 4; fill: rgb(207,241,255); fill-rule: nonzero; opacity: 1;" vector-effect="non-scaling-stroke"  transform=" translate(-13.2016, -12)" d="M 0 12 C 0 5.37258 5.91056 0 13.2016 0 C 20.492639999999998 0 26.4032 5.37258 26.4032 12 C 26.4032 18.62742 20.492639999999998 24 13.2016 24 C 5.910559999999999 24 0 18.62742 0 12 z" stroke-linecap="round" />
</g>
		<g transform="matrix(1 0 0 1 -11.438445 -12.875)" id="K1wKiPmzoIq8NZXK8rxay"  >
<path style="stroke: rgb(55,140,176); stroke-width: 2; stroke-dasharray: none; stroke-linecap: round; stroke-dashoffset: 0; stroke-linejoin: round; stroke-miterlimit: 10; fill: none; fill-rule: nonzero; opacity: 1;" vector-effect="non-scaling-stroke"  transform=" translate(-16.2148, -7.125)" d="M 16.2148 4.5 L 16.2148 9.75" stroke-linecap="round" />
</g>
		<g transform="matrix(1 0 0 1 3.962955 -12.875)" id="r6uGGq48yJgaeTPQUuopl"  >
<path style="stroke: rgb(55,140,176); stroke-width: 2; stroke-dasharray: none; stroke-linecap: round; stroke-dashoffset: 0; stroke-linejoin: round; stroke-miterlimit: 10; fill: none; fill-rule: nonzero; opacity: 1;" vector-effect="non-scaling-stroke"  transform=" translate(-31.6162, -7.125)" d="M 31.6162 4.5 L 31.6162 9.75" stroke-linecap="round" />
</g>
		<g transform="matrix(1 0 0 1 -3.738005 -3.0926)" id="Yt6jakQ1motlgQUlWBewT"  >
<path style="stroke: rgb(55,140,176); stroke-width: 2; stroke-dasharray: none; stroke-linecap: round; stroke-dashoffset: 0; stroke-linejoin: round; stroke-miterlimit: 10; fill: none; fill-rule: nonzero; opacity: 1;" vector-effect="non-scaling-stroke"  transform=" translate(-23.91524, -16.9074)" d="M 7.55078 16.9074 L 40.2797 16.9074" stroke-linecap="round" />
</g>
		<g transform="matrix(1 0 0 1 -3.7383 3.3125)" id="tKGy67CE6H5S55W1aN3rj"  >
<path style="stroke: rgb(55,140,176); stroke-width: 2; stroke-dasharray: none; stroke-linecap: round; stroke-dashoffset: 0; stroke-linejoin: round; stroke-miterlimit: 10; fill: none; fill-rule: nonzero; opacity: 1;" vector-effect="non-scaling-stroke"  transform=" translate(-23.914945, -23.3125)" d="M 41.242 15.875 L 41.242 30.75 C 41.242 36 38.3541 39.5 31.6158 39.5 L 16.214 39.5 C 9.47573 39.5 6.58789 36 6.58789 30.75 L 6.58789 15.875 C 6.58789 10.625 9.47573 7.125 16.214 7.125 L 31.6158 7.125 C 38.3541 7.125 41.242 10.625 41.242 15.875 Z" stroke-linecap="round" />
</g>
		<g transform="matrix(1 0 0 1 3.384605 4.975)" id="gwx4xJh92rse7B8hpMGJR"  >
<path style="stroke: rgb(55,140,176); stroke-width: 2; stroke-dasharray: none; stroke-linecap: round; stroke-dashoffset: 0; stroke-linejoin: round; stroke-miterlimit: 4; fill: none; fill-rule: nonzero; opacity: 1;" vector-effect="non-scaling-stroke"  transform=" translate(-31.03785, -24.975)" d="M 31.0292 24.975 L 31.0465 24.975" stroke-linecap="round" />
</g>
		<g transform="matrix(1 0 0 1 3.384605 10.225)" id="8kitkajlKDvQDsdpU6ir-"  >
<path style="stroke: rgb(55,140,176); stroke-width: 2; stroke-dasharray: none; stroke-linecap: round; stroke-dashoffset: 0; stroke-linejoin: round; stroke-miterlimit: 4; fill: none; fill-rule: nonzero; opacity: 1;" vector-effect="non-scaling-stroke"  transform=" translate(-31.03785, -30.225)" d="M 31.0292 30.225 L 31.0465 30.225" stroke-linecap="round" />
</g>
		<g transform="matrix(1 0 0 1 -3.737995 4.975)" id="0TR0LkdaT-B8sa9U_0i5C"  >
<path style="stroke: rgb(55,140,176); stroke-width: 2; stroke-dasharray: none; stroke-linecap: round; stroke-dashoffset: 0; stroke-linejoin: round; stroke-miterlimit: 4; fill: none; fill-rule: nonzero; opacity: 1;" vector-effect="non-scaling-stroke"  transform=" translate(-23.91525, -24.975)" d="M 23.9066 24.975 L 23.9239 24.975" stroke-linecap="round" />
</g>
		<g transform="matrix(1 0 0 1 -3.737995 10.225)" id="1K082e-4KfxeXX4u235IU"  >
<path style="stroke: rgb(55,140,176); stroke-width: 2; stroke-dasharray: none; stroke-linecap: round; stroke-dashoffset: 0; stroke-linejoin: round; stroke-miterlimit: 4; fill: none; fill-rule: nonzero; opacity: 1;" vector-effect="non-scaling-stroke"  transform=" translate(-23.91525, -30.225)" d="M 23.9066 30.225 L 23.9239 30.225" stroke-linecap="round" />
</g>
		<g transform="matrix(1 0 0 1 -10.863945 4.975)" id="bGjoj1DQpUg-K4yyOBMlV"  >
<path style="stroke: rgb(55,140,176); stroke-width: 2; stroke-dasharray: none; stroke-linecap: round; stroke-dashoffset: 0; stroke-linejoin: round; stroke-miterlimit: 4; fill: none; fill-rule: nonzero; opacity: 1;" vector-effect="non-scaling-stroke"  transform=" translate(-16.7893, -24.975)" d="M 16.7807 24.975 L 16.7979 24.975" stroke-linecap="round" />
</g>
		<g transform="matrix(1 0 0 1 -10.863945 10.225)" id="EHuuyIhfHg_GtviNLZxZZ"  >
<path style="stroke: rgb(55,140,176); stroke-width: 2; stroke-dasharray: none; stroke-linecap: round; stroke-dashoffset: 0; stroke-linejoin: round; stroke-miterlimit: 4; fill: none; fill-rule: nonzero; opacity: 1;" vector-effect="non-scaling-stroke"  transform=" translate(-16.7893, -30.225)" d="M 16.7807 30.225 L 16.7979 30.225" stroke-linecap="round" />
</g>
</g>
</g>
</svg>