<?xml version="1.0" encoding="UTF-8" standalone="no" ?>
<!DOCTYPE svg PUBLIC "-//W3C//DTD SVG 1.1//EN" "http://www.w3.org/Graphics/SVG/1.1/DTD/svg11.dtd">
<svg xmlns="http://www.w3.org/2000/svg" xmlns:xlink="http://www.w3.org/1999/xlink" version="1.1" width="48" height="40" viewBox="0 0 48 40" xml:space="preserve">
<desc>Created with Fabric.js 5.3.0</desc>
<defs>
</defs>
<g transform="matrix(1 0 0 1 23.0536411721 20.0258711721)" id="OdzOtrt1_2cjNqycmyOkV"  >
<g style="" vector-effect="non-scaling-stroke"   >
		<g transform="matrix(1 0 0 1 9.32617 -7.5)" id="FRE1_6TR-S2Cv7Axpdyjr"  >
<path style="stroke: none; stroke-width: 1; stroke-dasharray: none; stroke-linecap: butt; stroke-dashoffset: 0; stroke-linejoin: miter; stroke-miterlimit: 4; fill: rgb(255,244,192); fill-rule: nonzero; opacity: 1;" vector-effect="non-scaling-stroke"  transform=" translate(-13.2016, -12)" d="M 0 12 C 0 5.37258 5.91056 0 13.2016 0 C 20.492639999999998 0 26.4032 5.37258 26.4032 12 C 26.4032 18.62742 20.492639999999998 24 13.2016 24 C 5.910559999999999 24 0 18.62742 0 12 z" stroke-linecap="round" />
</g>
		<g transform="matrix(1 0 0 1 -2.77573 14.5987)" id="PAyksWCn_yThAl9Mk907I"  >
<path style="stroke: rgb(233,197,20); stroke-width: 2; stroke-dasharray: none; stroke-linecap: round; stroke-dashoffset: 0; stroke-linejoin: round; stroke-miterlimit: 4; fill: none; fill-rule: nonzero; opacity: 1;" vector-effect="non-scaling-stroke"  transform=" translate(-23.3414, -34.0987)" d="M 35.1623 37.835 C 33.4681 38.29 31.4659 38.5 29.1171 38.5 L 17.5657 38.5 C 15.2169 38.5 13.2147 38.29 11.5205 37.835 C 11.9441 33.285 17.0844 29.6974 23.3414 29.6974 C 29.5984 29.6974 34.7387 33.285 35.1623 37.835 Z" stroke-linecap="round" />
</g>
		<g transform="matrix(1 0 0 1 -2.7755 1.1675)" id="cvgXZfSLIyCv070Ac6nXo"  >
<path style="stroke: rgb(233,197,20); stroke-width: 2; stroke-dasharray: none; stroke-linecap: round; stroke-dashoffset: 0; stroke-linejoin: round; stroke-miterlimit: 4; fill: none; fill-rule: nonzero; opacity: 1;" vector-effect="non-scaling-stroke"  transform=" translate(-23.34163, -20.6675)" d="M 29.1173 3.5 L 17.5659 3.5 C 7.93981 3.5 4.08936 7 4.08936 15.75 L 4.08936 26.25 C 4.08936 32.865 6.28412 36.4875 11.5207 37.835 C 11.9443 33.285 17.0846 29.6974 23.3416 29.6974 C 29.5986 29.6974 34.739 33.285 35.1625 37.835 C 40.3991 36.4875 42.5939 32.865 42.5939 26.25 L 42.5939 15.75 C 42.5939 7 38.7435 3.5 29.1173 3.5 Z M 23.3416 24.7975 C 19.5297 24.7975 16.4493 21.98 16.4493 18.515 C 16.4493 15.05 19.5297 12.25 23.3416 12.25 C 27.1536 12.25 30.2339 15.05 30.2339 18.515 C 30.2339 21.98 27.1536 24.7975 23.3416 24.7975 Z" stroke-linecap="round" />
</g>
		<g transform="matrix(1 0 0 1 -2.77513 -0.97625)" id="weTJ9V0q8EUEuKmgWURZV"  >
<path style="stroke: rgb(233,197,20); stroke-width: 2; stroke-dasharray: none; stroke-linecap: round; stroke-dashoffset: 0; stroke-linejoin: round; stroke-miterlimit: 4; fill: none; fill-rule: nonzero; opacity: 1;" vector-effect="non-scaling-stroke"  transform=" translate(-23.342, -18.52375)" d="M 30.2343 18.515 C 30.2343 21.98 27.154 24.7975 23.342 24.7975 C 19.5301 24.7975 16.4497 21.98 16.4497 18.515 C 16.4497 15.05 19.5301 12.25 23.342 12.25 C 27.154 12.25 30.2343 15.05 30.2343 18.515 Z" stroke-linecap="round" />
</g>
</g>
</g>
</svg>