<svg width="15" height="18" viewBox="0 0 15 18" fill="none" xmlns="http://www.w3.org/2000/svg">
<path fill-rule="evenodd" clip-rule="evenodd" d="M7.47249 0.888916C4.6452 0.888916 2.34177 3.19167 2.34177 6.0157C2.34177 6.80517 2.66446 7.68395 3.11327 8.62506C3.56206 9.5662 4.1511 10.5541 4.73731 11.46C4.74582 11.4733 4.75419 11.486 4.7627 11.4991C3.69463 11.7074 2.77552 12.0324 2.06152 12.4561C1.17927 12.9797 0.555664 13.6983 0.555664 14.5674C0.555664 15.1107 0.810407 15.6114 1.19824 16.0147C1.58606 16.418 2.10977 16.7482 2.73338 17.0225C3.98045 17.5711 5.64116 17.8897 7.47266 17.8897C9.30416 17.8897 10.9648 17.5711 12.2119 17.0225C12.8356 16.7482 13.3593 16.418 13.7471 16.0147C14.1349 15.6114 14.3897 15.1107 14.3897 14.5674C14.3897 13.6983 13.7659 12.9796 12.8838 12.4561C12.1692 12.032 11.251 11.7064 10.1826 11.4981C10.1909 11.4853 10.1988 11.4729 10.207 11.46C10.7933 10.5541 11.3823 9.56622 11.8311 8.62507C12.2799 7.68393 12.6026 6.80518 12.6026 6.01572C12.6026 3.1915 10.3 0.88893 7.47258 0.88893L7.47249 0.888916ZM7.47249 1.88988C9.76031 1.88988 11.6025 3.73292 11.6025 6.01595C11.6025 6.50327 11.3472 7.31409 10.9277 8.1937C10.5082 9.07331 9.94149 10.0341 9.37006 10.9173C8.42224 12.3821 7.7692 13.2057 7.4726 13.5902C7.22692 13.272 6.73335 12.6459 6.03413 11.6107C6.02646 11.5984 6.01837 11.5863 6.00972 11.5746C5.87174 11.3699 5.72889 11.1551 5.57515 10.9174C5.00372 10.0342 4.43704 9.07332 4.01754 8.19386C3.59804 7.31425 3.34272 6.50328 3.34272 6.01611C3.34272 3.73318 5.18479 1.89003 7.47272 1.89003L7.47249 1.88988ZM7.47249 2.96702C5.79463 2.96702 4.42367 4.33938 4.42367 6.01584C4.42367 7.69231 5.79463 9.06077 7.47249 9.06077C9.15035 9.06077 10.5213 7.69234 10.5213 6.01584C10.5213 4.33938 9.15035 2.96702 7.47249 2.96702ZM7.47249 3.96702C8.61074 3.96702 9.52131 4.88067 9.52131 6.01584C9.52131 7.15102 8.61074 8.06077 7.47249 8.06077C6.33424 8.06077 5.42367 7.15102 5.42367 6.01584C5.42367 4.88067 6.33424 3.96702 7.47249 3.96702ZM5.36995 12.4085C6.29713 13.762 7.08088 14.7561 7.08088 14.7561V14.7562C7.17575 14.8752 7.31972 14.9446 7.47192 14.9446C7.62426 14.9446 7.76824 14.8752 7.8631 14.7562C7.8631 14.7562 8.64785 13.7621 9.57502 12.4086C10.741 12.5941 11.7127 12.9245 12.3738 13.3168C13.0913 13.7426 13.3885 14.1943 13.3885 14.5678C13.3885 14.804 13.285 15.0487 13.0232 15.3207C12.7615 15.5927 12.3472 15.8704 11.8094 16.1068C10.7339 16.5799 9.18509 16.893 7.4726 16.893C5.76009 16.893 4.21117 16.5799 3.13581 16.1068C2.59799 15.8704 2.18267 15.5927 1.92095 15.3207C1.65923 15.0487 1.5557 14.8039 1.5557 14.5678C1.5557 14.1942 1.85383 13.7426 2.57135 13.3168C3.23277 12.9244 4.20374 12.594 5.37017 12.4086L5.36995 12.4085Z" fill="#0B96DA"/>
</svg>
