<?xml version="1.0" standalone="no"?>
<!DOCTYPE svg PUBLIC "-//W3C//DTD SVG 20010904//EN"
 "http://www.w3.org/TR/2001/REC-SVG-20010904/DTD/svg10.dtd">
<svg version="1.0" xmlns="http://www.w3.org/2000/svg"
 width="136.000000pt" height="49.000000pt" viewBox="0 0 136.000000 49.000000"
 preserveAspectRatio="xMidYMid meet">

<g transform="translate(0.000000,49.000000) scale(0.100000,-0.100000)"
fill="#C0C0C0" stroke="none">
<path d="M950 355 l0 -75 175 0 175 0 0 75 0 75 -175 0 -175 0 0 -75z m330 -4
l0 -50 -155 0 -155 0 0 50 0 49 155 0 155 0 0 -49z"/>
<path d="M990 355 l0 -35 141 0 140 0 -3 33 -3 32 -137 3 -138 3 0 -36z m250
-2 c3 -4 -48 -9 -112 -11 -103 -2 -130 2 -114 19 8 8 221 0 226 -8z"/>
<path d="M50 350 l0 -70 175 0 175 0 0 70 0 70 -175 0 -175 0 0 -70z m330 0
l0 -50 -155 0 -155 0 0 50 0 50 155 0 155 0 0 -50z"/>
<path d="M90 350 l0 -30 135 0 135 0 0 30 0 30 -135 0 -135 0 0 -30z m250 0
c0 -6 -45 -10 -115 -10 -70 0 -115 4 -115 10 0 6 45 10 115 10 70 0 115 -4
115 -10z"/>
<path d="M470 350 l0 -70 175 0 175 0 0 70 0 70 -175 0 -175 0 0 -70z m330 0
l0 -50 -155 0 -155 0 0 50 0 50 155 0 155 0 0 -50z"/>
<path d="M510 350 l0 -30 140 0 140 0 0 30 0 30 -140 0 -140 0 0 -30z m260 0
c0 -6 -47 -10 -120 -10 -73 0 -120 4 -120 10 0 6 47 10 120 10 73 0 120 -4
120 -10z"/>
<path d="M857 293 c-4 -3 -7 -61 -7 -128 0 -149 10 -168 59 -106 29 36 37 40
83 43 28 2 53 8 55 14 5 14 -154 184 -172 184 -6 0 -15 -3 -18 -7z m88 -113
l39 -40 -29 0 c-15 0 -37 -7 -47 -17 -17 -15 -18 -14 -18 40 0 32 4 57 8 57 4
0 26 -18 47 -40z"/>
<path d="M1060 185 l0 -25 120 0 120 0 0 25 0 25 -120 0 -120 0 0 -25z"/>
<path d="M40 175 l0 -25 385 0 385 0 0 25 0 25 -385 0 -385 0 0 -25z"/>
</g>
</svg>
