<svg width="120" height="40" viewBox="0 0 120 40" fill="none" xmlns="http://www.w3.org/2000/svg">
<path d="M18.6426 26.3438L32.5469 9.67969L32.6348 9.08203H16.8144V13.1777H17.7285C17.8457 12.2754 17.9922 11.6191 18.168 11.209C18.4609 10.541 19.0176 10.207 19.8379 10.207H29.5058L14.1953 28.9453C13.457 29.8359 13.3926 30.5508 14.0019 31.0898C14.2363 31.2773 14.5469 31.3828 14.9336 31.4062C15.3203 31.4297 15.6426 31.2773 15.9004 30.9492C16.1699 30.6094 16.3515 30.2988 16.4453 30.0176C16.539 29.7363 16.5859 29.1914 16.5859 28.3828L16.709 28.2773C25.4277 32.1797 32.207 34.1191 37.0469 34.0957C39.0039 34.084 40.6973 33.9082 42.1269 33.5684C43.5566 33.2285 44.5176 32.7773 45.0098 32.2148V31.3711C44.2598 31.6172 43.4277 31.8457 42.5137 32.0566C41.5996 32.2676 40.1758 32.373 38.2422 32.373C36.3086 32.373 33.666 31.9043 30.3144 30.9668C26.9629 30.041 23.0898 28.4883 18.6953 26.3086L18.6426 26.3438Z" fill="#B78700"/>
<path fill-rule="evenodd" clip-rule="evenodd" d="M42.4082 9.52148C41.623 9.04102 40.5098 8.80078 39.0683 8.80078C38.3887 8.83594 38.0078 9.17578 37.9258 9.82031C37.9258 10.0078 37.9551 10.1895 38.0137 10.3652C38.2129 10.8809 38.5937 11.1387 39.1562 11.1387C39.25 11.1387 39.4609 11.0742 39.789 10.9453C40.1289 10.8164 40.4863 10.752 40.8613 10.752C41.1777 10.752 41.3125 10.957 41.2656 11.3672C41.2305 11.7773 40.8672 12.9961 40.1758 15.0234L36.3789 26.0449C35.7344 27.9082 34.9785 28.9219 34.1113 29.0859L33.1269 29.2617V30H39.7539V29.2793L38.7168 29.0859C37.8965 28.8984 37.4863 28.5469 37.4863 28.0312C37.5098 27.832 38.0195 26.1562 39.0156 23.0039H46.1348L47.4355 26.9062C47.5996 27.3867 47.6816 27.7676 47.6816 28.0488C47.6699 28.5176 47.3887 28.8223 46.8379 28.9629L45.4844 29.2617V30H52.7265V29.2793L51.9355 29.1387C50.9863 28.9512 50.1836 27.9902 49.5273 26.2559C48.8945 24.5918 47.3945 20.3086 45.0273 13.4062C44.3711 11.5078 43.498 10.2129 42.4082 9.52148ZM39.3848 21.9141L42.6191 12.1758L45.8008 21.9141H39.3848Z" fill="#B78700"/>
<path d="M55.2578 12.791V26.3438C55.2578 27.3398 55.1992 28.0195 55.082 28.3828C54.9531 28.7461 54.5781 28.9805 53.957 29.0859L52.9375 29.2969V30H66.8769V25.9043H65.9629C65.9629 26.209 65.9219 26.5547 65.8398 26.9414C65.5586 28.2539 64.9902 28.9102 64.1348 28.9102H57.6308V11.8418C57.6308 11.1504 57.6719 10.7168 57.7539 10.541C57.8242 10.3652 58.0703 10.2305 58.4922 10.1367L59.6875 9.87305V9.08203H52.8496V9.85547L53.8691 10.0664C54.4199 10.1836 54.789 10.4004 54.9765 10.7168C55.164 11.0332 55.2578 11.7246 55.2578 12.791Z" fill="#B78700"/>
<path d="M81.6426 26.7656C81.4551 28.1953 80.8867 28.9102 79.9375 28.9102H73.0996V20.209H77.1426C77.4941 20.209 77.7461 20.2734 77.8984 20.4023C78.0625 20.5312 78.2383 21.0762 78.4258 22.0371H79.164V17.2559H78.4258L78.25 18.0293C78.1445 18.4746 78.0449 18.7676 77.9512 18.9082C77.8691 19.0488 77.6055 19.1191 77.1601 19.1191H73.0996V10.1719H78.918C79.8555 10.1953 80.4238 10.9102 80.623 12.3164H81.3262V9.08203H68.3535V9.82031L69.3906 10.0312C69.9414 10.1484 70.3047 10.3711 70.4805 10.6992C70.6562 11.0156 70.7441 11.707 70.7441 12.7734V26.3086C70.7441 27.2344 70.6738 27.8906 70.5332 28.2773C70.3926 28.6641 70.0058 28.9219 69.373 29.0508L68.3535 29.2617V30H82.3457V26.7656H81.6426Z" fill="#B78700"/>
<path d="M85.9492 8.80078C85.0937 8.80078 84.666 9.14062 84.666 9.82031C84.666 10.0078 84.6953 10.1895 84.7539 10.3652C84.9531 10.8809 85.334 11.1387 85.8965 11.1387C85.9785 11.1387 86.2773 11.0156 86.793 10.7695C87.3086 10.5234 87.7187 10.4004 88.0234 10.4004C88.6797 10.4238 89.0137 11.6543 89.0254 14.0918V26.3613C89.0254 27.3574 88.9609 28.0312 88.832 28.3828C88.7148 28.7344 88.3457 28.9746 87.7246 29.1035L86.7051 29.3145V30H92.6289V29.2793L91.4336 29.0332C91.0703 28.9629 90.8183 28.8574 90.6777 28.7168C90.5488 28.5645 90.4844 28.1016 90.4844 27.3281L90.5019 13.7754L102.912 30.5098H103.633V11.8418C103.633 11.1387 103.674 10.6992 103.756 10.5234C103.838 10.3477 104.084 10.2188 104.494 10.1367L105.689 9.89062V9.08203H99.7305V9.85547L100.75 10.0664C101.301 10.1836 101.67 10.4004 101.857 10.7168C102.045 11.0332 102.139 11.7246 102.139 12.791V25.9395L90.8183 10.4883C89.8574 9.36328 88.2344 8.80078 85.9492 8.80078Z" fill="#B78700"/>
<path d="M102.914 32.8828C102.779 33.0234 102.711 33.1979 102.711 33.4062C102.711 33.6042 102.779 33.7734 102.914 33.9141C103.055 34.0495 103.227 34.1172 103.43 34.1172C103.633 34.1172 103.805 34.0495 103.945 33.9141C104.091 33.7734 104.164 33.6042 104.164 33.4062C104.164 33.1979 104.091 33.0234 103.945 32.8828C103.805 32.7422 103.633 32.6719 103.43 32.6719C103.227 32.6719 103.055 32.7422 102.914 32.8828Z" fill="#B78700"/>
<path fill-rule="evenodd" clip-rule="evenodd" d="M107.437 28.1406V23.2266L105.516 23.7109L105.555 23.9766C106.065 23.9766 106.357 24.0677 106.43 24.25C106.461 24.3281 106.477 24.5469 106.477 24.9062V33.6953L106.781 33.8359C106.984 33.9297 107.279 34.0234 107.664 34.1172C108.055 34.2109 108.432 34.2578 108.797 34.2578C109.661 34.2578 110.414 33.9219 111.055 33.25C111.654 32.6198 111.953 31.7917 111.953 30.7656C111.953 29.7344 111.687 28.9453 111.156 28.3984C110.63 27.8464 110.008 27.5703 109.289 27.5703C108.576 27.5703 107.958 27.7604 107.437 28.1406ZM108.773 33.6562C108.305 33.6562 107.859 33.5286 107.437 33.2734V28.8047C107.854 28.4661 108.292 28.2995 108.75 28.3047C109.146 28.3047 109.518 28.4089 109.867 28.6172C110.622 29.0755 111 29.8984 111 31.0859C111 31.9974 110.766 32.6536 110.297 33.0547C109.828 33.4557 109.32 33.6562 108.773 33.6562Z" fill="#B78700"/>
<path fill-rule="evenodd" clip-rule="evenodd" d="M117.508 28.7188C117.253 27.9375 116.625 27.5469 115.625 27.5469C115.01 27.5625 114.437 27.8021 113.906 28.2656C113.203 28.9167 112.852 29.8724 112.852 31.1328C112.852 32.3255 113.266 33.2161 114.094 33.8047C114.505 34.0964 114.953 34.2422 115.437 34.2422C116.25 34.237 116.953 33.9245 117.547 33.3047L117.766 33.0469L117.539 32.8125C117.023 33.1875 116.51 33.375 116 33.375C115.51 33.375 115.091 33.2682 114.742 33.0547C114.086 32.6536 113.758 31.9036 113.758 30.8047C113.758 30.4818 113.792 30.1328 113.859 29.7578H117.602C117.654 29.4193 117.622 29.0729 117.508 28.7188ZM116.594 29.25H113.937C114.016 28.974 114.198 28.7031 114.484 28.4375C114.771 28.1667 115.141 28.0312 115.594 28.0312C115.885 28.0312 116.125 28.1328 116.312 28.3359C116.5 28.5339 116.594 28.8385 116.594 29.25Z" fill="#B78700"/>
</svg>
