<svg width="61" height="61" viewBox="0 0 61 61" fill="none" xmlns="http://www.w3.org/2000/svg">
<path d="M33.8605 49.5539C33.8605 43.8985 38.3852 39.2909 44.0024 39.1275C42.47 38.4862 40.932 37.8708 39.381 37.2733C39.103 37.1676 38.777 36.9619 38.6648 36.7173C38.3648 36.0531 38.151 35.3483 37.9413 34.6508C37.8047 34.2062 37.6844 33.7875 37.1926 33.5737C37.0609 33.5185 36.9398 33.2583 36.9439 33.0958C36.9691 31.4773 36.5951 29.7758 37.7893 28.3695C37.8299 28.3256 37.8405 28.263 37.8673 28.2102C38.516 26.7933 38.6307 25.174 39.5362 23.8562C39.5606 23.8253 39.5679 23.7823 39.5696 23.7424C39.6736 22.7385 39.7817 21.7329 39.8663 20.7273C39.8777 20.6022 39.7622 20.381 39.6606 20.3428C39.1615 20.1648 39.1891 19.7665 39.1916 19.3649C39.1932 17.4001 39.1916 15.4353 39.1891 13.4713C39.1875 12.3308 38.8542 11.313 37.9876 10.5359C37.0024 9.65309 35.996 8.79872 34.9872 7.94435C34.4995 7.53139 34.4596 7.21436 34.9132 6.76076C35.1116 6.56159 35.3725 6.41689 35.6083 6.24618C35.5595 6.16977 35.5042 6.09254 35.4554 6.01613C35.1498 6.01613 34.8384 5.9763 34.5433 6.02182C33.4313 6.20229 32.3054 6.35999 31.212 6.61768C29.1156 7.11193 27.08 7.76714 25.3802 9.16859C24.2145 10.127 23.2878 11.2439 23.1716 12.8259C23.1114 13.6518 23.1204 14.4858 23.113 15.3134C23.1041 16.6612 23.1228 18.013 23.096 19.3608C23.0903 19.5811 22.9635 19.9421 22.8171 19.9908C22.2692 20.1681 22.2554 20.5168 22.3294 20.9728C22.379 21.2842 22.3367 21.611 22.4091 21.9166C22.5993 22.7612 22.7968 23.6018 23.0399 24.435C23.2228 25.0553 23.574 25.6381 23.6699 26.2665C23.8674 27.5241 24.3308 28.6174 25.177 29.5645C25.3176 29.7197 25.4233 29.9848 25.4087 30.1912C25.3437 31.1602 25.2437 32.1276 25.1144 33.086C25.0892 33.273 24.8901 33.5534 24.7291 33.5843C24.0869 33.7184 23.9861 34.2151 23.8325 34.7183C23.6309 35.3792 23.4122 36.0344 23.1586 36.6782C23.0789 36.8766 22.8814 37.0839 22.6838 37.1709C21.5384 37.6692 20.3792 38.126 19.2281 38.6105C18.0015 39.1235 16.765 39.6153 15.5668 40.1876C14.3344 40.7761 13.1403 41.4378 11.9347 42.0865C11.2242 42.4653 10.5609 42.8872 10 43.4108V50.9302C17.9885 50.9302 25.9728 50.9302 33.9589 50.9302C33.9028 50.479 33.8605 50.023 33.8605 49.5539Z" fill="#B78700"/>
<path d="M50 48.6052H45.2534V43.8579H43.3545V48.6052H38.6071V50.5034H43.3545V55.25H45.2534V50.5034H50V48.6052Z" fill="#B78700"/>
</svg>
