<?xml version="1.0" encoding="UTF-8" standalone="no"?>
<!-- Created with Inkscape (http://www.inkscape.org/) -->

<svg
   width="103.53382mm"
   height="103.53382mm"
   viewBox="0 0 103.53382 103.53382"
   version="1.1"
   id="svg1"
   xml:space="preserve"
   inkscape:version="1.3.2 (091e20e, 2023-11-25, custom)"
   sodipodi:docname="globe-lang-base.svg"
   xmlns:inkscape="http://www.inkscape.org/namespaces/inkscape"
   xmlns:sodipodi="http://sodipodi.sourceforge.net/DTD/sodipodi-0.dtd"
   xmlns="http://www.w3.org/2000/svg"
   xmlns:svg="http://www.w3.org/2000/svg"><sodipodi:namedview
     id="namedview1"
     pagecolor="#ffffff"
     bordercolor="#111111"
     borderopacity="1"
     inkscape:showpageshadow="0"
     inkscape:pageopacity="0"
     inkscape:pagecheckerboard="1"
     inkscape:deskcolor="#d1d1d1"
     inkscape:document-units="mm"
     inkscape:zoom="0.72426347"
     inkscape:cx="-8.9746346"
     inkscape:cy="399.71642"
     inkscape:window-width="1920"
     inkscape:window-height="1009"
     inkscape:window-x="-8"
     inkscape:window-y="-8"
     inkscape:window-maximized="1"
     inkscape:current-layer="layer1" /><defs
     id="defs1" /><g
     inkscape:label="Laag 1"
     inkscape:groupmode="layer"
     id="layer1"
     transform="translate(-107.32719,-42.66667)"><path
       id="Path_10"
       data-name="Path 10"
       d="M 159.0941,42.66667 A 51.766909,51.766909 0 1 0 210.86101,94.433584 51.82586,51.82586 0 0 0 159.0941,42.66667 Z m 47.50306,49.660249 h -21.17329 a 68.324071,68.324071 0 0 0 -4.27648,-22.551533 51.629369,51.629369 0 0 0 12.32418,-8.151562 47.371131,47.371131 0 0 1 13.12559,30.707306 z m -45.3978,-43.609735 a 51.275685,51.275685 0 0 1 8.51787,8.964192 55.392166,55.392166 0 0 1 5.86104,9.863839 47.498849,47.498849 0 0 1 -14.37891,2.892626 z m 4.95998,-1.312278 a 47.385165,47.385165 0 0 1 24.26943,11.299626 47.45113,47.45113 0 0 1 -10.90805,7.180336 57.897424,57.897424 0 0 0 -13.36138,-18.475751 z M 148.6857,57.684183 a 51.38937,51.38937 0 0 1 8.30314,-8.78735 v 21.543815 a 47.42306,47.42306 0 0 1 -14.19787,-2.825258 55.438483,55.438483 0 0 1 5.89473,-9.931207 z m -9.84279,8.289106 a 47.438499,47.438499 0 0 1 -11.0877,-7.26595 47.378148,47.378148 0 0 1 24.51785,-11.331907 57.886198,57.886198 0 0 0 -13.43015,18.59926 z m 18.14593,8.677878 v 17.684175 h -19.79786 a 64.009694,64.009694 0 0 1 3.97894,-20.825222 51.691123,51.691123 0 0 0 15.81892,3.14245 z m 0,21.894693 v 17.38382 a 51.649018,51.649018 0 0 0 -15.46383,3.01193 59.470755,59.470755 0 0 1 -4.33403,-20.398558 z m 0,21.59434 v 21.40627 a 66.113547,66.113547 0 0 1 -13.74313,-18.75224 47.465166,47.465166 0 0 1 13.74313,-2.65684 z m -4.01403,23.44977 a 47.375341,47.375341 0 0 1 -25.381,-11.56488 47.41885,47.41885 0 0 1 11.65752,-7.61543 68.70863,68.70863 0 0 0 13.72348,19.17751 z m 8.22455,-1.8428 v -21.61399 a 47.438499,47.438499 0 0 1 13.92558,2.7228 66.078461,66.078461 0 0 1 -13.92558,18.88839 z m 17.91154,-17.2547 a 47.50306,47.50306 0 0 1 11.48348,7.53262 47.380955,47.380955 0 0 1 -25.13539,11.53261 68.614593,68.614593 0 0 0 13.65191,-19.06803 z m -17.91154,-8.56139 V 96.543052 h 20.00978 a 59.44128,59.44128 0 0 1 -4.35929,20.465918 51.674282,51.674282 0 0 0 -15.65049,-3.0821 z m 0,-21.594334 V 74.65257 a 51.657436,51.657436 0 0 0 15.99996,-3.215434 63.946537,63.946537 0 0 1 4.00561,20.895398 z M 124.71662,61.629438 a 51.649018,51.649018 0 0 0 12.50524,8.239983 68.350738,68.350738 0 0 0 -4.2414,22.463113 h -21.38942 a 47.378148,47.378148 0 0 1 13.12558,-30.703096 z m -13.12558,34.913614 h 21.38942 a 64.105129,64.105129 0 0 0 4.56982,22.011178 51.65884,51.65884 0 0 0 -12.99085,8.53332 47.375341,47.375341 0 0 1 -12.96839,-30.544498 z m 82.0307,30.545908 a 51.649018,51.649018 0 0 0 -12.80277,-8.45192 64.126182,64.126182 0 0 0 4.60209,-22.093988 h 21.1761 a 47.380955,47.380955 0 0 1 -12.97542,30.545908 z"
       fill="#0c2c67"
       style="fill:#bd8100;fill-opacity:1;stroke-width:1.40351" /></g></svg>
