<svg width="35" height="34" viewBox="0 0 35 34" fill="none" xmlns="http://www.w3.org/2000/svg">
<g clip-path="url(#clip0_1_566)">
<path fill-rule="evenodd" clip-rule="evenodd" d="M22.4475 23.5783C21.2085 24.9369 19.7644 26.156 18.1409 27.1415C17.9415 27.2868 17.6709 27.3067 17.4487 27.1643C15.0533 25.6405 13.0396 23.809 11.4587 21.8209C9.27694 19.0837 7.90121 16.0474 7.43123 13.125C6.95272 10.1599 7.3999 7.30876 8.87533 4.99024C9.45638 4.07308 10.1998 3.23853 11.1056 2.51791C13.1877 0.857342 15.566 -0.0170882 17.9329 1.65284e-06C20.2144 0.0170915 22.4646 0.868735 24.41 2.64323C25.0936 3.26416 25.6689 3.97624 26.1389 4.74813C27.7254 7.36003 28.0672 10.6925 27.3694 14.0706C26.6829 17.406 24.974 20.7983 22.4475 23.5697V23.5783ZM7.21191 21.2313C7.77588 21.2313 8.23446 21.6899 8.23446 22.2538C8.23446 22.8178 7.77588 23.2764 7.21191 23.2764H5.29216L2.76286 31.4425H32.1631L29.4173 23.2764H27.8308C27.2668 23.2764 26.8083 22.8178 26.8083 22.2538C26.8083 21.6899 27.2668 21.2313 27.8308 21.2313H30.8785L34.9972 33.4819H0L3.79395 21.2313H7.21191ZM17.4829 5.27222C20.297 5.27222 22.5757 7.55371 22.5757 10.3621C22.5757 13.1763 20.2942 15.4549 17.4829 15.4549C14.6688 15.4549 12.393 13.1763 12.393 10.3621C12.3873 7.55086 14.6688 5.27222 17.4829 5.27222Z" fill="#8A8A8A"/>
</g>
<defs>
<clipPath id="clip0_1_566">
<rect width="35" height="33.4819" fill="white"/>
</clipPath>
</defs>
</svg>
