<svg width="35" height="33" viewBox="0 0 35 33" fill="none" xmlns="http://www.w3.org/2000/svg">
<g clip-path="url(#clip0_90_63)">
<path fill-rule="evenodd" clip-rule="evenodd" d="M0 28.503H4.19271V0.447184C4.19271 0.20223 4.39494 0 4.63989 0H18.8416C19.0865 0 19.2887 0.20223 19.2887 0.447184V10.966H31.8555C32.1004 10.966 32.3027 11.1682 32.3027 11.4132V28.5002H35V32.2001H0V28.503ZM7.78158 4.22119H10.6868C10.7751 4.22119 10.8492 4.29525 10.8492 4.38354V7.90405C10.8492 7.99235 10.7751 8.06641 10.6868 8.06641H7.78158C7.69328 8.06641 7.61922 7.99235 7.61922 7.90405V4.38354C7.61922 4.29525 7.69328 4.22119 7.78158 4.22119ZM12.7035 21.7326H15.6087C15.697 21.7326 15.7711 21.8066 15.7711 21.8949V25.4154C15.7711 25.5037 15.697 25.5778 15.6087 25.5778H12.7035C12.6152 25.5778 12.5411 25.5037 12.5411 25.4154V21.8949C12.5411 21.8038 12.6152 21.7326 12.7035 21.7326ZM7.78158 21.7326H10.6868C10.7751 21.7326 10.8492 21.8066 10.8492 21.8949V25.4154C10.8492 25.5037 10.7751 25.5778 10.6868 25.5778H7.78158C7.69328 25.5778 7.61922 25.5037 7.61922 25.4154V21.8949C7.61922 21.8038 7.69328 21.7326 7.78158 21.7326ZM12.7035 15.8936H15.6087C15.697 15.8936 15.7711 15.9676 15.7711 16.0559V19.5764C15.7711 19.6647 15.697 19.7388 15.6087 19.7388H12.7035C12.6152 19.7388 12.5411 19.6647 12.5411 19.5764V16.0588C12.5411 15.9676 12.6152 15.8936 12.7035 15.8936ZM7.78158 15.8936H10.6868C10.7751 15.8936 10.8492 15.9676 10.8492 16.0559V19.5764C10.8492 19.6647 10.7751 19.7388 10.6868 19.7388H7.78158C7.69328 19.7388 7.61922 19.6647 7.61922 19.5764V16.0588C7.61922 15.9676 7.69328 15.8936 7.78158 15.8936ZM12.7035 10.0574H15.6087C15.697 10.0574 15.7711 10.1314 15.7711 10.2197V13.7402C15.7711 13.8285 15.697 13.9026 15.6087 13.9026H12.7035C12.6152 13.9026 12.5411 13.8285 12.5411 13.7402V10.2197C12.5411 10.1314 12.6152 10.0574 12.7035 10.0574ZM7.78158 10.0574H10.6868C10.7751 10.0574 10.8492 10.1314 10.8492 10.2197V13.7402C10.8492 13.8285 10.7751 13.9026 10.6868 13.9026H7.78158C7.69328 13.9026 7.61922 13.8285 7.61922 13.7402V10.2197C7.61922 10.1314 7.69328 10.0574 7.78158 10.0574ZM12.7035 4.22119H15.6087C15.697 4.22119 15.7711 4.29525 15.7711 4.38354V7.90405C15.7711 7.99235 15.697 8.06641 15.6087 8.06641H12.7035C12.6152 8.06641 12.5411 7.99235 12.5411 7.90405V4.38354C12.5411 4.29525 12.6152 4.22119 12.7035 4.22119ZM6.59953 2.08496H16.8306C17.0072 2.08496 17.1525 2.25871 17.1525 2.46948V26.9279C17.1525 27.1387 17.0072 27.3124 16.8306 27.3124H6.59953C6.42293 27.3124 6.27767 27.1387 6.27767 26.9279V2.46948C6.27767 2.25871 6.42293 2.08496 6.59953 2.08496ZM20.6816 15.2185H23.5868C23.6751 15.2185 23.7492 15.2926 23.7492 15.3809V18.9014C23.7492 18.9897 23.6751 19.0637 23.5868 19.0637H20.6816C20.5933 19.0637 20.5192 18.9897 20.5192 18.9014V15.3809C20.5192 15.2926 20.5933 15.2185 20.6816 15.2185ZM25.6034 21.7326H28.5087C28.597 21.7326 28.6711 21.8066 28.6711 21.8949V25.4154C28.6711 25.5037 28.597 25.5778 28.5087 25.5778H25.6034C25.5151 25.5778 25.4411 25.5037 25.4411 25.4154V21.8949C25.4411 21.8038 25.5151 21.7326 25.6034 21.7326ZM20.6816 21.7326H23.5868C23.6751 21.7326 23.7492 21.8066 23.7492 21.8949V25.4154C23.7492 25.5037 23.6751 25.5778 23.5868 25.5778H20.6816C20.5933 25.5778 20.5192 25.5037 20.5192 25.4154V21.8949C20.5192 21.8038 20.5933 21.7326 20.6816 21.7326ZM25.6034 15.2185H28.5087C28.597 15.2185 28.6711 15.2926 28.6711 15.3809V18.9014C28.6711 18.9897 28.597 19.0637 28.5087 19.0637H25.6034C25.5151 19.0637 25.4411 18.9897 25.4411 18.9014V15.3809C25.4411 15.2926 25.5151 15.2185 25.6034 15.2185ZM19.6134 13.0509H29.8446C30.0212 13.0509 30.1664 13.2247 30.1664 13.4355V26.9279C30.1664 27.1387 30.0212 27.3124 29.8446 27.3124H19.6134C19.4368 27.3124 19.2916 27.1387 19.2916 26.9279V13.4355C19.2916 13.2247 19.4368 13.0509 19.6134 13.0509Z" fill="#BD8100"/>
</g>
<defs>
<clipPath id="clip0_90_63">
<rect width="35" height="32.2001" fill="white"/>
</clipPath>
</defs>
</svg>
