<svg width="35" height="28" viewBox="0 0 35 28" fill="none" xmlns="http://www.w3.org/2000/svg">
<g clip-path="url(#clip0_90_57)">
<path d="M19.4738 17.7279C19.5707 17.7108 19.6675 17.7051 19.7586 17.7051C19.8014 17.7051 19.8441 17.7079 19.8868 17.7136V14.4295L16.3378 15.4492V19.5138C16.3378 19.528 16.3378 19.5736 16.3407 19.5821C16.3407 19.8954 16.1812 20.203 15.9191 20.4508C15.6656 20.6901 15.3181 20.8724 14.9336 20.9379C14.8282 20.955 14.7257 20.9664 14.626 20.9664C14.3383 20.9664 14.0791 20.8923 13.8826 20.7585C13.6775 20.6217 13.5408 20.4252 13.4981 20.186C13.4895 20.1375 13.4838 20.0863 13.4838 20.0378C13.4838 19.7245 13.6433 19.4169 13.9054 19.172C14.1589 18.9327 14.5064 18.7504 14.8909 18.6849C15.0333 18.6593 15.1729 18.6536 15.3039 18.6621C15.3836 18.6678 15.4577 18.6792 15.5289 18.6934V13.6206H15.6656L20.69 12.4699V18.363L20.6986 18.4257C20.7014 18.4513 20.7014 18.477 20.7014 18.4998C20.7014 18.7675 20.5647 19.0295 20.3425 19.2375C20.1289 19.4397 19.8327 19.5935 19.508 19.6505C19.4197 19.6647 19.3314 19.6733 19.2488 19.6733C19.0038 19.6733 18.7845 19.6106 18.6165 19.4967C18.4427 19.3799 18.3231 19.2118 18.2889 19.0068C18.2804 18.964 18.2775 18.9213 18.2775 18.8786C18.2775 18.6108 18.4142 18.3488 18.6364 18.1409C18.8557 17.9358 19.1491 17.782 19.4738 17.7279ZM17.4999 8.93799C19.6191 8.93799 21.5388 9.79818 22.9288 11.1853C24.3188 12.5753 25.1761 14.4922 25.1761 16.6142C25.1761 18.7333 24.3159 20.6531 22.9288 22.0402C21.5388 23.4302 19.6219 24.2875 17.4999 24.2875C15.3808 24.2875 13.461 23.4273 12.0739 22.0402C10.6839 20.6502 9.82659 18.7333 9.82659 16.6142C9.82659 14.495 10.6868 12.5753 12.0739 11.1853C13.461 9.79818 15.3808 8.93799 17.4999 8.93799ZM21.9746 12.1366C20.8296 10.9916 19.2459 10.2824 17.4999 10.2824C15.7511 10.2824 14.1703 10.9916 13.0252 12.1366C11.8802 13.2817 11.171 14.8653 11.171 16.6113C11.171 18.3602 11.8802 19.941 13.0252 21.086C14.1703 22.231 15.7539 22.9403 17.4999 22.9403C19.2488 22.9403 20.8296 22.231 21.9746 21.086C23.1196 19.941 23.8289 18.3573 23.8289 16.6113C23.8289 14.8653 23.1225 13.2817 21.9746 12.1366ZM0.706314 5.90739H1.98805V3.09896C1.98805 2.70874 2.30421 2.39258 2.69443 2.39258H3.95054V0.70638C3.95054 0.316162 4.2667 0 4.65692 0H16.1242C16.5144 0 16.8306 0.316162 16.8306 0.70638V2.39258H32.2969C32.6871 2.39258 33.0033 2.70874 33.0033 3.09896V5.90739H34.2936C34.6838 5.90739 34.9999 6.22355 34.9999 6.61377C34.9999 6.66504 34.9942 6.71631 34.9828 6.76188L32.5105 24.9369C32.4308 25.5294 32.1716 26.0791 31.7728 26.4779C31.3797 26.8709 30.8585 27.1159 30.2461 27.1159H4.18695C3.57171 27.1159 3.03908 26.8681 2.64031 26.4722C2.2387 26.0706 1.98236 25.518 1.91684 24.917L0.00278189 6.68783C-0.0370944 6.30046 0.244888 5.95296 0.632258 5.91309C0.657893 5.91024 0.680679 5.91024 0.706314 5.90739ZM2.69443 7.323H1.4896L3.32391 24.7746C3.35239 25.0537 3.46632 25.3015 3.63722 25.4753C3.77964 25.6177 3.97047 25.706 4.18695 25.706H30.249C30.4626 25.706 30.642 25.6205 30.7816 25.481C30.9582 25.3044 31.075 25.0452 31.1148 24.7546L33.4846 7.32585L2.69443 7.323ZM3.40081 3.80819V5.90454L31.5905 5.60547V3.80819H16.1242C15.734 3.80819 15.4178 3.49202 15.4178 3.10181V1.41561H5.3633V3.10181C5.3633 3.49202 5.04713 3.80819 4.65692 3.80819H3.40081Z" fill="black"/>
</g>
<defs>
<clipPath id="clip0_90_57">
<rect width="35" height="27.1187" fill="white"/>
</clipPath>
</defs>
</svg>
