<svg width="35" height="40" viewBox="0 0 35 40" fill="none" xmlns="http://www.w3.org/2000/svg">
<g clip-path="url(#clip0_73_48)">
<path fill-rule="evenodd" clip-rule="evenodd" d="M20.3011 5.92342H21.5412V8.00599H26.7555C27.932 8.00599 28.8922 8.96621 28.8922 10.1426V11.7642C28.0814 12.435 27.331 12.7975 26.6506 12.8134C25.7985 12.8357 24.9846 12.2856 24.2183 11.0997C24.177 11.0361 24.1229 10.9788 24.0593 10.9343C23.7763 10.7277 23.3821 10.7912 23.1754 11.0742C22.3996 12.1394 21.6016 12.7307 20.7812 12.7753C19.9514 12.8198 19.023 12.311 17.9865 11.176C17.9737 11.1601 17.9578 11.1473 17.9451 11.1346C17.6844 10.8993 17.2838 10.9184 17.0485 11.176C16.0756 12.2443 15.1662 12.7975 14.3205 12.807C13.4938 12.8166 12.6608 12.2951 11.8214 11.2141C11.7832 11.1664 11.7387 11.1219 11.6847 11.0838C11.3985 10.8834 11.0011 10.9502 10.8008 11.2364C10.1808 12.1139 9.45903 12.6354 8.68323 12.7753C8.15225 12.8706 7.57994 12.7816 6.96948 12.5304C5.71039 12.0122 6.16506 11.7165 6.08239 10.1458C6.0188 8.97256 7.04578 8.00599 8.2222 8.00599H13.4207V5.92342H14.6607V8.00599H16.8641V3.47202H18.1041V8.00599H20.3075V5.92342H20.3011ZM0 36.5262H35V39.0698H0V36.5262ZM28.8922 13.3285V13.3984H28.7809C28.8159 13.3762 28.854 13.3539 28.8922 13.3285ZM28.3962 13.6115V20.1358H6.60383V13.7577C7.39235 14.0725 8.16497 14.1583 8.90262 14.0248C9.79924 13.8626 10.6195 13.3825 11.3318 12.6004C12.2793 13.6019 13.2776 14.0852 14.3269 14.0757C15.392 14.063 16.4539 13.5352 17.5159 12.5145C18.6605 13.6146 19.7702 14.1011 20.8448 14.0439C21.8591 13.9898 22.7939 13.4525 23.6587 12.4891C24.5649 13.5987 25.5759 14.1106 26.6824 14.082C27.242 14.0661 27.8143 13.9072 28.3962 13.6115ZM4.83285 21.2868H30.1926C31.8014 21.2868 33.1146 22.6031 33.1146 24.2088V26.4281C32.0049 27.3469 30.9811 27.8398 30.0463 27.8652C28.8826 27.8938 27.7698 27.1466 26.7174 25.5219C26.6602 25.436 26.5902 25.3566 26.5012 25.293C26.1133 25.01 25.5728 25.0958 25.293 25.4837C24.231 26.94 23.1404 27.7507 22.0181 27.8111C20.883 27.8715 19.6144 27.1784 18.1963 25.6236C18.1772 25.6046 18.1582 25.5855 18.1391 25.5664C17.783 25.2421 17.2361 25.2707 16.9118 25.6236C15.5828 27.083 14.3364 27.8398 13.1791 27.8525C12.0503 27.8652 10.9089 27.153 9.76108 25.6745C9.71021 25.6077 9.64662 25.5473 9.57349 25.4965C9.18241 25.2198 8.63872 25.3152 8.36528 25.7063C7.51953 26.9082 6.5307 27.6204 5.46875 27.8111C4.74064 27.9415 3.95848 27.8175 3.12227 27.4741C1.3958 26.7683 2.02217 26.3645 1.9077 24.2119C1.82186 22.6063 3.22402 21.2868 4.83285 21.2868ZM33.1146 28.5679V28.6632H32.9619C33.0128 28.6346 33.0637 28.6028 33.1146 28.5679ZM32.4373 28.9558V35.7885H2.62627V29.1529C3.70412 29.5821 4.7629 29.6998 5.7708 29.5185C6.99809 29.296 8.12046 28.6378 9.09339 27.5695C10.3874 28.9399 11.7546 29.6012 13.1918 29.5853C14.648 29.5694 16.1042 28.8477 17.5541 27.4518C19.1215 28.9558 20.6382 29.6235 22.1071 29.544C23.4965 29.4708 24.7747 28.7364 25.9543 27.4201C27.1943 28.9367 28.5774 29.6393 30.0877 29.6012C30.8571 29.5789 31.6393 29.3596 32.4373 28.9558ZM14.0312 2.4514C11.4271 6.92814 16.6511 6.24773 14.0312 2.4514V2.4514ZM17.4746 0C14.8674 4.47674 20.0945 3.79633 17.4746 0V0ZM20.918 2.4514C18.3108 6.92814 23.5347 6.24773 20.918 2.4514V2.4514Z" fill="black"/>
</g>
<defs>
<clipPath id="clip0_73_48">
<rect width="35" height="39.0698" fill="white"/>
</clipPath>
</defs>
</svg>
