<svg width="35" height="40" viewBox="0 0 35 40" fill="none" xmlns="http://www.w3.org/2000/svg">
<g clip-path="url(#clip0_1_581)">
<path fill-rule="evenodd" clip-rule="evenodd" d="M32.3581 11.822C31.7359 12.5048 31.0116 13.1142 30.1979 13.6088C30.099 13.6822 29.9618 13.6918 29.8501 13.6184C28.6504 12.8558 27.6389 11.9368 26.8476 10.9381C25.7531 9.56605 25.0639 8.04403 24.8278 6.57945C24.5885 5.09253 24.8119 3.66305 25.5521 2.4984C25.8457 2.04212 26.219 1.62093 26.6721 1.26037C27.7155 0.43076 28.9057 -0.00957219 30.0958 2.36701e-07C31.2381 0.00957267 32.3677 0.43395 33.3441 1.32419C33.6887 1.63689 33.9759 1.99107 34.212 2.38034C35.0065 3.69177 35.1788 5.36056 34.8278 7.05488C34.4832 8.73006 33.6281 10.4308 32.3581 11.822ZM7.61977 29.3746C6.99756 30.0574 6.27325 30.6669 5.45959 31.1615C5.36068 31.2348 5.22347 31.2444 5.1118 31.171C3.91205 30.4052 2.90056 29.4895 2.10924 28.4907C1.01799 27.1219 0.328771 25.5999 0.0926509 24.1321C-0.14666 22.6452 0.0766969 21.2157 0.816965 20.0542C1.10733 19.5948 1.48065 19.1768 1.93694 18.8162C2.98033 17.9866 4.17051 17.5463 5.35749 17.5558C6.4998 17.5654 7.62934 17.9898 8.60573 18.88C8.95034 19.1927 9.23751 19.5469 9.47363 19.9362C10.2681 21.2476 10.4404 22.9164 10.0895 24.6107C9.74485 26.2827 8.88971 27.9834 7.61977 29.3746ZM5.44683 32.8781C6.88589 32.8781 8.10158 33.8417 8.48448 35.1563H27.6198C28.5643 35.1563 29.4258 34.7703 30.0512 34.1449C30.6766 33.5195 31.0627 32.6611 31.0627 31.7135C31.0627 30.769 30.6766 29.9075 30.0512 29.2821C29.4258 28.6567 28.5674 28.2706 27.6198 28.2706H20.9255C19.4226 28.2706 18.0569 27.6579 17.0678 26.6688C16.0786 25.6796 15.466 24.314 15.466 22.8111C15.466 21.3082 16.0786 19.9426 17.0678 18.9534C18.0569 17.9643 19.4226 17.3516 20.9255 17.3516H26.9784C27.3932 16.0881 28.5834 15.1755 29.9842 15.1755C31.7327 15.1755 33.1494 16.5922 33.1494 18.3408C33.1494 20.0893 31.7327 21.5061 29.9842 21.5061C28.5962 21.5061 27.4187 20.6126 26.9912 19.3714H20.9255C19.981 19.3714 19.1195 19.7575 18.4941 20.3829C17.8687 21.0083 17.4826 21.8666 17.4826 22.8143C17.4826 23.7588 17.8687 24.6203 18.4941 25.2457C19.1131 25.8647 19.965 26.2508 20.9031 26.2572H27.623C29.1258 26.2572 30.4915 26.8698 31.4807 27.859C32.4698 28.8481 33.0824 30.2138 33.0824 31.7167C33.0824 33.2195 32.4698 34.5852 31.4807 35.5743C30.4915 36.5635 29.1258 37.1761 27.623 37.1761H8.40471C7.94843 38.3663 6.79654 39.2087 5.44683 39.2087C3.69827 39.2087 2.28155 37.792 2.28155 36.0434C2.28155 34.2948 3.69827 32.8781 5.44683 32.8781ZM5.13094 20.1978C6.54128 20.1978 7.68359 21.3401 7.68359 22.7505C7.68359 24.1608 6.54128 25.3031 5.13094 25.3031C3.7206 25.3031 2.57829 24.1608 2.57829 22.7505C2.57829 21.3401 3.7206 20.1978 5.13094 20.1978ZM29.8693 2.64199C31.2796 2.64199 32.4219 3.7843 32.4219 5.19464C32.4219 6.60498 31.2796 7.74729 29.8693 7.74729C28.459 7.74729 27.3166 6.60498 27.3166 5.19464C27.3166 3.7843 28.459 2.64199 29.8693 2.64199Z" fill="#8A8A8A"/>
</g>
<defs>
<clipPath id="clip0_1_581">
<rect width="35" height="39.2087" fill="white"/>
</clipPath>
</defs>
</svg>
