<svg width="32" height="40" viewBox="0 0 32 40" fill="none" xmlns="http://www.w3.org/2000/svg">
<g clip-path="url(#clip0_90_52)">
<path fill-rule="evenodd" clip-rule="evenodd" d="M13.1529 6.24762C12.9641 6.25413 12.8208 6.2932 12.7264 6.35831C12.6711 6.39412 12.6288 6.44296 12.6027 6.50156C12.5734 6.56342 12.5604 6.64155 12.5636 6.72946C12.5702 6.98665 12.7069 7.32524 12.9673 7.71593L12.9706 7.72244L13.8203 9.07354C14.1622 9.61398 14.517 10.1674 14.9598 10.5711C15.3863 10.9618 15.904 11.2255 16.5877 11.2255C17.3299 11.2288 17.8704 10.9521 18.3099 10.5418C18.769 10.1121 19.1271 9.52608 19.4852 8.94006L20.4424 7.36431C20.6214 6.95735 20.6865 6.68388 20.6442 6.52435C20.6214 6.42993 20.514 6.3811 20.3349 6.37459C20.2959 6.37133 20.2568 6.37133 20.2177 6.37459C20.1754 6.37459 20.1298 6.37784 20.0842 6.38436C20.0582 6.38761 20.0354 6.38436 20.0094 6.3811C19.9247 6.38436 19.8368 6.3811 19.7457 6.36808L20.0745 4.9193C17.6425 5.30347 15.8258 3.49657 13.2571 4.55792L13.4427 6.26715C13.345 6.2639 13.2473 6.26064 13.1529 6.24762ZM16.1612 28.9755C17.4341 28.9755 18.4629 30.0075 18.4629 31.2772C18.4629 32.5469 17.4309 33.579 16.1612 33.579C14.8914 33.579 13.8594 32.5469 13.8594 31.2772C13.8594 30.0075 14.8882 28.9755 16.1612 28.9755ZM3.57147 19.2377C3.5324 19.2443 3.49008 19.2475 3.44776 19.2475C3.40543 19.2475 3.36636 19.2443 3.32404 19.2377H1.64737C1.62784 19.2377 1.6083 19.2443 1.59202 19.254L1.579 19.267C1.56272 19.2833 1.5497 19.3094 1.5497 19.3354V23.099C1.5497 23.1185 1.55621 23.138 1.56598 23.1543L1.579 23.1673C1.59528 23.1836 1.62132 23.1966 1.64737 23.1966H3.73426C3.77007 23.1934 3.80263 23.1901 3.84169 23.1901C3.87751 23.1901 3.91332 23.1934 3.94913 23.1966H28.4383C28.4741 23.1934 28.5067 23.1901 28.5457 23.1901C28.5815 23.1901 28.6174 23.1934 28.6499 23.1966H30.3526C30.3787 23.1966 30.4047 23.1869 30.421 23.1706C30.4373 23.1543 30.447 23.1283 30.447 23.1022V19.3354C30.447 19.3094 30.4373 19.2866 30.4177 19.267C30.4015 19.2508 30.3754 19.2377 30.3494 19.2377H3.57147ZM2.67291 17.6848V11.6553C2.67291 11.4567 2.74779 11.2744 2.8715 11.1344L5.08536 8.35078C4.85095 7.98289 4.71421 7.54337 4.71421 7.07456C4.71421 5.76252 5.77882 4.69792 7.09085 4.69792C8.40289 4.69792 9.46749 5.76252 9.46749 7.07456C9.46749 8.38659 8.40289 9.4512 7.09085 9.4512C6.81412 9.4512 6.54716 9.40236 6.29973 9.31446L4.22586 11.9223V17.6848H7.52386C7.50107 17.6067 7.48479 17.522 7.47502 17.4308C7.50432 15.0542 7.14294 14.6114 9.6433 13.218C10.5581 12.7069 12.9218 12.5343 13.9538 11.8571C14.1101 11.5609 14.2859 11.0302 14.3901 10.7144L14.3998 10.6818C14.0222 10.2749 13.7129 9.79304 13.4134 9.32097L12.5636 7.96987C12.2543 7.50756 12.0916 7.08432 12.0818 6.73597C12.0785 6.57318 12.1046 6.42342 12.1664 6.2932C12.2283 6.15646 12.326 6.04251 12.4595 5.95461C12.5213 5.91228 12.5897 5.87973 12.6646 5.85042C12.6092 5.1179 12.5897 4.19654 12.6255 3.42169C12.645 3.23938 12.6776 3.0538 12.7297 2.87149C13.039 1.7613 13.9961 0.960406 15.0868 0.582748C15.6142 0.400431 15.4124 -0.0358292 15.9463 -0.0065282C17.2127 0.0618409 19.1694 0.879014 19.9215 1.74502C20.973 2.95939 20.7028 4.45374 20.667 5.93507C20.9014 6.0067 21.0544 6.15646 21.1163 6.39738C21.1847 6.66434 21.1098 7.042 20.8851 7.5564C20.8819 7.56616 20.8754 7.57593 20.8721 7.58244L19.9052 9.17772C19.5308 9.79304 19.1531 10.4084 18.6485 10.8804L18.6224 10.9032C18.6713 10.9716 18.7234 11.0497 18.7787 11.1311C18.948 11.3786 19.1368 11.6585 19.3159 11.8767C20.3675 12.5311 22.6823 12.7069 23.5841 13.2115C25.8859 14.4942 25.3161 15.1812 25.4821 17.4243C25.4724 17.5155 25.4561 17.6001 25.4333 17.6783H30.3559C30.8084 17.6783 31.2219 17.8639 31.5214 18.1634C31.8209 18.4629 32.0065 18.8731 32.0065 19.3289V23.0925C32.0065 23.545 31.8209 23.9552 31.5214 24.2547L31.5182 24.258C31.2186 24.5575 30.8084 24.7431 30.3559 24.7431H29.3206V38.7522C29.3206 39.0973 29.1806 39.4099 28.9527 39.6345C28.7281 39.8592 28.4123 40.0024 28.0704 40.0024H4.32353C3.97843 40.0024 3.66263 39.8624 3.43799 39.6345C3.4152 39.6117 3.39567 39.5922 3.37939 39.5662C3.1873 39.3448 3.0701 39.0583 3.0701 38.7457V24.7431H1.64737C1.19483 24.7431 0.781361 24.5575 0.481839 24.258C0.462305 24.2385 0.446027 24.2189 0.429749 24.1994C0.162784 23.9129 0 23.5255 0 23.099V19.3354C0 18.8829 0.185573 18.4694 0.485095 18.1699C0.504629 18.1504 0.524163 18.1341 0.543697 18.1145C0.836708 17.8476 1.22739 17.6848 1.64737 17.6848H2.67291ZM4.61654 24.7463V38.4527H27.7644V24.7463H4.61654ZM14.8621 13.3678C14.4324 12.8794 14.3966 12.3715 14.8621 11.8311C15.3993 11.9678 15.8909 12.199 16.3435 12.5148C16.4411 12.4725 16.5551 12.4562 16.6658 12.4627C17.1379 12.1274 17.7369 11.9939 18.2643 11.7432C18.8927 12.3553 18.8243 12.9152 18.209 13.4394C17.8639 13.3613 17.5383 13.2375 17.2225 13.078C17.216 13.1594 17.1932 13.2473 17.1541 13.3417L17.8378 16.5909C18.3587 15.4937 18.8992 13.7519 19.0392 12.339C18.8113 12.085 18.5671 11.7269 18.3587 11.4209C18.3132 11.3525 18.2676 11.2874 18.222 11.2223C17.7792 11.5218 17.2486 11.7041 16.5877 11.7041C15.8486 11.7009 15.2756 11.4502 14.797 11.0628C14.6635 11.4632 14.4682 12.0134 14.2761 12.2739C14.2631 12.2934 14.2468 12.3097 14.2273 12.326C14.478 13.8626 15.0152 15.5328 15.5035 16.5909L16.1872 13.3417C16.0863 13.1724 16.0472 13.0292 16.0537 12.9087C15.6891 13.1301 15.2854 13.2734 14.8621 13.3678Z" fill="#BD8100"/>
</g>
<defs>
<clipPath id="clip0_90_52">
<rect width="32" height="40.0057" fill="white"/>
</clipPath>
</defs>
</svg>
