<svg xmlns="http://www.w3.org/2000/svg" viewBox="0 0 24 24" class="google-logo-svg" xmlns:xlink="http://www.w3.org/1999/xlink"><path fill-rule="evenodd" d="M12.004 2.037a9.581 9.581 0 0 1 6.67 2.593l-2.846 2.846-.197-.179a5.419 5.419 0 0 0-3.627-1.315c-2.601 0-4.81 1.754-5.597 4.117a5.971 5.971 0 0 0 0 3.817c.794 2.359 3 4.113 5.6 4.113 1.345 0 2.498-.344 3.392-.952l-.004.002a4.621 4.621 0 0 0 1.942-2.786l.051-.245h-5.384v-3.84h9.403c.117.667.172 1.349.172 2.026 0 3.033-1.084 5.598-2.97 7.334v-.002c-1.577 1.46-3.72 2.33-6.257 2.403l-.348.005a9.97 9.97 0 0 1-8.909-5.49l-.146-.304a9.977 9.977 0 0 1 .146-8.649l.145-.278a9.967 9.967 0 0 1 8.764-5.216Z"></path></svg>
