<?xml version="1.0" encoding="iso-8859-1"?>
<!-- Generator: Adobe Illustrator 19.0.0, SVG Export Plug-In . SVG Version: 6.00 Build 0)  -->
<svg version="1.1" id="Layer_1" xmlns="http://www.w3.org/2000/svg" xmlns:xlink="http://www.w3.org/1999/xlink" x="0px" y="0px"
	 viewBox="0 0 449.38 449.38" style="enable-background:new 0 0 449.38 449.38;" xml:space="preserve">
<g>
	<g>
		<g>
			<path d="M360.706,357.771l20.814-96.408c2.06-9.542,1.976-19.61-0.245-29.116l-23.78-101.817
				c-5.443-23.306-25.959-39.583-49.893-39.583h-42.381l14.99-69.298c15.563,3.928,30.764,9.607,45.291,17.088
				c3.683,1.897,8.206,0.448,10.102-3.234s0.448-8.205-3.234-10.101C265.178-9.301,184.632-8.362,116.911,27.813
				c-3.654,1.952-5.033,6.496-3.082,10.149c1.351,2.529,3.942,3.968,6.622,3.968c1.192,0,2.402-0.285,3.527-0.886
				c14.991-8.008,30.656-14.148,46.662-18.465l14.77,68.268H141.78c-23.933,0-44.45,16.277-49.893,39.582L68.106,232.247
				c-2.221,9.506-2.305,19.574-0.245,29.116l20.814,96.408c2.555,11.836,10.296,21.586,20.495,27.072L83.692,438.67
				c-1.772,3.744-0.174,8.215,3.57,9.987c1.036,0.491,2.128,0.723,3.203,0.723c2.809,0,5.503-1.586,6.784-4.293l26.363-55.697
				c1.506,0.174,3.031,0.272,4.574,0.272h1.579l-18.626,49.578c-1.457,3.877,0.506,8.202,4.383,9.659
				c0.869,0.326,1.76,0.481,2.637,0.481c3.035,0,5.892-1.856,7.022-4.864l8.992-23.935h181.035l8.992,23.935
				c1.13,3.009,3.987,4.864,7.022,4.864c0.876,0,1.768-0.155,2.637-0.481c3.877-1.457,5.84-5.781,4.383-9.659l-18.626-49.578h1.579
				c1.542,0,3.068-0.098,4.574-0.272l26.363,55.697c1.281,2.708,3.975,4.293,6.784,4.293c1.075,0,2.167-0.232,3.203-0.723
				c3.744-1.772,5.343-6.244,3.57-9.987l-25.478-53.827C350.411,379.358,358.151,369.608,360.706,357.771z M185.247,19.158
				c26.581-5.253,53.823-5.51,80.301-0.771l-15.674,72.456h-49.118L185.247,19.158z M139.807,405.582l5.981-15.919h157.803
				l5.981,15.919H139.807z M321.195,374.663H128.186c-11.89,0-22.34-8.436-24.849-20.057l-20.814-96.409
				c-1.595-7.386-1.529-15.18,0.189-22.539l23.781-101.818c3.85-16.482,18.36-27.994,35.286-27.994h165.823
				c16.926,0,31.437,11.511,35.286,27.994l23.781,101.818c1.719,7.358,1.784,15.152,0.189,22.539l-20.814,96.408
				C343.535,366.228,333.085,374.663,321.195,374.663z"/>
			<path d="M336.68,138.038c-3.464-14.833-16.522-25.192-31.753-25.192H144.455c-15.232,0-28.289,10.359-31.753,25.192
				l-17.497,74.913c-2.366,10.128-0.015,20.611,6.449,28.759s16.138,12.821,26.539,12.821H321.19
				c10.401,0,20.074-4.673,26.539-12.821c6.464-8.148,8.815-18.63,6.449-28.759L336.68,138.038z M201.19,127.847h47v6.706
				c0,12.958-10.542,23.5-23.5,23.5c-12.958,0-23.5-10.542-23.5-23.5V127.847z M335.976,232.388
				c-3.602,4.54-8.992,7.144-14.788,7.144H128.191c-5.795,0-11.186-2.604-14.788-7.144s-4.912-10.381-3.594-16.025l17.498-74.914
				c1.87-8.009,8.921-13.604,17.146-13.604h41.736v6.706c0,21.229,17.271,38.5,38.5,38.5s38.5-17.271,38.5-38.5v-6.706h41.736
				c8.225,0,15.276,5.594,17.147,13.604l17.496,74.913C340.888,222.007,339.578,227.848,335.976,232.388z"/>
			<path d="M139.002,295.848c-16.611,0-30.125,13.514-30.125,30.125c0,16.611,13.514,30.125,30.125,30.125
				c16.611,0,30.125-13.514,30.125-30.125C169.127,309.362,155.614,295.848,139.002,295.848z M139.002,341.098
				c-8.34,0-15.125-6.785-15.125-15.125c0-8.34,6.785-15.125,15.125-15.125c8.34,0,15.125,6.785,15.125,15.125
				C154.127,334.313,147.343,341.098,139.002,341.098z"/>
			<path d="M310.378,295.848c-16.611,0-30.125,13.514-30.125,30.125c0,16.611,13.514,30.125,30.125,30.125
				c16.611,0,30.125-13.514,30.125-30.125C340.503,309.362,326.989,295.848,310.378,295.848z M310.378,341.098
				c-8.34,0-15.125-6.785-15.125-15.125c0-8.34,6.785-15.125,15.125-15.125c8.34,0,15.125,6.785,15.125,15.125
				C325.503,334.313,318.718,341.098,310.378,341.098z"/>
		</g>
	</g>
</g>
<g>
</g>
<g>
</g>
<g>
</g>
<g>
</g>
<g>
</g>
<g>
</g>
<g>
</g>
<g>
</g>
<g>
</g>
<g>
</g>
<g>
</g>
<g>
</g>
<g>
</g>
<g>
</g>
<g>
</g>
</svg>
