<svg width="45" height="45" viewBox="0 0 60 60" fill="none" xmlns="http://www.w3.org/2000/svg">
<path d="M40.7739 20.7343C40.7739 12.6097 33.5017 6 24.5636 6C15.6255 6 8.354 12.6097 8.354 20.7343C8.354 25.7023 11.0416 30.2379 15.5641 32.9825L13.3593 35.442C13.0293 35.8101 13.0905 36.3522 13.4955 36.6521C13.671 36.7822 13.883 36.8455 14.0926 36.8455C14.3666 36.8455 14.6398 36.7375 14.8267 36.5283L16.0838 35.1255H33.0429L34.3008 36.5283C34.4876 36.7375 34.7596 36.8455 35.0349 36.8455C35.2445 36.8455 35.4564 36.7822 35.632 36.6521C36.0369 36.3522 36.0974 35.8101 35.7674 35.442L33.5634 32.9832C38.0863 30.2379 40.7742 25.7021 40.7742 20.7338L40.7739 20.7343ZM17.0089 34.0937L18.7868 32.111H30.3409L32.1188 34.0937H17.0089ZM32.3616 31.6438L31.1151 30.2521H28.6883C28.7081 30.2809 28.7261 30.3099 28.7496 30.3368L29.4156 31.0792L19.7105 31.079L20.3757 30.3365C20.4 30.3097 20.4175 30.2809 20.437 30.2518H18.0112L16.7647 31.6429C12.6791 29.228 10.2457 25.1763 10.2457 20.7338C10.2457 13.5577 16.6678 7.71951 24.563 7.71951C32.4583 7.71951 38.8811 13.5579 38.8811 20.7338C38.8811 25.1763 36.4477 29.2287 32.3612 31.6435L32.3616 31.6438Z" fill="#DBA4D5"/>
<path d="M31.1188 11.5618H18.007C16.4667 11.5618 15.2173 12.6557 15.2173 14.0048V27.1788C15.2173 28.528 16.4662 29.6218 18.007 29.6218H31.1181C32.6593 29.6218 33.9087 28.5278 33.9087 27.1788V14.0054C33.9087 12.6561 32.6598 11.5622 31.1189 11.5622L31.1188 11.5618ZM21.2157 12.9379H27.9119C28.1547 12.9379 28.3533 13.1174 28.3533 13.3391C28.3533 13.5599 28.155 13.7403 27.9119 13.7403H21.2157C20.9728 13.7403 20.7743 13.5601 20.7743 13.3391C20.7746 13.1174 20.9721 12.9379 21.2157 12.9379ZM18.3372 26.1506C18.3372 26.5379 17.9914 26.8529 17.5645 26.8529C17.1376 26.8529 16.7918 26.5386 16.7918 26.1506V25.0491C16.7918 24.6619 17.1376 24.3468 17.5645 24.3468C17.9914 24.3468 18.3372 24.6611 18.3372 25.0491V26.1506ZM21.3859 20.592H16.7924V15.8042H21.3859V20.592ZM26.4874 27.73H22.6385L22.6388 15.8043H26.4876L26.4874 27.73ZM27.741 15.8043H32.3346V20.5921H27.741V15.8043ZM32.3346 26.1507C32.3346 26.538 31.9888 26.8531 31.5619 26.8531C31.135 26.8531 30.7897 26.5387 30.7897 26.1507V25.0493C30.7897 24.662 31.1348 24.3469 31.5619 24.3469C31.9888 24.3469 32.3346 24.6612 32.3346 25.0493V26.1507Z" fill="#DBA4D5"/>
</svg>
