<svg width="40" height="36" viewBox="0 0 40 36" fill="none" xmlns="http://www.w3.org/2000/svg">
<path d="M20.106 3.30121C16.9321 3.30141 13.8666 3.36298 11.4752 3.47457C9.08379 3.58615 7.52788 3.74022 7.09456 3.90834C7.07759 3.91382 7.06067 3.91982 7.0438 3.92633C7.03542 3.92958 7.02746 3.93283 7.01993 3.93608C6.67382 4.07035 6.36349 4.4163 6.14071 4.91622C5.91793 5.41615 5.79616 6.03982 5.79573 6.68321V9.49571H5.0222H3.47514C3.26155 9.49573 3.0884 9.65312 3.08838 9.84727V10.5504V14.7691C3.0884 14.9633 3.26155 15.1207 3.47514 15.1207H5.0222C5.2358 15.1207 5.40894 14.9633 5.40897 14.7691V10.902H5.79573V23.2066H10.8237C11.0373 23.2067 11.2104 23.3641 11.2104 23.5582V24.9645C11.2104 25.1586 11.0373 25.316 10.8237 25.316H5.79573V27.777C5.79588 28.0236 5.83169 28.2657 5.89957 28.4792C5.96746 28.6927 6.06503 28.87 6.18249 28.9933V31.9957C6.18254 32.384 6.52883 32.6988 6.95602 32.6988H9.27661C9.7038 32.6988 10.0501 32.384 10.0501 31.9957V29.8863H30.1619V31.9957C30.1619 32.384 30.5082 32.6988 30.9354 32.6988H33.256C33.6832 32.6988 34.0295 32.384 34.0295 31.9957V28.9927C34.147 28.8695 34.2445 28.6923 34.3124 28.4789C34.3803 28.2655 34.4161 28.0235 34.4163 27.777V25.316H29.3884C29.1748 25.316 29.0016 25.1586 29.0016 24.9645V23.5582C29.0016 23.3641 29.1748 23.2067 29.3884 23.2066H34.4163V10.902H34.8031V14.7691C34.8031 14.9633 34.9762 15.1207 35.1898 15.1207H36.7369C36.9505 15.1207 37.1236 14.9633 37.1237 14.7691V10.5504V9.84727C37.1236 9.65312 36.9505 9.49573 36.7369 9.49571H35.1898H34.4163V6.68321C34.4159 6.02066 34.2869 5.37962 34.052 4.8731C33.817 4.36658 33.4913 4.0271 33.1321 3.91452C32.7242 3.74514 31.1773 3.58949 28.7802 3.47663C26.3832 3.36377 23.2999 3.30142 20.106 3.30121ZM8.11632 4.57384H32.0957C32.3009 4.57384 32.4976 4.75904 32.6427 5.08869C32.7877 5.41834 32.8692 5.86545 32.8692 6.33165V7.7379C32.8692 7.93205 32.6961 8.08944 32.4825 8.08946H7.72955C7.51596 8.08944 7.34281 7.93205 7.34279 7.7379V6.33165C7.34279 5.86545 7.42428 5.41834 7.56935 5.08869C7.71441 4.75904 7.91116 4.57384 8.11632 4.57384ZM7.34279 8.79259H32.8692C33.2964 8.79263 33.6427 9.1074 33.6428 9.49571V20.0426C33.6427 20.4309 33.2964 20.7457 32.8692 20.7457H29.8079L29.1294 20.4389L30.2198 20.4456C30.2709 20.4465 30.3218 20.4382 30.3694 20.4211C30.4171 20.4039 30.4605 20.3784 30.4971 20.3459C30.5338 20.3134 30.563 20.2747 30.5831 20.2318C30.6031 20.189 30.6136 20.143 30.6139 20.0964C30.6143 20.0499 30.6045 20.0038 30.585 19.9607C30.5656 19.9176 30.537 19.8785 30.5008 19.8456C30.4646 19.8127 30.4216 19.7866 30.3742 19.7689C30.3268 19.7512 30.2761 19.7423 30.2249 19.7425L18.4301 19.6704C18.3789 19.6695 18.328 19.6779 18.2804 19.695C18.2328 19.7121 18.1894 19.7377 18.1527 19.7702C18.1161 19.8026 18.0868 19.8414 18.0668 19.8842C18.0467 19.9271 18.0362 19.9731 18.0359 20.0196C18.0356 20.0662 18.0454 20.1123 18.0648 20.1554C18.0842 20.1984 18.1129 20.2376 18.1491 20.2705C18.1853 20.3034 18.2283 20.3295 18.2756 20.3472C18.323 20.3649 18.3737 20.3738 18.425 20.3736L27.3687 20.4282L29.1353 21.2269C29.0912 21.2341 29.0464 21.2378 29.0016 21.2379H11.2104C11.1104 21.2378 11.0114 21.22 10.9188 21.1856L13.1178 19.9456L22.7014 19.3816C22.8024 19.3769 22.8973 19.3364 22.9658 19.2688C23.0343 19.2012 23.071 19.1119 23.068 19.0201C23.065 18.9282 23.0226 18.8411 22.9497 18.7773C22.8769 18.7135 22.7796 18.6782 22.6785 18.6789C22.6695 18.679 22.6605 18.6794 22.6516 18.68L10.3889 19.4017C10.3375 19.4039 10.2872 19.4153 10.2408 19.4354C10.1944 19.4555 10.1529 19.4837 10.1187 19.5185C10.0844 19.5533 10.0582 19.594 10.0414 19.6381C10.0246 19.6823 10.0177 19.729 10.021 19.7756C10.0244 19.8222 10.0379 19.8677 10.0607 19.9095C10.0836 19.9514 10.1155 19.9886 10.1544 20.0191C10.1933 20.0496 10.2384 20.0728 10.2873 20.0872C10.3361 20.1017 10.3877 20.1071 10.4389 20.1033L11.4794 20.042L10.2314 20.7457H7.34279C6.9156 20.7457 6.5693 20.4309 6.56926 20.0426V9.49571C6.5693 9.1074 6.9156 8.79263 7.34279 8.79259Z" fill="#84B2F9"/>
</svg>
