<svg width="38" height="34" viewBox="0 0 38 34" fill="none" xmlns="http://www.w3.org/2000/svg">
<g clip-path="url(#clip0_199_3404)">
<path d="M30.4284 27.0689L32.1609 19.7747C32.3324 19.0527 32.3254 18.291 32.1405 17.5718L30.1612 9.86831C29.7081 8.10498 28.0005 6.87347 26.0083 6.87347H22.4807L23.7284 1.63039C25.0238 1.92759 26.2891 2.35726 27.4982 2.92327C27.8048 3.0668 28.1813 2.95716 28.3391 2.67858C28.4969 2.40001 28.3764 2.0578 28.0699 1.91435C22.4771 -0.703711 15.7728 -0.632666 10.136 2.10433C9.83188 2.25201 9.71709 2.59581 9.87949 2.8722C9.99194 3.06354 10.2076 3.17242 10.4307 3.17242C10.5299 3.17242 10.6306 3.15085 10.7242 3.10538C11.972 2.4995 13.2759 2.03495 14.6082 1.70832L15.8376 6.87347H12.206C10.2139 6.87347 8.50618 8.10498 8.05313 9.86823L6.07371 17.5718C5.88884 18.291 5.88185 19.0527 6.05331 19.7747L7.78578 27.0689C7.99845 27.9644 8.64277 28.7021 9.49169 29.1171L7.37102 33.1897C7.22352 33.473 7.35653 33.8112 7.66817 33.9453C7.7544 33.9824 7.84529 34 7.93477 34C8.16858 34 8.39282 33.88 8.49944 33.6752L10.6938 29.4612C10.8191 29.4743 10.9461 29.4817 11.0745 29.4817H11.2059L9.65558 33.2328C9.53431 33.5261 9.6977 33.8534 10.0204 33.9636C10.0927 33.9883 10.1669 34 10.2399 34C10.4925 34 10.7303 33.8596 10.8244 33.632L11.5728 31.8211H26.6414L27.3898 33.632C27.4839 33.8596 27.7217 34 27.9743 34C28.0472 34 28.1215 33.9883 28.1938 33.9636C28.5165 33.8534 28.6799 33.5262 28.5586 33.2328L27.0083 29.4817H27.1397C27.2681 29.4817 27.3951 29.4743 27.5204 29.4612L29.7148 33.6752C29.8214 33.8801 30.0456 34 30.2795 34C30.3689 34 30.4598 33.9824 30.5461 33.9453C30.8577 33.8112 30.9908 33.4729 30.8432 33.1897L28.7225 29.1171C29.5715 28.7021 30.2158 27.9645 30.4284 27.0689ZM15.824 1.44949C18.0365 1.05205 20.304 1.03261 22.5079 1.39116L21.2033 6.87316H17.1149L15.824 1.44949ZM12.0418 30.6863L12.5396 29.4818H25.6744L26.1723 30.6863H12.0418ZM27.1397 28.3469H11.0745C10.0848 28.3469 9.21502 27.7087 9.00618 26.8294L7.27371 19.5351C7.14095 18.9763 7.14645 18.3866 7.28944 17.8298L9.26887 10.1263C9.58933 8.87928 10.7971 8.00829 12.2059 8.00829H26.0083C27.4171 8.00829 28.625 8.87921 28.9454 10.1263L30.9248 17.8298C31.0679 18.3865 31.0733 18.9762 30.9405 19.5351L29.208 26.8293C28.9992 27.7087 28.1294 28.3469 27.1397 28.3469Z" fill="#91C965"/>
<path d="M28.4286 10.4439C28.1403 9.32166 27.0534 8.5379 25.7856 8.5379H12.4286C11.1608 8.5379 10.074 9.32166 9.78567 10.4439L8.32929 16.1118C8.13236 16.8781 8.32804 17.6713 8.86608 18.2877C9.40411 18.9042 10.2093 19.2578 11.0751 19.2578H27.1393C28.005 19.2578 28.8102 18.9042 29.3483 18.2877C29.8863 17.6713 30.082 16.8782 29.8851 16.1118L28.4286 10.4439ZM17.151 9.67288H21.0631V10.1802C21.0631 11.1606 20.1856 11.9583 19.1071 11.9583C18.0285 11.9583 17.151 11.1606 17.151 10.1802V9.67288ZM28.37 17.5824C28.0702 17.9259 27.6216 18.1229 27.1391 18.1229H11.0749C10.5926 18.1229 10.1438 17.9259 9.84401 17.5824C9.5442 17.2389 9.43516 16.797 9.54487 16.37L11.0013 10.702C11.157 10.096 11.7439 9.67272 12.4285 9.67272H15.9024V10.1801C15.9024 11.7863 17.34 13.093 19.107 13.093C20.874 13.093 22.3115 11.7863 22.3115 10.1801V9.67272H25.7855C26.4701 9.67272 27.057 10.096 27.2127 10.702L28.669 16.3699C28.7789 16.797 28.6698 17.2389 28.37 17.5824Z" fill="#91C965"/>
<path d="M11.9748 22.3838C10.5921 22.3838 9.46729 23.4063 9.46729 24.663C9.46729 25.9198 10.5921 26.9423 11.9748 26.9423C13.3574 26.9423 14.4822 25.9198 14.4822 24.663C14.4822 23.4063 13.3575 22.3838 11.9748 22.3838ZM11.9748 25.8074C11.2806 25.8074 10.7158 25.294 10.7158 24.663C10.7158 24.032 11.2806 23.5187 11.9748 23.5187C12.6689 23.5187 13.2337 24.032 13.2337 24.663C13.2337 25.294 12.669 25.8074 11.9748 25.8074Z" fill="#91C965"/>
<path d="M26.2394 22.3838C24.8568 22.3838 23.7319 23.4063 23.7319 24.663C23.7319 25.9198 24.8568 26.9423 26.2394 26.9423C27.622 26.9423 28.7469 25.9198 28.7469 24.663C28.7469 23.4063 27.622 22.3838 26.2394 22.3838ZM26.2394 25.8074C25.5452 25.8074 24.9805 25.294 24.9805 24.663C24.9805 24.032 25.5452 23.5187 26.2394 23.5187C26.9336 23.5187 27.4983 24.032 27.4983 24.663C27.4983 25.294 26.9336 25.8074 26.2394 25.8074Z" fill="#91C965"/>
</g>
<defs>
<clipPath id="clip0_199_3404">
<rect width="37.4044" height="34" fill="white" transform="translate(0.404785)"/>
</clipPath>
</defs>
</svg>
