<svg width="37" height="32" viewBox="0 0 37 32" fill="none" xmlns="http://www.w3.org/2000/svg">
<g clip-path="url(#clip0_199_3412)">
<path d="M28.9952 25.9847H28.9952H36.1573V25.0051H28.9952V5.50507H8.11518V25.0051H0.953125V25.9848H8.11518V27.4848H9.38267L6.67002 31.995H7.87411L10.6339 27.4848H26.5032L29.7884 31.995H31.1262L27.8252 27.4848H28.9951V25.9847H28.9952ZM9.19289 6.48475H27.9175V9.00513H23.4945V7.50507H13.6159V9.00513H9.19289V6.48475ZM22.4169 8.48469V10.5051H14.6936V8.48469H22.4169ZM27.9175 26.5051H9.19289V21.4847H27.9175V26.5051ZM27.9176 20.5051H27.9175H9.19289V9.98475H13.6159V11.4848H23.4946V9.98475H27.9176V20.5051Z" fill="#FF5F5F"/>
<path d="M16.3722 4.00507H15.7997V4.98469H21.3004V4.00507H20.7278L23.22 0.98463H25.1614V0.00500488H11.9492V0.98463H13.8801L16.3722 4.00507ZM21.8728 0.984692L19.3807 4.00513H17.7192L15.2271 0.984692H21.8728Z" fill="#FF5F5F"/>
<path d="M11.9544 25.4847C12.8582 25.4847 13.5935 24.8164 13.5935 23.9949C13.5935 23.1734 12.8582 22.505 11.9544 22.505C11.0507 22.505 10.3154 23.1734 10.3154 23.9949C10.3155 24.8164 11.0507 25.4847 11.9544 25.4847ZM11.9544 23.4848C12.264 23.4848 12.5158 23.7136 12.5158 23.995C12.5158 24.2764 12.264 24.5052 11.9544 24.5052C11.6449 24.5052 11.3931 24.2764 11.3931 23.995C11.3931 23.7136 11.6449 23.4848 11.9544 23.4848Z" fill="#FF5F5F"/>
<path d="M25.1561 25.4847C26.0599 25.4847 26.7951 24.8164 26.7951 23.9949C26.7951 23.1734 26.0599 22.505 25.1561 22.505C24.2524 22.505 23.5171 23.1734 23.5171 23.9949C23.5171 24.8164 24.2524 25.4847 25.1561 25.4847ZM25.1561 23.4848C25.4656 23.4848 25.7174 23.7136 25.7174 23.995C25.7174 24.2764 25.4657 24.5052 25.1561 24.5052C24.8466 24.5052 24.5948 24.2764 24.5948 23.995C24.5948 23.7136 24.8466 23.4848 25.1561 23.4848Z" fill="#FF5F5F"/>
<path d="M22.956 23.5053H14.1548V24.4849H22.956V23.5053Z" fill="#FF5F5F"/>
<path d="M21.3058 9.00519H15.8052V9.98481H21.3058V9.00519Z" fill="#FF5F5F"/>
<path d="M10.3154 16.4949H11.3931V11.9847H12.5044V11.0051H10.3154V16.4949Z" fill="#FF5F5F"/>
<path d="M11.3931 17.4951H10.3154V18.4952H11.3931V17.4951Z" fill="#FF5F5F"/>
<path d="M20.2053 18.4847H20.7666V19.0051H16.3436V18.4847H16.9049V17.5051H14.7046V18.4847H15.2659V19.0051H14.7046V19.9848H22.4056V19.0051H21.8443V18.4847H22.4056V17.5051H20.2053V18.4847Z" fill="#FF5F5F"/>
</g>
<defs>
<clipPath id="clip0_199_3412">
<rect width="35.2042" height="32" fill="white" transform="translate(0.953125)"/>
</clipPath>
</defs>
</svg>
