<svg xmlns="http://www.w3.org/2000/svg" version="1.0" preserveAspectRatio="xMidYMid meet" viewBox="16.1 13.19 313.81 216.81">

<g transform="translate(0.000000,246.000000) scale(0.100000,-0.100000)" fill="#000000" stroke="none">
<path d="M1270 2319 c-277 -17 -403 -47 -460 -109 -38 -41 -130 -198 -247 -427 -42 -81 -78 -150 -80 -152 -11 -14 -18 21 -18 92 0 49 -6 92 -14 106 -13 23 -15 23 -105 16 -54 -4 -101 -13 -116 -22 -51 -32 -70 -56 -69 -87 0 -17 3 -25 6 -18 3 8 9 10 16 3 7 -5 35 -16 62 -24 l50 -16 -50 0 c-28 -1 -56 4 -63 11 -7 7 -12 9 -12 6 0 -20 64 -48 135 -57 43 -6 82 -16 86 -22 3 -6 9 -33 12 -61 6 -47 5 -51 -44 -111 -60 -74 -85 -125 -99 -196 -17 -91 -12 -370 11 -561 11 -96 23 -194 25 -218 9 -77 -96 -72 1441 -72 1080 0 1373 3 1393 13 31 15 33 26 60 273 17 149 21 235 18 390 -3 190 -4 202 -29 254 -14 30 -49 84 -77 119 -35 44 -50 71 -47 85 2 12 6 37 10 58 l6 36 85 12 c62 9 92 18 108 34 12 11 17 18 12 14 -6 -5 -33 -8 -60 -7 l-51 0 50 16 c28 8 55 19 62 24 7 7 13 5 16 -3 3 -7 6 1 6 18 1 21 -7 38 -26 56 -43 39 -61 46 -160 53 -84 7 -92 6 -101 -12 -17 -31 -25 -119 -14 -139 10 -17 -3 -64 -17 -64 -3 0 -34 58 -69 128 -81 163 -215 399 -253 445 -54 66 -187 98 -479 117 -187 11 -722 11 -910 -1z m870 -49 c281 -10 408 -23 451 -46 44 -22 243 -367 295 -510 27 -74 81 -168 122 -212 19 -20 34 -53 45 -100 45 -188 -4 -296 -160 -349 -51 -17 -58 -14 -104 54 -16 23 -39 48 -50 54 -27 14 -214 14 -370 -1 -66 -7 -122 -10 -124 -8 -3 2 17 29 44 59 l49 55 128 18 c138 19 366 72 455 105 31 12 65 31 77 44 l21 22 -42 56 c-23 31 -57 88 -76 128 l-35 71 -1135 0 -1136 -1 -28 -62 c-15 -34 -48 -89 -72 -122 -25 -33 -45 -65 -45 -72 0 -20 48 -51 113 -72 102 -34 304 -79 435 -97 l122 -18 51 -53 c28 -30 49 -56 46 -59 -3 -3 -59 0 -126 6 -153 14 -328 15 -362 2 -15 -6 -36 -26 -47 -44 -11 -18 -32 -44 -46 -57 l-25 -24 -48 18 c-77 29 -121 62 -144 106 -50 99 -29 257 49 357 49 63 106 170 116 218 8 35 128 259 211 393 37 60 64 92 82 99 104 41 727 62 1263 42z m-537 -1027 c174 -4 343 -1 483 7 118 7 217 11 219 9 2 -3 -25 -30 -59 -60 l-64 -56 -113 -17 c-63 -10 -128 -24 -145 -31 -17 -7 -54 -40 -83 -73 -91 -104 -131 -104 -222 0 -29 33 -66 66 -83 73 -17 7 -80 21 -141 30 -120 19 -117 18 -196 89 l-54 49 95 -7 c52 -3 216 -9 363 -13z m1108 -375 c96 -56 199 -206 199 -289 0 -35 -3 -38 -59 -63 -86 -38 -137 -55 -198 -65 -69 -11 -57 0 32 29 141 46 185 76 185 128 0 78 -97 205 -191 250 l-46 22 -909 -2 c-881 -3 -910 -4 -949 -23 -85 -41 -185 -175 -185 -247 0 -49 58 -87 200 -133 72 -23 84 -35 23 -24 -70 13 -173 47 -218 73 -37 20 -40 25 -39 63 2 105 133 270 242 303 15 5 441 8 947 7 l920 -2 46 -27z m-621 -128 c0 -110 37 -100 -361 -100 l-349 0 0 90 0 90 338 2 c185 2 345 -1 355 -5 14 -6 17 -21 17 -77z m-1336 -76 c32 -32 8 -84 -39 -84 -44 0 -66 40 -45 81 13 23 62 26 84 3z m2038 -9 c17 -38 -3 -75 -42 -75 -21 0 -34 8 -46 25 -15 23 -15 27 0 50 12 17 25 25 46 25 23 0 33 -6 42 -25z m-1822 -113 c63 -24 78 -25 412 -34 217 -6 479 -6 695 0 356 10 373 12 478 57 l40 17 -45 -47 c-25 -26 -65 -59 -90 -73 l-45 -27 -685 0 c-634 0 -687 1 -717 18 -40 21 -155 131 -128 121 11 -4 49 -18 85 -32z"/>
<path d="M3201 668 c-6 -51 -14 -124 -17 -163 -4 -38 -11 -78 -15 -87 -14 -27 -74 -38 -201 -38 l-117 0 -3 -102 c-2 -57 0 -106 3 -111 3 -4 85 -6 182 -5 l176 3 3 298 c2 163 3 297 2 297 -1 0 -7 -42 -13 -92z"/>
<path d="M249 443 c-3 -221 -1 -274 9 -278 22 -8 350 -6 354 3 2 4 2 53 0 108 l-3 102 -141 4 c-139 3 -140 4 -164 31 -17 19 -24 41 -25 70 0 23 -6 85 -13 137 -13 95 -13 94 -17 -177z"/>
</g>
</svg>