<svg xmlns="http://www.w3.org/2000/svg" version="1.0" preserveAspectRatio="xMidYMid meet" viewBox="15.22 11.99 106.62 105.71">

<g transform="translate(0.000000,130.000000) scale(0.100000,-0.100000)" fill="#000000" stroke="none">
<path d="M177 1173 c-12 -11 -8 -40 7 -52 26 -22 63 10 50 44 -6 15 -45 21 -57 8z"/>
<path d="M530 1154 c-125 -34 -260 -145 -321 -265 -132 -263 -26 -583 235 -709 156 -76 308 -76 461 0 264 130 369 440 239 707 -55 113 -187 225 -312 263 -78 24 -220 26 -302 4z m322 -122 c91 -44 98 -55 63 -92 -19 -20 -32 -27 -39 -20 -6 6 -4 16 7 28 9 10 17 22 17 26 0 14 -109 57 -167 66 -223 36 -436 -136 -451 -364 -5 -79 20 -186 54 -234 l16 -24 34 33 c23 22 37 30 44 23 7 -7 -5 -24 -34 -53 l-44 -43 -26 35 c-56 73 -85 203 -67 301 30 163 136 287 287 337 92 30 219 22 306 -19z m-182 -87 c15 -18 5 -35 -21 -35 -12 0 -19 7 -19 18 0 33 20 42 40 17z m372 -86 c135 -218 21 -521 -229 -609 -90 -32 -221 -26 -310 14 -34 16 -69 36 -77 45 -14 16 -13 20 14 46 32 30 55 28 27 -3 -10 -10 -17 -22 -17 -26 0 -4 28 -20 63 -36 252 -118 540 57 555 336 5 88 -12 163 -48 223 l-21 34 -35 -33 c-18 -19 -37 -30 -41 -27 -9 9 68 88 82 84 5 -2 22 -23 37 -48z m-247 -51 l70 -23 0 -125 0 -124 -95 -28 -95 -27 -95 27 -95 28 -3 119 c-1 65 1 122 7 128 18 18 166 57 201 52 19 -2 67 -15 105 -27z m161 -149 c3 -6 0 -18 -9 -26 -18 -18 -37 -9 -37 18 0 21 34 27 46 8z m-358 -240 c3 -17 -23 -33 -39 -23 -5 3 -9 14 -9 25 0 15 6 20 22 17 13 -2 24 -10 26 -19z m178 10 c8 -14 -21 -43 -35 -35 -6 4 -11 16 -11 27 0 21 34 27 46 8z"/>
<path d="M595 792 l-50 -15 67 -19 c66 -18 69 -18 130 0 l63 19 -54 16 c-65 20 -90 20 -156 -1z"/>
<path d="M510 658 l0 -103 75 -21 75 -21 0 102 0 102 -62 18 c-34 9 -68 19 -75 22 -10 4 -13 -17 -13 -99z"/>
<path d="M763 737 l-73 -20 0 -103 0 -102 73 20 c39 11 73 21 75 23 1 1 1 47 0 102 l-3 99 -72 -19z"/>
<path d="M1107 1129 c-39 -22 -4 -79 35 -58 10 5 18 18 18 29 0 25 -30 41 -53 29z"/>
<path d="M1158 223 c-22 -5 -35 -50 -21 -72 13 -21 57 -26 72 -7 27 33 -9 89 -51 79z"/>
<path d="M207 206 c-14 -35 23 -67 50 -45 8 7 13 22 11 33 -4 26 -52 35 -61 12z"/>
</g>
</svg>