<svg xmlns="http://www.w3.org/2000/svg" version="1.0" preserveAspectRatio="xMidYMid meet" viewBox="19.11 12.13 415.89 390.77">

<g transform="translate(0.000000,427.000000) scale(0.100000,-0.100000)" fill="#000000" stroke="none">
<path d="M693 4136 c-62 -20 -98 -51 -127 -108 -49 -97 -28 -201 54 -270 167 -143 408 21 349 237 -15 56 -92 128 -152 143 -56 15 -71 14 -124 -2z"/>
<path d="M2206 4138 c-53 -15 -131 -91 -145 -143 -46 -170 90 -320 259 -284 104 22 177 124 168 233 -12 139 -146 232 -282 194z"/>
<path d="M3730 4141 c-107 -35 -163 -109 -164 -217 0 -141 127 -242 266 -213 199 43 236 317 55 411 -44 22 -120 31 -157 19z"/>
<path d="M1436 3715 c-69 -24 -125 -95 -140 -177 -10 -54 11 -121 52 -169 170 -198 479 8 361 242 -49 98 -166 142 -273 104z"/>
<path d="M2952 3717 c-153 -56 -192 -265 -69 -374 48 -42 97 -57 170 -50 79 7 131 43 170 117 25 48 28 63 24 113 -13 149 -157 243 -295 194z"/>
<path d="M665 3291 c-49 -22 -99 -77 -115 -126 -19 -58 -9 -146 23 -194 51 -77 156 -115 247 -91 86 23 160 122 160 214 0 156 -170 263 -315 197z"/>
<path d="M2172 3289 c-97 -48 -141 -153 -111 -264 16 -56 91 -129 149 -145 135 -36 268 55 278 190 5 71 -10 120 -51 167 -64 72 -178 95 -265 52z"/>
<path d="M3691 3293 c-57 -28 -99 -78 -117 -139 -25 -88 1 -174 71 -232 134 -110 327 -34 359 141 16 86 -47 197 -131 232 -47 20 -139 19 -182 -2z"/>
<path d="M1147 3110 c-59 -10 -74 -22 -82 -63 -14 -68 -29 -101 -71 -153 -25 -30 -44 -64 -44 -78 0 -23 2 -23 103 -28 82 -4 114 -10 159 -30 72 -33 127 -84 164 -150 l29 -53 3 -497 c3 -483 2 -499 -18 -537 -27 -54 -76 -89 -144 -103 l-56 -12 0 -301 0 -301 26 -52 c31 -63 74 -92 135 -92 59 0 102 28 136 88 l28 50 28 -49 c33 -60 77 -89 136 -89 61 0 104 29 135 92 l26 52 0 301 0 301 -56 12 c-68 14 -117 49 -144 103 -20 38 -21 54 -18 537 l3 497 29 53 c37 66 92 117 164 150 45 20 77 26 159 30 l103 5 0 27 c0 15 -9 35 -20 45 -38 34 -80 112 -91 168 -10 49 -15 58 -43 68 -37 15 -702 23 -779 9z"/>
<path d="M2669 3110 c-70 -12 -85 -24 -93 -70 -9 -55 -47 -128 -85 -164 -20 -19 -31 -40 -31 -57 l0 -26 103 -6 c58 -3 123 -12 150 -22 65 -23 149 -103 184 -173 l28 -57 3 -467 c2 -315 -1 -481 -8 -508 -12 -45 -59 -104 -99 -124 -14 -8 -45 -17 -69 -21 l-43 -7 3 -322 3 -323 28 -36 c67 -88 175 -90 241 -4 14 18 29 44 34 57 9 24 9 24 30 -15 34 -68 74 -98 134 -103 66 -5 110 22 145 87 23 43 23 49 23 351 l0 307 -42 7 c-59 10 -113 43 -145 90 l-28 41 0 500 0 500 25 50 c33 67 99 131 168 163 47 21 76 26 164 30 103 4 108 6 108 26 0 12 -16 40 -36 62 -45 48 -84 128 -84 172 0 28 -5 35 -37 50 -33 14 -84 17 -383 19 -190 1 -366 -2 -391 -7z"/>
<path d="M362 2685 c-59 -18 -106 -57 -139 -113 l-28 -47 -3 -470 c-2 -453 -2 -471 17 -502 44 -70 161 -67 204 5 l22 37 5 -620 c5 -597 6 -621 25 -654 32 -54 69 -76 128 -76 65 0 108 28 141 93 l23 46 21 -41 c55 -106 169 -135 243 -60 61 60 59 41 59 704 l0 608 20 -33 c39 -63 135 -79 187 -30 42 40 45 69 41 538 l-3 445 -29 53 c-34 61 -80 99 -144 118 -64 20 -727 19 -790 -1z"/>
<path d="M1881 2688 c-58 -16 -115 -63 -146 -120 l-30 -53 -3 -445 c-4 -469 -1 -498 41 -538 52 -49 148 -33 187 30 l20 33 0 -608 c0 -545 2 -613 16 -644 65 -136 216 -136 286 0 l21 41 23 -46 c33 -65 76 -93 141 -93 59 0 96 22 128 76 19 33 20 57 25 654 l5 620 22 -37 c43 -72 161 -75 203 -5 19 30 20 54 20 478 0 512 -1 521 -75 594 -72 72 -92 75 -499 74 -198 0 -366 -5 -385 -11z"/>
<path d="M3400 2691 c-77 -24 -152 -94 -170 -160 -6 -22 -10 -224 -10 -497 0 -447 1 -462 20 -487 25 -32 81 -51 124 -43 32 6 78 46 89 76 3 8 6 -256 6 -588 1 -521 3 -608 17 -640 32 -77 101 -120 170 -107 42 7 107 63 125 106 l12 31 16 -29 c27 -49 45 -69 81 -92 76 -46 168 -10 211 84 17 37 19 79 20 645 0 333 3 598 6 590 11 -30 57 -70 89 -76 43 -8 99 11 124 43 19 25 20 40 20 486 0 320 -4 471 -12 498 -15 51 -69 114 -122 142 -40 21 -50 22 -416 24 -206 1 -386 -2 -400 -6z"/>
</g>
</svg>