<svg xmlns="http://www.w3.org/2000/svg" version="1.0" preserveAspectRatio="xMidYMid meet" viewBox="16 12 492.5 456.96">

<g transform="translate(0.000000,478.000000) scale(0.100000,-0.100000)" fill="#000000" stroke="none">
<path d="M160 2735 l0 -1925 1150 0 c633 0 1150 3 1150 6 0 4 -14 51 -31 105 l-32 99 -1018 0 -1019 0 2 1718 3 1717 1718 3 1717 2 0 -825 0 -825 74 0 c40 0 88 -3 105 -6 l31 -6 0 931 0 931 -1925 0 -1925 0 0 -1925z"/>
<path d="M570 4379 c-60 -25 -100 -85 -100 -149 0 -52 21 -92 66 -126 47 -36 128 -40 171 -8 97 72 98 195 2 267 -31 23 -103 31 -139 16z"/>
<path d="M3474 4371 c-60 -27 -89 -73 -89 -141 0 -42 6 -63 24 -89 25 -35 90 -70 130 -71 42 0 109 39 133 78 48 78 17 181 -66 221 -52 26 -79 26 -132 2z"/>
<path d="M820 2740 l0 -1260 773 0 774 0 12 85 c6 47 14 92 17 100 5 13 -67 15 -572 15 l-579 0 945 945 945 945 3 -466 c2 -370 5 -464 15 -456 6 6 50 26 97 45 l85 35 3 636 2 636 -1260 0 -1260 0 0 -1260z m1155 110 c-517 -517 -943 -940 -947 -940 -5 0 -8 423 -8 940 l0 940 947 0 948 0 -940 -940z"/>
<path d="M3605 2601 c-192 -36 -329 -92 -489 -198 -276 -184 -468 -472 -536 -802 -25 -126 -28 -364 -4 -479 54 -273 180 -502 379 -690 182 -172 402 -283 651 -326 101 -18 307 -21 404 -6 473 73 861 398 1016 852 47 138 59 222 59 408 -1 158 -4 186 -29 285 -65 255 -178 449 -364 626 -173 164 -363 265 -602 320 -128 30 -356 34 -485 10z m418 -202 c483 -99 829 -492 863 -979 41 -605 -451 -1130 -1060 -1130 -452 0 -850 278 -1006 703 -47 128 -54 176 -55 357 0 192 13 265 76 416 71 171 227 363 377 463 139 94 314 161 467 181 81 10 263 4 338 -11z"/>
<path d="M4195 1971 c-35 -15 -57 -48 -220 -329 -93 -159 -171 -284 -187 -295 -37 -27 -109 -27 -146 0 -15 11 -56 67 -92 124 -80 127 -102 142 -207 137 -53 -3 -79 -9 -100 -24 -39 -28 -66 -86 -58 -123 8 -39 407 -667 446 -703 42 -40 116 -40 159 0 16 15 174 259 350 542 289 465 320 519 320 558 0 34 -6 49 -34 80 -34 37 -35 37 -123 39 -48 2 -97 -1 -108 -6z"/>
<path d="M570 1429 c-116 -47 -134 -207 -31 -276 53 -36 93 -39 148 -12 69 34 96 79 91 149 -5 67 -27 102 -84 130 -44 22 -84 25 -124 9z"/>
</g>
</svg>