<svg width="16" height="29" viewBox="0 0 16 29" fill="none" xmlns="http://www.w3.org/2000/svg">
<g opacity="0.65">
<path d="M15.45 8.2958V1.5756C15.45 1.25772 15.1922 1 14.8736 1H1.57644C1.2581 1 1 1.25772 1 1.5756V8.2958C1 11.0514 2.5568 13.4868 4.93512 14.6721C2.5568 15.8579 1 18.2936 1 21.0488V27.769C1 28.0869 1.2581 28.3446 1.57644 28.3446H14.8736C15.1919 28.3446 15.45 28.0869 15.45 27.769V21.0478C15.45 18.2925 13.8932 15.8568 11.5145 14.6711C13.8929 13.4868 15.45 11.0514 15.45 8.2958ZM9.70238 14.1123C9.44292 14.1738 9.25978 14.4055 9.25978 14.6721C9.25978 14.9384 9.44292 15.1698 9.70238 15.232C12.4079 15.877 14.2975 18.2689 14.2975 21.0488V27.1934H2.15288V21.0478C2.15288 18.2679 4.04239 15.8756 6.74796 15.231C7.00743 15.1691 7.19056 14.9374 7.19056 14.6711C7.19056 14.4045 7.00743 14.1731 6.74796 14.1112C4.04239 13.4666 2.15288 11.075 2.15288 8.29477V2.15085H14.2975V8.2958C14.2971 11.0757 12.4079 13.4676 9.70238 14.1123Z" fill="#CECECE" stroke="#CECECE"/>
<path d="M10.4048 21.6685L13.1264 25.293C13.2387 25.4424 13.2565 25.6423 13.173 25.8095C13.0895 25.9766 12.9183 26.0819 12.7311 26.0819H3.68503C3.49779 26.0819 3.32664 25.9763 3.24311 25.8095C3.15959 25.6427 3.17739 25.4424 3.28967 25.293L5.99421 21.6901C6.53505 21.0461 7.33604 20.6896 8.20823 20.6896C9.08007 20.6893 9.88106 21.0461 10.4048 21.6685Z" fill="#CECECE" stroke="#CECECE"/>
</g>
</svg>
