<svg xmlns="http://www.w3.org/2000/svg" version="1.0" preserveAspectRatio="xMidYMid meet" viewBox="14 12.38 495 453.63">

<g transform="translate(0.000000,472.000000) scale(0.100000,-0.100000)" fill="#000000" stroke="none">
<path d="M1331 4589 c-172 -29 -358 -160 -450 -317 -66 -112 -81 -174 -93 -372 -10 -185 -7 -1244 4 -1255 3 -3 23 2 45 13 21 10 73 31 115 47 l77 27 3 652 3 651 31 66 c53 111 136 188 252 232 l57 22 1692 3 1692 2 30 -27 c39 -35 61 -118 61 -225 l0 -78 -1457 -2 -1458 -3 -47 -28 c-156 -92 -155 -299 2 -387 l45 -25 1458 -3 1457 -2 0 -260 0 -260 -522 0 c-592 0 -605 -2 -740 -72 -121 -62 -212 -156 -271 -279 -53 -110 -67 -169 -67 -282 0 -237 139 -457 355 -562 126 -62 165 -65 735 -65 l510 0 0 -282 c0 -273 -1 -285 -24 -351 -28 -77 -89 -162 -144 -200 -20 -14 -64 -39 -97 -54 l-60 -28 -868 -5 -869 -5 -22 -55 c-13 -30 -37 -83 -55 -117 l-31 -63 918 0 c884 0 922 1 996 20 118 30 208 82 302 176 68 67 89 96 127 175 25 52 50 118 56 147 8 37 11 517 11 1562 0 1636 1 1599 -54 1709 -33 64 -86 118 -145 145 l-46 21 -1730 1 c-987 1 -1753 -2 -1784 -7z m3519 -2159 l0 -390 -488 0 c-309 0 -510 4 -548 11 -297 54 -423 414 -223 634 59 64 101 91 177 116 52 16 103 18 570 18 l512 1 0 -390z"/>
<path d="M3870 2651 c-111 -36 -170 -115 -170 -228 1 -205 231 -307 385 -171 58 52 79 108 72 194 -6 80 -39 134 -107 176 -48 30 -136 44 -180 29z"/>
<path d="M1206 2624 c-467 -84 -861 -428 -1005 -876 -44 -138 -61 -251 -61 -398 0 -362 141 -688 404 -938 343 -324 820 -433 1279 -291 331 102 628 362 776 680 82 176 110 300 118 509 8 219 -26 393 -113 579 -180 386 -540 663 -958 736 -110 19 -332 18 -440 -1z m383 -240 c385 -57 712 -332 834 -702 117 -353 46 -719 -196 -1011 -206 -250 -574 -399 -895 -363 -253 29 -467 129 -636 296 -166 164 -266 362 -301 591 -19 126 -19 184 0 310 58 384 309 691 676 828 166 62 333 79 518 51z"/>
<path d="M1965 1825 c-16 -9 -145 -130 -285 -270 -191 -191 -261 -255 -279 -255 -18 0 -66 42 -180 154 -86 85 -169 160 -185 165 -121 46 -244 -65 -206 -186 9 -30 69 -95 283 -305 177 -175 278 -268 292 -268 13 0 144 124 388 368 392 392 403 406 386 480 -22 99 -134 160 -214 117z"/>
</g>
</svg>