<svg xmlns="http://www.w3.org/2000/svg" version="1.0" preserveAspectRatio="xMidYMid meet" viewBox="2 0.1 65.74 88.9">

<g transform="translate(0.000000,94.000000) scale(0.100000,-0.100000)" fill="#000000" stroke="none">
<path d="M403 927 l-53 -10 0 -71 c0 -71 0 -72 -31 -83 -32 -12 -36 -35 -7 -41 30 -6 48 26 48 88 0 63 -2 61 68 75 l32 7 0 -46 c0 -31 -4 -46 -13 -46 -7 0 -22 -6 -33 -14 -15 -12 -16 -17 -7 -27 10 -10 18 -10 38 -1 24 11 25 15 25 97 0 47 -3 84 -7 84 -5 -1 -32 -6 -60 -12z m52 -16 c-12 -11 -103 -26 -93 -16 7 7 61 22 88 24 8 1 10 -2 5 -8z"/>
<path d="M610 607 c0 -84 -1 -87 -23 -87 -25 0 -47 -17 -47 -37 0 -16 52 -17 68 -1 7 7 12 40 12 80 0 49 4 68 13 68 19 0 37 -21 38 -44 1 -17 2 -18 6 -4 4 15 -22 58 -59 103 -4 5 -8 -30 -8 -78z"/>
<path d="M61 614 c-20 -25 -21 -39 -21 -275 0 -159 -4 -249 -10 -249 -5 0 -10 -9 -10 -20 0 -19 7 -20 225 -20 218 0 225 1 225 20 0 11 -4 20 -10 20 -6 0 -10 92 -10 255 0 242 -1 256 -20 275 -18 18 -33 20 -184 20 l-165 0 -20 -26z m319 -135 l0 -142 -20 25 c-28 36 -72 51 -131 46 -40 -4 -57 -12 -85 -39 l-34 -33 0 142 0 142 135 0 135 0 0 -141z m-57 -149 c36 -40 36 -87 1 -129 -50 -60 -140 -46 -170 26 -45 106 91 189 169 103z m-94 -208 c59 -5 103 10 131 46 l20 25 0 -52 0 -51 -135 0 -135 0 0 52 0 52 34 -33 c28 -27 45 -35 85 -39z"/>
<path d="M202 574 c-31 -21 -31 -87 0 -108 34 -24 73 -20 97 10 12 15 21 34 21 44 0 10 -9 29 -21 44 -24 30 -63 34 -97 10z m82 -36 c16 -26 -4 -53 -40 -53 -23 0 -30 5 -32 23 -2 13 -1 30 2 38 8 20 56 14 70 -8z"/>
<path d="M235 530 c-7 -12 2 -30 16 -30 5 0 9 9 9 20 0 21 -15 27 -25 10z"/>
<path d="M216 294 c-9 -8 -16 -22 -16 -29 0 -7 7 -21 16 -29 30 -30 74 -13 74 29 0 42 -44 59 -74 29z"/>
</g>
</svg>