<svg xmlns="http://www.w3.org/2000/svg" version="1.0" preserveAspectRatio="xMidYMid meet" viewBox="-0.08 0.24 634.78 381.76">

<g transform="translate(0.000000,393.000000) scale(0.100000,-0.100000)" fill="#000000" stroke="none">
<path d="M2135 3923 c-11 -2 -30 -18 -42 -36 -12 -18 -51 -61 -85 -97 -35 -36 -101 -108 -148 -160 -47 -52 -94 -104 -105 -115 -11 -12 -40 -45 -65 -74 -25 -30 -50 -59 -55 -65 -6 -6 -38 -45 -70 -86 -33 -41 -66 -81 -72 -88 -7 -7 -13 -16 -13 -20 0 -4 -12 -20 -26 -37 -14 -16 -35 -47 -47 -67 -11 -21 -24 -38 -29 -38 -4 0 -8 -7 -8 -15 0 -8 -41 -55 -90 -105 -77 -77 -127 -136 -226 -265 -27 -35 -83 -140 -99 -184 -16 -47 -12 -56 35 -81 41 -21 165 -104 168 -112 2 -4 10 -8 17 -8 8 0 20 -6 27 -13 7 -7 22 -19 33 -26 19 -12 18 -12 -5 -6 -68 16 -216 26 -310 20 -139 -9 -407 -80 -417 -111 -2 -5 36 -20 84 -33 49 -14 109 -33 136 -44 49 -21 63 -47 25 -47 -13 0 -29 -4 -37 -9 -10 -7 -19 -5 -26 6 -16 21 -69 4 -73 -23 -4 -30 -92 -62 -92 -34 0 6 -9 5 -22 -2 -28 -16 -38 -29 -31 -41 2 -4 -8 -19 -24 -33 -20 -18 -36 -23 -54 -20 -30 6 -65 -24 -56 -47 8 -20 -47 -70 -78 -72 -29 -1 -47 -22 -39 -46 8 -26 -34 -89 -60 -89 -28 0 -52 -36 -35 -56 14 -17 -14 -84 -36 -84 -8 0 -21 -13 -29 -28 -13 -25 -13 -31 -1 -43 19 -19 4 -76 -25 -96 -21 -15 -27 -57 -10 -68 16 -10 12 -92 -5 -99 -21 -8 -21 -76 0 -76 11 0 15 -12 15 -45 0 -25 -4 -45 -10 -45 -5 0 -10 -16 -10 -35 0 -28 4 -35 19 -35 26 0 48 -80 25 -96 -12 -10 -13 -16 -3 -38 7 -14 20 -26 29 -26 23 0 56 -76 40 -95 -16 -19 8 -55 36 -55 26 0 65 -59 58 -87 -6 -26 11 -47 40 -48 33 -2 76 -42 76 -71 0 -33 26 -54 58 -48 19 3 35 -2 55 -20 16 -14 26 -29 24 -33 -12 -19 13 -37 50 -36 49 2 91 -16 95 -41 4 -27 57 -44 70 -22 7 12 14 14 28 6 10 -5 28 -10 39 -10 14 0 21 -6 21 -19 0 -31 65 -45 77 -15 4 12 14 14 47 8 22 -3 45 -13 49 -20 10 -18 64 -18 74 0 4 7 27 17 51 21 35 6 42 4 42 -9 0 -10 9 -16 23 -16 27 0 41 10 49 31 7 19 65 31 88 19 25 -13 70 0 70 21 0 23 61 53 89 44 27 -8 61 11 61 35 0 24 55 64 77 56 25 -10 65 21 58 45 -9 27 49 86 69 70 18 -15 47 18 44 50 -3 32 37 89 62 89 25 0 44 35 31 57 -13 23 16 80 44 87 26 7 41 57 20 68 -18 10 3 85 25 91 25 6 36 58 16 73 -23 16 -20 71 4 91 23 20 27 73 6 73 -27 0 -35 80 -10 101 15 12 24 6 81 -56 35 -39 72 -82 81 -98 9 -15 24 -27 34 -27 16 0 18 10 18 71 0 69 -12 167 -30 239 -15 60 -40 144 -50 165 -5 11 -22 49 -39 85 -16 36 -48 94 -71 129 -23 35 -36 60 -29 55 43 -25 1242 -792 1359 -869 36 -23 80 -51 98 -61 17 -10 32 -22 32 -25 0 -4 10 -11 22 -15 25 -8 81 -45 86 -56 2 -5 10 -8 18 -8 8 0 14 -4 14 -8 0 -5 16 -16 35 -25 19 -9 35 -22 35 -28 0 -9 25 -10 93 -5 50 3 157 11 237 16 80 5 213 14 295 20 83 5 175 10 206 10 55 0 57 -1 73 -34 9 -19 13 -41 10 -50 -12 -31 5 -66 30 -66 30 0 68 -56 60 -87 -7 -25 22 -57 44 -48 20 8 72 -43 72 -70 0 -30 31 -56 58 -49 23 7 81 -33 75 -51 -7 -23 17 -39 54 -38 49 2 91 -16 95 -41 4 -27 57 -44 70 -22 7 12 14 14 28 6 10 -5 28 -10 39 -10 14 0 21 -6 21 -19 0 -31 63 -44 74 -15 5 13 15 14 49 9 23 -4 46 -14 50 -21 4 -8 21 -14 37 -14 16 0 33 6 37 14 4 7 27 17 51 21 35 6 42 4 42 -9 0 -10 9 -16 23 -16 27 0 41 10 49 31 7 18 76 33 92 20 19 -15 66 -1 66 20 0 24 55 53 86 45 31 -8 64 9 64 34 0 24 55 64 77 56 25 -10 65 21 58 44 -9 27 51 86 70 70 11 -9 17 -6 30 14 10 14 14 33 11 42 -8 20 41 84 65 84 24 0 43 35 30 57 -13 23 16 81 43 85 23 3 38 46 23 65 -12 17 2 93 17 93 10 0 13 49 13 205 0 155 -3 205 -12 205 -16 0 -29 78 -15 95 15 18 -5 65 -27 65 -23 0 -54 70 -41 93 11 21 -10 57 -34 57 -21 0 -64 59 -60 82 5 30 -17 60 -41 54 -27 -7 -78 44 -71 72 7 23 -36 55 -56 42 -18 -11 -81 36 -74 55 8 21 -44 51 -65 38 -22 -14 -91 20 -91 46 0 24 -50 36 -66 16 -7 -9 -15 -10 -25 -4 -8 5 -24 9 -37 9 -12 0 -26 8 -29 17 -9 23 -23 33 -50 33 -14 0 -23 -6 -23 -16 0 -13 -7 -15 -42 -9 -24 4 -47 14 -51 21 -10 18 -64 18 -74 0 -4 -7 -27 -17 -50 -21 -33 -5 -43 -3 -51 11 -12 22 -62 11 -69 -16 -3 -12 -14 -20 -27 -20 -11 0 -27 -4 -35 -9 -10 -7 -19 -5 -26 6 -16 21 -69 4 -73 -23 -4 -30 -92 -62 -92 -34 0 6 -9 5 -22 -2 -28 -16 -38 -29 -32 -40 3 -4 -7 -19 -23 -33 -20 -18 -36 -24 -54 -21 -30 6 -65 -24 -56 -47 8 -20 -47 -70 -78 -72 -30 -1 -47 -22 -39 -48 9 -27 -33 -87 -61 -87 -27 0 -40 -28 -30 -61 6 -19 4 -20 -32 -14 -21 3 -56 10 -78 15 -53 11 -140 27 -194 36 l-44 6 66 38 c36 21 76 41 89 45 12 4 28 11 34 16 11 9 63 37 260 139 149 78 145 75 185 137 19 29 39 59 45 66 14 17 173 239 207 290 15 23 34 50 42 59 7 9 31 46 52 82 20 36 41 66 45 66 4 0 8 6 8 13 0 7 7 22 16 33 15 19 16 19 9 -1 -4 -11 -11 -32 -15 -47 l-8 -26 66 20 c37 11 83 24 102 29 19 6 49 14 65 19 17 5 55 16 85 24 30 8 87 24 125 36 39 12 93 28 120 35 123 33 155 51 155 86 0 10 4 20 9 23 5 3 11 16 14 28 3 13 21 68 41 122 20 55 36 102 36 104 0 5 -40 -1 -125 -18 -27 -5 -88 -17 -135 -25 -47 -8 -105 -19 -130 -24 -25 -5 -70 -14 -100 -20 -30 -5 -77 -15 -105 -21 -27 -6 -90 -17 -140 -25 -84 -14 -145 -25 -240 -45 -22 -5 -71 -14 -110 -20 -38 -7 -105 -28 -150 -47 -44 -19 -107 -46 -140 -60 -33 -14 -79 -34 -102 -44 -23 -11 -46 -19 -52 -19 -5 0 -26 -9 -48 -19 -46 -23 -85 -40 -179 -76 -67 -25 -73 -26 -105 -12 -19 8 -50 20 -69 27 -19 7 -54 21 -76 31 -23 10 -63 27 -90 37 -32 13 -50 26 -52 39 -2 10 -13 25 -25 33 -21 13 -222 136 -422 258 -49 30 -141 85 -203 123 l-114 69 -81 -26 c-101 -32 -111 -36 -165 -63 -24 -11 -48 -21 -54 -21 -5 0 -40 -15 -77 -34 -37 -18 -77 -37 -90 -41 -13 -4 -49 -22 -80 -40 -55 -32 -133 -75 -221 -123 -25 -13 -50 -28 -57 -34 -12 -10 -26 -5 -53 18 -8 7 -30 26 -49 42 l-34 28 37 22 c40 24 95 28 144 11 72 -25 143 64 98 123 -20 26 -61 38 -135 38 -57 0 -78 -5 -126 -31 -32 -17 -67 -39 -78 -50 -26 -24 -28 -24 -59 1 -37 29 -52 72 -40 112 6 18 13 56 17 83 3 28 11 68 16 90 6 22 15 56 20 75 4 19 16 69 25 110 9 41 35 145 57 230 50 194 51 203 38 229 -12 21 -17 22 -56 14z m-108 -300 c-3 -16 -15 -64 -27 -108 -33 -123 -49 -193 -81 -355 -14 -73 -39 -272 -39 -312 0 -51 16 -48 24 5 3 23 9 59 13 80 l8 38 37 -44 c37 -44 38 -62 5 -68 -10 -2 -26 -16 -35 -32 -15 -25 -15 -30 -2 -55 13 -22 24 -28 61 -30 38 -2 52 2 77 23 l32 26 24 -23 c13 -13 35 -32 50 -42 14 -10 26 -22 26 -25 0 -4 -42 -43 -92 -86 -51 -44 -98 -84 -104 -90 -6 -5 -33 -28 -60 -50 -26 -22 -55 -47 -64 -55 -8 -8 -42 -37 -75 -65 -33 -27 -69 -59 -81 -70 -12 -11 -39 -34 -60 -52 -22 -18 -52 -44 -69 -58 -32 -26 -41 -30 -47 -17 -1 4 -25 21 -53 37 -27 16 -56 35 -63 42 -7 7 -20 17 -29 22 -14 8 -11 22 30 122 65 159 97 289 97 391 0 76 -3 87 -34 139 l-33 56 36 54 c63 93 172 235 236 305 6 6 21 24 35 40 112 129 252 283 259 284 2 0 1 -12 -2 -27z m1126 -595 c15 -7 27 -16 27 -20 0 -5 7 -8 15 -8 8 0 15 -4 15 -9 0 -5 11 -12 25 -15 14 -4 25 -11 25 -16 0 -6 4 -10 10 -10 5 0 41 -20 79 -45 38 -25 74 -45 80 -45 6 0 11 -4 11 -10 0 -5 5 -10 10 -10 6 0 41 -19 78 -42 95 -61 105 -67 125 -74 9 -3 17 -10 17 -15 0 -5 4 -9 9 -9 6 0 30 -12 56 -27 50 -30 51 -39 26 -123 -15 -54 -28 -97 -53 -190 -13 -47 -27 -90 -31 -96 -4 -7 -35 -27 -69 -44 -35 -18 -119 -70 -188 -115 -69 -45 -135 -87 -147 -93 -12 -7 -27 -18 -35 -25 -7 -7 -114 -77 -237 -156 -124 -79 -231 -150 -239 -157 -7 -8 -18 -14 -23 -14 -6 0 -17 -7 -25 -15 -9 -8 -20 -15 -26 -15 -5 0 23 26 63 57 41 31 90 70 110 87 20 17 60 49 89 71 29 22 60 47 69 55 9 8 35 28 56 44 22 17 42 33 45 36 3 4 25 21 50 39 49 36 51 36 -75 4 -48 -12 -110 -17 -200 -18 -111 0 -138 3 -187 22 -58 23 -131 65 -156 90 -7 7 -17 13 -21 13 -12 0 -170 157 -207 205 l-31 40 -44 -24 c-24 -14 -145 -90 -269 -168 -222 -142 -226 -143 -95 -25 69 61 183 161 220 193 22 19 47 41 55 50 8 9 44 40 80 70 36 30 79 67 95 84 47 47 81 72 122 94 21 11 65 38 98 60 33 23 65 41 72 41 6 0 13 4 15 8 4 10 235 126 268 135 13 3 22 9 19 11 -7 7 -85 -22 -214 -79 -16 -8 -82 -40 -145 -71 -63 -32 -125 -62 -137 -68 -13 -6 -23 -14 -23 -18 0 -5 -6 -8 -13 -8 -8 0 -23 -8 -35 -18 -11 -10 -33 -27 -48 -38 -33 -24 -83 -64 -108 -86 -11 -10 -23 -18 -27 -18 -4 0 -24 -16 -45 -35 -22 -19 -42 -35 -45 -35 -3 0 -15 -8 -27 -18 -11 -10 -33 -27 -47 -38 -15 -10 -32 -23 -39 -29 -6 -5 -20 -17 -30 -25 -18 -14 -19 -14 -5 8 8 12 17 22 20 22 6 0 51 37 134 110 28 25 72 63 98 85 26 22 62 53 80 68 42 38 101 79 162 113 28 15 68 38 90 50 82 47 386 194 400 194 4 0 21 6 38 14 135 59 150 62 190 44z m2753 -87 c-3 -5 -18 -11 -33 -14 -16 -3 -46 -11 -68 -17 -22 -6 -69 -17 -105 -24 -36 -8 -101 -21 -145 -30 -154 -31 -181 -36 -265 -47 -143 -18 -187 -21 -170 -10 8 5 38 14 65 20 28 5 68 14 90 20 80 18 142 31 225 46 143 26 191 34 285 46 49 6 92 13 94 15 8 8 32 4 27 -5z m-4476 -92 c11 -28 24 -72 27 -99 10 -83 -29 -241 -82 -337 -58 -103 -94 -136 -57 -52 90 204 122 430 74 528 -19 39 -20 42 -3 27 11 -10 29 -40 41 -67z m3466 -118 c-7 -11 -104 -58 -231 -111 -55 -23 -109 -45 -120 -50 -80 -33 -183 -70 -195 -70 -24 0 74 51 210 109 163 69 156 66 225 91 33 12 69 26 80 30 27 12 37 12 31 1z m152 -34 c5 -23 -10 -21 -26 4 -12 18 -11 20 5 17 10 -2 19 -11 21 -21z m60 -169 c-12 -18 -28 -40 -35 -48 -26 -31 -69 -90 -103 -139 -46 -66 -108 -153 -118 -166 -4 -5 -34 -48 -67 -95 -69 -99 -71 -101 -110 -122 -16 -8 -66 -34 -110 -58 -174 -92 -290 -151 -280 -142 6 6 62 44 125 86 63 41 120 79 125 84 6 4 21 15 35 25 46 32 11 17 -127 -55 -76 -39 -205 -105 -287 -147 l-148 -75 -32 36 c-17 20 -67 82 -111 138 -44 56 -92 116 -107 133 -14 18 -35 43 -45 56 -15 19 -23 22 -39 13 -10 -5 -48 -23 -84 -40 -127 -59 -247 -115 -350 -164 -58 -28 -139 -66 -180 -85 -41 -19 -83 -39 -93 -44 -11 -6 -21 -8 -24 -5 -3 2 12 13 34 24 21 10 58 30 83 44 25 14 81 44 125 68 44 24 100 54 125 68 25 14 73 40 108 58 67 36 182 98 221 119 23 13 34 12 76 -5 11 -5 54 -21 95 -35 41 -15 98 -36 125 -46 28 -10 73 -26 100 -35 l51 -17 94 56 c52 32 127 77 165 102 39 25 77 48 85 52 8 4 21 13 28 20 7 7 20 13 28 13 8 0 14 4 14 9 0 5 8 11 18 15 9 3 46 24 82 47 61 40 272 170 368 228 24 14 56 34 70 43 15 9 42 17 60 17 l33 1 -23 -32z m-845 -138 c-3 -12 -8 -19 -11 -16 -5 6 5 36 12 36 2 0 2 -9 -1 -20z m-21 -99 c-5 -33 -13 -46 -30 -52 -13 -5 -21 -5 -20 -1 11 22 28 61 40 90 16 40 21 23 10 -37z m-2322 11 c0 -4 -10 -13 -22 -21 -23 -14 -23 -14 -4 8 20 22 26 25 26 13z m2020 -37 c120 -35 139 -46 122 -72 -8 -12 -67 -3 -117 17 -11 4 -45 15 -75 24 -73 22 -83 29 -76 54 6 19 9 19 54 5 26 -8 67 -21 92 -28z m-2763 -65 c76 -11 128 -23 168 -40 11 -5 42 -16 69 -26 68 -25 200 -115 270 -185 32 -32 55 -59 50 -59 -4 0 -21 15 -38 33 -85 90 -259 182 -421 222 -164 40 -449 45 -605 10 -21 -5 -22 -4 -5 4 97 44 339 64 512 41z m22 -156 c224 -39 421 -165 552 -354 53 -76 114 -200 124 -250 3 -19 11 -47 17 -62 5 -14 8 -35 6 -45 -3 -12 -8 -5 -17 22 -21 67 -82 186 -134 265 -46 69 -207 240 -226 240 -4 0 -18 9 -31 20 -13 11 -29 20 -36 20 -7 0 -14 4 -16 8 -3 9 -95 53 -143 69 -101 35 -179 51 -290 59 -72 6 -92 10 -70 15 54 12 166 9 264 -7z m795 -113 c107 -58 151 -84 154 -93 2 -4 10 -8 18 -8 8 0 14 -4 14 -10 0 -5 5 -10 12 -10 10 0 135 -75 148 -90 3 -3 32 -23 65 -45 32 -22 68 -47 78 -55 44 -35 60 -50 53 -50 -18 0 -439 248 -456 269 -3 4 -30 23 -60 44 -70 48 -117 87 -106 87 5 0 41 -17 80 -39z m-487 -85 c28 -24 28 -25 -2 -60 -14 -16 -25 -32 -25 -35 0 -3 -12 -19 -28 -36 -15 -16 -40 -48 -57 -70 -16 -22 -33 -44 -37 -50 -8 -10 -100 -129 -115 -150 -5 -5 -19 -24 -33 -41 -14 -17 -34 -44 -45 -59 -11 -16 -25 -33 -30 -39 -6 -6 -24 -29 -40 -51 -17 -22 -32 -42 -35 -45 -3 -3 -20 -25 -38 -49 -18 -25 -32 -42 -32 -38 0 6 22 39 77 115 9 13 25 33 35 44 10 12 18 24 18 28 0 3 8 15 18 26 10 11 27 33 38 49 27 44 147 208 161 223 7 7 13 16 13 20 0 9 -51 -47 -105 -114 -21 -27 -42 -51 -45 -54 -4 -3 -24 -27 -46 -55 -21 -27 -51 -63 -66 -80 -24 -27 -56 -65 -75 -90 -52 -66 -90 -111 -98 -117 -23 -17 -35 23 -12 46 6 7 21 25 32 40 11 15 27 36 36 46 8 10 24 31 35 46 10 14 30 41 44 58 42 52 48 59 94 121 52 69 53 69 86 111 14 17 34 44 45 59 11 16 25 33 30 39 6 6 24 29 40 51 17 22 32 42 35 45 4 3 19 23 35 45 46 61 46 62 92 21z m2218 7 c17 -26 93 -120 123 -151 6 -7 12 -16 12 -20 0 -4 13 -20 28 -37 15 -16 40 -46 55 -66 l27 -36 0 -244 -1 -244 -27 -22 c-15 -12 -56 -45 -92 -75 -36 -29 -69 -56 -75 -61 -5 -4 -23 -19 -40 -33 -69 -58 -69 -58 -122 -28 -26 16 -50 31 -53 34 -12 13 -137 90 -147 90 -6 0 -13 4 -15 8 -3 8 -98 71 -311 206 -59 38 -106 71 -103 73 3 3 18 -4 33 -15 16 -11 49 -31 73 -44 61 -33 94 -52 100 -58 3 -3 16 -11 30 -18 14 -6 52 -28 85 -47 33 -20 68 -39 78 -42 9 -3 17 -9 17 -14 0 -5 5 -9 10 -9 6 0 29 -12 51 -26 23 -14 43 -23 47 -20 3 3 1 6 -4 6 -6 0 -19 8 -30 18 -10 9 -46 35 -79 57 -33 21 -62 42 -65 45 -3 4 -25 20 -50 35 -25 15 -47 31 -50 34 -4 5 -80 57 -189 130 -20 13 -38 27 -41 30 -4 5 -80 57 -189 130 -58 39 -61 54 -15 65 14 4 47 16 73 28 92 41 109 48 116 48 3 0 34 13 68 29 94 43 134 61 141 61 3 0 35 14 71 30 36 17 68 30 70 30 3 0 49 18 103 41 53 22 106 44 117 48 11 5 40 18 65 29 44 20 69 30 81 31 4 1 15 -11 24 -26z m-2608 -84 c73 -18 95 -30 82 -45 -8 -10 -16 -11 -30 -4 -53 29 -316 28 -394 -1 -49 -19 -138 -63 -153 -76 -7 -7 -17 -13 -22 -13 -4 0 -43 -35 -87 -78 -79 -79 -132 -166 -167 -272 -22 -70 -29 -195 -16 -288 14 -102 26 -137 89 -247 54 -95 198 -228 271 -250 14 -4 30 -11 35 -14 10 -8 59 -23 130 -41 52 -13 188 -13 240 0 71 18 120 33 130 41 6 3 21 10 35 14 42 13 130 76 186 134 30 30 54 58 54 61 0 4 11 20 25 36 57 65 115 258 115 378 0 122 -57 280 -140 384 -24 31 -39 60 -36 68 8 20 16 14 64 -49 90 -116 142 -267 142 -412 0 -83 -23 -200 -51 -262 -10 -24 -19 -45 -19 -48 0 -20 -83 -131 -144 -192 -55 -57 -91 -83 -161 -118 -108 -54 -157 -66 -295 -72 -133 -6 -223 13 -342 75 -145 74 -273 217 -329 367 -54 145 -54 345 0 490 39 105 129 225 227 305 45 37 157 91 235 114 95 28 242 35 326 15z m4433 -3 c88 -22 189 -64 210 -87 3 -3 21 -15 40 -26 71 -44 185 -179 226 -269 53 -115 58 -143 59 -284 0 -131 -7 -178 -41 -255 -7 -17 -18 -43 -23 -58 -35 -91 -200 -264 -297 -311 -88 -42 -93 -44 -167 -61 -94 -21 -237 -19 -328 3 -157 40 -308 144 -399 277 -35 51 -36 55 -12 55 10 0 26 -15 37 -32 45 -78 221 -228 266 -228 10 0 20 -4 23 -9 3 -5 16 -11 28 -14 13 -3 50 -12 83 -21 199 -51 461 27 615 183 98 100 149 201 180 359 28 143 -13 334 -100 462 -88 129 -184 202 -355 268 -105 41 -403 27 -451 -21 -4 -4 -15 -7 -25 -7 -9 0 -19 -3 -21 -7 -1 -5 -21 -17 -43 -28 -40 -21 -188 -159 -196 -184 -4 -10 -10 -11 -22 -5 -14 8 -14 12 6 37 66 84 141 149 227 195 49 26 75 36 185 71 45 14 233 12 295 -3z m-3840 -157 c0 -3 9 -17 20 -29 37 -43 78 -123 111 -220 32 -92 33 -101 33 -260 1 -98 -3 -172 -9 -183 -8 -12 -11 28 -11 145 0 120 -5 177 -17 218 -9 30 -21 73 -27 95 -21 75 -99 213 -177 315 -28 36 -24 33 21 -15 31 -32 56 -62 56 -66z m4411 15 c123 -144 205 -418 180 -600 -12 -82 -26 -144 -42 -179 -7 -16 -8 -13 -4 10 43 234 23 434 -59 605 -11 25 -24 47 -28 48 -5 2 -8 9 -8 16 0 11 -94 154 -109 166 -3 3 -12 14 -20 25 -15 22 47 -42 90 -91z m-5071 91 c0 -3 -4 -13 -10 -23 -23 -43 -42 -93 -37 -99 4 -3 11 5 16 18 5 13 10 18 10 11 1 -7 -6 -29 -14 -49 -8 -20 -14 -38 -11 -40 3 -3 14 20 44 96 3 9 1 12 -6 7 -7 -4 -12 -3 -12 2 0 15 32 74 37 68 2 -2 -1 -14 -7 -26 -6 -12 -9 -24 -6 -27 3 -4 11 8 17 25 6 18 15 32 21 32 11 0 3 -31 -23 -82 -11 -21 -19 -41 -19 -45 1 -4 12 14 26 40 33 64 40 55 12 -14 -37 -92 -77 -134 -91 -96 -7 18 -27 -40 -21 -60 4 -13 3 -14 -3 -5 -7 8 -16 -3 -32 -40 -13 -29 -26 -48 -28 -41 -2 7 1 22 7 33 6 12 10 24 7 26 -2 3 -14 -18 -26 -45 -21 -50 -21 -50 -54 -40 -17 6 -45 17 -62 24 -36 16 -42 12 -28 -18 20 -40 44 -109 40 -113 -2 -3 -15 20 -28 50 -12 30 -26 53 -30 50 -4 -2 -11 1 -15 7 -5 8 -3 9 6 4 10 -6 12 -4 7 9 -4 10 -7 22 -7 27 0 5 -6 9 -14 9 -8 0 -17 7 -20 16 -4 9 -9 15 -11 12 -10 -10 39 -113 62 -133 23 -19 23 -22 10 -47 l-14 -28 -11 23 c-9 19 -10 17 -5 -13 4 -33 2 -36 -39 -55 -24 -11 -52 -22 -63 -26 -18 -6 -17 -7 8 -18 23 -9 33 -8 50 4 24 17 37 19 37 7 0 -5 -10 -13 -22 -19 -20 -9 -17 -12 38 -39 72 -35 68 -33 62 -39 -2 -3 -22 4 -44 15 -57 30 -151 70 -163 70 -5 0 -26 10 -46 21 -20 12 -38 19 -42 16 -3 -3 12 -13 33 -22 28 -11 35 -18 25 -24 -9 -6 4 -16 45 -35 40 -19 60 -23 65 -15 8 13 49 3 49 -12 0 -6 -10 -8 -22 -4 -13 3 -5 -4 16 -16 21 -11 34 -24 29 -27 -6 -4 -14 -22 -18 -41 -4 -19 -16 -50 -26 -68 -10 -18 -17 -33 -15 -33 16 0 61 27 62 38 3 38 5 43 14 37 6 -4 8 -16 4 -27 -5 -18 -3 -20 15 -14 11 3 31 8 44 11 19 5 19 4 -3 -6 -47 -23 -125 -56 -149 -64 -16 -5 -20 -10 -11 -15 9 -6 8 -10 -6 -19 -25 -14 -17 -13 26 2 35 12 40 16 40 37 0 6 5 10 11 10 8 0 8 -5 -1 -15 -17 -21 -1 -19 56 5 26 11 52 19 58 16 6 -2 2 -7 -9 -11 -11 -4 -34 -13 -52 -21 -17 -8 -36 -14 -42 -14 -12 0 -46 -68 -83 -169 -13 -36 -29 -66 -35 -68 -12 -4 37 138 68 200 11 21 5 21 -46 -4 -22 -11 -30 -17 -17 -15 25 5 26 3 13 -22 -17 -31 -44 -95 -50 -119 -6 -21 -8 -20 -53 23 -27 25 -48 50 -48 55 0 6 15 17 33 25 l32 15 -35 -6 c-36 -5 -29 0 34 24 16 6 27 14 24 17 -3 2 -27 -5 -53 -16 -27 -12 -56 -19 -64 -17 -12 3 -9 7 9 14 89 38 101 49 28 26 -16 -5 -19 -3 -13 7 6 10 4 12 -8 7 -10 -4 -23 -10 -31 -13 -9 -4 -22 12 -39 48 -46 97 -45 119 9 132 14 4 62 25 107 46 45 22 91 40 102 40 14 1 9 5 -15 16 -22 10 -36 11 -38 4 -2 -5 -8 -10 -13 -10 -6 0 -31 -10 -57 -21 -150 -68 -142 -65 -142 -51 0 5 26 20 57 33 32 13 78 33 103 45 l45 21 -39 18 c-22 10 -34 21 -28 23 14 4 6 22 -9 22 -6 0 -7 -4 -4 -10 3 -5 -2 -10 -12 -11 -14 0 -14 -2 5 -9 26 -11 29 -28 5 -36 -19 -6 -75 -30 -106 -46 -10 -5 -22 -6 -27 -3 -13 8 -13 122 0 130 5 3 28 -3 51 -15 60 -28 61 -17 2 14 -58 30 -52 33 12 6 26 -11 50 -20 53 -20 14 0 -54 37 -80 43 -16 4 -28 12 -28 17 0 14 2 13 66 -15 32 -14 59 -23 62 -21 2 3 -13 12 -33 21 -21 8 -36 18 -32 21 3 3 15 0 27 -6 12 -6 24 -9 27 -7 3 3 -21 17 -52 32 -53 24 -57 28 -51 53 12 48 58 133 70 129 91 -38 250 -97 253 -94 2 2 1 10 -2 18 -5 15 -16 20 -120 59 -33 13 -64 27 -69 32 -6 4 -18 8 -28 8 -10 0 -18 5 -18 11 0 12 19 7 104 -27 33 -13 64 -24 69 -24 6 0 19 -7 29 -17 10 -9 18 -11 18 -5 0 6 -4 14 -10 17 -5 3 -10 15 -10 26 0 10 -3 18 -7 17 -16 -3 -83 15 -89 23 -3 5 -13 9 -23 9 -9 0 -26 6 -37 14 -18 14 -17 16 26 60 24 25 47 46 51 46 3 0 11 -10 18 -22 11 -22 11 -21 7 7 -4 26 -2 24 15 -13 27 -58 35 -48 9 12 -13 32 -16 46 -8 44 7 -3 21 -28 32 -57 10 -28 21 -49 24 -47 2 3 -3 23 -12 46 -20 50 -20 60 -1 34 13 -17 14 -17 15 -2 0 9 -4 20 -10 23 -20 13 -9 33 28 50 123 55 114 56 151 -20 17 -36 31 -69 31 -73 0 -4 13 -34 29 -67 l29 -60 11 29 c8 20 8 32 1 41 -18 22 -59 107 -65 137 -4 15 -11 30 -16 33 -12 8 -12 35 1 35 6 0 10 -5 10 -11 0 -6 14 -41 31 -77 17 -37 35 -78 40 -91 11 -26 19 -21 38 23 10 25 10 28 -2 18 -12 -10 -17 -6 -27 20 -6 18 -21 49 -31 69 -29 56 -27 59 51 59 39 0 70 -2 70 -5z m4420 -2 c0 -5 -7 -21 -15 -37 -9 -16 -13 -31 -10 -34 2 -3 12 12 20 33 9 20 19 35 21 32 3 -3 0 -15 -6 -27 -6 -12 -9 -24 -6 -27 3 -4 11 8 17 25 6 18 15 32 20 32 13 0 12 -5 -16 -66 -32 -70 -31 -83 1 -21 32 61 41 56 15 -7 -31 -70 -15 -55 20 19 28 61 32 65 56 59 15 -4 38 -13 52 -20 14 -8 31 -14 36 -14 6 0 18 -7 28 -14 19 -14 16 -24 -34 -133 -10 -24 -19 -49 -19 -57 0 -8 -4 -17 -9 -20 -4 -3 -11 -19 -14 -34 -4 -19 -14 -31 -29 -35 -12 -4 -20 -9 -17 -12 3 -3 22 1 41 9 31 14 38 24 67 103 46 122 55 143 63 143 11 0 10 -17 -1 -38 -6 -9 -22 -51 -38 -92 -15 -41 -32 -78 -38 -82 -6 -5 -3 -8 7 -8 9 0 20 5 23 10 3 6 15 10 25 10 10 0 22 5 26 12 5 8 2 9 -10 5 -20 -8 -16 11 15 77 11 22 19 45 19 52 0 30 24 23 67 -21 42 -44 44 -48 26 -60 -10 -7 -29 -16 -43 -20 l-25 -8 24 -9 c15 -5 36 -5 54 2 37 12 34 13 41 -6 4 -11 -7 -21 -40 -35 -25 -12 -44 -23 -41 -25 2 -3 26 5 52 16 55 24 51 27 91 -67 22 -51 25 -65 14 -78 -7 -8 -18 -15 -25 -15 -7 0 -30 -9 -52 -19 -33 -18 -57 -28 -138 -61 -11 -5 -27 -11 -35 -13 -10 -3 -7 -8 12 -15 24 -10 39 -6 115 29 49 22 96 44 105 50 22 12 38 12 38 0 0 -5 -10 -13 -22 -17 -13 -4 -56 -22 -96 -40 -41 -19 -79 -34 -85 -34 -7 0 3 -9 21 -20 18 -11 38 -20 45 -20 8 0 8 3 -2 9 -11 7 -11 10 0 17 16 10 119 54 134 57 10 2 20 -96 11 -119 -4 -10 -14 -9 -50 5 -25 9 -48 20 -52 24 -4 4 -12 7 -18 7 -6 0 -2 -8 9 -17 19 -15 19 -15 -10 -9 l-30 6 25 -15 c29 -17 44 -19 35 -5 -3 6 1 10 9 10 19 0 30 -17 14 -23 -7 -2 4 -11 25 -20 20 -9 37 -21 37 -27 0 -6 -3 -9 -7 -7 -35 20 -167 77 -170 73 -2 -2 26 -18 62 -35 37 -18 65 -35 62 -38 -3 -2 -15 1 -27 7 -12 6 -24 9 -27 6 -3 -3 7 -10 23 -16 45 -16 74 -33 74 -42 0 -17 -63 -148 -71 -148 -5 0 -17 4 -27 9 -38 20 -91 41 -104 41 -8 0 -18 4 -24 8 -5 5 -29 15 -53 22 -37 12 -46 20 -63 59 -10 25 -17 55 -13 68 5 22 72 63 104 63 9 0 -3 9 -25 19 -57 26 -67 46 -12 25 24 -10 49 -22 56 -27 8 -6 17 -5 26 2 11 10 20 10 36 1 12 -6 24 -10 26 -7 4 3 -62 35 -163 78 -18 8 -33 17 -33 21 0 12 14 10 27 -3 6 -6 17 -9 25 -7 7 3 -3 12 -25 21 -20 9 -40 24 -44 33 -7 19 13 81 35 107 19 21 6 22 -43 1 -56 -23 -53 -10 4 17 28 13 51 29 51 35 0 11 24 22 109 55 13 5 22 12 19 14 -5 5 -33 -5 -113 -40 -16 -7 -38 -15 -48 -19 -9 -3 -16 -11 -15 -17 2 -6 -3 -14 -11 -17 -8 -2 -11 0 -8 5 4 6 -11 10 -37 9 -24 -1 -39 -4 -33 -8 24 -16 -4 -7 -47 13 -32 16 -46 30 -53 53 -10 35 -38 43 -37 10 0 -11 -6 -21 -13 -21 -7 0 -13 7 -13 16 0 9 -4 23 -10 31 -7 11 -11 9 -19 -12 -13 -35 -35 -49 -27 -17 6 20 4 20 -10 -5 -15 -27 -18 -28 -67 -22 -69 9 -119 26 -135 45 -12 14 -13 14 -8 -3 5 -14 2 -17 -11 -12 -9 4 -37 11 -62 17 -25 5 -57 14 -71 21 -61 27 -70 32 -70 38 0 4 21 27 47 50 l46 43 10 -24 c5 -13 11 -19 14 -12 2 7 -1 21 -7 32 -6 12 -8 21 -5 21 3 0 15 -21 26 -46 12 -25 23 -44 25 -41 3 2 -5 25 -16 51 -13 31 -16 46 -8 44 7 -3 22 -29 34 -59 l22 -54 -4 63 c-2 35 -6 67 -9 71 -5 9 82 54 126 64 25 6 29 2 53 -49 15 -30 40 -89 58 -130 17 -41 33 -72 36 -69 3 3 18 35 33 72 16 37 23 61 17 55 -9 -9 -20 5 -45 59 -18 39 -33 75 -33 80 0 5 32 9 70 9 39 0 70 -3 70 -7z m-2545 -13 c-3 -5 -11 -10 -16 -10 -6 0 -7 5 -4 10 3 6 11 10 16 10 6 0 7 -4 4 -10z m2388 -30 c9 -22 17 -44 17 -49 0 -6 9 -25 19 -43 24 -41 35 -78 24 -78 -7 0 -93 186 -93 203 0 20 17 2 33 -33z m230 25 c-3 -9 -8 -14 -10 -11 -3 3 -2 9 2 15 9 16 15 13 8 -4z m-4379 -4 c3 -4 -4 -19 -15 -32 -12 -13 -29 -35 -40 -49 l-19 -25 16 40 c30 74 44 90 58 66z m4943 -127 c33 -42 89 -158 115 -239 31 -95 33 -337 4 -428 -10 -32 -20 -56 -23 -53 -3 2 1 22 8 43 19 53 19 323 0 383 -19 64 -32 102 -41 125 -42 100 -78 161 -150 255 l-42 55 54 -56 c29 -31 63 -69 75 -85z m-4446 33 c49 -65 106 -168 126 -227 25 -72 43 -188 43 -270 0 -85 -22 -220 -41 -249 -8 -12 -9 -10 -4 9 38 153 29 334 -23 506 -13 42 -94 204 -101 204 -4 0 -15 16 -25 35 -11 19 -22 35 -27 35 -4 0 -9 7 -12 14 -12 31 19 3 64 -57z m4335 21 c73 -82 132 -181 166 -281 27 -77 32 -110 36 -207 2 -83 -1 -131 -12 -174 -18 -66 -32 -89 -22 -36 23 133 12 314 -26 415 -44 117 -136 269 -191 318 -11 9 -15 17 -9 17 5 0 31 -24 58 -52z m-4407 -17 c126 -148 190 -314 191 -492 0 -82 -30 -254 -38 -216 -2 9 1 40 7 68 22 101 7 252 -38 387 -24 69 -83 185 -111 215 -11 11 -20 24 -20 28 0 5 -11 20 -25 34 -14 14 -22 25 -17 25 5 0 28 -22 51 -49z m3501 -24 c0 -5 -4 -5 -10 -2 -5 3 -10 14 -10 23 0 15 2 15 10 2 5 -8 10 -19 10 -23z m-3627 -81 c4 -9 -6 -20 -28 -30 -46 -22 -49 -20 -28 14 18 32 47 40 56 16z m-8 -46 c-3 -5 -13 -10 -22 -10 -9 0 -14 -3 -10 -6 3 -4 20 -2 36 4 19 7 31 7 31 1 0 -5 -6 -9 -14 -9 -8 0 -18 -5 -22 -11 -5 -9 2 -10 22 -6 22 5 18 1 -14 -14 -58 -27 -48 -35 12 -9 26 11 49 20 50 20 7 0 55 -116 58 -139 2 -14 -3 -27 -12 -31 -17 -9 -124 -57 -157 -71 -13 -5 -33 -13 -45 -18 -13 -5 -30 -12 -38 -14 -10 -3 -7 -8 12 -15 24 -10 39 -6 115 29 49 22 96 44 105 50 22 12 38 12 38 0 0 -5 -10 -13 -22 -17 -13 -4 -56 -22 -96 -40 -41 -19 -79 -34 -85 -34 -7 0 3 -9 21 -20 18 -11 38 -20 45 -20 8 0 8 3 -2 9 -11 7 -11 10 0 17 16 10 119 54 134 57 13 3 19 -113 7 -125 -6 -6 -17 -6 -28 1 -11 6 -37 17 -59 26 -37 14 -38 14 -20 -1 19 -16 19 -16 -10 -10 l-30 6 25 -15 c29 -17 44 -19 35 -5 -3 6 1 10 9 10 19 0 30 -17 14 -22 -7 -3 4 -13 25 -22 20 -10 37 -22 37 -27 0 -5 -2 -9 -4 -9 -2 0 -13 -3 -23 -6 -14 -4 -15 -4 -4 4 11 8 5 14 -23 27 -20 10 -39 15 -43 12 -3 -4 7 -11 22 -17 15 -6 25 -13 22 -16 -3 -3 -15 0 -27 6 -12 6 -24 9 -27 6 -3 -3 7 -10 23 -16 72 -26 74 -28 60 -74 -19 -60 -48 -116 -61 -116 -6 0 -15 4 -20 9 -6 5 -45 21 -89 36 -141 48 -141 48 -164 110 -12 31 -22 59 -22 61 0 2 25 16 55 31 48 22 60 24 82 14 14 -6 28 -9 31 -7 3 3 -4 9 -14 12 -55 20 -147 67 -137 71 7 2 9 11 6 20 -5 13 -3 14 17 3 18 -9 20 -14 9 -21 -10 -6 -6 -11 16 -19 17 -6 43 -18 59 -26 22 -10 32 -11 42 -3 11 9 18 8 29 -1 8 -6 19 -10 26 -8 6 2 -32 24 -85 48 -54 24 -100 48 -103 53 -3 5 4 4 15 -2 26 -14 45 -14 37 -1 -3 6 -14 10 -23 10 -9 0 -28 9 -41 19 l-23 18 26 56 c19 42 34 61 58 72 27 12 28 14 8 11 -24 -5 -24 -4 -6 9 11 8 23 15 28 15 4 0 5 6 2 14 -3 9 9 19 37 30 23 9 39 19 36 22 -3 3 -15 0 -27 -6 -12 -6 -24 -9 -27 -6 -3 3 5 9 18 15 13 5 35 13 49 19 33 14 43 14 35 2z m4420 0 c-3 -5 -14 -10 -23 -10 -15 0 -15 2 -2 10 20 13 33 13 25 0z m-1472 -17 c-7 -2 -19 -2 -25 0 -7 3 -2 5 12 5 14 0 19 -2 13 -5z m92 -13 c18 -8 18 -9 -5 -9 -14 0 -34 4 -45 9 -18 8 -18 9 5 9 14 0 34 -4 45 -9z m165 -31 c30 -6 75 -15 100 -20 25 -5 83 -15 130 -23 106 -19 182 -33 240 -46 105 -23 168 -31 208 -25 73 11 118 -2 167 -48 87 -83 81 -220 -14 -282 -59 -40 -90 -45 -351 -60 -135 -8 -310 -20 -390 -25 -712 -50 -752 -48 -275 15 61 7 137 18 170 22 41 5 -54 10 -297 13 l-357 5 44 46 44 46 7 197 7 196 41 -6 c23 -3 68 -9 101 -14 131 -19 214 -31 295 -41 47 -6 112 -14 145 -19 296 -43 374 -52 388 -47 6 3 1 6 -12 6 -14 1 -38 5 -55 11 -30 9 -128 32 -341 80 -166 37 -162 53 5 19z m-3840 -80 c0 -14 -27 -10 -33 5 -4 10 0 12 14 9 10 -3 19 -9 19 -14z m4780 11 c0 -5 -4 -10 -10 -10 -5 0 -10 5 -10 10 0 6 5 10 10 10 6 0 10 -4 10 -10z m-3693 -32 c-3 -8 -6 -5 -6 6 -1 11 2 17 5 13 3 -3 4 -12 1 -19z m3726 -13 c-3 -9 -8 -14 -10 -11 -3 3 -2 9 2 15 9 16 15 13 8 -4z m-5228 -55 c3 -5 2 -10 -4 -10 -5 0 -13 5 -16 10 -3 6 -2 10 4 10 5 0 13 -4 16 -10z m375 -56 c0 -8 -7 -14 -15 -14 -8 0 -15 9 -15 20 0 13 5 18 15 14 8 -4 15 -12 15 -20z m404 -29 c3 -9 0 -15 -9 -15 -16 0 -27 14 -18 24 10 10 21 7 27 -9z m4511 -15 c3 -5 2 -10 -4 -10 -5 0 -13 5 -16 10 -3 6 -2 10 4 10 5 0 13 -4 16 -10z m-5533 -180 c12 -63 33 -138 54 -194 22 -58 10 -54 -19 6 -48 99 -60 148 -63 263 -2 104 -2 106 7 45 5 -36 15 -90 21 -120z m38 90 c1 -50 17 -121 49 -219 30 -91 25 -97 -14 -16 -37 76 -55 165 -54 260 1 70 17 49 19 -25z m430 60 c0 -5 -4 -10 -10 -10 -5 0 -10 5 -10 10 0 6 5 10 10 10 6 0 10 -4 10 -10z m-529 -91 c10 -81 23 -142 39 -184 4 -11 17 -44 29 -74 12 -30 19 -56 16 -59 -7 -7 -8 -5 -43 68 -39 84 -62 183 -62 272 0 39 2 69 5 66 3 -3 10 -43 16 -89z m993 35 c-11 -19 -34 -44 -52 -54 -35 -21 -107 -27 -117 -10 -4 6 10 10 35 10 36 0 47 6 93 53 56 56 71 56 41 1z m186 27 c0 -11 -31 -24 -39 -16 -3 3 1 10 9 15 19 12 30 12 30 1z m4420 -1 c0 -5 -7 -10 -16 -10 -8 0 -12 5 -9 10 3 6 10 10 16 10 5 0 9 -4 9 -10z m-4496 -75 l6 -30 -15 25 c-8 14 -14 32 -15 40 0 23 17 -2 24 -35z m381 25 c3 -5 2 -10 -4 -10 -5 0 -13 5 -16 10 -3 6 -2 10 4 10 5 0 13 -4 16 -10z m4420 0 c3 -5 2 -10 -4 -10 -5 0 -13 5 -16 10 -3 6 -2 10 4 10 5 0 13 -4 16 -10z m-5215 -21 c0 -5 -7 -9 -15 -9 -15 0 -20 12 -9 23 8 8 24 -1 24 -14z m368 0 c-2 -6 -8 -10 -13 -10 -5 0 -11 4 -13 10 -2 6 4 11 13 11 9 0 15 -5 13 -11z m88 -105 c10 -31 26 -59 34 -61 8 -2 58 -20 110 -40 96 -36 127 -53 98 -53 -16 0 -149 52 -181 71 -26 14 -28 9 -13 -34 13 -40 33 -66 22 -30 l-7 23 68 -26 c105 -40 103 -36 50 -89 -26 -25 -51 -44 -56 -41 -5 4 -17 29 -26 57 -9 28 -19 48 -22 45 -3 -3 2 -23 11 -46 9 -22 16 -46 15 -53 0 -6 -5 -1 -11 13 -6 14 -12 20 -15 13 -2 -7 1 -21 7 -33 9 -16 8 -25 0 -36 -13 -15 -30 -10 -30 9 0 7 4 6 10 -3 5 -8 10 -10 10 -5 0 16 -26 84 -35 92 -8 8 -4 -15 10 -52 5 -13 5 -17 -2 -10 -9 9 -16 26 -43 99 -6 16 -13 27 -15 24 -3 -3 10 -43 28 -90 l34 -85 -41 -20 c-23 -12 -57 -26 -76 -32 -31 -11 -37 -10 -52 10 -10 12 -18 27 -18 34 0 12 -16 47 -61 136 -11 20 -19 50 -19 65 l0 29 -16 -35 c-9 -19 -25 -52 -35 -73 -21 -44 -23 -51 -10 -43 9 6 21 -17 60 -107 l20 -47 -69 0 c-70 0 -86 10 -59 37 6 6 9 17 6 25 -3 8 -9 2 -16 -16 -6 -16 -14 -26 -17 -23 -3 3 0 15 6 27 6 12 9 24 6 27 -8 8 -28 -48 -22 -63 3 -8 -1 -11 -10 -7 -15 6 -15 17 2 57 5 14 4 17 -4 12 -15 -9 -15 9 -1 36 6 11 8 22 6 25 -3 2 -17 -23 -32 -56 -25 -56 -30 -60 -54 -55 -36 9 -131 55 -131 64 0 4 7 25 16 46 32 77 37 90 58 148 21 57 22 58 84 82 l63 23 10 -27 c6 -15 17 -41 25 -59 12 -25 13 -36 4 -53 -6 -12 -10 -24 -7 -26 2 -2 20 33 41 78 23 52 40 78 44 71 5 -7 18 -11 30 -8 25 4 26 2 11 -27 -6 -11 -8 -22 -6 -25 3 -2 13 11 22 31 21 43 40 45 108 12 26 -13 47 -20 47 -15 0 4 -4 11 -10 14 -5 3 -10 14 -10 24 0 11 -6 19 -12 18 -32 -1 -48 4 -48 14 0 7 10 9 25 5 28 -7 30 -4 14 25 -6 11 -8 25 -6 32 3 7 9 1 15 -13 11 -25 11 -25 11 -2 1 13 5 20 11 17 13 -8 13 -42 -1 -47 -16 -5 -1 -32 26 -45 14 -6 25 -10 25 -9 0 1 -9 26 -20 56 -23 62 -23 63 -12 56 5 -3 17 -31 28 -62z m4409 29 c34 -81 40 -93 52 -93 16 0 195 -70 208 -81 19 -18 -24 -8 -96 21 -41 16 -82 35 -92 41 -24 13 -31 6 -18 -19 6 -11 45 -32 96 -51 74 -28 84 -35 75 -50 -13 -25 -80 -82 -89 -77 -4 3 -14 23 -21 46 -7 23 -18 44 -23 47 -7 4 -7 -1 -3 -13 17 -40 19 -57 8 -50 -15 9 -15 -9 -1 -36 7 -12 7 -24 2 -29 -6 -6 -15 7 -23 33 -7 24 -17 47 -22 53 -13 15 -10 -9 8 -50 8 -20 13 -39 11 -41 -4 -4 -14 17 -37 80 -6 16 -13 27 -15 24 -3 -2 6 -32 19 -66 l24 -61 -52 -24 c-28 -14 -64 -28 -81 -31 -27 -6 -31 -3 -44 26 -7 18 -29 67 -48 108 -20 41 -36 92 -37 113 0 20 -2 37 -3 37 -1 0 -10 -16 -19 -36 -14 -30 -15 -40 -5 -56 11 -18 91 -197 91 -205 0 -2 -4 -3 -8 -3 -5 0 -17 19 -27 43 -10 23 -28 65 -40 92 -12 28 -24 57 -27 65 -4 11 -9 7 -16 -12 -10 -23 -7 -36 19 -87 16 -33 34 -72 39 -86 l10 -25 -70 0 c-70 0 -86 10 -59 37 6 6 9 17 7 25 -3 7 -12 -3 -21 -24 -12 -29 -20 -35 -36 -31 -19 5 -19 7 -6 34 18 33 19 43 5 34 -13 -8 -13 11 1 37 6 11 8 22 6 25 -3 2 -17 -23 -32 -56 -25 -56 -30 -60 -54 -55 -27 7 -131 54 -131 60 0 6 48 131 64 167 7 17 16 39 19 48 8 26 167 42 167 17 0 -7 7 -22 15 -32 14 -18 15 -18 24 7 5 14 15 28 22 33 9 5 10 2 6 -9 -3 -9 -3 -27 2 -39 8 -21 10 -19 32 25 19 38 25 44 31 30 6 -16 7 -16 7 -1 1 9 14 23 31 31 27 14 34 14 72 -1 24 -9 46 -21 50 -27 13 -17 9 2 -8 45 -9 23 -14 44 -10 47 4 4 9 -2 12 -12 3 -11 16 -25 30 -32 13 -6 24 -10 24 -9 0 1 -9 26 -20 56 -22 61 -22 60 -15 60 3 0 12 -17 20 -37z m-4765 6 c0 -5 -10 -9 -21 -9 -18 0 -19 2 -9 15 12 15 30 12 30 -6z m4737 -21 c-3 -8 -6 -5 -6 6 -1 11 2 17 5 13 3 -3 4 -12 1 -19z m-4597 2 c0 -5 -4 -10 -10 -10 -5 0 -10 5 -10 10 0 6 5 10 10 10 6 0 10 -4 10 -10z m60 -10 c0 -5 -7 -10 -16 -10 -8 0 -12 5 -9 10 3 6 10 10 16 10 5 0 9 -4 9 -10z m-180 -14 c0 -8 -10 -13 -25 -13 -23 0 -24 1 -8 13 23 17 33 17 33 0z m931 -33 c-9 -16 -10 -16 -11 -1 0 9 3 25 7 35 7 16 8 17 11 1 2 -10 -1 -25 -7 -35z m-1021 28 c0 -5 -9 -11 -20 -14 -20 -5 -26 3 -13 16 9 10 33 8 33 -2z m193 -6 c-3 -9 -8 -14 -10 -11 -3 3 -2 9 2 15 9 16 15 13 8 -4z m5144 -7 c-3 -8 -6 -5 -6 6 -1 11 2 17 5 13 3 -3 4 -12 1 -19z m-4420 -10 c-3 -8 -6 -5 -6 6 -1 11 2 17 5 13 3 -3 4 -12 1 -19z m3858 12 c3 -5 2 -10 -4 -10 -5 0 -13 5 -16 10 -3 6 -2 10 4 10 5 0 13 -4 16 -10z m-4639 -67 c-4 -4 -11 -1 -16 7 -16 25 -11 35 7 17 9 -9 13 -20 9 -24z m4484 3 c0 -3 -4 -8 -10 -11 -5 -3 -10 -1 -10 4 0 6 5 11 10 11 6 0 10 -2 10 -4z m-4970 -30 c0 -2 -7 -7 -16 -10 -8 -3 -12 -2 -9 4 6 10 25 14 25 6z m4500 -1 c0 -7 -70 -35 -88 -35 -21 0 -7 13 31 27 35 13 57 16 57 8z m88 -4 c11 -6 11 -13 3 -27 -6 -11 -22 -46 -35 -78 l-23 -59 -47 43 c-25 23 -46 46 -46 50 0 4 15 15 33 24 l32 17 -35 -6 -35 -5 42 17 c23 10 45 21 49 26 10 10 46 9 62 -2z m62 -6 c0 -8 -4 -23 -9 -33 -5 -9 -20 -46 -33 -81 -13 -36 -29 -66 -35 -68 -7 -3 4 34 23 81 18 47 34 93 34 101 0 8 5 15 10 15 6 0 10 -7 10 -15z m-425 -15 c3 -5 1 -10 -4 -10 -6 0 -11 5 -11 10 0 6 2 10 4 10 3 0 8 -4 11 -10z m-101 -17 c3 -10 9 -24 12 -30 3 -7 1 -13 -4 -13 -5 0 -12 8 -16 18 -3 9 -9 23 -12 30 -3 6 -1 12 4 12 5 0 12 -8 16 -17z m56 -18 c0 -5 -5 -3 -10 5 -5 8 -10 20 -10 25 0 6 5 3 10 -5 5 -8 10 -19 10 -25z m-3625 -54 c3 -16 19 -53 34 -83 34 -66 45 -98 33 -98 -11 0 -92 177 -92 201 0 22 19 6 25 -20z m4755 -59 c0 -15 -2 -15 -10 -2 -13 20 -13 33 0 25 6 -3 10 -14 10 -23z m-4929 -95 c-8 -8 -11 -7 -11 4 0 20 13 34 18 19 3 -7 -1 -17 -7 -23z m4420 0 c-8 -8 -11 -7 -11 4 0 20 13 34 18 19 3 -7 -1 -17 -7 -23z"/>
<path d="M1037 1563 c-4 -3 -7 -11 -7 -17 0 -6 5 -5 12 2 6 6 9 14 7 17 -3 3 -9 2 -12 -2z"/>
<path d="M680 1546 c0 -8 5 -18 10 -21 6 -3 10 1 10 9 0 8 -4 18 -10 21 -5 3 -10 -1 -10 -9z"/>
<path d="M610 1525 c0 -5 5 -17 10 -25 5 -8 10 -10 10 -5 0 6 -5 17 -10 25 -5 8 -10 11 -10 5z"/>
<path d="M700 1503 c0 -4 5 -15 10 -23 8 -13 10 -13 10 2 0 9 -4 20 -10 23 -5 3 -10 3 -10 -2z"/>
<path d="M680 1483 c0 -4 5 -15 10 -23 8 -13 10 -13 10 2 0 9 -4 20 -10 23 -5 3 -10 3 -10 -2z"/>
<path d="M630 1475 c0 -5 5 -17 10 -25 5 -8 10 -10 10 -5 0 6 -5 17 -10 25 -5 8 -10 11 -10 5z"/>
<path d="M660 1458 c0 -9 5 -20 10 -23 13 -8 13 5 0 25 -8 13 -10 13 -10 -2z"/>
<path d="M700 1433 c0 -4 5 -15 10 -23 8 -13 10 -13 10 2 0 9 -4 20 -10 23 -5 3 -10 3 -10 -2z"/>
<path d="M730 1425 c0 -5 5 -17 10 -25 5 -8 10 -10 10 -5 0 6 -5 17 -10 25 -5 8 -10 11 -10 5z"/>
<path d="M700 1288 c0 -9 5 -20 10 -23 13 -8 13 5 0 25 -8 13 -10 13 -10 -2z"/>
<path d="M730 1273 c0 -4 5 -15 10 -23 8 -13 10 -13 10 2 0 9 -4 20 -10 23 -5 3 -10 3 -10 -2z"/>
<path d="M548 1160 c18 -11 38 -20 45 -20 14 1 -52 39 -68 40 -5 0 5 -9 23 -20z"/>
<path d="M655 1030 c3 -5 11 -10 16 -10 6 0 7 5 4 10 -3 6 -11 10 -16 10 -6 0 -7 -4 -4 -10z"/>
<path d="M695 1010 c3 -5 13 -10 21 -10 8 0 12 5 9 10 -3 6 -13 10 -21 10 -8 0 -12 -4 -9 -10z"/>
<path d="M640 850 c-8 -5 -10 -10 -5 -10 6 0 17 5 25 10 8 5 11 10 5 10 -5 0 -17 -5 -25 -10z"/>
<path d="M585 830 c-8 -13 5 -13 25 0 13 8 13 10 -2 10 -9 0 -20 -4 -23 -10z"/>
<path d="M505 800 c-8 -13 5 -13 25 0 13 8 13 10 -2 10 -9 0 -20 -4 -23 -10z"/>
<path d="M575 800 c-8 -13 5 -13 25 0 13 8 13 10 -2 10 -9 0 -20 -4 -23 -10z"/>
<path d="M600 780 c-13 -8 -13 -10 2 -10 9 0 20 5 23 10 8 13 -5 13 -25 0z"/>
<path d="M565 740 c-3 -5 1 -10 9 -10 8 0 18 5 21 10 3 6 -1 10 -9 10 -8 0 -18 -4 -21 -10z"/>
<path d="M5427 1623 c-4 -3 -7 -11 -7 -17 0 -6 5 -5 12 2 6 6 9 14 7 17 -3 3 -9 2 -12 -2z"/>
<path d="M5447 1603 c-4 -3 -7 -11 -7 -17 0 -6 5 -5 12 2 6 6 9 14 7 17 -3 3 -9 2 -12 -2z"/>
<path d="M5426 1555 c-9 -26 -7 -32 5 -12 6 10 9 21 6 23 -2 3 -7 -2 -11 -11z"/>
<path d="M5452 1545 c-17 -37 -14 -45 4 -12 9 16 14 31 11 33 -2 2 -9 -7 -15 -21z"/>
<path d="M5100 1546 c0 -8 5 -18 10 -21 6 -3 10 1 10 9 0 8 -4 18 -10 21 -5 3 -10 -1 -10 -9z"/>
<path d="M5477 1543 c-4 -3 -7 -11 -7 -17 0 -6 5 -5 12 2 6 6 9 14 7 17 -3 3 -9 2 -12 -2z"/>
<path d="M5030 1525 c0 -5 5 -17 10 -25 5 -8 10 -10 10 -5 0 6 -5 17 -10 25 -5 8 -10 11 -10 5z"/>
<path d="M5400 1496 c-5 -14 -6 -36 -1 -48 7 -21 8 -20 24 11 14 29 15 35 2 48 -13 13 -16 11 -25 -11z"/>
<path d="M5120 1503 c0 -4 5 -15 10 -23 8 -13 10 -13 10 2 0 9 -4 20 -10 23 -5 3 -10 3 -10 -2z"/>
<path d="M5070 1495 c0 -5 5 -17 10 -25 5 -8 10 -10 10 -5 0 6 -5 17 -10 25 -5 8 -10 11 -10 5z"/>
<path d="M5100 1483 c0 -4 5 -15 10 -23 8 -13 10 -13 10 2 0 9 -4 20 -10 23 -5 3 -10 3 -10 -2z"/>
<path d="M5050 1475 c0 -5 5 -17 10 -25 5 -8 10 -10 10 -5 0 6 -5 17 -10 25 -5 8 -10 11 -10 5z"/>
<path d="M5447 1473 c-4 -3 -7 -11 -7 -17 0 -6 5 -5 12 2 6 6 9 14 7 17 -3 3 -9 2 -12 -2z"/>
<path d="M5140 1451 c0 -6 4 -13 10 -16 6 -3 7 1 4 9 -7 18 -14 21 -14 7z"/>
<path d="M5875 1420 c-8 -13 15 -13 35 0 12 8 11 10 -7 10 -12 0 -25 -4 -28 -10z"/>
<path d="M5825 1400 c-3 -5 1 -10 9 -10 8 0 18 5 21 10 3 6 -1 10 -9 10 -8 0 -18 -4 -21 -10z"/>
<path d="M5775 1380 c-8 -13 5 -13 25 0 13 8 13 10 -2 10 -9 0 -20 -4 -23 -10z"/>
<path d="M5730 1360 c-8 -5 -10 -10 -5 -10 6 0 17 5 25 10 8 5 11 10 5 10 -5 0 -17 -5 -25 -10z"/>
<path d="M5800 1360 c-8 -5 -10 -10 -5 -10 6 0 17 5 25 10 8 5 11 10 5 10 -5 0 -17 -5 -25 -10z"/>
<path d="M5715 1330 c-8 -13 5 -13 25 0 13 8 13 10 -2 10 -9 0 -20 -4 -23 -10z"/>
<path d="M5787 1029 c7 -7 15 -10 18 -7 3 3 -2 9 -12 12 -14 6 -15 5 -6 -5z"/>
<path d="M5820 1015 c0 -5 68 -35 79 -35 8 1 -61 39 -71 40 -5 0 -8 -2 -8 -5z"/>
<path d="M1405 1400 c-8 -13 5 -13 25 0 13 8 13 10 -2 10 -9 0 -20 -4 -23 -10z"/>
<path d="M1360 1380 c-8 -5 -10 -10 -5 -10 6 0 17 5 25 10 8 5 11 10 5 10 -5 0 -17 -5 -25 -10z"/>
<path d="M1380 1360 c-8 -5 -10 -10 -5 -10 6 0 17 5 25 10 8 5 11 10 5 10 -5 0 -17 -5 -25 -10z"/>
<path d="M1421 1036 c10 -9 69 -36 69 -32 0 6 -55 36 -66 36 -4 0 -5 -2 -3 -4z"/>
<path d="M1405 1010 c3 -5 11 -10 16 -10 6 0 7 5 4 10 -3 6 -11 10 -16 10 -6 0 -7 -4 -4 -10z"/>
<path d="M1450 990 c8 -5 20 -10 25 -10 6 0 3 5 -5 10 -8 5 -19 10 -25 10 -5 0 -3 -5 5 -10z"/>
<path d="M5098 1263 c6 -2 18 -2 25 0 6 3 1 5 -13 5 -14 0 -19 -2 -12 -5z"/>
<path d="M5345 1210 c-29 -12 -61 -52 -68 -86 -8 -43 2 -79 32 -112 65 -72 184 -41 211 56 25 94 -82 181 -175 142z"/>
<path d="M1210 831 c0 -4 4 -11 8 -16 5 -6 15 -29 22 -53 7 -23 15 -40 18 -38 2 3 -1 20 -7 38 l-11 33 21 -25 c17 -20 20 -21 14 -5 -4 11 -9 27 -12 35 -4 15 -53 44 -53 31z"/>
<path d="M985 805 c-4 -11 -18 -46 -31 -79 -14 -32 -22 -61 -19 -64 3 -3 5 0 5 7 0 7 6 11 14 8 10 -4 24 14 45 60 17 36 31 70 30 77 0 6 -5 0 -11 -14 l-11 -25 -7 25 c-7 23 -8 24 -15 5z m-8 -77 c-3 -8 -6 -5 -6 6 -1 11 2 17 5 13 3 -3 4 -12 1 -19z"/>
<path d="M1210 765 c0 -5 5 -17 10 -25 5 -8 10 -10 10 -5 0 6 -5 17 -10 25 -5 8 -10 11 -10 5z"/>
<path d="M1280 721 c0 -5 5 -13 10 -16 6 -3 10 -2 10 4 0 5 -4 13 -10 16 -5 3 -10 2 -10 -4z"/>
<path d="M1260 703 c0 -4 5 -15 10 -23 8 -13 10 -13 10 2 0 9 -4 20 -10 23 -5 3 -10 3 -10 -2z"/>
<path d="M1300 678 c0 -9 5 -20 10 -23 13 -8 13 5 0 25 -8 13 -10 13 -10 -2z"/>
<path d="M897 663 c-4 -3 -7 -11 -7 -17 0 -6 5 -5 12 2 6 6 9 14 7 17 -3 3 -9 2 -12 -2z"/>
<path d="M917 643 c-4 -3 -7 -11 -7 -17 0 -6 5 -5 12 2 6 6 9 14 7 17 -3 3 -9 2 -12 -2z"/>
<path d="M937 623 c-4 -3 -7 -11 -7 -17 0 -6 5 -5 12 2 6 6 9 14 7 17 -3 3 -9 2 -12 -2z"/>
<path d="M896 593 c-6 -14 -5 -15 5 -6 7 7 10 15 7 18 -3 3 -9 -2 -12 -12z"/>
<path d="M917 583 c-4 -3 -7 -13 -7 -22 1 -13 3 -13 11 2 11 19 8 33 -4 20z"/>
<path d="M937 563 c-4 -3 -7 -11 -7 -17 0 -6 5 -5 12 2 6 6 9 14 7 17 -3 3 -9 2 -12 -2z"/>
<path d="M5630 835 c0 -3 4 -13 9 -23 5 -9 14 -28 20 -42 10 -21 11 -22 7 -3 -3 15 0 20 10 16 15 -6 18 6 6 22 -9 12 -52 37 -52 30z"/>
<path d="M5630 765 c0 -5 5 -17 10 -25 5 -8 10 -10 10 -5 0 6 -5 17 -10 25 -5 8 -10 11 -10 5z"/>
<path d="M5720 741 c0 -5 5 -13 10 -16 6 -3 10 -2 10 4 0 5 -4 13 -10 16 -5 3 -10 2 -10 -4z"/>
<path d="M5366 705 c-9 -21 -14 -40 -11 -43 3 -3 5 0 5 6 0 7 5 12 11 12 6 0 8 -8 5 -17 -5 -15 -4 -15 9 1 17 22 19 44 6 65 -7 11 -13 5 -25 -24z"/>
<path d="M5670 738 c0 -3 7 -21 15 -39 16 -34 16 -34 10 -4 -6 26 -25 60 -25 43z"/>
<path d="M5700 721 c0 -5 5 -13 10 -16 6 -3 10 -2 10 4 0 5 -4 13 -10 16 -5 3 -10 2 -10 -4z"/>
<path d="M5336 705 c-9 -26 -7 -32 5 -12 6 10 9 21 6 23 -2 3 -7 -2 -11 -11z"/>
<path d="M5650 713 c0 -4 5 -15 10 -23 8 -13 10 -13 10 2 0 9 -4 20 -10 23 -5 3 -10 3 -10 -2z"/>
<path d="M5720 671 c0 -5 5 -13 10 -16 6 -3 10 -2 10 4 0 5 -4 13 -10 16 -5 3 -10 2 -10 -4z"/>
<path d="M5312 645 c-17 -37 -14 -45 4 -12 9 16 14 31 11 33 -2 2 -9 -7 -15 -21z"/>
<path d="M5337 643 c-4 -3 -7 -11 -7 -17 0 -6 5 -5 12 2 6 6 9 14 7 17 -3 3 -9 2 -12 -2z"/>
<path d="M5357 623 c-4 -3 -7 -11 -7 -17 0 -6 5 -5 12 2 6 6 9 14 7 17 -3 3 -9 2 -12 -2z"/>
<path d="M5377 603 c-4 -3 -7 -11 -7 -17 0 -6 5 -5 12 2 6 6 9 14 7 17 -3 3 -9 2 -12 -2z"/>
<path d="M5330 564 c-6 -16 -16 -42 -22 -57 -6 -15 -9 -30 -6 -33 3 -2 15 21 26 53 12 31 19 59 17 61 -2 3 -9 -8 -15 -24z"/>
<path d="M5307 573 c-4 -3 -7 -11 -7 -17 0 -6 5 -5 12 2 6 6 9 14 7 17 -3 3 -9 2 -12 -2z"/>
<path d="M5357 563 c-4 -3 -7 -11 -7 -17 0 -6 5 -5 12 2 6 6 9 14 7 17 -3 3 -9 2 -12 -2z"/>
<path d="M4990 740 c-13 -8 -13 -10 2 -10 9 0 20 5 23 10 8 13 -5 13 -25 0z"/>
</g>
</svg>