<svg xmlns="http://www.w3.org/2000/svg" version="1.0" preserveAspectRatio="xMidYMid meet" viewBox="-0.09 19.14 230.09 121.93">

<g transform="translate(0.000000,149.000000) scale(0.100000,-0.100000)" fill="#000000" stroke="none">
<path d="M1087 1286 c-8 -20 0 -23 80 -34 57 -8 62 -7 67 12 3 11 4 21 3 22 -1 1 -34 5 -73 9 -61 6 -72 5 -77 -9z"/>
<path d="M1255 1269 c-4 -18 -3 -35 4 -42 8 -8 11 0 11 31 0 50 -6 54 -15 11z"/>
<path d="M1290 1257 c0 -11 15 -17 55 -22 l54 -7 61 -93 c33 -52 60 -99 60 -106 0 -9 -15 -10 -62 -4 -94 13 -165 8 -272 -20 -180 -45 -291 -109 -326 -188 -12 -27 -38 -65 -58 -84 -39 -39 -144 -93 -182 -93 l-24 0 20 -21 21 -21 103 21 c141 29 135 30 135 -29 0 -56 4 -52 -90 -70 -88 -16 -87 -16 -74 -44 11 -24 11 -24 31 -4 26 26 61 38 112 38 l42 0 0 78 c0 49 6 90 17 115 15 35 19 37 61 37 25 0 47 -3 49 -8 3 -4 -6 -54 -19 -112 -28 -124 -28 -120 -11 -120 9 0 22 38 38 117 l25 118 39 -3 c22 -2 41 -5 43 -7 2 -1 -9 -53 -23 -115 -23 -104 -25 -137 -6 -126 4 3 18 54 31 115 12 60 25 113 29 119 3 5 27 12 54 15 57 8 57 10 22 -145 -29 -130 -28 -118 -12 -118 9 0 23 43 43 132 l29 132 41 12 c78 23 118 65 138 147 6 26 26 38 26 15 0 -10 -44 -127 -148 -395 -22 -57 -37 -105 -33 -108 4 -2 57 124 117 280 60 157 112 285 115 285 3 0 95 -137 204 -305 110 -168 206 -305 213 -305 8 0 12 6 9 14 -8 22 -548 849 -566 868 -9 9 -41 19 -73 23 -49 6 -58 5 -58 -8z m145 -259 c25 -11 26 -16 21 -53 -11 -69 -37 -108 -92 -135 -46 -23 -61 -25 -231 -28 -203 -5 -233 -1 -233 27 0 102 409 246 535 189z"/>
<path d="M1730 985 c0 -98 1 -105 20 -105 19 0 20 7 20 105 0 98 -1 105 -20 105 -19 0 -20 -7 -20 -105z"/>
<path d="M1636 1054 c-14 -15 -26 -31 -26 -37 0 -20 72 -127 86 -127 11 0 14 19 14 95 0 93 0 95 -24 95 -13 0 -35 -12 -50 -26z"/>
<path d="M1800 985 c0 -42 3 -56 10 -45 5 8 10 29 10 45 0 17 -5 37 -10 45 -7 11 -10 -3 -10 -45z"/>
<path d="M823 914 c31 -10 18 -40 -35 -84 -118 -96 -234 -119 -341 -66 -30 14 -66 37 -80 50 -32 30 -42 18 -24 -26 20 -47 78 -95 139 -113 64 -19 102 -19 162 -1 110 33 193 118 199 202 2 32 -1 39 -18 41 -15 1 -16 1 -2 -3z"/>
<path d="M750 890 c-8 -5 -10 -10 -5 -10 6 0 17 5 25 10 8 5 11 10 5 10 -5 0 -17 -5 -25 -10z"/>
<path d="M618 843 c6 -2 18 -2 25 0 6 3 1 5 -13 5 -14 0 -19 -2 -12 -5z"/>
<path d="M383 833 c9 -2 25 -2 35 0 9 3 1 5 -18 5 -19 0 -27 -2 -17 -5z"/>
<path d="M553 833 c9 -2 25 -2 35 0 9 3 1 5 -18 5 -19 0 -27 -2 -17 -5z"/>
<path d="M1853 734 c-24 -9 -43 -20 -43 -25 0 -5 11 -27 25 -48 l26 -38 52 14 c85 22 169 0 261 -71 26 -20 56 -36 67 -36 29 0 59 18 59 36 0 29 -92 114 -159 147 -57 28 -77 32 -156 34 -61 2 -104 -3 -132 -13z"/>
<path d="M183 644 c-58 -21 -127 -85 -157 -146 -33 -66 -36 -180 -7 -244 62 -136 221 -206 362 -159 76 26 161 112 183 185 9 30 16 70 16 90 0 51 -25 130 -53 164 l-23 28 -25 -38 c-23 -36 -24 -41 -11 -68 42 -85 11 -200 -68 -252 -120 -80 -294 -4 -308 135 -7 72 5 117 40 157 44 50 97 74 162 74 52 0 56 2 76 36 12 19 20 38 16 41 -14 14 -162 12 -203 -3z"/>
<path d="M393 595 c-24 -36 -43 -69 -43 -74 0 -10 44 -41 58 -41 5 0 32 35 60 78 l52 77 -33 12 c-17 6 -36 12 -42 12 -5 0 -29 -29 -52 -64z"/>
<path d="M1681 614 c-57 -64 -84 -141 -85 -234 -1 -104 7 -130 43 -130 45 0 61 27 61 102 0 77 20 139 60 189 l28 36 -26 41 c-15 23 -30 42 -34 42 -3 0 -25 -21 -47 -46z"/>
<path d="M1920 614 c-8 -3 -21 -7 -28 -10 -9 -3 -10 -9 -4 -20 7 -13 26 -17 84 -18 64 -1 80 -5 115 -29 56 -39 86 -97 86 -166 0 -62 -17 -102 -60 -143 -65 -62 -148 -73 -231 -32 -102 51 -138 176 -80 275 23 39 25 49 14 64 -12 16 -14 15 -35 -11 -37 -47 -51 -92 -51 -161 0 -35 -5 -73 -11 -85 -16 -30 5 -71 62 -122 178 -160 448 -56 484 186 5 31 2 64 -9 102 -15 49 -21 58 -54 72 -20 8 -48 26 -62 38 -14 13 -40 31 -59 41 -35 17 -134 29 -161 19z"/>
<path d="M711 586 c-101 -21 -119 -31 -108 -60 4 -11 23 -10 104 5 147 28 143 26 143 54 0 30 -1 30 -139 1z"/>
<path d="M242 530 c-22 -9 -22 -11 -7 -40 8 -16 22 -30 30 -30 21 0 45 29 45 56 0 26 -24 31 -68 14z"/>
<path d="M1941 531 c-12 -8 -12 -13 3 -35 9 -14 23 -26 30 -26 13 0 26 29 26 58 0 14 -38 16 -59 3z"/>
<path d="M2022 491 c-9 -24 -7 -32 8 -46 16 -15 20 -15 49 3 l31 19 -28 26 c-36 34 -48 34 -60 -2z"/>
<path d="M159 471 c-27 -36 -26 -44 8 -53 19 -5 33 -2 45 9 17 15 17 17 1 44 -22 36 -27 36 -54 0z"/>
<path d="M330 468 c-1 -28 -22 -58 -42 -58 -34 0 -51 -47 -23 -70 24 -20 54 -2 65 41 7 26 19 44 36 51 31 14 30 20 -6 41 -30 18 -30 18 -30 -5z"/>
<path d="M793 474 c-95 -47 -96 -192 -2 -236 19 -9 122 -26 233 -39 l199 -23 35 21 c88 50 92 173 9 228 -15 9 -100 25 -223 40 -235 29 -211 28 -251 9z m138 -43 c24 -24 29 -38 29 -76 0 -38 -5 -52 -29 -76 -64 -64 -181 -21 -181 66 0 71 41 114 108 115 35 0 49 -6 73 -29z m307 -67 c41 -28 22 -112 -26 -115 -33 -3 -47 2 -64 23 -26 29 -22 63 8 87 32 25 52 26 82 5z"/>
<path d="M812 398 c-22 -22 -15 -76 13 -94 52 -34 115 29 81 81 -18 28 -72 35 -94 13z"/>
<path d="M1177 334 c-12 -12 -8 -42 6 -47 21 -8 39 8 35 29 -3 19 -29 30 -41 18z"/>
<path d="M1836 459 c-18 -26 -13 -35 27 -44 32 -8 34 0 8 38 l-19 29 -16 -23z"/>
<path d="M408 424 c-41 -22 -38 -61 5 -72 31 -8 32 -7 35 25 2 18 0 39 -5 47 -7 12 -12 12 -35 0z"/>
<path d="M2095 422 c-41 -23 -37 -58 8 -70 31 -8 32 -7 35 25 5 52 -7 65 -43 45z"/>
<path d="M120 376 c0 -14 4 -36 10 -50 9 -25 10 -25 39 -8 23 13 29 22 25 37 -8 26 -14 31 -46 39 -25 6 -28 4 -28 -18z"/>
<path d="M1810 373 c0 -16 3 -38 6 -50 6 -21 8 -22 35 -7 41 21 40 58 -2 73 -41 14 -39 15 -39 -16z"/>
<path d="M360 311 c-8 -16 -7 -26 6 -46 9 -14 20 -25 24 -25 9 0 54 69 49 74 -2 2 -18 7 -36 10 -26 6 -34 3 -43 -13z"/>
<path d="M2051 316 c-11 -13 -11 -22 -1 -46 16 -38 22 -37 54 1 29 34 33 49 14 49 -7 0 -22 3 -34 6 -12 3 -26 -1 -33 -10z"/>
<path d="M177 291 l-28 -18 32 -27 c17 -15 36 -25 42 -23 20 6 25 51 9 70 -18 20 -19 20 -55 -2z"/>
<path d="M1868 292 l-28 -18 28 -27 c15 -15 33 -27 40 -27 16 0 27 50 15 68 -14 23 -25 24 -55 4z"/>
<path d="M275 268 c-3 -7 -6 -24 -7 -38 -3 -23 0 -25 32 -22 45 4 54 13 39 45 -13 29 -56 38 -64 15z"/>
<path d="M1956 249 c-8 -42 0 -51 37 -44 45 10 51 19 32 49 -25 38 -61 35 -69 -5z"/>
</g>
</svg>