<svg xmlns="http://www.w3.org/2000/svg" version="1.0" preserveAspectRatio="xMidYMid meet" viewBox="10.18 7.12 118.82 118.67">

<g transform="translate(0.000000,134.000000) scale(0.100000,-0.100000)" fill="#000000" stroke="none">
<path d="M552 1256 c-98 -24 -200 -83 -277 -160 -81 -82 -127 -162 -155 -272 -61 -237 35 -496 235 -634 57 -39 177 -99 214 -106 39 -8 42 11 4 21 -41 10 -123 46 -123 54 0 4 12 18 26 32 15 13 36 44 46 68 11 24 29 46 39 48 24 7 25 23 1 23 -22 0 -52 -30 -52 -52 0 -9 -19 -37 -42 -63 l-43 -46 -47 31 c-71 47 -163 151 -197 224 -17 35 -31 69 -31 75 0 6 30 26 68 45 37 19 85 53 107 76 l40 42 152 -7 152 -7 25 26 c51 50 28 114 -53 152 -189 89 -218 106 -291 175 l-75 70 45 40 c89 78 240 139 344 139 l46 0 0 -48 c0 -46 2 -49 57 -92 73 -58 77 -60 135 -76 l50 -13 66 41 67 41 42 -48 c35 -41 103 -151 103 -168 0 -3 -23 -19 -50 -37 -47 -30 -73 -71 -56 -88 4 -3 9 4 13 17 3 12 27 36 52 52 l46 28 12 -27 c6 -15 15 -57 19 -94 7 -73 24 -93 24 -30 0 60 -36 187 -72 255 -51 96 -157 196 -259 245 -46 22 -108 45 -137 51 -69 14 -203 13 -270 -3z"/>
<path d="M760 500 l0 -60 255 0 255 0 0 60 0 60 -255 0 -255 0 0 -60z m305 0 c7 -12 -39 -24 -60 -16 -8 3 -15 10 -15 16 0 13 67 13 75 0z"/>
<path d="M890 335 l0 -75 125 0 125 0 0 75 0 75 -125 0 -125 0 0 -75z"/>
<path d="M760 205 l0 -25 253 2 252 3 3 23 3 22 -255 0 -256 0 0 -25z"/>
<path d="M760 130 c0 -19 7 -20 255 -20 248 0 255 1 255 20 0 19 -7 20 -255 20 -248 0 -255 -1 -255 -20z"/>
</g>
</svg>