<svg xmlns="http://www.w3.org/2000/svg" version="1.0" preserveAspectRatio="xMidYMid meet" viewBox="23 8.01 119 119.99">

<g transform="translate(0.000000,140.000000) scale(0.100000,-0.100000)" fill="#000000" stroke="none">
<path d="M847 1313 c-4 -3 -7 -33 -7 -65 l0 -59 113 3 c108 3 112 4 115 26 3 22 6 22 143 22 l139 0 -2 -457 -3 -458 -22 -3 c-21 -3 -22 -9 -25 -90 l-3 -87 -532 -3 c-344 -1 -533 -6 -533 -12 0 -7 209 -10 595 -10 l595 0 0 100 0 100 -25 0 -25 0 0 470 0 470 -150 0 -150 0 0 24 c0 13 -7 27 -16 30 -21 8 -199 8 -207 -1z"/>
<path d="M340 1095 c0 -20 5 -25 25 -25 20 0 25 5 25 25 0 20 -5 25 -25 25 -20 0 -25 -5 -25 -25z"/>
<path d="M442 1098 c2 -15 11 -24 26 -26 18 -3 22 1 22 22 0 21 -5 26 -26 26 -21 0 -25 -4 -22 -22z"/>
<path d="M550 1094 c0 -21 4 -25 23 -22 14 2 23 11 25 26 3 18 -1 22 -22 22 -21 0 -26 -5 -26 -26z"/>
<path d="M650 1095 c0 -20 5 -25 25 -25 20 0 25 5 25 25 0 20 -5 25 -25 25 -20 0 -25 -5 -25 -25z"/>
<path d="M1095 979 c-21 -41 -39 -76 -41 -78 -3 -3 -36 26 -74 64 -38 38 -73 66 -77 62 -5 -6 22 -121 44 -183 2 -7 -26 -9 -87 -6 -74 4 -89 2 -84 -9 10 -25 225 -182 235 -172 6 6 -27 36 -83 79 l-91 69 71 3 c40 2 72 7 72 12 0 4 -9 37 -20 72 -11 34 -20 67 -20 73 0 5 27 -17 60 -50 33 -32 62 -57 64 -54 3 3 18 34 34 69 33 72 33 73 52 -70 12 -80 23 -111 35 -98 8 8 -35 271 -45 282 -5 5 -25 -25 -45 -65z"/>
<path d="M1030 800 c0 -21 71 -121 81 -115 9 6 -1 26 -49 103 -15 23 -32 29 -32 12z"/>
<path d="M428 632 c-42 -20 -94 -54 -117 -74 -38 -35 -40 -41 -47 -112 l-7 -74 47 -7 c42 -7 48 -5 67 19 18 23 28 27 63 24 35 -3 43 -8 56 -35 18 -38 10 -35 225 -64 l170 -22 32 31 c17 18 40 32 50 32 26 0 63 -28 73 -56 6 -16 18 -24 32 -24 13 0 40 -3 60 -6 33 -6 39 -4 49 19 10 23 7 30 -32 77 -47 55 -81 76 -169 105 -43 14 -72 34 -136 95 -90 86 -111 95 -261 105 -75 5 -81 3 -155 -33z m277 -56 c58 -27 135 -82 135 -96 0 -17 -21 -11 -52 16 -50 41 -127 75 -184 81 -51 6 -144 -12 -144 -26 0 -4 13 -19 28 -34 25 -24 43 -29 153 -43 68 -9 126 -18 128 -20 3 -2 0 -8 -5 -13 -5 -5 -63 -2 -136 8 -126 17 -128 17 -168 56 -22 21 -40 43 -40 47 0 10 56 39 95 49 47 12 135 1 190 -25z"/>
<path d="M398 379 c-21 -12 -24 -59 -6 -77 20 -20 56 -14 74 13 15 23 15 27 0 50 -17 26 -40 31 -68 14z"/>
<path d="M936 304 c-21 -21 -20 -47 2 -67 24 -22 45 -21 65 1 21 23 22 46 1 66 -20 20 -48 20 -68 0z"/>
</g>
</svg>