<svg xmlns="http://www.w3.org/2000/svg" version="1.0" preserveAspectRatio="xMidYMid meet" viewBox="17.23 27.17 444.31 477.41">

<g transform="translate(0.000000,524.000000) scale(0.100000,-0.100000)" fill="#000000" stroke="none">
<path d="M1742 4954 c-308 -67 -563 -334 -648 -676 -22 -90 -30 -300 -14 -395 45 -286 200 -528 422 -661 132 -80 248 -112 399 -112 123 0 216 22 337 82 282 138 470 443 489 794 22 409 -201 789 -544 929 -130 52 -308 68 -441 39z m288 -160 c118 -27 205 -78 306 -179 81 -80 98 -103 142 -195 72 -150 87 -215 86 -385 -1 -110 -6 -157 -22 -219 -120 -439 -542 -665 -908 -485 -173 86 -313 263 -375 474 -26 92 -36 269 -19 372 48 304 249 544 514 613 87 23 190 25 276 4z"/>
<path d="M1493 2950 c-774 -79 -1218 -648 -1315 -1682 -13 -146 -5 -213 39 -306 58 -124 201 -230 338 -252 36 -6 424 -10 962 -10 l901 0 -33 77 -32 78 -684 3 c-531 2 -685 5 -691 15 -4 6 -8 129 -8 273 l0 261 -77 6 c-43 3 -79 4 -81 2 -3 -3 -56 -479 -62 -554 0 -2 -44 -1 -98 1 -122 7 -173 29 -242 105 -75 82 -87 131 -71 298 80 835 403 1342 947 1485 156 41 222 45 679 45 383 0 452 -2 530 -18 234 -46 420 -138 575 -283 l46 -43 64 20 c117 36 116 26 17 122 -183 179 -400 289 -677 343 -69 13 -167 17 -515 19 -236 2 -467 -1 -512 -5z"/>
<path d="M3320 2321 c-203 -44 -373 -136 -526 -286 -207 -204 -309 -428 -321 -711 -7 -155 6 -263 47 -386 228 -684 1030 -959 1626 -557 43 29 113 87 155 128 345 346 414 880 168 1302 -156 268 -423 455 -732 514 -109 21 -309 19 -417 -4z m397 -156 c365 -77 640 -348 719 -706 21 -95 21 -281 1 -374 -77 -357 -352 -633 -710 -711 -115 -26 -290 -21 -409 9 -318 83 -560 317 -654 634 -36 120 -44 303 -19 424 38 189 114 330 254 470 136 137 277 214 461 253 87 19 272 20 357 1z"/>
<path d="M3831 1773 c-15 -16 -84 -125 -151 -243 -154 -269 -153 -267 -200 -281 -62 -19 -103 8 -162 106 -72 118 -82 125 -179 125 -76 0 -82 -2 -110 -29 -50 -51 -42 -87 49 -232 220 -350 289 -453 311 -467 38 -25 96 -21 125 8 27 28 552 867 567 908 13 33 -5 86 -38 112 -21 16 -41 20 -104 20 -72 0 -81 -2 -108 -27z"/>
</g>
</svg>