<svg xmlns="http://www.w3.org/2000/svg" version="1.0" preserveAspectRatio="xMidYMid meet" viewBox="3.48 3.91 123.52 111.09">

<g transform="translate(0.000000,120.000000) scale(0.100000,-0.100000)" fill="#000000" stroke="none">
<path d="M238 1130 c-26 -27 -30 -36 -25 -68 16 -95 137 -113 173 -26 12 29 12 39 0 68 -27 64 -97 76 -148 26z"/>
<path d="M579 937 l61 -74 0 -352 0 -351 218 2 217 3 3 416 2 416 -151 6 c-84 4 -210 7 -281 7 l-129 0 60 -73z m166 -182 c0 -27 -3 -30 -30 -30 -21 0 -31 5 -33 18 -6 33 6 49 35 45 24 -3 28 -8 28 -33z m273 -2 l3 -33 -110 0 -111 0 0 28 c0 16 3 32 7 36 4 4 52 5 107 4 l101 -3 3 -32z m-268 -153 c0 -28 -3 -30 -35 -30 -32 0 -35 2 -35 30 0 28 3 30 35 30 32 0 35 -2 35 -30z m270 0 l0 -30 -110 0 -110 0 0 30 0 30 110 0 110 0 0 -30z m-275 -155 c0 -27 -3 -30 -30 -30 -21 0 -31 5 -33 18 -6 33 6 49 35 45 24 -3 28 -8 28 -33z m275 0 l0 -35 -110 0 -110 0 0 35 0 35 110 0 110 0 0 -35z m-270 -155 c0 -28 -3 -30 -35 -30 -32 0 -35 2 -35 30 0 28 3 30 35 30 32 0 35 -2 35 -30z m270 0 l0 -30 -110 0 -110 0 0 30 0 30 110 0 110 0 0 -30z"/>
<path d="M700 755 c0 -8 7 -15 15 -15 8 0 15 7 15 15 0 8 -7 15 -15 15 -8 0 -15 -7 -15 -15z"/>
<path d="M817 764 c-19 -19 1 -24 94 -24 76 0 100 3 97 13 -5 13 -178 23 -191 11z"/>
<path d="M700 600 c0 -5 7 -10 15 -10 8 0 15 5 15 10 0 6 -7 10 -15 10 -8 0 -15 -4 -15 -10z"/>
<path d="M810 600 c0 -6 40 -10 100 -10 60 0 100 4 100 10 0 6 -40 10 -100 10 -60 0 -100 -4 -100 -10z"/>
<path d="M700 445 c0 -8 7 -15 15 -15 8 0 15 7 15 15 0 8 -7 15 -15 15 -8 0 -15 -7 -15 -15z"/>
<path d="M817 454 c-19 -19 1 -24 94 -24 76 0 100 3 97 13 -5 13 -178 23 -191 11z"/>
<path d="M700 290 c0 -5 7 -10 15 -10 8 0 15 5 15 10 0 6 -7 10 -15 10 -8 0 -15 -4 -15 -10z"/>
<path d="M810 290 c0 -6 40 -10 100 -10 60 0 100 4 100 10 0 6 -40 10 -100 10 -60 0 -100 -4 -100 -10z"/>
<path d="M163 896 l-53 -21 0 -172 0 -173 25 0 25 0 0 126 c0 81 4 123 10 119 6 -4 10 -57 10 -126 l0 -119 125 0 125 0 0 126 c0 81 4 123 10 119 6 -4 10 -57 10 -126 l0 -119 25 0 25 0 -2 172 -3 172 -55 22 -55 22 -5 -31 c-4 -24 -11 -33 -29 -35 -22 -4 -23 -6 -17 -70 4 -37 9 -79 12 -94 6 -28 5 -28 -46 -28 -50 0 -52 1 -46 23 3 13 9 56 12 95 7 69 6 72 -14 72 -15 0 -23 8 -28 28 -3 15 -6 30 -7 33 -1 3 -26 -4 -54 -15z"/>
<path d="M240 890 c0 -15 7 -20 27 -20 25 0 26 0 8 20 -10 11 -22 20 -27 20 -4 0 -8 -9 -8 -20z"/>
<path d="M330 890 l-25 -20 28 0 c20 0 27 5 27 20 0 24 1 24 -30 0z"/>
<path d="M290 835 c0 -8 5 -15 10 -15 6 0 10 7 10 15 0 8 -4 15 -10 15 -5 0 -10 -7 -10 -15z"/>
<path d="M285 778 c-13 -76 -11 -102 9 -106 29 -6 35 9 28 72 -8 67 -28 85 -37 34z"/>
<path d="M170 335 l0 -175 60 0 60 0 0 124 c0 73 4 127 10 131 6 4 10 -40 10 -124 l0 -131 60 0 60 0 0 175 0 175 -130 0 -130 0 0 -175z"/>
<path d="M70 110 c0 -7 147 -10 420 -10 273 0 420 3 420 10 0 7 -147 10 -420 10 -273 0 -420 -3 -420 -10z"/>
<path d="M35 60 c4 -6 63 -10 146 -10 86 0 139 4 139 10 0 6 -55 10 -146 10 -94 0 -143 -4 -139 -10z"/>
<path d="M560 60 c0 -6 103 -10 290 -10 187 0 290 4 290 10 0 6 -103 10 -290 10 -187 0 -290 -4 -290 -10z"/>
<path d="M1190 60 c0 -5 18 -10 40 -10 22 0 40 5 40 10 0 6 -18 10 -40 10 -22 0 -40 -4 -40 -10z"/>
</g>
</svg>