<svg xmlns="http://www.w3.org/2000/svg" version="1.0" preserveAspectRatio="xMidYMid meet" viewBox="16.98 9.05 114.02 116.39">

<g transform="translate(0.000000,134.000000) scale(0.100000,-0.100000)" fill="#000000" stroke="none">
<path d="M692 1238 c-17 -17 -15 -63 3 -78 13 -11 15 -58 15 -310 l0 -297 -77 -7 c-330 -30 -526 -158 -445 -291 98 -161 610 -224 927 -115 119 41 195 110 195 177 0 68 -90 143 -220 184 -75 23 -233 49 -302 49 l-48 0 0 115 0 115 229 0 c127 0 232 4 235 9 3 5 -23 44 -59 87 l-64 77 64 77 c36 43 62 80 58 84 -3 3 -109 6 -235 6 -242 0 -255 3 -208 45 25 23 26 47 2 68 -22 20 -53 22 -70 5z m171 -805 c22 -14 -5 -18 -115 -18 -181 0 -293 -41 -286 -104 2 -20 15 -32 58 -54 30 -15 57 -32 58 -37 10 -29 -91 12 -128 52 -62 67 31 146 200 169 52 7 197 2 213 -8z m162 -68 c32 -31 31 -56 0 -94 -34 -40 -122 -72 -217 -78 -108 -8 -101 11 8 25 164 22 245 83 181 138 -15 13 -27 26 -27 29 0 14 34 2 55 -20z"/>
<path d="M199 1171 c-60 -61 -21 -151 66 -151 38 0 85 50 85 90 0 22 -9 41 -29 61 -40 39 -82 39 -122 0z"/>
<path d="M520 1105 c0 -22 -4 -25 -40 -25 -36 0 -40 -2 -40 -25 0 -22 4 -25 40 -25 36 0 40 -2 40 -25 0 -22 -4 -25 -40 -25 -36 0 -40 -2 -40 -25 0 -22 4 -25 40 -25 36 0 40 -2 40 -25 0 -23 4 -25 41 -25 36 0 40 2 37 23 -2 18 -10 23 -40 25 -33 3 -38 7 -38 28 0 21 4 24 40 24 36 0 40 3 40 25 0 23 -4 25 -40 25 -36 0 -40 3 -40 24 0 21 5 25 38 28 30 2 38 7 40 26 3 20 -1 22 -37 22 -37 0 -41 -2 -41 -25z"/>
<path d="M440 845 c0 -22 4 -25 40 -25 36 0 40 -2 40 -25 0 -22 -4 -25 -40 -25 -36 0 -40 -2 -40 -25 0 -22 4 -25 40 -25 36 0 40 -2 40 -25 0 -22 -4 -25 -40 -25 -36 0 -40 -2 -40 -25 0 -22 4 -25 40 -25 36 0 40 3 40 25 0 23 4 25 40 25 36 0 40 3 40 25 0 23 -4 25 -40 25 -36 0 -40 3 -40 25 0 23 4 25 40 25 36 0 40 3 40 25 0 23 -4 25 -40 25 -36 0 -40 3 -40 25 0 23 -4 25 -40 25 -36 0 -40 -2 -40 -25z"/>
<path d="M272 664 c-46 -32 -18 -114 39 -114 29 0 62 34 62 65 0 31 -33 65 -62 65 -9 0 -27 -7 -39 -16z"/>
<path d="M1202 657 c-28 -30 -28 -58 1 -85 29 -27 61 -28 87 -2 39 39 11 110 -43 110 -13 0 -33 -10 -45 -23z"/>
</g>
</svg>