<svg xmlns="http://www.w3.org/2000/svg" version="1.0" preserveAspectRatio="xMidYMid meet" viewBox="14.34 8.25 102.25 102.59">

<g transform="translate(0.000000,122.000000) scale(0.100000,-0.100000)" fill="#000000" stroke="none">
<path d="M560 1125 c-104 -47 -167 -172 -140 -276 13 -48 54 -119 70 -119 6 0 10 26 10 58 l0 57 56 24 55 24 24 -23 23 -22 16 25 16 24 48 -23 c26 -13 53 -24 60 -24 8 0 12 -19 12 -62 l0 -61 25 23 c64 60 74 204 19 282 -16 23 -49 56 -72 73 -37 25 -54 30 -115 32 -49 2 -83 -2 -107 -12z m140 -55 c26 -14 41 -63 30 -101 -12 -42 -48 -79 -75 -79 -52 0 -98 96 -71 149 9 16 21 31 28 34 22 9 68 7 88 -3z"/>
<path d="M619 1050 c-21 -17 -22 -19 -6 -20 23 0 57 18 57 30 0 16 -26 11 -51 -10z"/>
<path d="M680 1040 c0 -5 7 -10 16 -10 8 0 12 5 9 10 -3 6 -10 10 -16 10 -5 0 -9 -4 -9 -10z"/>
<path d="M590 995 c0 -36 37 -85 65 -85 18 0 31 10 45 33 29 47 26 65 -12 71 -62 10 -98 3 -98 -19z"/>
<path d="M348 945 c-94 -74 -153 -186 -172 -327 l-5 -37 52 39 c109 83 239 77 335 -14 132 -123 96 -335 -70 -415 l-62 -29 37 -16 c61 -25 154 -39 221 -33 62 6 176 42 176 56 0 4 -16 13 -36 20 -20 7 -56 33 -80 56 -120 120 -85 327 68 406 79 41 191 33 260 -17 32 -24 33 -25 36 -4 5 30 -26 128 -56 180 -27 47 -105 136 -133 150 -14 8 -15 3 -11 -39 14 -144 -105 -271 -252 -271 -153 0 -263 117 -254 269 1 34 0 61 -3 61 -3 0 -26 -16 -51 -35z"/>
<path d="M610 864 c0 -5 7 -19 15 -30 8 -10 15 -14 15 -8 0 5 -7 19 -15 30 -8 10 -15 14 -15 8z"/>
<path d="M680 855 c-7 -9 -10 -18 -7 -21 3 -3 10 4 17 15 13 25 8 27 -10 6z"/>
<path d="M543 845 c-32 -14 -33 -16 -33 -73 0 -53 11 -82 32 -82 4 0 9 28 11 63 l3 62 2 -67 2 -67 42 -11 c26 -8 58 -9 87 -3 l46 8 3 63 c4 76 22 83 22 7 0 -44 3 -53 15 -49 11 5 15 23 15 74 0 67 0 68 -31 79 -43 15 -42 15 -63 -20 -14 -23 -21 -27 -31 -19 -9 8 -15 8 -20 0 -10 -16 -19 -12 -37 20 -19 34 -21 34 -65 15z"/>
<path d="M290 644 c-104 -45 -168 -170 -140 -274 13 -49 54 -120 70 -120 6 0 10 27 10 60 0 34 4 60 10 60 6 0 31 10 57 22 l46 22 19 -25 20 -24 19 24 19 23 58 -24 57 -25 5 -57 5 -58 22 24 c76 81 66 247 -18 325 -63 58 -183 80 -259 47z m150 -64 c30 -30 27 -100 -6 -139 -42 -51 -91 -38 -118 30 -20 50 -14 93 17 114 31 21 83 19 107 -5z"/>
<path d="M349 570 l-24 -19 26 -1 c24 0 49 16 49 32 0 15 -27 8 -51 -12z"/>
<path d="M410 560 c0 -5 7 -10 16 -10 8 0 12 5 9 10 -3 6 -10 10 -16 10 -5 0 -9 -4 -9 -10z"/>
<path d="M346 533 c-26 -4 -28 -7 -22 -36 3 -18 18 -42 32 -55 24 -21 28 -22 48 -9 19 13 54 83 45 91 -8 8 -74 14 -103 9z"/>
<path d="M825 636 c-60 -28 -87 -56 -114 -116 -37 -81 -23 -190 32 -248 l22 -24 5 58 5 57 57 25 58 24 19 -23 19 -24 20 24 19 25 46 -22 c26 -12 51 -22 57 -22 6 0 10 -29 10 -67 l1 -68 30 35 c60 70 72 176 30 258 -61 118 -197 164 -316 108z m162 -62 c22 -22 25 -32 20 -66 -8 -59 -36 -93 -78 -93 -66 0 -105 111 -57 162 30 32 81 31 115 -3z"/>
<path d="M889 570 c-24 -19 -24 -19 -2 -20 31 0 53 10 53 26 0 20 -24 17 -51 -6z"/>
<path d="M955 560 c-3 -5 1 -10 9 -10 9 0 16 5 16 10 0 6 -4 10 -9 10 -6 0 -13 -4 -16 -10z"/>
<path d="M887 533 c-24 -4 -26 -8 -21 -31 14 -57 46 -88 79 -76 19 8 45 55 45 82 0 28 -32 36 -103 25z"/>
<path d="M340 384 c0 -6 7 -19 15 -30 8 -10 14 -14 14 -9 0 6 -6 19 -14 29 -8 11 -15 15 -15 10z"/>
<path d="M410 375 c-7 -9 -10 -18 -7 -21 3 -3 10 4 17 15 13 25 8 27 -10 6z"/>
<path d="M891 366 c7 -15 15 -23 17 -16 3 7 -3 19 -13 28 -15 16 -16 15 -4 -12z"/>
<path d="M952 370 c-18 -29 -15 -38 4 -12 9 13 14 25 12 27 -2 2 -9 -5 -16 -15z"/>
<path d="M273 364 c-32 -14 -33 -16 -33 -72 0 -53 11 -82 32 -82 4 0 9 26 11 58 l3 57 2 -62 2 -62 40 -12 c28 -9 55 -9 88 -3 l47 9 3 63 c4 76 22 83 22 7 0 -44 3 -53 15 -49 11 5 15 23 15 73 l0 67 -36 13 c-19 7 -37 11 -38 9 -1 -1 -10 -14 -19 -27 -10 -15 -27 -25 -47 -26 -25 -2 -33 3 -46 26 -16 33 -17 33 -61 13z"/>
<path d="M823 368 c-33 -11 -33 -11 -33 -78 0 -51 4 -69 15 -74 12 -4 15 5 15 49 0 76 18 69 22 -7 l3 -63 45 -9 c29 -5 60 -4 88 3 l42 12 2 62 2 62 3 -57 c2 -32 7 -58 11 -58 21 0 32 30 32 83 0 57 -1 58 -36 73 -39 16 -58 9 -69 -26 -9 -28 -66 -19 -85 14 -8 14 -17 26 -20 25 -3 -1 -20 -6 -37 -11z"/>
</g>
</svg>