<svg width="15" height="28" viewBox="0 0 15 28" fill="none" xmlns="http://www.w3.org/2000/svg">
<g opacity="0.65">
<path d="M3.11505 8.25177H10.8474C10.6151 9.96372 9.18806 11.299 7.4624 11.299C7.29647 11.299 7.13054 11.6414 6.9978 11.6414C6.86505 11.6414 6.73231 11.299 6.53319 11.299C4.77434 11.299 3.34735 9.96372 3.11505 8.25177ZM5.80311 23.0088L4.177 24.1387H9.78541L8.1593 23.0088C7.42921 22.5294 6.53319 22.5294 5.80311 23.0088Z" fill="#CECECE" stroke="#CECECE" stroke-width="2"/>
<path d="M6.50001 14.7229V14.0724C6.50001 13.7985 6.69913 13.593 6.96462 13.593C7.2301 13.593 7.42922 13.7985 7.42922 14.0724V14.7229C7.42922 14.9968 7.2301 15.2023 6.96462 15.2023C6.69913 15.2023 6.50001 14.9968 6.50001 14.7229ZM6.50001 17.017C6.50001 17.2909 6.69913 17.4963 6.96462 17.4963C7.2301 17.4963 7.42922 17.2909 7.42922 17.017V16.3664C7.42922 16.0925 7.2301 15.8871 6.96462 15.8871C6.69913 15.8871 6.50001 16.0925 6.50001 16.3664V17.017ZM6.50001 19.3452C6.50001 19.6191 6.69913 19.8246 6.96462 19.8246C7.2301 19.8246 7.42922 19.6191 7.42922 19.3452V18.6947C7.42922 18.4207 7.2301 18.2153 6.96462 18.2153C6.69913 18.2153 6.50001 18.4207 6.50001 18.6947V19.3452ZM11.8429 7.77241C11.8429 10.1691 10.0177 12.155 7.72789 12.292C7.2301 13.2507 6.7655 13.2164 6.26771 12.292C3.97789 12.155 2.11948 10.1691 2.11948 7.77241C2.11948 7.4985 2.3186 7.29307 2.58409 7.29307H11.3451C11.6438 7.25883 11.8429 7.4985 11.8429 7.77241ZM10.8474 8.25176H3.11506C3.34736 9.96371 4.77435 11.299 6.50001 11.299C6.69913 11.299 6.83187 11.6414 6.96462 11.6414C7.09736 11.6414 7.26329 11.299 7.42922 11.299C9.18807 11.299 10.6151 9.96371 10.8474 8.25176ZM11.8098 24.7892C11.7434 24.9946 11.5774 25.1316 11.3451 25.1316H2.58409C2.38497 25.1316 2.18586 24.9946 2.11948 24.7892C2.05311 24.5838 2.15267 24.3441 2.3186 24.2414L5.27214 22.2213C5.63718 21.9474 6.0686 21.8104 6.50001 21.7419V21.0229C6.50001 20.749 6.69913 20.5436 6.96462 20.5436C7.2301 20.5436 7.42922 20.749 7.42922 21.0229V21.7419C7.86063 21.8104 8.29205 21.9816 8.65709 22.2213L11.6106 24.2414C11.8098 24.3441 11.8761 24.5495 11.8098 24.7892ZM9.78541 24.1387L8.15931 23.0088C7.42922 22.5294 6.5332 22.5294 5.80311 23.0088L4.17701 24.1387H9.78541Z" fill="#CECECE" stroke="#CECECE" stroke-width="2"/>
<path d="M14 7.29307V0.582216C14 0.274065 13.7345 0.000152588 13.4358 0.000152588H0.559735C0.261062 0.000152588 -0.00442505 0.274065 -0.00442505 0.582216V7.32731C-0.00442505 10.1007 1.48894 12.5316 3.81195 13.73C1.52212 14.9284 -0.00442505 17.3593 -0.00442505 20.1327V26.8778C-0.00442505 27.1859 0.261062 27.4599 0.559735 27.4599H13.4358C13.7345 27.4599 14 27.1859 14 26.8778V20.0985C14 17.3251 12.5066 14.8941 10.1836 13.6958C12.5066 12.4974 14 10.0664 14 7.29307ZM8.42478 13.1479C8.19248 13.1822 7.99336 13.4219 7.99336 13.6958C7.99336 13.9697 8.15929 14.2094 8.42478 14.2436C11.0465 14.8941 12.8717 17.2909 12.8717 20.0642V26.2273H1.12389V20.0642C1.12389 17.2909 2.94912 14.8941 5.5708 14.2436C5.83628 14.1751 6.00221 13.9354 6.00221 13.6958C6.00221 13.4219 5.83628 13.1822 5.5708 13.1479C2.94912 12.4974 1.12389 10.1007 1.12389 7.32731V1.16428H12.9049V7.32731C12.8717 10.1007 11.0465 12.4974 8.42478 13.1479Z" fill="#CECECE" stroke="#CECECE" stroke-width="2"/>
</g>
</svg>
