<svg xmlns="http://www.w3.org/2000/svg" version="1.0" preserveAspectRatio="xMidYMid meet" viewBox="19 12 229 277">

<g transform="translate(0.000000,306.000000) scale(0.100000,-0.100000)" fill="#000000" stroke="none">
<path d="M190 2875 l0 -65 1145 0 1145 0 0 65 0 65 -1145 0 -1145 0 0 -65z"/>
<path d="M326 2658 c61 -334 87 -648 87 -1048 0 -404 -24 -716 -88 -1127 -14 -86 -25 -192 -25 -235 l0 -78 90 0 89 0 3 133 3 132 75 21 c195 56 237 59 775 59 538 0 580 -3 775 -59 l75 -21 3 -132 3 -133 89 0 90 0 0 78 c0 42 -7 115 -15 162 -26 147 -63 437 -82 640 -24 273 -24 854 0 1100 19 185 48 393 72 524 8 43 15 84 15 92 0 12 -157 14 -1028 14 l-1028 0 22 -122z m1844 -203 l0 -195 -835 0 -835 0 0 195 0 195 835 0 835 0 0 -195z m0 -535 l0 -190 -835 0 -835 0 0 190 0 190 835 0 835 0 0 -190z m0 -540 l0 -190 -835 0 -835 0 0 190 0 190 835 0 835 0 0 -190z m0 -540 l0 -190 -835 0 -835 0 0 190 0 190 835 0 835 0 0 -190z"/>
<path d="M975 2528 c-51 -29 -60 -89 -21 -134 30 -36 84 -38 119 -6 23 21 30 22 262 22 232 0 239 -1 262 -22 34 -31 90 -28 120 7 32 37 30 80 -6 116 -38 37 -82 39 -117 4 l-25 -25 -236 0 -235 0 -30 25 c-32 27 -61 31 -93 13z"/>
<path d="M961 1974 c-40 -33 -43 -89 -8 -122 31 -29 97 -30 122 -2 17 19 31 20 260 20 229 0 243 -1 260 -20 45 -50 145 -8 145 60 0 37 -47 90 -80 90 -26 0 -80 -27 -80 -40 0 -6 -91 -10 -241 -10 l-241 0 -30 25 c-38 32 -69 32 -107 -1z"/>
<path d="M975 1448 c-31 -18 -44 -40 -45 -76 0 -70 85 -107 143 -62 24 19 40 20 265 20 226 0 240 -1 257 -20 45 -50 145 -8 145 60 0 37 -47 90 -80 90 -26 0 -80 -27 -80 -40 0 -6 -91 -10 -241 -10 l-241 0 -30 25 c-32 27 -61 31 -93 13z"/>
<path d="M975 908 c-50 -29 -60 -89 -22 -133 28 -33 77 -36 117 -7 28 21 39 22 268 22 208 0 241 -2 253 -16 23 -28 57 -35 94 -20 62 26 74 89 26 137 -16 16 -39 29 -51 29 -26 0 -80 -27 -80 -40 0 -6 -91 -10 -241 -10 l-241 0 -30 25 c-32 27 -61 31 -93 13z"/>
</g>
</svg>