<svg xmlns="http://www.w3.org/2000/svg" version="1.0" preserveAspectRatio="xMidYMid meet" viewBox="12.25 12.1 122.05 119.9">

<g transform="translate(0.000000,139.000000) scale(0.100000,-0.100000)" fill="#000000" stroke="none">
<path d="M127 1264 c-18 -18 16 -24 144 -24 l139 0 0 -249 0 -248 59 -32 c32 -17 62 -31 65 -31 3 0 6 126 6 280 0 242 2 280 15 280 13 0 15 -39 15 -292 l0 -293 75 -38 75 -39 0 -83 0 -82 -45 -18 c-27 -10 -56 -31 -73 -53 -23 -30 -27 -45 -27 -101 0 -54 5 -72 24 -100 27 -37 91 -71 136 -71 45 0 109 34 136 71 19 28 24 46 24 100 0 56 -4 71 -27 101 -17 22 -46 43 -73 53 l-45 18 0 82 0 81 75 40 75 39 0 293 c0 253 2 292 15 292 13 0 15 -38 15 -280 0 -154 2 -280 5 -280 3 0 32 14 65 30 l60 30 0 250 0 249 142 3 c89 2 142 7 141 13 -3 11 -1205 20 -1216 9z m629 -946 c8 -29 14 -33 47 -36 44 -4 46 -13 10 -40 -24 -17 -25 -22 -15 -50 14 -40 0 -49 -36 -23 -27 19 -28 19 -52 0 -36 -27 -43 -24 -36 21 5 35 3 41 -19 56 -35 23 -31 32 12 36 33 3 39 7 47 36 5 17 14 32 21 32 7 0 16 -15 21 -32z"/>
<path d="M727 276 c-4 -9 -13 -16 -21 -16 -11 0 -12 -5 -3 -24 7 -13 20 -23 32 -23 12 0 25 10 32 23 9 19 8 24 -2 24 -8 0 -18 7 -23 16 -8 15 -10 15 -15 0z"/>
</g>
</svg>