<svg width="28" height="28" viewBox="0 0 28 28" fill="none" xmlns="http://www.w3.org/2000/svg">
<path d="M11.7649 20.7058C13.7487 20.7054 15.6753 20.0413 17.238 18.8193L21.361 22.9423C21.7974 23.3787 22.505 23.3787 22.9414 22.9423C23.3778 22.5058 23.3778 21.7983 22.9414 21.3619L18.8184 17.2389C20.0411 15.6761 20.7056 13.749 20.7061 11.7647C20.7061 6.83472 16.6948 2.82349 11.7649 2.82349C6.83497 2.82349 2.82373 6.83472 2.82373 11.7647C2.82373 16.6946 6.83497 20.7058 11.7649 20.7058ZM11.7649 5.05878C15.4632 5.05878 18.4708 8.06637 18.4708 11.7647C18.4708 15.463 15.4632 18.4705 11.7649 18.4705C8.06661 18.4705 5.05902 15.463 5.05902 11.7647C5.05902 8.06637 8.06661 5.05878 11.7649 5.05878Z" fill="white"/>
<path d="M13.343 10.1842C13.4959 10.3375 13.624 10.5085 13.7253 10.6924C14.0234 11.2336 14.501 11.7645 15.1188 11.7645C15.7358 11.7645 16.2502 11.2572 16.0978 10.6593C16.0453 10.453 15.9778 10.2503 15.8958 10.0529C15.6706 9.51034 15.3401 9.01784 14.9234 8.60384C13.4989 7.18123 11.1944 6.95623 9.49224 7.92883C8.95652 8.23493 8.95937 8.95776 9.39504 9.39466C9.83107 9.83193 10.5479 9.79904 11.1433 9.63519C11.9037 9.42591 12.7672 9.60986 13.343 10.1842Z" fill="white"/>
</svg>
